  0
SECTION
  2
HEADER
  9
$CLAYER
  8
1
  0
ENDSEC
  0
SECTION
  2
TABLES
  0
TABLE
  2
LTYPE
 70
1
  0
LTYPE
  2
CONTINUOUS
 70
64
  3
SOLIDLINE
 72
65
 73
0
 40
0.0000
  0
ENDTAB
  0
TABLE
  2
LAYER
  2
1
 70
5
  0
LAYER
  2
1
 70
0
 62
7
  6
CONTINUOUS
  0
LAYER
  2
2
 70
0
 62
7
  6
CONTINUOUS
  0
LAYER
  2
3
 70
0
 62
2
  6
CONTINUOUS
  0
LAYER
  2
4
 70
0
 62
3
  6
CONTINUOUS
  0
LAYER
  2
5
 70
0
 62
5
  6
CONTINUOUS
  0
LAYER
  2
6
 70
0
 62
5
  6
CONTINUOUS
  0
LAYER
  2
7
 70
0
 62
5
  6
CONTINUOUS
  0
LAYER
  2
8
 70
0
 62
4
  6
CONTINUOUS
  0
LAYER
  2
9
 70
0
 62
4
  6
CONTINUOUS
  0
LAYER
  2
10
 70
0
 62
4
  6
CONTINUOUS
  0
LAYER
  2
11
 70
0
 62
4
  6
CONTINUOUS
  0
LAYER
  2
12
 70
0
 62
6
  6
CONTINUOUS
  0
LAYER
  2
13
 70
0
 62
7
  6
CONTINUOUS
  0
LAYER
  2
14
 70
0
 62
7
  6
CONTINUOUS
  0
ENDTAB
  0
TABLE
  2
STYLE
 70
1
  0
STYLE
  2
STANDARD
 70
0
 40
0.0000
 41
1.0000
 50
0.0000
 71
0
 42
0.4000
  3
txt
  4
 
  0
ENDTAB
  0
ENDSEC
  0
SECTION
  2
BLOCKS
  0
BLOCK
  8
0
  2
BLK_1_1
 70
64
 10
0.0000
 20
0.0000
  0
TEXT
  8
1
 10
379.8925
 20
470.0385
 40
2.8000
 50
0.0000
  1
PIECE NAME: 앞판
  7
STANDARD
  0
TEXT
  8
1
 10
379.8925
 20
467.2385
 40
2.8000
 50
0.0000
  1
SIZE: L
  7
STANDARD
  0
TEXT
  8
1
 10
379.8925
 20
464.4385
 40
2.8000
 50
0.0000
  1
CATEGORY: 겉감
  7
STANDARD
  0
TEXT
  8
1
 10
379.8925
 20
461.6385
 40
2.8000
 50
0.0000
  1
QUANTITY: 1
  7
STANDARD
  0
TEXT
  8
1
 10
379.8925
 20
458.8385
 40
2.8000
 50
0.0000
  1
ANNOTATION: 
  7
STANDARD
  0
TEXT
  8
1
 10
366.1670
 20
438.3979
 40
5.1000
 50
0.0000
  1
ANNOTATION: <L>
  7
STANDARD
  0
TEXT
  8
1
 10
335.5664
 20
450.6379
 40
5.1000
 50
0.0000
  1
ANNOTATION: S/#NOS725SSWT01
  7
STANDARD
  0
TEXT
  8
1
 10
361.0669
 20
444.5180
 40
5.1000
 50
0.0000
  1
ANNOTATION: FRONT
  7
STANDARD
  0
TEXT
  8
1
 10
692.0752
 20
255.8476
 40
10.2000
 50
0.0000
  1
ANNOTATION: 바택배색
  7
STANDARD
  0
TEXT
  8
1
 10
690.4126
 20
193.3856
 40
10.2000
 50
0.0000
  1
ANNOTATION: 바택배색
  7
STANDARD
  0
TEXT
  8
1
 10
97.9785
 20
255.8476
 40
10.2000
 50
360.0000
  1
ANNOTATION: 바택배색
  7
STANDARD
  0
TEXT
  8
1
 10
99.6411
 20
193.3856
 40
10.2000
 50
360.0000
  1
ANNOTATION: 바택배색
  7
STANDARD
  0
POLYLINE
  8
1
 66
1
 70
1
  0
VERTEX
  8
1
 10
66.4038
 20
30.0042
  0
VERTEX
  8
1
 10
68.3520
 20
67.6933
  0
VERTEX
  8
1
 10
66.9824
 20
120.1315
  0
VERTEX
  8
1
 10
64.6777
 20
172.9469
  0
VERTEX
  8
1
 10
61.4209
 20
226.2841
  0
VERTEX
  8
1
 10
57.2265
 20
279.5555
  0
VERTEX
  8
1
 10
54.2428
 20
311.5258
  0
VERTEX
  8
1
 10
52.0996
 20
332.6029
  0
VERTEX
  8
1
 10
46.0180
 20
385.5485
  0
VERTEX
  8
1
 10
38.9819
 20
438.2003
  0
VERTEX
  8
1
 10
30.0024
 20
496.8546
  0
VERTEX
  8
1
 10
34.4116
 20
501.1733
  0
VERTEX
  8
1
 10
42.6147
 20
509.9313
  0
VERTEX
  8
1
 10
49.6460
 20
519.4539
  0
VERTEX
  8
1
 10
55.5517
 20
529.8641
  0
VERTEX
  8
1
 10
60.3320
 20
540.8659
  0
VERTEX
  8
1
 10
64.1162
 20
552.6022
  0
VERTEX
  8
1
 10
66.9922
 20
564.6264
  0
VERTEX
  8
1
 10
69.2675
 20
577.1558
  0
VERTEX
  8
1
 10
70.9423
 20
589.7922
  0
VERTEX
  8
1
 10
72.1386
 20
602.2530
  0
VERTEX
  8
1
 10
72.9419
 20
614.7509
  0
VERTEX
  8
1
 10
73.5205
 20
628.0157
  0
VERTEX
  8
1
 10
73.7817
 20
640.9569
  0
VERTEX
  8
1
 10
73.4179
 20
649.9928
  0
VERTEX
  8
1
 10
72.7514
 20
659.1198
  0
VERTEX
  8
1
 10
71.4502
 20
673.0117
  0
VERTEX
  8
1
 10
69.6826
 20
686.8458
  0
VERTEX
  8
1
 10
65.8789
 20
710.0973
  0
VERTEX
  8
1
 10
61.2671
 20
733.1928
  0
VERTEX
  8
1
 10
57.0459
 20
750.7354
  0
VERTEX
  8
1
 10
48.8061
 20
779.6977
  0
VERTEX
  8
1
 10
45.2295
 20
791.3770
  0
VERTEX
  8
1
 10
322.0483
 20
870.7707
  0
VERTEX
  8
1
 10
323.3227
 20
856.2861
  0
VERTEX
  8
1
 10
324.7754
 20
843.6724
  0
VERTEX
  8
1
 10
327.0263
 20
831.0211
  0
VERTEX
  8
1
 10
329.8632
 20
818.6436
  0
VERTEX
  8
1
 10
331.5966
 20
812.6043
  0
VERTEX
  8
1
 10
333.5864
 20
806.6474
  0
VERTEX
  8
1
 10
335.7666
 20
801.0423
  0
VERTEX
  8
1
 10
338.2422
 20
795.5642
  0
VERTEX
  8
1
 10
340.9912
 20
790.2868
  0
VERTEX
  8
1
 10
344.0771
 20
785.2042
  0
VERTEX
  8
1
 10
347.4463
 20
780.4864
  0
VERTEX
  8
1
 10
351.1670
 20
776.0418
  0
VERTEX
  8
1
 10
355.1587
 20
771.9741
  0
VERTEX
  8
1
 10
359.4726
 20
768.2551
  0
VERTEX
  8
1
 10
364.0429
 20
764.9572
  0
VERTEX
  8
1
 10
368.8891
 20
762.0860
  0
VERTEX
  8
1
 10
374.0625
 20
759.6725
  0
VERTEX
  8
1
 10
379.4238
 20
757.6873
  0
VERTEX
  8
1
 10
385.2246
 20
755.9750
  0
VERTEX
  8
1
 10
391.1206
 20
754.6204
  0
VERTEX
  8
1
 10
397.0410
 20
753.5696
  0
VERTEX
  8
1
 10
403.0078
 20
752.8683
  0
VERTEX
  8
1
 10
409.0136
 20
752.5478
  0
VERTEX
  8
1
 10
415.4297
 20
752.6122
  0
VERTEX
  8
1
 10
421.8359
 20
752.5465
  0
VERTEX
  8
1
 10
427.8344
 20
752.8671
  0
VERTEX
  8
1
 10
433.8281
 20
753.5734
  0
VERTEX
  8
1
 10
439.7729
 20
754.6285
  0
VERTEX
  8
1
 10
445.6103
 20
755.9658
  0
VERTEX
  8
1
 10
451.3501
 20
757.6598
  0
VERTEX
  8
1
 10
456.7651
 20
759.6639
  0
VERTEX
  8
1
 10
461.9873
 20
762.0974
  0
VERTEX
  8
1
 10
466.8213
 20
764.9609
  0
VERTEX
  8
1
 10
471.3794
 20
768.2523
  0
VERTEX
  8
1
 10
475.6836
 20
771.9628
  0
VERTEX
  8
1
 10
479.6679
 20
776.0224
  0
VERTEX
  8
1
 10
483.4130
 20
780.5032
  0
VERTEX
  8
1
 10
486.8090
 20
785.2589
  0
VERTEX
  8
1
 10
489.8877
 20
790.3368
  0
VERTEX
  8
1
 10
492.6318
 20
795.6091
  0
VERTEX
  8
1
 10
495.0879
 20
801.0415
  0
VERTEX
  8
1
 10
497.2509
 20
806.6004
  0
VERTEX
  8
1
 10
499.2480
 20
812.5680
  0
VERTEX
  8
1
 10
500.9863
 20
818.6176
  0
VERTEX
  8
1
 10
503.8305
 20
831.0217
  0
VERTEX
  8
1
 10
506.0278
 20
843.3196
  0
VERTEX
  8
1
 10
507.5317
 20
856.2861
  0
VERTEX
  8
1
 10
508.8354
 20
870.7621
  0
VERTEX
  8
1
 10
785.6274
 20
791.3761
  0
VERTEX
  8
1
 10
782.0483
 20
779.6974
  0
VERTEX
  8
1
 10
775.3222
 20
756.4968
  0
VERTEX
  8
1
 10
769.5605
 20
733.0798
  0
VERTEX
  8
1
 10
764.9170
 20
709.7689
  0
VERTEX
  8
1
 10
761.0913
 20
686.3010
  0
VERTEX
  8
1
 10
759.3652
 20
672.7161
  0
VERTEX
  8
1
 10
758.1005
 20
659.0743
  0
VERTEX
  8
1
 10
757.4365
 20
649.9696
  0
VERTEX
  8
1
 10
757.0678
 20
641.0482
  0
VERTEX
  8
1
 10
757.3120
 20
628.4292
  0
VERTEX
  8
1
 10
757.8686
 20
615.5776
  0
VERTEX
  8
1
 10
758.6938
 20
602.6206
  0
VERTEX
  8
1
 10
759.9243
 20
589.7018
  0
VERTEX
  8
1
 10
761.6333
 20
576.8942
  0
VERTEX
  8
1
 10
763.9526
 20
564.1955
  0
VERTEX
  8
1
 10
766.7871
 20
552.3974
  0
VERTEX
  8
1
 10
770.5151
 20
540.8846
  0
VERTEX
  8
1
 10
775.2978
 20
529.8823
  0
VERTEX
  8
1
 10
781.1987
 20
519.4681
  0
VERTEX
  8
1
 10
786.3720
 20
512.2394
  0
VERTEX
  8
1
 10
796.4453
 20
501.1679
  0
VERTEX
  8
1
 10
800.8471
 20
496.8582
  0
VERTEX
  8
1
 10
791.8310
 20
437.8685
  0
VERTEX
  8
1
 10
784.7534
 20
384.8871
  0
VERTEX
  8
1
 10
778.7280
 20
332.4073
  0
VERTEX
  8
1
 10
776.6076
 20
311.5259
  0
VERTEX
  8
1
 10
773.6523
 20
279.8262
  0
VERTEX
  8
1
 10
769.4629
 20
226.6948
  0
VERTEX
  8
1
 10
766.2060
 20
173.4979
  0
VERTEX
  8
1
 10
763.8842
 20
120.4070
  0
VERTEX
  8
1
 10
762.5048
 20
67.7061
  0
VERTEX
  8
1
 10
764.4506
 20
30.0042
  0
VERTEX
  8
1
 10
415.4272
 20
30.0000
  0
VERTEX
  8
1
 10
66.4038
 20
30.0042
  0
SEQEND
  0
POINT
  8
2
 10
66.4038
 20
30.0042
  0
POINT
  8
2
 10
68.3520
 20
67.6933
  0
POINT
  8
3
 10
66.9824
 20
120.1315
  0
POINT
  8
3
 10
64.6777
 20
172.9469
  0
POINT
  8
3
 10
61.4209
 20
226.2841
  0
POINT
  8
3
 10
57.2265
 20
279.5555
  0
POINT
  8
3
 10
54.2428
 20
311.5258
  0
POINT
  8
3
 10
52.0996
 20
332.6029
  0
POINT
  8
3
 10
46.0180
 20
385.5485
  0
POINT
  8
3
 10
38.9819
 20
438.2003
  0
POINT
  8
2
 10
30.0024
 20
496.8546
  0
POINT
  8
3
 10
34.4116
 20
501.1733
  0
POINT
  8
3
 10
42.6147
 20
509.9313
  0
POINT
  8
3
 10
49.6460
 20
519.4539
  0
POINT
  8
3
 10
55.5517
 20
529.8641
  0
POINT
  8
3
 10
60.3320
 20
540.8659
  0
POINT
  8
3
 10
64.1162
 20
552.6022
  0
POINT
  8
3
 10
66.9922
 20
564.6264
  0
POINT
  8
3
 10
69.2675
 20
577.1558
  0
POINT
  8
3
 10
70.9423
 20
589.7922
  0
POINT
  8
3
 10
72.1386
 20
602.2530
  0
POINT
  8
3
 10
72.9419
 20
614.7509
  0
POINT
  8
3
 10
73.5205
 20
628.0157
  0
POINT
  8
2
 10
73.7817
 20
640.9569
  0
POINT
  8
3
 10
73.4179
 20
649.9928
  0
POINT
  8
3
 10
72.7514
 20
659.1198
  0
POINT
  8
3
 10
71.4502
 20
673.0117
  0
POINT
  8
3
 10
69.6826
 20
686.8458
  0
POINT
  8
3
 10
65.8789
 20
710.0973
  0
POINT
  8
3
 10
61.2671
 20
733.1928
  0
POINT
  8
3
 10
57.0459
 20
750.7354
  0
POINT
  8
3
 10
48.8061
 20
779.6977
  0
POINT
  8
2
 10
45.2295
 20
791.3770
  0
POINT
  8
2
 10
322.0483
 20
870.7707
  0
POINT
  8
3
 10
323.3227
 20
856.2861
  0
POINT
  8
3
 10
324.7754
 20
843.6724
  0
POINT
  8
3
 10
327.0263
 20
831.0211
  0
POINT
  8
3
 10
329.8632
 20
818.6436
  0
POINT
  8
3
 10
331.5966
 20
812.6043
  0
POINT
  8
3
 10
333.5864
 20
806.6474
  0
POINT
  8
3
 10
335.7666
 20
801.0423
  0
POINT
  8
3
 10
338.2422
 20
795.5642
  0
POINT
  8
3
 10
340.9912
 20
790.2868
  0
POINT
  8
3
 10
344.0771
 20
785.2042
  0
POINT
  8
3
 10
347.4463
 20
780.4864
  0
POINT
  8
3
 10
351.1670
 20
776.0418
  0
POINT
  8
3
 10
355.1587
 20
771.9741
  0
POINT
  8
3
 10
359.4726
 20
768.2551
  0
POINT
  8
3
 10
364.0429
 20
764.9572
  0
POINT
  8
3
 10
368.8891
 20
762.0860
  0
POINT
  8
3
 10
374.0625
 20
759.6725
  0
POINT
  8
3
 10
379.4238
 20
757.6873
  0
POINT
  8
3
 10
385.2246
 20
755.9750
  0
POINT
  8
3
 10
391.1206
 20
754.6204
  0
POINT
  8
3
 10
397.0410
 20
753.5696
  0
POINT
  8
3
 10
403.0078
 20
752.8683
  0
POINT
  8
3
 10
409.0136
 20
752.5478
  0
POINT
  8
2
 10
415.4297
 20
752.6122
  0
POINT
  8
3
 10
421.8359
 20
752.5465
  0
POINT
  8
3
 10
427.8344
 20
752.8671
  0
POINT
  8
3
 10
433.8281
 20
753.5734
  0
POINT
  8
3
 10
439.7729
 20
754.6285
  0
POINT
  8
3
 10
445.6103
 20
755.9658
  0
POINT
  8
3
 10
451.3501
 20
757.6598
  0
POINT
  8
3
 10
456.7651
 20
759.6639
  0
POINT
  8
3
 10
461.9873
 20
762.0974
  0
POINT
  8
3
 10
466.8213
 20
764.9609
  0
POINT
  8
3
 10
471.3794
 20
768.2523
  0
POINT
  8
3
 10
475.6836
 20
771.9628
  0
POINT
  8
3
 10
479.6679
 20
776.0224
  0
POINT
  8
3
 10
483.4130
 20
780.5032
  0
POINT
  8
3
 10
486.8090
 20
785.2589
  0
POINT
  8
3
 10
489.8877
 20
790.3368
  0
POINT
  8
3
 10
492.6318
 20
795.6091
  0
POINT
  8
3
 10
495.0879
 20
801.0415
  0
POINT
  8
3
 10
497.2509
 20
806.6004
  0
POINT
  8
3
 10
499.2480
 20
812.5680
  0
POINT
  8
3
 10
500.9863
 20
818.6176
  0
POINT
  8
3
 10
503.8305
 20
831.0217
  0
POINT
  8
3
 10
506.0278
 20
843.3196
  0
POINT
  8
3
 10
507.5317
 20
856.2861
  0
POINT
  8
2
 10
508.8354
 20
870.7621
  0
POINT
  8
2
 10
785.6274
 20
791.3761
  0
POINT
  8
3
 10
782.0483
 20
779.6974
  0
POINT
  8
3
 10
775.3222
 20
756.4968
  0
POINT
  8
3
 10
769.5605
 20
733.0798
  0
POINT
  8
3
 10
764.9170
 20
709.7689
  0
POINT
  8
3
 10
761.0913
 20
686.3010
  0
POINT
  8
3
 10
759.3652
 20
672.7161
  0
POINT
  8
3
 10
758.1005
 20
659.0743
  0
POINT
  8
3
 10
757.4365
 20
649.9696
  0
POINT
  8
2
 10
757.0678
 20
641.0482
  0
POINT
  8
3
 10
757.3120
 20
628.4292
  0
POINT
  8
3
 10
757.8686
 20
615.5776
  0
POINT
  8
3
 10
758.6938
 20
602.6206
  0
POINT
  8
3
 10
759.9243
 20
589.7018
  0
POINT
  8
3
 10
761.6333
 20
576.8942
  0
POINT
  8
3
 10
763.9526
 20
564.1955
  0
POINT
  8
3
 10
766.7871
 20
552.3974
  0
POINT
  8
3
 10
770.5151
 20
540.8846
  0
POINT
  8
3
 10
775.2978
 20
529.8823
  0
POINT
  8
3
 10
781.1987
 20
519.4681
  0
POINT
  8
3
 10
786.3720
 20
512.2394
  0
POINT
  8
3
 10
796.4453
 20
501.1679
  0
POINT
  8
2
 10
800.8471
 20
496.8582
  0
POINT
  8
3
 10
791.8310
 20
437.8685
  0
POINT
  8
3
 10
784.7534
 20
384.8871
  0
POINT
  8
3
 10
778.7280
 20
332.4073
  0
POINT
  8
3
 10
776.6076
 20
311.5259
  0
POINT
  8
3
 10
773.6523
 20
279.8262
  0
POINT
  8
3
 10
769.4629
 20
226.6948
  0
POINT
  8
3
 10
766.2060
 20
173.4979
  0
POINT
  8
3
 10
763.8842
 20
120.4070
  0
POINT
  8
2
 10
762.5048
 20
67.7061
  0
POINT
  8
2
 10
764.4506
 20
30.0042
  0
POINT
  8
2
 10
415.4272
 20
30.0000
  0
POINT
  8
2
 10
66.4038
 20
30.0042
  0
POLYLINE
  8
14
 66
1
 70
1
  0
VERTEX
  8
14
 10
79.0405
 20
42.0036
  0
VERTEX
  8
14
 10
80.3564
 20
67.5021
  0
VERTEX
  8
14
 10
78.9575
 20
120.8828
  0
VERTEX
  8
14
 10
77.8403
 20
149.0723
  0
VERTEX
  8
14
 10
76.6259
 20
174.2146
  0
VERTEX
  8
14
 10
73.3667
 20
227.5060
  0
VERTEX
  8
14
 10
69.1699
 20
280.7316
  0
VERTEX
  8
14
 10
66.2555
 20
311.9987
  0
VERTEX
  8
14
 10
64.0332
 20
333.8748
  0
VERTEX
  8
14
 10
57.9394
 20
386.9163
  0
VERTEX
  8
14
 10
50.8691
 20
439.8279
  0
VERTEX
  8
14
 10
42.8271
 20
492.6183
  0
VERTEX
  8
14
 10
51.9262
 20
502.3697
  0
VERTEX
  8
14
 10
59.7387
 20
512.9611
  0
VERTEX
  8
14
 10
66.2597
 20
524.4618
  0
VERTEX
  8
14
 10
71.5527
 20
536.6095
  0
VERTEX
  8
14
 10
75.6225
 20
549.2001
  0
VERTEX
  8
14
 10
78.7231
 20
562.1013
  0
VERTEX
  8
14
 10
81.1010
 20
575.1281
  0
VERTEX
  8
14
 10
82.8442
 20
588.2683
  0
VERTEX
  8
14
 10
84.1064
 20
601.4581
  0
VERTEX
  8
14
 10
84.9536
 20
614.6865
  0
VERTEX
  8
14
 10
85.5297
 20
627.9214
  0
VERTEX
  8
14
 10
85.7812
 20
641.1743
  0
VERTEX
  8
14
 10
85.4004
 20
650.6403
  0
VERTEX
  8
14
 10
84.7119
 20
660.0805
  0
VERTEX
  8
14
 10
83.3911
 20
674.2263
  0
VERTEX
  8
14
 10
81.5966
 20
688.3131
  0
VERTEX
  8
14
 10
77.7075
 20
712.1194
  0
VERTEX
  8
14
 10
72.9882
 20
735.7661
  0
VERTEX
  8
14
 10
67.1240
 20
759.5976
  0
VERTEX
  8
14
 10
60.2832
 20
783.2101
  0
VERTEX
  8
14
 10
311.3696
 20
855.2235
  0
VERTEX
  8
14
 10
312.0385
 20
848.5314
  0
VERTEX
  8
14
 10
312.9126
 20
841.8691
  0
VERTEX
  8
14
 10
315.2661
 20
828.6341
  0
VERTEX
  8
14
 10
316.6674
 20
822.0580
  0
VERTEX
  8
14
 10
318.2739
 20
815.5315
  0
VERTEX
  8
14
 10
320.1269
 20
809.0685
  0
VERTEX
  8
14
 10
322.2558
 20
802.6942
  0
VERTEX
  8
14
 10
324.6923
 20
796.4285
  0
VERTEX
  8
14
 10
327.4560
 20
790.3043
  0
VERTEX
  8
14
 10
330.5664
 20
784.3429
  0
VERTEX
  8
14
 10
334.0576
 20
778.6024
  0
VERTEX
  8
14
 10
337.9638
 20
773.1336
  0
VERTEX
  8
14
 10
342.2754
 20
767.9813
  0
VERTEX
  8
14
 10
346.9873
 20
763.1858
  0
VERTEX
  8
14
 10
352.0800
 20
758.8018
  0
VERTEX
  8
14
 10
357.5341
 20
754.8791
  0
VERTEX
  8
14
 10
363.3130
 20
751.4593
  0
VERTEX
  8
14
 10
369.3994
 20
748.6202
  0
VERTEX
  8
14
 10
375.7055
 20
746.2768
  0
VERTEX
  8
14
 10
382.1460
 20
744.3693
  0
VERTEX
  8
14
 10
388.7011
 20
742.8666
  0
VERTEX
  8
14
 10
395.3198
 20
741.6940
  0
VERTEX
  8
14
 10
401.9946
 20
740.9106
  0
VERTEX
  8
14
 10
408.6938
 20
740.5512
  0
VERTEX
  8
14
 10
415.4272
 20
740.6060
  0
VERTEX
  8
14
 10
422.1606
 20
740.5512
  0
VERTEX
  8
14
 10
428.8598
 20
740.9106
  0
VERTEX
  8
14
 10
435.5346
 20
741.6940
  0
VERTEX
  8
14
 10
442.1533
 20
742.8666
  0
VERTEX
  8
14
 10
448.7085
 20
744.3693
  0
VERTEX
  8
14
 10
455.1489
 20
746.2768
  0
VERTEX
  8
14
 10
461.4550
 20
748.6202
  0
VERTEX
  8
14
 10
467.5415
 20
751.4593
  0
VERTEX
  8
14
 10
473.3203
 20
754.8789
  0
VERTEX
  8
14
 10
478.7744
 20
758.8018
  0
VERTEX
  8
14
 10
483.8672
 20
763.1858
  0
VERTEX
  8
14
 10
488.5766
 20
767.9813
  0
VERTEX
  8
14
 10
492.8857
 20
773.1338
  0
VERTEX
  8
14
 10
496.7944
 20
778.6024
  0
VERTEX
  8
14
 10
500.2832
 20
784.3429
  0
VERTEX
  8
14
 10
503.3960
 20
790.3043
  0
VERTEX
  8
14
 10
506.1621
 20
796.4285
  0
VERTEX
  8
14
 10
508.5986
 20
802.6942
  0
VERTEX
  8
14
 10
510.7275
 20
809.0685
  0
VERTEX
  8
14
 10
512.5805
 20
815.5315
  0
VERTEX
  8
14
 10
514.1870
 20
822.0580
  0
VERTEX
  8
14
 10
515.5883
 20
828.6341
  0
VERTEX
  8
14
 10
517.9419
 20
841.8691
  0
VERTEX
  8
14
 10
518.8159
 20
848.5314
  0
VERTEX
  8
14
 10
519.4848
 20
855.2235
  0
VERTEX
  8
14
 10
770.5737
 20
783.2098
  0
VERTEX
  8
14
 10
763.7304
 20
759.5976
  0
VERTEX
  8
14
 10
757.8662
 20
735.7661
  0
VERTEX
  8
14
 10
753.1469
 20
712.1194
  0
VERTEX
  8
14
 10
749.2578
 20
688.3131
  0
VERTEX
  8
14
 10
747.4633
 20
674.2263
  0
VERTEX
  8
14
 10
746.1425
 20
660.0805
  0
VERTEX
  8
14
 10
745.4516
 20
650.6402
  0
VERTEX
  8
14
 10
745.0683
 20
641.1741
  0
VERTEX
  8
14
 10
745.3247
 20
627.9215
  0
VERTEX
  8
14
 10
745.9008
 20
614.6865
  0
VERTEX
  8
14
 10
746.7505
 20
601.4581
  0
VERTEX
  8
14
 10
748.0102
 20
588.2683
  0
VERTEX
  8
14
 10
749.7534
 20
575.1281
  0
VERTEX
  8
14
 10
752.1313
 20
562.1013
  0
VERTEX
  8
14
 10
755.2319
 20
549.2001
  0
VERTEX
  8
14
 10
759.3017
 20
536.6095
  0
VERTEX
  8
14
 10
764.5947
 20
524.4619
  0
VERTEX
  8
14
 10
771.1157
 20
512.9611
  0
VERTEX
  8
14
 10
778.9282
 20
502.3699
  0
VERTEX
  8
14
 10
788.0249
 20
492.6189
  0
VERTEX
  8
14
 10
779.9829
 20
439.8278
  0
VERTEX
  8
14
 10
772.9150
 20
386.9163
  0
VERTEX
  8
14
 10
766.8213
 20
333.8747
  0
VERTEX
  8
14
 10
764.5989
 20
311.9987
  0
VERTEX
  8
14
 10
761.6845
 20
280.7316
  0
VERTEX
  8
14
 10
757.4878
 20
227.5060
  0
VERTEX
  8
14
 10
754.2285
 20
174.2146
  0
VERTEX
  8
14
 10
753.0141
 20
149.0723
  0
VERTEX
  8
14
 10
751.8969
 20
120.8828
  0
VERTEX
  8
14
 10
750.4980
 20
67.5021
  0
VERTEX
  8
14
 10
751.8139
 20
42.0036
  0
VERTEX
  8
14
 10
415.4272
 20
41.9995
  0
VERTEX
  8
14
 10
79.0405
 20
42.0036
  0
SEQEND
  0
POINT
  8
2
 10
79.0405
 20
42.0036
  0
POINT
  8
2
 10
80.3564
 20
67.5021
  0
POINT
  8
3
 10
78.9575
 20
120.8828
  0
POINT
  8
4
 10
77.8403
 20
149.0723
 38
5.0000
 50
2.2541
  0
POINT
  8
3
 10
77.8403
 20
149.0723
  0
POINT
  8
3
 10
76.6259
 20
174.2146
  0
POINT
  8
3
 10
73.3667
 20
227.5060
  0
POINT
  8
3
 10
69.1699
 20
280.7316
  0
POINT
  8
4
 10
66.2555
 20
311.9987
 38
5.0000
 50
2.2543
  0
POINT
  8
3
 10
66.2555
 20
311.9987
  0
POINT
  8
3
 10
64.0332
 20
333.8748
  0
POINT
  8
3
 10
57.9394
 20
386.9163
  0
POINT
  8
3
 10
50.8691
 20
439.8279
  0
POINT
  8
2
 10
42.8271
 20
492.6183
  0
POINT
  8
3
 10
51.9262
 20
502.3697
  0
POINT
  8
3
 10
59.7387
 20
512.9611
  0
POINT
  8
3
 10
66.2597
 20
524.4618
  0
POINT
  8
3
 10
71.5527
 20
536.6095
  0
POINT
  8
3
 10
75.6225
 20
549.2001
  0
POINT
  8
3
 10
78.7231
 20
562.1013
  0
POINT
  8
3
 10
81.1010
 20
575.1281
  0
POINT
  8
3
 10
82.8442
 20
588.2683
  0
POINT
  8
3
 10
84.1064
 20
601.4581
  0
POINT
  8
3
 10
84.9536
 20
614.6865
  0
POINT
  8
3
 10
85.5297
 20
627.9214
  0
POINT
  8
4
 10
85.7812
 20
641.1743
 38
5.0000
 50
355.7252
  0
POINT
  8
2
 10
85.7812
 20
641.1743
  0
POINT
  8
3
 10
85.4004
 20
650.6403
  0
POINT
  8
3
 10
84.7119
 20
660.0805
  0
POINT
  8
3
 10
83.3911
 20
674.2263
  0
POINT
  8
3
 10
81.5966
 20
688.3131
  0
POINT
  8
3
 10
77.7075
 20
712.1194
  0
POINT
  8
3
 10
72.9882
 20
735.7661
  0
POINT
  8
3
 10
67.1240
 20
759.5976
  0
POINT
  8
2
 10
60.2832
 20
783.2101
  0
POINT
  8
2
 10
311.3696
 20
855.2235
  0
POINT
  8
3
 10
312.0385
 20
848.5314
  0
POINT
  8
3
 10
312.9126
 20
841.8691
  0
POINT
  8
3
 10
315.2661
 20
828.6341
  0
POINT
  8
3
 10
316.6674
 20
822.0580
  0
POINT
  8
3
 10
318.2739
 20
815.5315
  0
POINT
  8
3
 10
320.1269
 20
809.0685
  0
POINT
  8
3
 10
322.2558
 20
802.6942
  0
POINT
  8
3
 10
324.6923
 20
796.4285
  0
POINT
  8
3
 10
327.4560
 20
790.3043
  0
POINT
  8
3
 10
330.5664
 20
784.3429
  0
POINT
  8
3
 10
334.0576
 20
778.6024
  0
POINT
  8
3
 10
337.9638
 20
773.1336
  0
POINT
  8
3
 10
342.2754
 20
767.9813
  0
POINT
  8
3
 10
346.9873
 20
763.1858
  0
POINT
  8
3
 10
352.0800
 20
758.8018
  0
POINT
  8
3
 10
357.5341
 20
754.8791
  0
POINT
  8
3
 10
363.3130
 20
751.4593
  0
POINT
  8
3
 10
369.3994
 20
748.6202
  0
POINT
  8
3
 10
375.7055
 20
746.2768
  0
POINT
  8
3
 10
382.1460
 20
744.3693
  0
POINT
  8
3
 10
388.7011
 20
742.8666
  0
POINT
  8
3
 10
395.3198
 20
741.6940
  0
POINT
  8
3
 10
401.9946
 20
740.9106
  0
POINT
  8
3
 10
408.6938
 20
740.5512
  0
POINT
  8
2
 10
415.4272
 20
740.6060
  0
POINT
  8
3
 10
422.1606
 20
740.5512
  0
POINT
  8
3
 10
428.8598
 20
740.9106
  0
POINT
  8
3
 10
435.5346
 20
741.6940
  0
POINT
  8
3
 10
442.1533
 20
742.8666
  0
POINT
  8
3
 10
448.7085
 20
744.3693
  0
POINT
  8
3
 10
455.1489
 20
746.2768
  0
POINT
  8
3
 10
461.4550
 20
748.6202
  0
POINT
  8
3
 10
467.5415
 20
751.4593
  0
POINT
  8
3
 10
473.3203
 20
754.8789
  0
POINT
  8
3
 10
478.7744
 20
758.8018
  0
POINT
  8
3
 10
483.8672
 20
763.1858
  0
POINT
  8
3
 10
488.5766
 20
767.9813
  0
POINT
  8
3
 10
492.8857
 20
773.1338
  0
POINT
  8
3
 10
496.7944
 20
778.6024
  0
POINT
  8
3
 10
500.2832
 20
784.3429
  0
POINT
  8
3
 10
503.3960
 20
790.3043
  0
POINT
  8
3
 10
506.1621
 20
796.4285
  0
POINT
  8
3
 10
508.5986
 20
802.6942
  0
POINT
  8
3
 10
510.7275
 20
809.0685
  0
POINT
  8
3
 10
512.5805
 20
815.5315
  0
POINT
  8
3
 10
514.1870
 20
822.0580
  0
POINT
  8
3
 10
515.5883
 20
828.6341
  0
POINT
  8
3
 10
517.9419
 20
841.8691
  0
POINT
  8
3
 10
518.8159
 20
848.5314
  0
POINT
  8
2
 10
519.4848
 20
855.2235
  0
POINT
  8
2
 10
770.5737
 20
783.2098
  0
POINT
  8
3
 10
763.7304
 20
759.5976
  0
POINT
  8
3
 10
757.8662
 20
735.7661
  0
POINT
  8
3
 10
753.1469
 20
712.1194
  0
POINT
  8
3
 10
749.2578
 20
688.3131
  0
POINT
  8
3
 10
747.4633
 20
674.2263
  0
POINT
  8
3
 10
746.1425
 20
660.0805
  0
POINT
  8
3
 10
745.4516
 20
650.6402
  0
POINT
  8
4
 10
745.0683
 20
641.1741
 38
5.0000
 50
184.2748
  0
POINT
  8
2
 10
745.0683
 20
641.1741
  0
POINT
  8
3
 10
745.3247
 20
627.9215
  0
POINT
  8
3
 10
745.9008
 20
614.6865
  0
POINT
  8
3
 10
746.7505
 20
601.4581
  0
POINT
  8
3
 10
748.0102
 20
588.2683
  0
POINT
  8
3
 10
749.7534
 20
575.1281
  0
POINT
  8
3
 10
752.1313
 20
562.1013
  0
POINT
  8
3
 10
755.2319
 20
549.2001
  0
POINT
  8
3
 10
759.3017
 20
536.6095
  0
POINT
  8
3
 10
764.5947
 20
524.4619
  0
POINT
  8
3
 10
771.1157
 20
512.9611
  0
POINT
  8
3
 10
778.9282
 20
502.3699
  0
POINT
  8
2
 10
788.0249
 20
492.6189
  0
POINT
  8
3
 10
779.9829
 20
439.8278
  0
POINT
  8
3
 10
772.9150
 20
386.9163
  0
POINT
  8
3
 10
766.8213
 20
333.8747
  0
POINT
  8
4
 10
764.5989
 20
311.9987
 38
5.0000
 50
177.7457
  0
POINT
  8
3
 10
764.5989
 20
311.9987
  0
POINT
  8
3
 10
761.6845
 20
280.7316
  0
POINT
  8
3
 10
757.4878
 20
227.5060
  0
POINT
  8
3
 10
754.2285
 20
174.2146
  0
POINT
  8
4
 10
753.0141
 20
149.0723
 38
5.0000
 50
177.7459
  0
POINT
  8
3
 10
753.0141
 20
149.0723
  0
POINT
  8
3
 10
751.8969
 20
120.8828
  0
POINT
  8
2
 10
750.4980
 20
67.5021
  0
POINT
  8
2
 10
751.8139
 20
42.0036
  0
POINT
  8
2
 10
415.4272
 20
41.9995
  0
POINT
  8
2
 10
79.0405
 20
42.0036
  0
LINE
  8
8
 10
415.4272
 20
67.4998
 11
415.4272
 21
740.6065
  0
POINT
  8
2
 10
415.4272
 20
67.4998
  0
POINT
  8
2
 10
415.4272
 20
740.6065
  0
LINE
  8
8
 10
760.8447
 20
307.8644
 11
714.7241
 21
253.3623
  0
POINT
  8
2
 10
760.8447
 20
307.8644
  0
POINT
  8
2
 10
714.7241
 20
253.3623
  0
LINE
  8
8
 10
760.8447
 20
307.8649
 11
737.2461
 21
294.6603
  0
POINT
  8
2
 10
760.8447
 20
307.8649
  0
POINT
  8
2
 10
737.2461
 20
294.6603
  0
LINE
  8
8
 10
753.0639
 20
151.5689
 11
713.0590
 21
206.0711
  0
POINT
  8
2
 10
753.0639
 20
151.5689
  0
POINT
  8
2
 10
713.0590
 20
206.0711
  0
LINE
  8
8
 10
544.6972
 20
67.5014
 11
544.6972
 21
322.1502
  0
POINT
  8
2
 10
544.6972
 20
67.5014
  0
POINT
  8
2
 10
544.6972
 20
322.1502
  0
LINE
  8
8
 10
766.6772
 20
322.1502
 11
544.6972
 21
322.1507
  0
POINT
  8
2
 10
766.6772
 20
322.1502
  0
POINT
  8
2
 10
544.6972
 20
322.1507
  0
LINE
  8
8
 10
751.8139
 20
93.0004
 11
415.4272
 21
93.0008
  0
POINT
  8
2
 10
751.8139
 20
93.0004
  0
POINT
  8
2
 10
415.4272
 20
93.0008
  0
POLYLINE
  8
8
 66
1
 70
0
  0
VERTEX
  8
8
 10
562.8808
 20
67.5015
  0
VERTEX
  8
8
 10
561.5136
 20
62.4014
  0
VERTEX
  8
8
 10
557.7807
 20
58.6678
  0
VERTEX
  8
8
 10
552.6806
 20
57.3014
  0
VERTEX
  8
8
 10
547.5805
 20
58.6678
  0
VERTEX
  8
8
 10
543.8476
 20
62.4014
  0
VERTEX
  8
8
 10
542.4804
 20
67.5015
  0
SEQEND
  0
POINT
  8
2
 10
562.8808
 20
67.5015
  0
POINT
  8
3
 10
561.5136
 20
62.4014
  0
POINT
  8
3
 10
557.7807
 20
58.6678
  0
POINT
  8
3
 10
552.6806
 20
57.3014
  0
POINT
  8
3
 10
547.5805
 20
58.6678
  0
POINT
  8
3
 10
543.8476
 20
62.4014
  0
POINT
  8
2
 10
542.4804
 20
67.5015
  0
POLYLINE
  8
8
 66
1
 70
0
  0
VERTEX
  8
8
 10
557.7807
 20
67.5015
  0
VERTEX
  8
8
 10
556.2890
 20
63.8944
  0
VERTEX
  8
8
 10
552.6806
 20
62.4014
  0
VERTEX
  8
8
 10
549.0771
 20
63.8946
  0
VERTEX
  8
8
 10
547.5805
 20
67.5015
  0
SEQEND
  0
POINT
  8
2
 10
557.7807
 20
67.5015
  0
POINT
  8
3
 10
556.2890
 20
63.8944
  0
POINT
  8
3
 10
552.6806
 20
62.4014
  0
POINT
  8
3
 10
549.0771
 20
63.8946
  0
POINT
  8
2
 10
547.5805
 20
67.5015
  0
LINE
  8
8
 10
522.5293
 20
625.7244
 11
553.1274
 21
598.9498
  0
POINT
  8
2
 10
522.5293
 20
625.7244
  0
POINT
  8
2
 10
553.1274
 20
598.9498
  0
LINE
  8
8
 10
753.0639
 20
151.5694
 11
729.4629
 21
164.7730
  0
POINT
  8
2
 10
753.0639
 20
151.5694
  0
POINT
  8
2
 10
729.4629
 20
164.7730
  0
LINE
  8
8
 10
522.5293
 20
625.7250
 11
522.5268
 21
594.3940
  0
POINT
  8
2
 10
522.5293
 20
625.7250
  0
POINT
  8
2
 10
522.5268
 20
594.3940
  0
LINE
  8
8
 10
522.5293
 20
625.7235
 11
553.1298
 21
625.7244
  0
POINT
  8
2
 10
522.5293
 20
625.7235
  0
POINT
  8
2
 10
553.1298
 20
625.7244
  0
LINE
  8
8
 10
750.4980
 20
67.5026
 11
415.4272
 21
67.5005
  0
POINT
  8
2
 10
750.4980
 20
67.5026
  0
POINT
  8
2
 10
415.4272
 20
67.5005
  0
LINE
  8
8
 10
415.4272
 20
42.0000
 11
415.4272
 21
67.4993
  0
POINT
  8
2
 10
415.4272
 20
42.0000
  0
POINT
  8
2
 10
415.4272
 20
67.4993
  0
POLYLINE
  8
8
 66
1
 70
1
  0
VERTEX
  8
8
 10
733.6694
 20
54.7524
  0
VERTEX
  8
8
 10
733.1909
 20
52.9665
  0
VERTEX
  8
8
 10
731.8847
 20
51.6592
  0
VERTEX
  8
8
 10
730.0976
 20
51.1807
  0
VERTEX
  8
8
 10
728.3105
 20
51.6592
  0
VERTEX
  8
8
 10
727.0044
 20
52.9665
  0
VERTEX
  8
8
 10
726.5258
 20
54.7524
  0
VERTEX
  8
8
 10
727.0044
 20
56.5383
  0
VERTEX
  8
8
 10
728.3105
 20
57.8457
  0
VERTEX
  8
8
 10
730.0976
 20
58.3242
  0
VERTEX
  8
8
 10
731.8847
 20
57.8457
  0
VERTEX
  8
8
 10
733.1909
 20
56.5383
  0
VERTEX
  8
8
 10
733.6694
 20
54.7524
  0
SEQEND
  0
POINT
  8
2
 10
733.6694
 20
54.7524
  0
POINT
  8
3
 10
733.1909
 20
52.9665
  0
POINT
  8
3
 10
731.8847
 20
51.6592
  0
POINT
  8
3
 10
730.0976
 20
51.1807
  0
POINT
  8
3
 10
728.3105
 20
51.6592
  0
POINT
  8
3
 10
727.0044
 20
52.9665
  0
POINT
  8
3
 10
726.5258
 20
54.7524
  0
POINT
  8
3
 10
727.0044
 20
56.5383
  0
POINT
  8
3
 10
728.3105
 20
57.8457
  0
POINT
  8
3
 10
730.0976
 20
58.3242
  0
POINT
  8
3
 10
731.8847
 20
57.8457
  0
POINT
  8
3
 10
733.1909
 20
56.5383
  0
POINT
  8
2
 10
733.6694
 20
54.7524
  0
POLYLINE
  8
8
 66
1
 70
1
  0
VERTEX
  8
8
 10
731.8823
 20
54.7524
  0
VERTEX
  8
8
 10
731.6430
 20
53.8601
  0
VERTEX
  8
8
 10
730.9912
 20
53.2069
  0
VERTEX
  8
8
 10
730.0976
 20
52.9678
  0
VERTEX
  8
8
 10
729.2041
 20
53.2069
  0
VERTEX
  8
8
 10
728.5522
 20
53.8601
  0
VERTEX
  8
8
 10
728.3130
 20
54.7524
  0
VERTEX
  8
8
 10
728.5522
 20
55.6448
  0
VERTEX
  8
8
 10
729.2041
 20
56.2980
  0
VERTEX
  8
8
 10
730.0976
 20
56.5371
  0
VERTEX
  8
8
 10
730.9912
 20
56.2980
  0
VERTEX
  8
8
 10
731.6430
 20
55.6448
  0
VERTEX
  8
8
 10
731.8823
 20
54.7524
  0
SEQEND
  0
POINT
  8
2
 10
731.8823
 20
54.7524
  0
POINT
  8
3
 10
731.6430
 20
53.8601
  0
POINT
  8
3
 10
730.9912
 20
53.2069
  0
POINT
  8
3
 10
730.0976
 20
52.9678
  0
POINT
  8
3
 10
729.2041
 20
53.2069
  0
POINT
  8
3
 10
728.5522
 20
53.8601
  0
POINT
  8
3
 10
728.3130
 20
54.7524
  0
POINT
  8
3
 10
728.5522
 20
55.6448
  0
POINT
  8
3
 10
729.2041
 20
56.2980
  0
POINT
  8
3
 10
730.0976
 20
56.5371
  0
POINT
  8
3
 10
730.9912
 20
56.2980
  0
POINT
  8
3
 10
731.6430
 20
55.6448
  0
POINT
  8
2
 10
731.8823
 20
54.7524
  0
LINE
  8
8
 10
70.0097
 20
307.8644
 11
116.1303
 21
253.3623
  0
POINT
  8
2
 10
70.0097
 20
307.8644
  0
POINT
  8
2
 10
116.1303
 20
253.3623
  0
LINE
  8
8
 10
70.0097
 20
307.8649
 11
93.6084
 21
294.6603
  0
POINT
  8
2
 10
70.0097
 20
307.8649
  0
POINT
  8
2
 10
93.6084
 20
294.6603
  0
LINE
  8
8
 10
77.7905
 20
151.5689
 11
117.7954
 21
206.0711
  0
POINT
  8
2
 10
77.7905
 20
151.5689
  0
POINT
  8
2
 10
117.7954
 20
206.0711
  0
LINE
  8
8
 10
286.1572
 20
67.5014
 11
286.1572
 21
322.1502
  0
POINT
  8
2
 10
286.1572
 20
67.5014
  0
POINT
  8
2
 10
286.1572
 20
322.1502
  0
LINE
  8
8
 10
64.1772
 20
322.1502
 11
286.1572
 21
322.1507
  0
POINT
  8
2
 10
64.1772
 20
322.1502
  0
POINT
  8
2
 10
286.1572
 20
322.1507
  0
LINE
  8
8
 10
79.0405
 20
93.0004
 11
415.4272
 21
93.0013
  0
POINT
  8
2
 10
79.0405
 20
93.0004
  0
POINT
  8
2
 10
415.4272
 20
93.0013
  0
POLYLINE
  8
8
 66
1
 70
0
  0
VERTEX
  8
8
 10
267.9736
 20
67.5015
  0
VERTEX
  8
8
 10
269.3408
 20
62.4014
  0
VERTEX
  8
8
 10
273.0737
 20
58.6678
  0
VERTEX
  8
8
 10
278.1738
 20
57.3014
  0
VERTEX
  8
8
 10
283.2739
 20
58.6678
  0
VERTEX
  8
8
 10
287.0068
 20
62.4014
  0
VERTEX
  8
8
 10
288.3740
 20
67.5015
  0
SEQEND
  0
POINT
  8
2
 10
267.9736
 20
67.5015
  0
POINT
  8
3
 10
269.3408
 20
62.4014
  0
POINT
  8
3
 10
273.0737
 20
58.6678
  0
POINT
  8
3
 10
278.1738
 20
57.3014
  0
POINT
  8
3
 10
283.2739
 20
58.6678
  0
POINT
  8
3
 10
287.0068
 20
62.4014
  0
POINT
  8
2
 10
288.3740
 20
67.5015
  0
POLYLINE
  8
8
 66
1
 70
0
  0
VERTEX
  8
8
 10
273.0737
 20
67.5015
  0
VERTEX
  8
8
 10
274.5654
 20
63.8944
  0
VERTEX
  8
8
 10
278.1738
 20
62.4014
  0
VERTEX
  8
8
 10
281.7773
 20
63.8946
  0
VERTEX
  8
8
 10
283.2739
 20
67.5015
  0
SEQEND
  0
POINT
  8
2
 10
273.0737
 20
67.5015
  0
POINT
  8
3
 10
274.5654
 20
63.8944
  0
POINT
  8
3
 10
278.1738
 20
62.4014
  0
POINT
  8
3
 10
281.7773
 20
63.8946
  0
POINT
  8
2
 10
283.2739
 20
67.5015
  0
LINE
  8
8
 10
333.8256
 20
610.4244
 11
247.1264
 21
580.7032
  0
POINT
  8
2
 10
333.8256
 20
610.4244
  0
POINT
  8
2
 10
247.1264
 20
580.7032
  0
LINE
  8
8
 10
77.7905
 20
151.5694
 11
101.3916
 21
164.7730
  0
POINT
  8
2
 10
77.7905
 20
151.5694
  0
POINT
  8
2
 10
101.3916
 20
164.7730
  0
LINE
  8
8
 10
333.8256
 20
610.4250
 11
333.8281
 21
579.0940
  0
POINT
  8
2
 10
333.8256
 20
610.4250
  0
POINT
  8
2
 10
333.8281
 20
579.0940
  0
LINE
  8
8
 10
333.8256
 20
610.4235
 11
247.1240
 21
610.4253
  0
POINT
  8
2
 10
333.8256
 20
610.4235
  0
POINT
  8
2
 10
247.1240
 20
610.4253
  0
LINE
  8
8
 10
80.3564
 20
67.5026
 11
415.4272
 21
67.5010
  0
POINT
  8
2
 10
80.3564
 20
67.5026
  0
POINT
  8
2
 10
415.4272
 20
67.5010
  0
POLYLINE
  8
8
 66
1
 70
1
  0
VERTEX
  8
8
 10
104.3286
 20
54.7524
  0
VERTEX
  8
8
 10
103.8501
 20
52.9665
  0
VERTEX
  8
8
 10
102.5439
 20
51.6592
  0
VERTEX
  8
8
 10
100.7568
 20
51.1807
  0
VERTEX
  8
8
 10
98.9697
 20
51.6592
  0
VERTEX
  8
8
 10
97.6635
 20
52.9665
  0
VERTEX
  8
8
 10
97.1850
 20
54.7524
  0
VERTEX
  8
8
 10
97.6635
 20
56.5383
  0
VERTEX
  8
8
 10
98.9697
 20
57.8457
  0
VERTEX
  8
8
 10
100.7568
 20
58.3242
  0
VERTEX
  8
8
 10
102.5439
 20
57.8457
  0
VERTEX
  8
8
 10
103.8501
 20
56.5383
  0
VERTEX
  8
8
 10
104.3286
 20
54.7524
  0
SEQEND
  0
POINT
  8
2
 10
104.3286
 20
54.7524
  0
POINT
  8
3
 10
103.8501
 20
52.9665
  0
POINT
  8
3
 10
102.5439
 20
51.6592
  0
POINT
  8
3
 10
100.7568
 20
51.1807
  0
POINT
  8
3
 10
98.9697
 20
51.6592
  0
POINT
  8
3
 10
97.6635
 20
52.9665
  0
POINT
  8
3
 10
97.1850
 20
54.7524
  0
POINT
  8
3
 10
97.6635
 20
56.5383
  0
POINT
  8
3
 10
98.9697
 20
57.8457
  0
POINT
  8
3
 10
100.7568
 20
58.3242
  0
POINT
  8
3
 10
102.5439
 20
57.8457
  0
POINT
  8
3
 10
103.8501
 20
56.5383
  0
POINT
  8
2
 10
104.3286
 20
54.7524
  0
POLYLINE
  8
8
 66
1
 70
1
  0
VERTEX
  8
8
 10
102.5415
 20
54.7524
  0
VERTEX
  8
8
 10
102.3022
 20
53.8601
  0
VERTEX
  8
8
 10
101.6504
 20
53.2069
  0
VERTEX
  8
8
 10
100.7568
 20
52.9678
  0
VERTEX
  8
8
 10
99.8632
 20
53.2069
  0
VERTEX
  8
8
 10
99.2114
 20
53.8601
  0
VERTEX
  8
8
 10
98.9721
 20
54.7524
  0
VERTEX
  8
8
 10
99.2114
 20
55.6448
  0
VERTEX
  8
8
 10
99.8632
 20
56.2980
  0
VERTEX
  8
8
 10
100.7568
 20
56.5371
  0
VERTEX
  8
8
 10
101.6504
 20
56.2980
  0
VERTEX
  8
8
 10
102.3022
 20
55.6448
  0
VERTEX
  8
8
 10
102.5415
 20
54.7524
  0
SEQEND
  0
POINT
  8
2
 10
102.5415
 20
54.7524
  0
POINT
  8
3
 10
102.3022
 20
53.8601
  0
POINT
  8
3
 10
101.6504
 20
53.2069
  0
POINT
  8
3
 10
100.7568
 20
52.9678
  0
POINT
  8
3
 10
99.8632
 20
53.2069
  0
POINT
  8
3
 10
99.2114
 20
53.8601
  0
POINT
  8
3
 10
98.9721
 20
54.7524
  0
POINT
  8
3
 10
99.2114
 20
55.6448
  0
POINT
  8
3
 10
99.8632
 20
56.2980
  0
POINT
  8
3
 10
100.7568
 20
56.5371
  0
POINT
  8
3
 10
101.6504
 20
56.2980
  0
POINT
  8
3
 10
102.3022
 20
55.6448
  0
POINT
  8
2
 10
102.5415
 20
54.7524
  0
ENDBLK
  0
BLOCK
  8
0
  2
BLK_2_1
 70
64
 10
0.0000
 20
0.0000
  0
TEXT
  8
1
 10
407.7710
 20
277.1091
 40
2.8000
 50
0.0000
  1
PIECE NAME: 등판
  7
STANDARD
  0
TEXT
  8
1
 10
407.7710
 20
274.3091
 40
2.8000
 50
0.0000
  1
SIZE: L
  7
STANDARD
  0
TEXT
  8
1
 10
407.7710
 20
271.5091
 40
2.8000
 50
0.0000
  1
CATEGORY: 겉감
  7
STANDARD
  0
TEXT
  8
1
 10
407.7710
 20
268.7091
 40
2.8000
 50
0.0000
  1
QUANTITY: 1
  7
STANDARD
  0
TEXT
  8
1
 10
407.7710
 20
265.9091
 40
2.8000
 50
0.0000
  1
ANNOTATION: 
  7
STANDARD
  0
TEXT
  8
1
 10
339.8584
 20
325.8565
 40
5.1000
 50
360.0000
  1
ANNOTATION: S/#NOS725SSWT01
  7
STANDARD
  0
TEXT
  8
1
 10
367.9077
 20
319.7364
 40
5.1000
 50
360.0000
  1
ANNOTATION: BACK
  7
STANDARD
  0
TEXT
  8
1
 10
370.4590
 20
313.6165
 40
5.1000
 50
360.0000
  1
ANNOTATION: <L>
  7
STANDARD
  0
POLYLINE
  8
1
 66
1
 70
1
  0
VERTEX
  8
1
 10
65.4029
 20
30.0000
  0
VERTEX
  8
1
 10
67.3535
 20
67.8160
  0
VERTEX
  8
1
 10
66.8750
 20
103.2126
  0
VERTEX
  8
1
 10
65.8716
 20
138.9977
  0
VERTEX
  8
1
 10
65.5106
 20
148.6253
  0
VERTEX
  8
1
 10
64.3726
 20
173.9637
  0
VERTEX
  8
1
 10
62.3584
 20
208.9040
  0
VERTEX
  8
1
 10
59.7974
 20
244.1183
  0
VERTEX
  8
1
 10
56.7871
 20
279.2982
  0
VERTEX
  8
1
 10
53.6802
 20
311.7025
  0
VERTEX
  8
1
 10
53.3496
 20
315.0035
  0
VERTEX
  8
1
 10
49.5191
 20
350.6687
  0
VERTEX
  8
1
 10
45.3882
 20
385.4542
  0
VERTEX
  8
1
 10
40.8814
 20
420.1930
  0
VERTEX
  8
1
 10
35.9351
 20
455.5140
  0
VERTEX
  8
1
 10
30.0000
 20
494.8131
  0
VERTEX
  8
1
 10
31.9922
 20
498.4417
  0
VERTEX
  8
1
 10
33.7183
 20
501.6216
  0
VERTEX
  8
1
 10
35.3345
 20
504.7270
  0
VERTEX
  8
1
 10
36.9971
 20
508.0648
  0
VERTEX
  8
1
 10
38.5498
 20
511.3289
  0
VERTEX
  8
1
 10
41.7627
 20
518.2422
  0
VERTEX
  8
1
 10
414.4263
 20
518.2422
  0
VERTEX
  8
1
 10
787.0923
 20
518.2418
  0
VERTEX
  8
1
 10
790.3003
 20
511.3297
  0
VERTEX
  8
1
 10
791.8579
 20
508.0601
  0
VERTEX
  8
1
 10
793.4449
 20
504.8721
  0
VERTEX
  8
1
 10
795.1368
 20
501.6155
  0
VERTEX
  8
1
 10
796.8848
 20
498.3933
  0
VERTEX
  8
1
 10
798.8501
 20
494.8473
  0
VERTEX
  8
1
 10
792.8345
 20
454.9107
  0
VERTEX
  8
1
 10
787.8076
 20
418.9829
  0
VERTEX
  8
1
 10
783.3618
 20
384.6476
  0
VERTEX
  8
1
 10
779.2871
 20
350.2663
  0
VERTEX
  8
1
 10
775.5103
 20
315.1292
  0
VERTEX
  8
1
 10
775.1658
 20
311.7027
  0
VERTEX
  8
1
 10
772.1241
 20
279.9527
  0
VERTEX
  8
1
 10
769.0967
 20
244.6665
  0
VERTEX
  8
1
 10
766.5210
 20
209.3459
  0
VERTEX
  8
1
 10
764.4800
 20
173.9278
  0
VERTEX
  8
1
 10
763.3435
 20
148.6251
  0
VERTEX
  8
1
 10
762.9615
 20
138.4837
  0
VERTEX
  8
1
 10
761.9678
 20
102.9572
  0
VERTEX
  8
1
 10
761.5015
 20
67.7492
  0
VERTEX
  8
1
 10
763.4449
 20
30.0000
  0
VERTEX
  8
1
 10
414.4263
 20
30.0003
  0
VERTEX
  8
1
 10
65.4029
 20
30.0000
  0
SEQEND
  0
POINT
  8
2
 10
65.4029
 20
30.0000
  0
POINT
  8
2
 10
67.3535
 20
67.8160
  0
POINT
  8
3
 10
66.8750
 20
103.2126
  0
POINT
  8
3
 10
65.8716
 20
138.9977
  0
POINT
  8
3
 10
65.5106
 20
148.6253
  0
POINT
  8
3
 10
64.3726
 20
173.9637
  0
POINT
  8
3
 10
62.3584
 20
208.9040
  0
POINT
  8
3
 10
59.7974
 20
244.1183
  0
POINT
  8
3
 10
56.7871
 20
279.2982
  0
POINT
  8
3
 10
53.6802
 20
311.7025
  0
POINT
  8
3
 10
53.3496
 20
315.0035
  0
POINT
  8
3
 10
49.5191
 20
350.6687
  0
POINT
  8
3
 10
45.3882
 20
385.4542
  0
POINT
  8
3
 10
40.8814
 20
420.1930
  0
POINT
  8
3
 10
35.9351
 20
455.5140
  0
POINT
  8
2
 10
30.0000
 20
494.8131
  0
POINT
  8
3
 10
31.9922
 20
498.4417
  0
POINT
  8
3
 10
33.7183
 20
501.6216
  0
POINT
  8
3
 10
35.3345
 20
504.7270
  0
POINT
  8
3
 10
36.9971
 20
508.0648
  0
POINT
  8
3
 10
38.5498
 20
511.3289
  0
POINT
  8
2
 10
41.7627
 20
518.2422
  0
POINT
  8
2
 10
414.4263
 20
518.2422
  0
POINT
  8
2
 10
787.0923
 20
518.2418
  0
POINT
  8
3
 10
790.3003
 20
511.3297
  0
POINT
  8
3
 10
791.8579
 20
508.0601
  0
POINT
  8
3
 10
793.4449
 20
504.8721
  0
POINT
  8
3
 10
795.1368
 20
501.6155
  0
POINT
  8
3
 10
796.8848
 20
498.3933
  0
POINT
  8
2
 10
798.8501
 20
494.8473
  0
POINT
  8
3
 10
792.8345
 20
454.9107
  0
POINT
  8
3
 10
787.8076
 20
418.9829
  0
POINT
  8
3
 10
783.3618
 20
384.6476
  0
POINT
  8
3
 10
779.2871
 20
350.2663
  0
POINT
  8
3
 10
775.5103
 20
315.1292
  0
POINT
  8
3
 10
775.1658
 20
311.7027
  0
POINT
  8
3
 10
772.1241
 20
279.9527
  0
POINT
  8
3
 10
769.0967
 20
244.6665
  0
POINT
  8
3
 10
766.5210
 20
209.3459
  0
POINT
  8
3
 10
764.4800
 20
173.9278
  0
POINT
  8
3
 10
763.3435
 20
148.6251
  0
POINT
  8
3
 10
762.9615
 20
138.4837
  0
POINT
  8
3
 10
761.9678
 20
102.9572
  0
POINT
  8
2
 10
761.5015
 20
67.7492
  0
POINT
  8
2
 10
763.4449
 20
30.0000
  0
POINT
  8
2
 10
414.4263
 20
30.0003
  0
POINT
  8
2
 10
65.4029
 20
30.0000
  0
POLYLINE
  8
14
 66
1
 70
1
  0
VERTEX
  8
14
 10
78.0396
 20
41.9995
  0
VERTEX
  8
14
 10
79.3555
 20
67.5011
  0
VERTEX
  8
14
 10
78.8868
 20
103.0938
  0
VERTEX
  8
14
 10
77.8907
 20
138.6680
  0
VERTEX
  8
14
 10
77.4982
 20
149.0974
  0
VERTEX
  8
14
 10
76.3697
 20
174.2271
  0
VERTEX
  8
14
 10
74.3286
 20
209.7603
  0
VERTEX
  8
14
 10
71.7456
 20
245.2573
  0
VERTEX
  8
14
 10
68.7061
 20
280.7199
  0
VERTEX
  8
14
 10
65.6942
 20
312.1755
  0
VERTEX
  8
14
 10
65.2954
 20
316.1483
  0
VERTEX
  8
14
 10
61.4966
 20
351.5366
  0
VERTEX
  8
14
 10
57.2974
 20
386.8801
  0
VERTEX
  8
14
 10
52.7222
 20
422.1769
  0
VERTEX
  8
14
 10
47.7881
 20
457.4231
  0
VERTEX
  8
14
 10
42.4854
 20
492.6203
  0
VERTEX
  8
14
 10
45.7202
 20
498.6719
  0
VERTEX
  8
14
 10
49.4190
 20
506.2427
  0
VERTEX
  8
14
 10
414.4263
 20
506.2427
  0
VERTEX
  8
14
 10
779.4312
 20
506.2434
  0
VERTEX
  8
14
 10
783.1324
 20
498.6721
  0
VERTEX
  8
14
 10
786.3648
 20
492.6200
  0
VERTEX
  8
14
 10
781.0645
 20
457.4230
  0
VERTEX
  8
14
 10
776.1304
 20
422.1769
  0
VERTEX
  8
14
 10
771.5503
 20
386.8801
  0
VERTEX
  8
14
 10
767.3535
 20
351.5366
  0
VERTEX
  8
14
 10
763.5523
 20
316.1483
  0
VERTEX
  8
14
 10
763.1535
 20
312.1756
  0
VERTEX
  8
14
 10
760.1441
 20
280.7199
  0
VERTEX
  8
14
 10
757.1045
 20
245.2573
  0
VERTEX
  8
14
 10
754.5215
 20
209.7603
  0
VERTEX
  8
14
 10
752.4805
 20
174.2271
  0
VERTEX
  8
14
 10
751.3544
 20
149.0973
  0
VERTEX
  8
14
 10
750.9595
 20
138.6680
  0
VERTEX
  8
14
 10
749.9634
 20
103.0938
  0
VERTEX
  8
14
 10
749.4971
 20
67.5011
  0
VERTEX
  8
14
 10
750.8106
 20
41.9995
  0
VERTEX
  8
14
 10
414.4263
 20
41.9998
  0
VERTEX
  8
14
 10
78.0396
 20
41.9995
  0
SEQEND
  0
POINT
  8
2
 10
78.0396
 20
41.9995
  0
POINT
  8
2
 10
79.3555
 20
67.5011
  0
POINT
  8
3
 10
78.8868
 20
103.0938
  0
POINT
  8
3
 10
77.8907
 20
138.6680
  0
POINT
  8
4
 10
77.4982
 20
149.0974
 38
5.0000
 50
2.2552
  0
POINT
  8
3
 10
77.4982
 20
149.0974
  0
POINT
  8
3
 10
76.3697
 20
174.2271
  0
POINT
  8
3
 10
74.3286
 20
209.7603
  0
POINT
  8
3
 10
71.7456
 20
245.2573
  0
POINT
  8
3
 10
68.7061
 20
280.7199
  0
POINT
  8
4
 10
65.6942
 20
312.1755
 38
5.0000
 50
2.2546
  0
POINT
  8
3
 10
65.6942
 20
312.1755
  0
POINT
  8
3
 10
65.2954
 20
316.1483
  0
POINT
  8
3
 10
61.4966
 20
351.5366
  0
POINT
  8
3
 10
57.2974
 20
386.8801
  0
POINT
  8
3
 10
52.7222
 20
422.1769
  0
POINT
  8
3
 10
47.7881
 20
457.4231
  0
POINT
  8
2
 10
42.4854
 20
492.6203
  0
POINT
  8
3
 10
45.7202
 20
498.6719
  0
POINT
  8
2
 10
49.4190
 20
506.2427
  0
POINT
  8
2
 10
414.4263
 20
506.2427
  0
POINT
  8
2
 10
779.4312
 20
506.2434
  0
POINT
  8
3
 10
783.1324
 20
498.6721
  0
POINT
  8
2
 10
786.3648
 20
492.6200
  0
POINT
  8
3
 10
781.0645
 20
457.4230
  0
POINT
  8
3
 10
776.1304
 20
422.1769
  0
POINT
  8
3
 10
771.5503
 20
386.8801
  0
POINT
  8
3
 10
767.3535
 20
351.5366
  0
POINT
  8
3
 10
763.5523
 20
316.1483
  0
POINT
  8
4
 10
763.1535
 20
312.1756
 38
5.0000
 50
177.7454
  0
POINT
  8
3
 10
763.1535
 20
312.1756
  0
POINT
  8
3
 10
760.1441
 20
280.7199
  0
POINT
  8
3
 10
757.1045
 20
245.2573
  0
POINT
  8
3
 10
754.5215
 20
209.7603
  0
POINT
  8
3
 10
752.4805
 20
174.2271
  0
POINT
  8
4
 10
751.3544
 20
149.0973
 38
5.0000
 50
177.7446
  0
POINT
  8
3
 10
751.3544
 20
149.0973
  0
POINT
  8
3
 10
750.9595
 20
138.6680
  0
POINT
  8
3
 10
749.9634
 20
103.0938
  0
POINT
  8
2
 10
749.4971
 20
67.5011
  0
POINT
  8
2
 10
750.8106
 20
41.9995
  0
POINT
  8
2
 10
414.4263
 20
41.9998
  0
POINT
  8
2
 10
78.0396
 20
41.9995
  0
LINE
  8
8
 10
414.4263
 20
67.5011
 11
414.4263
 21
42.0003
  0
POINT
  8
2
 10
414.4263
 20
67.5011
  0
POINT
  8
2
 10
414.4263
 20
42.0003
  0
LINE
  8
8
 10
414.4263
 20
67.5020
 11
79.3555
 21
67.5020
  0
POINT
  8
2
 10
414.4263
 20
67.5020
  0
POINT
  8
2
 10
79.3555
 20
67.5020
  0
LINE
  8
8
 10
78.0396
 20
93.0026
 11
414.4263
 21
93.0023
  0
POINT
  8
2
 10
78.0396
 20
93.0026
  0
POINT
  8
2
 10
414.4263
 20
93.0023
  0
POLYLINE
  8
8
 66
1
 70
0
  0
VERTEX
  8
8
 10
438.0176
 20
67.5015
  0
VERTEX
  8
8
 10
439.0284
 20
63.0760
  0
VERTEX
  8
8
 10
441.8579
 20
59.5269
  0
VERTEX
  8
8
 10
445.9473
 20
57.5573
  0
VERTEX
  8
8
 10
450.4883
 20
57.5574
  0
VERTEX
  8
8
 10
454.5777
 20
59.5269
  0
VERTEX
  8
8
 10
457.4073
 20
63.0760
  0
VERTEX
  8
8
 10
458.4180
 20
67.5015
  0
SEQEND
  0
POINT
  8
2
 10
438.0176
 20
67.5015
  0
POINT
  8
3
 10
439.0284
 20
63.0760
  0
POINT
  8
3
 10
441.8579
 20
59.5269
  0
POINT
  8
3
 10
445.9473
 20
57.5573
  0
POINT
  8
3
 10
450.4883
 20
57.5574
  0
POINT
  8
3
 10
454.5777
 20
59.5269
  0
POINT
  8
3
 10
457.4073
 20
63.0760
  0
POINT
  8
2
 10
458.4180
 20
67.5015
  0
POLYLINE
  8
8
 66
1
 70
0
  0
VERTEX
  8
8
 10
443.1177
 20
67.5015
  0
VERTEX
  8
8
 10
444.2310
 20
64.3218
  0
VERTEX
  8
8
 10
447.0826
 20
62.5295
  0
VERTEX
  8
8
 10
450.4297
 20
62.9066
  0
VERTEX
  8
8
 10
452.8125
 20
65.2889
  0
VERTEX
  8
8
 10
453.3179
 20
67.5015
  0
SEQEND
  0
POINT
  8
2
 10
443.1177
 20
67.5015
  0
POINT
  8
3
 10
444.2310
 20
64.3218
  0
POINT
  8
3
 10
447.0826
 20
62.5295
  0
POINT
  8
3
 10
450.4297
 20
62.9066
  0
POINT
  8
3
 10
452.8125
 20
65.2889
  0
POINT
  8
2
 10
453.3179
 20
67.5015
  0
POLYLINE
  8
8
 66
1
 70
1
  0
VERTEX
  8
8
 10
101.5406
 20
54.7514
  0
VERTEX
  8
8
 10
101.3013
 20
53.8591
  0
VERTEX
  8
8
 10
100.6470
 20
53.2059
  0
VERTEX
  8
8
 10
99.7559
 20
52.9668
  0
VERTEX
  8
8
 10
98.8648
 20
53.2059
  0
VERTEX
  8
8
 10
98.2105
 20
53.8591
  0
VERTEX
  8
8
 10
97.9712
 20
54.7514
  0
VERTEX
  8
8
 10
98.2105
 20
55.6438
  0
VERTEX
  8
8
 10
98.8648
 20
56.2970
  0
VERTEX
  8
8
 10
99.7559
 20
56.5361
  0
VERTEX
  8
8
 10
100.6470
 20
56.2970
  0
VERTEX
  8
8
 10
101.3013
 20
55.6438
  0
VERTEX
  8
8
 10
101.5406
 20
54.7514
  0
SEQEND
  0
POINT
  8
2
 10
101.5406
 20
54.7514
  0
POINT
  8
3
 10
101.3013
 20
53.8591
  0
POINT
  8
3
 10
100.6470
 20
53.2059
  0
POINT
  8
3
 10
99.7559
 20
52.9668
  0
POINT
  8
3
 10
98.8648
 20
53.2059
  0
POINT
  8
3
 10
98.2105
 20
53.8591
  0
POINT
  8
3
 10
97.9712
 20
54.7514
  0
POINT
  8
3
 10
98.2105
 20
55.6438
  0
POINT
  8
3
 10
98.8648
 20
56.2970
  0
POINT
  8
3
 10
99.7559
 20
56.5361
  0
POINT
  8
3
 10
100.6470
 20
56.2970
  0
POINT
  8
3
 10
101.3013
 20
55.6438
  0
POINT
  8
2
 10
101.5406
 20
54.7514
  0
POLYLINE
  8
8
 66
1
 70
1
  0
VERTEX
  8
8
 10
103.3252
 20
54.7514
  0
VERTEX
  8
8
 10
102.8467
 20
52.9668
  0
VERTEX
  8
8
 10
101.5406
 20
51.6603
  0
VERTEX
  8
8
 10
99.7559
 20
51.1821
  0
VERTEX
  8
8
 10
97.9712
 20
51.6603
  0
VERTEX
  8
8
 10
96.6651
 20
52.9668
  0
VERTEX
  8
8
 10
96.1866
 20
54.7514
  0
VERTEX
  8
8
 10
96.6651
 20
56.5361
  0
VERTEX
  8
8
 10
97.9712
 20
57.8426
  0
VERTEX
  8
8
 10
99.7559
 20
58.3208
  0
VERTEX
  8
8
 10
101.5406
 20
57.8426
  0
VERTEX
  8
8
 10
102.8467
 20
56.5361
  0
VERTEX
  8
8
 10
103.3252
 20
54.7514
  0
SEQEND
  0
POINT
  8
2
 10
103.3252
 20
54.7514
  0
POINT
  8
3
 10
102.8467
 20
52.9668
  0
POINT
  8
3
 10
101.5406
 20
51.6603
  0
POINT
  8
3
 10
99.7559
 20
51.1821
  0
POINT
  8
3
 10
97.9712
 20
51.6603
  0
POINT
  8
3
 10
96.6651
 20
52.9668
  0
POINT
  8
3
 10
96.1866
 20
54.7514
  0
POINT
  8
3
 10
96.6651
 20
56.5361
  0
POINT
  8
3
 10
97.9712
 20
57.8426
  0
POINT
  8
3
 10
99.7559
 20
58.3208
  0
POINT
  8
3
 10
101.5406
 20
57.8426
  0
POINT
  8
3
 10
102.8467
 20
56.5361
  0
POINT
  8
2
 10
103.3252
 20
54.7514
  0
LINE
  8
8
 10
414.4268
 20
67.5015
 11
749.4971
 21
67.5020
  0
POINT
  8
2
 10
414.4268
 20
67.5015
  0
POINT
  8
2
 10
749.4971
 20
67.5020
  0
LINE
  8
8
 10
750.8106
 20
93.0026
 11
414.4263
 21
93.0028
  0
POINT
  8
2
 10
750.8106
 20
93.0026
  0
POINT
  8
2
 10
414.4263
 20
93.0028
  0
POLYLINE
  8
8
 66
1
 70
1
  0
VERTEX
  8
8
 10
730.8789
 20
54.7514
  0
VERTEX
  8
8
 10
730.6397
 20
53.8591
  0
VERTEX
  8
8
 10
729.9878
 20
53.2059
  0
VERTEX
  8
8
 10
729.0943
 20
52.9668
  0
VERTEX
  8
8
 10
728.2007
 20
53.2059
  0
VERTEX
  8
8
 10
727.5489
 20
53.8591
  0
VERTEX
  8
8
 10
727.3096
 20
54.7514
  0
VERTEX
  8
8
 10
727.5489
 20
55.6438
  0
VERTEX
  8
8
 10
728.2007
 20
56.2970
  0
VERTEX
  8
8
 10
729.0943
 20
56.5361
  0
VERTEX
  8
8
 10
729.9878
 20
56.2970
  0
VERTEX
  8
8
 10
730.6397
 20
55.6438
  0
VERTEX
  8
8
 10
730.8789
 20
54.7514
  0
SEQEND
  0
POINT
  8
2
 10
730.8789
 20
54.7514
  0
POINT
  8
3
 10
730.6397
 20
53.8591
  0
POINT
  8
3
 10
729.9878
 20
53.2059
  0
POINT
  8
3
 10
729.0943
 20
52.9668
  0
POINT
  8
3
 10
728.2007
 20
53.2059
  0
POINT
  8
3
 10
727.5489
 20
53.8591
  0
POINT
  8
3
 10
727.3096
 20
54.7514
  0
POINT
  8
3
 10
727.5489
 20
55.6438
  0
POINT
  8
3
 10
728.2007
 20
56.2970
  0
POINT
  8
3
 10
729.0943
 20
56.5361
  0
POINT
  8
3
 10
729.9878
 20
56.2970
  0
POINT
  8
3
 10
730.6397
 20
55.6438
  0
POINT
  8
2
 10
730.8789
 20
54.7514
  0
POLYLINE
  8
8
 66
1
 70
1
  0
VERTEX
  8
8
 10
732.6636
 20
54.7514
  0
VERTEX
  8
8
 10
732.1851
 20
52.9668
  0
VERTEX
  8
8
 10
730.8789
 20
51.6603
  0
VERTEX
  8
8
 10
729.0943
 20
51.1821
  0
VERTEX
  8
8
 10
727.3096
 20
51.6603
  0
VERTEX
  8
8
 10
726.0034
 20
52.9668
  0
VERTEX
  8
8
 10
725.5249
 20
54.7514
  0
VERTEX
  8
8
 10
726.0034
 20
56.5361
  0
VERTEX
  8
8
 10
727.3096
 20
57.8426
  0
VERTEX
  8
8
 10
729.0943
 20
58.3208
  0
VERTEX
  8
8
 10
730.8789
 20
57.8426
  0
VERTEX
  8
8
 10
732.1851
 20
56.5361
  0
VERTEX
  8
8
 10
732.6636
 20
54.7514
  0
SEQEND
  0
POINT
  8
2
 10
732.6636
 20
54.7514
  0
POINT
  8
3
 10
732.1851
 20
52.9668
  0
POINT
  8
3
 10
730.8789
 20
51.6603
  0
POINT
  8
3
 10
729.0943
 20
51.1821
  0
POINT
  8
3
 10
727.3096
 20
51.6603
  0
POINT
  8
3
 10
726.0034
 20
52.9668
  0
POINT
  8
3
 10
725.5249
 20
54.7514
  0
POINT
  8
3
 10
726.0034
 20
56.5361
  0
POINT
  8
3
 10
727.3096
 20
57.8426
  0
POINT
  8
3
 10
729.0943
 20
58.3208
  0
POINT
  8
3
 10
730.8789
 20
57.8426
  0
POINT
  8
3
 10
732.1851
 20
56.5361
  0
POINT
  8
2
 10
732.6636
 20
54.7514
  0
LINE
  8
8
 10
414.4263
 20
475.6427
 11
783.7622
 21
475.6427
  0
POINT
  8
2
 10
414.4263
 20
475.6427
  0
POINT
  8
2
 10
783.7622
 20
475.6427
  0
LINE
  8
8
 10
414.4263
 20
475.6432
 11
45.0879
 21
475.6427
  0
POINT
  8
2
 10
414.4263
 20
475.6432
  0
POINT
  8
2
 10
45.0879
 20
475.6427
  0
LINE
  8
8
 10
198.0884
 20
475.6427
 11
198.0884
 21
506.2427
  0
POINT
  8
2
 10
198.0884
 20
475.6427
  0
POINT
  8
2
 10
198.0884
 20
506.2427
  0
LINE
  8
8
 10
630.7618
 20
475.6427
 11
630.7618
 21
506.2427
  0
POINT
  8
2
 10
630.7618
 20
475.6427
  0
POINT
  8
2
 10
630.7618
 20
506.2427
  0
LINE
  8
8
 10
414.4263
 20
506.2432
 11
414.4263
 21
67.5016
  0
POINT
  8
2
 10
414.4263
 20
506.2432
  0
POINT
  8
2
 10
414.4263
 20
67.5016
  0
ENDBLK
  0
BLOCK
  8
0
  2
BLK_3_1
 70
64
 10
0.0000
 20
0.0000
  0
TEXT
  8
1
 10
403.8794
 20
253.6412
 40
2.8000
 50
0.0000
  1
PIECE NAME: 등요크
  7
STANDARD
  0
TEXT
  8
1
 10
403.8794
 20
250.8412
 40
2.8000
 50
0.0000
  1
SIZE: L
  7
STANDARD
  0
TEXT
  8
1
 10
403.8794
 20
248.0412
 40
2.8000
 50
0.0000
  1
CATEGORY: 겉감
  7
STANDARD
  0
TEXT
  8
1
 10
403.8794
 20
245.2412
 40
2.8000
 50
0.0000
  1
QUANTITY: 1
  7
STANDARD
  0
TEXT
  8
1
 10
403.8794
 20
242.4412
 40
2.8000
 50
0.0000
  1
ANNOTATION: 
  7
STANDARD
  0
TEXT
  8
1
 10
339.0894
 20
221.9122
 40
5.1000
 50
360.0000
  1
ANNOTATION: S/#NOS725SSWT01
  7
STANDARD
  0
TEXT
  8
1
 10
367.1387
 20
215.7922
 40
5.1000
 50
360.0000
  1
ANNOTATION: BACK
  7
STANDARD
  0
TEXT
  8
1
 10
369.6899
 20
209.6720
 40
5.1000
 50
360.0000
  1
ANNOTATION: <L>
  7
STANDARD
  0
POLYLINE
  8
1
 66
1
 70
1
  0
VERTEX
  8
1
 10
34.7681
 20
30.0041
  0
VERTEX
  8
1
 10
31.9287
 20
48.6639
  0
VERTEX
  8
1
 10
30.0000
 20
61.1541
  0
VERTEX
  8
1
 10
31.9385
 20
64.7169
  0
VERTEX
  8
1
 10
37.8833
 20
76.2701
  0
VERTEX
  8
1
 10
43.0566
 20
88.1314
  0
VERTEX
  8
1
 10
47.4585
 20
100.3257
  0
VERTEX
  8
1
 10
51.0938
 20
112.7726
  0
VERTEX
  8
1
 10
53.9380
 20
125.4924
  0
VERTEX
  8
1
 10
56.1597
 20
138.3500
  0
VERTEX
  8
1
 10
58.0054
 20
151.7665
  0
VERTEX
  8
1
 10
59.4336
 20
165.2384
  0
VERTEX
  8
1
 10
60.5103
 20
178.4434
  0
VERTEX
  8
1
 10
61.2622
 20
191.6722
  0
VERTEX
  8
1
 10
61.7261
 20
205.0448
  0
VERTEX
  8
1
 10
61.8872
 20
218.1279
  0
VERTEX
  8
1
 10
61.3403
 20
237.1957
  0
VERTEX
  8
1
 10
60.2222
 20
256.1665
  0
VERTEX
  8
1
 10
58.5620
 20
274.6205
  0
VERTEX
  8
1
 10
56.3428
 20
293.0169
  0
VERTEX
  8
1
 10
53.5352
 20
311.9035
  0
VERTEX
  8
1
 10
50.1855
 20
330.7003
  0
VERTEX
  8
1
 10
47.3193
 20
344.6554
  0
VERTEX
  8
1
 10
41.8506
 20
367.7771
  0
VERTEX
  8
1
 10
39.0137
 20
379.0293
  0
VERTEX
  8
1
 10
309.9976
 20
456.8942
  0
VERTEX
  8
1
 10
314.4434
 20
447.9914
  0
VERTEX
  8
1
 10
316.6455
 20
443.8441
  0
VERTEX
  8
1
 10
319.1040
 20
439.8687
  0
VERTEX
  8
1
 10
321.7749
 20
436.1430
  0
VERTEX
  8
1
 10
324.6826
 20
432.5962
  0
VERTEX
  8
1
 10
327.3071
 20
429.7670
  0
VERTEX
  8
1
 10
330.1367
 20
427.1484
  0
VERTEX
  8
1
 10
333.0298
 20
424.8661
  0
VERTEX
  8
1
 10
336.1133
 20
422.8599
  0
VERTEX
  8
1
 10
339.9854
 20
420.8439
  0
VERTEX
  8
1
 10
344.0039
 20
419.1175
  0
VERTEX
  8
1
 10
348.3569
 20
417.5503
  0
VERTEX
  8
1
 10
352.7930
 20
416.2236
  0
VERTEX
  8
1
 10
357.5024
 20
415.0469
  0
VERTEX
  8
1
 10
362.2632
 20
414.0753
  0
VERTEX
  8
1
 10
372.0190
 20
412.6635
  0
VERTEX
  8
1
 10
382.1167
 20
411.7974
  0
VERTEX
  8
1
 10
392.4023
 20
411.3511
  0
VERTEX
  8
1
 10
403.4741
 20
411.0430
  0
VERTEX
  8
1
 10
414.4019
 20
411.0023
  0
VERTEX
  8
1
 10
425.4126
 20
411.0438
  0
VERTEX
  8
1
 10
436.4380
 20
411.3513
  0
VERTEX
  8
1
 10
446.7383
 20
411.7990
  0
VERTEX
  8
1
 10
456.8066
 20
412.6628
  0
VERTEX
  8
1
 10
466.6333
 20
414.0873
  0
VERTEX
  8
1
 10
471.3257
 20
415.0444
  0
VERTEX
  8
1
 10
475.9717
 20
416.2055
  0
VERTEX
  8
1
 10
480.4736
 20
417.5534
  0
VERTEX
  8
1
 10
484.8901
 20
419.1430
  0
VERTEX
  8
1
 10
488.8940
 20
420.8670
  0
VERTEX
  8
1
 10
492.7539
 20
422.8808
  0
VERTEX
  8
1
 10
495.8081
 20
424.8690
  0
VERTEX
  8
1
 10
498.6719
 20
427.1310
  0
VERTEX
  8
1
 10
501.5112
 20
429.7575
  0
VERTEX
  8
1
 10
504.1455
 20
432.5935
  0
VERTEX
  8
1
 10
507.0386
 20
436.1198
  0
VERTEX
  8
1
 10
509.6997
 20
439.8252
  0
VERTEX
  8
1
 10
511.5796
 20
442.8073
  0
VERTEX
  8
1
 10
514.3872
 20
447.9914
  0
VERTEX
  8
1
 10
518.8501
 20
456.8898
  0
VERTEX
  8
1
 10
789.8169
 20
379.0306
  0
VERTEX
  8
1
 10
786.9775
 20
367.7775
  0
VERTEX
  8
1
 10
782.5415
 20
349.3112
  0
VERTEX
  8
1
 10
778.6548
 20
330.7388
  0
VERTEX
  8
1
 10
775.3320
 20
312.1449
  0
VERTEX
  8
1
 10
772.5488
 20
293.4619
  0
VERTEX
  8
1
 10
770.2856
 20
274.6673
  0
VERTEX
  8
1
 10
768.5815
 20
255.8151
  0
VERTEX
  8
1
 10
767.4756
 20
237.0202
  0
VERTEX
  8
1
 10
766.9458
 20
218.3241
  0
VERTEX
  8
1
 10
767.1045
 20
204.9960
  0
VERTEX
  8
1
 10
767.5757
 20
191.5751
  0
VERTEX
  8
1
 10
768.3569
 20
177.9872
  0
VERTEX
  8
1
 10
769.4727
 20
164.4233
  0
VERTEX
  8
1
 10
770.8521
 20
151.4544
  0
VERTEX
  8
1
 10
772.6440
 20
138.5404
  0
VERTEX
  8
1
 10
774.8975
 20
125.5140
  0
VERTEX
  8
1
 10
777.7734
 20
112.6254
  0
VERTEX
  8
1
 10
781.3867
 20
100.2687
  0
VERTEX
  8
1
 10
785.7642
 20
88.1649
  0
VERTEX
  8
1
 10
789.5801
 20
79.2259
  0
VERTEX
  8
1
 10
796.8945
 20
64.7167
  0
VERTEX
  8
1
 10
798.8306
 20
61.1592
  0
VERTEX
  8
1
 10
796.9043
 20
48.6633
  0
VERTEX
  8
1
 10
795.6152
 20
40.2008
  0
VERTEX
  8
1
 10
794.0845
 20
30.0027
  0
VERTEX
  8
1
 10
414.4165
 20
30.0027
  0
VERTEX
  8
1
 10
34.7681
 20
30.0041
  0
SEQEND
  0
POINT
  8
2
 10
34.7681
 20
30.0041
  0
POINT
  8
3
 10
31.9287
 20
48.6639
  0
POINT
  8
2
 10
30.0000
 20
61.1541
  0
POINT
  8
3
 10
31.9385
 20
64.7169
  0
POINT
  8
3
 10
37.8833
 20
76.2701
  0
POINT
  8
3
 10
43.0566
 20
88.1314
  0
POINT
  8
3
 10
47.4585
 20
100.3257
  0
POINT
  8
3
 10
51.0938
 20
112.7726
  0
POINT
  8
3
 10
53.9380
 20
125.4924
  0
POINT
  8
3
 10
56.1597
 20
138.3500
  0
POINT
  8
3
 10
58.0054
 20
151.7665
  0
POINT
  8
3
 10
59.4336
 20
165.2384
  0
POINT
  8
3
 10
60.5103
 20
178.4434
  0
POINT
  8
3
 10
61.2622
 20
191.6722
  0
POINT
  8
3
 10
61.7261
 20
205.0448
  0
POINT
  8
2
 10
61.8872
 20
218.1279
  0
POINT
  8
3
 10
61.3403
 20
237.1957
  0
POINT
  8
3
 10
60.2222
 20
256.1665
  0
POINT
  8
3
 10
58.5620
 20
274.6205
  0
POINT
  8
3
 10
56.3428
 20
293.0169
  0
POINT
  8
3
 10
53.5352
 20
311.9035
  0
POINT
  8
3
 10
50.1855
 20
330.7003
  0
POINT
  8
3
 10
47.3193
 20
344.6554
  0
POINT
  8
3
 10
41.8506
 20
367.7771
  0
POINT
  8
2
 10
39.0137
 20
379.0293
  0
POINT
  8
2
 10
309.9976
 20
456.8942
  0
POINT
  8
3
 10
314.4434
 20
447.9914
  0
POINT
  8
3
 10
316.6455
 20
443.8441
  0
POINT
  8
3
 10
319.1040
 20
439.8687
  0
POINT
  8
3
 10
321.7749
 20
436.1430
  0
POINT
  8
3
 10
324.6826
 20
432.5962
  0
POINT
  8
3
 10
327.3071
 20
429.7670
  0
POINT
  8
3
 10
330.1367
 20
427.1484
  0
POINT
  8
3
 10
333.0298
 20
424.8661
  0
POINT
  8
3
 10
336.1133
 20
422.8599
  0
POINT
  8
3
 10
339.9854
 20
420.8439
  0
POINT
  8
3
 10
344.0039
 20
419.1175
  0
POINT
  8
3
 10
348.3569
 20
417.5503
  0
POINT
  8
3
 10
352.7930
 20
416.2236
  0
POINT
  8
3
 10
357.5024
 20
415.0469
  0
POINT
  8
3
 10
362.2632
 20
414.0753
  0
POINT
  8
3
 10
372.0190
 20
412.6635
  0
POINT
  8
3
 10
382.1167
 20
411.7974
  0
POINT
  8
3
 10
392.4023
 20
411.3511
  0
POINT
  8
3
 10
403.4741
 20
411.0430
  0
POINT
  8
2
 10
414.4019
 20
411.0023
  0
POINT
  8
3
 10
425.4126
 20
411.0438
  0
POINT
  8
3
 10
436.4380
 20
411.3513
  0
POINT
  8
3
 10
446.7383
 20
411.7990
  0
POINT
  8
3
 10
456.8066
 20
412.6628
  0
POINT
  8
3
 10
466.6333
 20
414.0873
  0
POINT
  8
3
 10
471.3257
 20
415.0444
  0
POINT
  8
3
 10
475.9717
 20
416.2055
  0
POINT
  8
3
 10
480.4736
 20
417.5534
  0
POINT
  8
3
 10
484.8901
 20
419.1430
  0
POINT
  8
3
 10
488.8940
 20
420.8670
  0
POINT
  8
3
 10
492.7539
 20
422.8808
  0
POINT
  8
3
 10
495.8081
 20
424.8690
  0
POINT
  8
3
 10
498.6719
 20
427.1310
  0
POINT
  8
3
 10
501.5112
 20
429.7575
  0
POINT
  8
3
 10
504.1455
 20
432.5935
  0
POINT
  8
3
 10
507.0386
 20
436.1198
  0
POINT
  8
3
 10
509.6997
 20
439.8252
  0
POINT
  8
3
 10
511.5796
 20
442.8073
  0
POINT
  8
3
 10
514.3872
 20
447.9914
  0
POINT
  8
2
 10
518.8501
 20
456.8898
  0
POINT
  8
2
 10
789.8169
 20
379.0306
  0
POINT
  8
3
 10
786.9775
 20
367.7775
  0
POINT
  8
3
 10
782.5415
 20
349.3112
  0
POINT
  8
3
 10
778.6548
 20
330.7388
  0
POINT
  8
3
 10
775.3320
 20
312.1449
  0
POINT
  8
3
 10
772.5488
 20
293.4619
  0
POINT
  8
3
 10
770.2856
 20
274.6673
  0
POINT
  8
3
 10
768.5815
 20
255.8151
  0
POINT
  8
3
 10
767.4756
 20
237.0202
  0
POINT
  8
2
 10
766.9458
 20
218.3241
  0
POINT
  8
3
 10
767.1045
 20
204.9960
  0
POINT
  8
3
 10
767.5757
 20
191.5751
  0
POINT
  8
3
 10
768.3569
 20
177.9872
  0
POINT
  8
3
 10
769.4727
 20
164.4233
  0
POINT
  8
3
 10
770.8521
 20
151.4544
  0
POINT
  8
3
 10
772.6440
 20
138.5404
  0
POINT
  8
3
 10
774.8975
 20
125.5140
  0
POINT
  8
3
 10
777.7734
 20
112.6254
  0
POINT
  8
3
 10
781.3867
 20
100.2687
  0
POINT
  8
3
 10
785.7642
 20
88.1649
  0
POINT
  8
3
 10
789.5801
 20
79.2259
  0
POINT
  8
3
 10
796.8945
 20
64.7167
  0
POINT
  8
2
 10
798.8306
 20
61.1592
  0
POINT
  8
3
 10
796.9043
 20
48.6633
  0
POINT
  8
3
 10
795.6152
 20
40.2008
  0
POINT
  8
2
 10
794.0845
 20
30.0027
  0
POINT
  8
2
 10
414.4165
 20
30.0027
  0
POINT
  8
2
 10
34.7681
 20
30.0041
  0
POLYLINE
  8
14
 66
1
 70
1
  0
VERTEX
  8
14
 10
45.0806
 20
42.0019
  0
VERTEX
  8
14
 10
42.4780
 20
58.9793
  0
VERTEX
  8
14
 10
48.7476
 20
71.1769
  0
VERTEX
  8
14
 10
54.2065
 20
83.6982
  0
VERTEX
  8
14
 10
58.8501
 20
96.5669
  0
VERTEX
  8
14
 10
62.6953
 20
109.7013
  0
VERTEX
  8
14
 10
65.6812
 20
123.0502
  0
VERTEX
  8
14
 10
68.0225
 20
136.5431
  0
VERTEX
  8
14
 10
69.8975
 20
150.0996
  0
VERTEX
  8
14
 10
71.3428
 20
163.7133
  0
VERTEX
  8
14
 10
72.4609
 20
177.3558
  0
VERTEX
  8
14
 10
73.2446
 20
191.0224
  0
VERTEX
  8
14
 10
73.7231
 20
204.6983
  0
VERTEX
  8
14
 10
73.8843
 20
218.3889
  0
VERTEX
  8
14
 10
73.6655
 20
228.6029
  0
VERTEX
  8
14
 10
73.3398
 20
237.6441
  0
VERTEX
  8
14
 10
72.2046
 20
256.8554
  0
VERTEX
  8
14
 10
70.4663
 20
276.0301
  0
VERTEX
  8
14
 10
68.1641
 20
295.1463
  0
VERTEX
  8
14
 10
65.3271
 20
314.1905
  0
VERTEX
  8
14
 10
61.9360
 20
333.1436
  0
VERTEX
  8
14
 10
57.9907
 20
351.9804
  0
VERTEX
  8
14
 10
53.4863
 20
370.7028
  0
VERTEX
  8
14
 10
303.7207
 20
442.6052
  0
VERTEX
  8
14
 10
306.2842
 20
437.7903
  0
VERTEX
  8
14
 10
309.1431
 20
433.1747
  0
VERTEX
  8
14
 10
312.2534
 20
428.8343
  0
VERTEX
  8
14
 10
315.6421
 20
424.7048
  0
VERTEX
  8
14
 10
318.8696
 20
421.2307
  0
VERTEX
  8
14
 10
322.3535
 20
418.0154
  0
VERTEX
  8
14
 10
326.0742
 20
415.0944
  0
VERTEX
  8
14
 10
330.0317
 20
412.5138
  0
VERTEX
  8
14
 10
334.7095
 20
410.0680
  0
VERTEX
  8
14
 10
339.5605
 20
407.9707
  0
VERTEX
  8
14
 10
344.5581
 20
406.1668
  0
VERTEX
  8
14
 10
349.6558
 20
404.6412
  0
VERTEX
  8
14
 10
354.8340
 20
403.3459
  0
VERTEX
  8
14
 10
360.0684
 20
402.2775
  0
VERTEX
  8
14
 10
370.6714
 20
400.7391
  0
VERTEX
  8
14
 10
381.3452
 20
399.8220
  0
VERTEX
  8
14
 10
392.0581
 20
399.3557
  0
VERTEX
  8
14
 10
403.2397
 20
399.0451
  0
VERTEX
  8
14
 10
414.4165
 20
399.0022
  0
VERTEX
  8
14
 10
425.5908
 20
399.0451
  0
VERTEX
  8
14
 10
436.7725
 20
399.3557
  0
VERTEX
  8
14
 10
447.4854
 20
399.8220
  0
VERTEX
  8
14
 10
458.1592
 20
400.7391
  0
VERTEX
  8
14
 10
468.7622
 20
402.2775
  0
VERTEX
  8
14
 10
473.9966
 20
403.3459
  0
VERTEX
  8
14
 10
479.1772
 20
404.6412
  0
VERTEX
  8
14
 10
484.2749
 20
406.1668
  0
VERTEX
  8
14
 10
489.2725
 20
407.9707
  0
VERTEX
  8
14
 10
494.1235
 20
410.0682
  0
VERTEX
  8
14
 10
498.7988
 20
412.5138
  0
VERTEX
  8
14
 10
502.7588
 20
415.0946
  0
VERTEX
  8
14
 10
506.4771
 20
418.0154
  0
VERTEX
  8
14
 10
509.9585
 20
421.2307
  0
VERTEX
  8
14
 10
513.1885
 20
424.7048
  0
VERTEX
  8
14
 10
516.5747
 20
428.8343
  0
VERTEX
  8
14
 10
519.6875
 20
433.1747
  0
VERTEX
  8
14
 10
522.5488
 20
437.7905
  0
VERTEX
  8
14
 10
525.1123
 20
442.6052
  0
VERTEX
  8
14
 10
775.3442
 20
370.7090
  0
VERTEX
  8
14
 10
770.8423
 20
351.9802
  0
VERTEX
  8
14
 10
766.8970
 20
333.1436
  0
VERTEX
  8
14
 10
763.5059
 20
314.1903
  0
VERTEX
  8
14
 10
760.6689
 20
295.1463
  0
VERTEX
  8
14
 10
758.3618
 20
276.0302
  0
VERTEX
  8
14
 10
756.6260
 20
256.8554
  0
VERTEX
  8
14
 10
755.4932
 20
237.6443
  0
VERTEX
  8
14
 10
755.1675
 20
228.6027
  0
VERTEX
  8
14
 10
754.9463
 20
218.3888
  0
VERTEX
  8
14
 10
755.1099
 20
204.6983
  0
VERTEX
  8
14
 10
755.5884
 20
191.0224
  0
VERTEX
  8
14
 10
756.3696
 20
177.3558
  0
VERTEX
  8
14
 10
757.4878
 20
163.7133
  0
VERTEX
  8
14
 10
758.9331
 20
150.0996
  0
VERTEX
  8
14
 10
760.8105
 20
136.5431
  0
VERTEX
  8
14
 10
763.1519
 20
123.0503
  0
VERTEX
  8
14
 10
766.1377
 20
109.7013
  0
VERTEX
  8
14
 10
769.9829
 20
96.5669
  0
VERTEX
  8
14
 10
774.6265
 20
83.6982
  0
VERTEX
  8
14
 10
780.0854
 20
71.1769
  0
VERTEX
  8
14
 10
786.3550
 20
58.9791
  0
VERTEX
  8
14
 10
783.7524
 20
42.0022
  0
VERTEX
  8
14
 10
414.4165
 20
42.0022
  0
VERTEX
  8
14
 10
45.0806
 20
42.0019
  0
SEQEND
  0
POINT
  8
2
 10
45.0806
 20
42.0019
  0
POINT
  8
2
 10
42.4780
 20
58.9793
  0
POINT
  8
3
 10
48.7476
 20
71.1769
  0
POINT
  8
3
 10
54.2065
 20
83.6982
  0
POINT
  8
3
 10
58.8501
 20
96.5669
  0
POINT
  8
3
 10
62.6953
 20
109.7013
  0
POINT
  8
3
 10
65.6812
 20
123.0502
  0
POINT
  8
3
 10
68.0225
 20
136.5431
  0
POINT
  8
3
 10
69.8975
 20
150.0996
  0
POINT
  8
3
 10
71.3428
 20
163.7133
  0
POINT
  8
3
 10
72.4609
 20
177.3558
  0
POINT
  8
3
 10
73.2446
 20
191.0224
  0
POINT
  8
3
 10
73.7231
 20
204.6983
  0
POINT
  8
4
 10
73.8843
 20
218.3889
 38
5.0000
 50
0.9477
  0
POINT
  8
2
 10
73.8843
 20
218.3889
  0
POINT
  8
4
 10
73.6655
 20
228.6029
 38
5.0000
 50
1.7130
  0
POINT
  8
3
 10
73.6655
 20
228.6029
  0
POINT
  8
3
 10
73.3398
 20
237.6441
  0
POINT
  8
3
 10
72.2046
 20
256.8554
  0
POINT
  8
3
 10
70.4663
 20
276.0301
  0
POINT
  8
3
 10
68.1641
 20
295.1463
  0
POINT
  8
3
 10
65.3271
 20
314.1905
  0
POINT
  8
3
 10
61.9360
 20
333.1436
  0
POINT
  8
3
 10
57.9907
 20
351.9804
  0
POINT
  8
2
 10
53.4863
 20
370.7028
  0
POINT
  8
2
 10
303.7207
 20
442.6052
  0
POINT
  8
3
 10
306.2842
 20
437.7903
  0
POINT
  8
3
 10
309.1431
 20
433.1747
  0
POINT
  8
3
 10
312.2534
 20
428.8343
  0
POINT
  8
3
 10
315.6421
 20
424.7048
  0
POINT
  8
3
 10
318.8696
 20
421.2307
  0
POINT
  8
3
 10
322.3535
 20
418.0154
  0
POINT
  8
3
 10
326.0742
 20
415.0944
  0
POINT
  8
3
 10
330.0317
 20
412.5138
  0
POINT
  8
3
 10
334.7095
 20
410.0680
  0
POINT
  8
3
 10
339.5605
 20
407.9707
  0
POINT
  8
3
 10
344.5581
 20
406.1668
  0
POINT
  8
3
 10
349.6558
 20
404.6412
  0
POINT
  8
3
 10
354.8340
 20
403.3459
  0
POINT
  8
3
 10
360.0684
 20
402.2775
  0
POINT
  8
3
 10
370.6714
 20
400.7391
  0
POINT
  8
3
 10
381.3452
 20
399.8220
  0
POINT
  8
3
 10
392.0581
 20
399.3557
  0
POINT
  8
3
 10
403.2397
 20
399.0451
  0
POINT
  8
2
 10
414.4165
 20
399.0022
  0
POINT
  8
3
 10
425.5908
 20
399.0451
  0
POINT
  8
3
 10
436.7725
 20
399.3557
  0
POINT
  8
3
 10
447.4854
 20
399.8220
  0
POINT
  8
3
 10
458.1592
 20
400.7391
  0
POINT
  8
3
 10
468.7622
 20
402.2775
  0
POINT
  8
3
 10
473.9966
 20
403.3459
  0
POINT
  8
3
 10
479.1772
 20
404.6412
  0
POINT
  8
3
 10
484.2749
 20
406.1668
  0
POINT
  8
3
 10
489.2725
 20
407.9707
  0
POINT
  8
3
 10
494.1235
 20
410.0682
  0
POINT
  8
3
 10
498.7988
 20
412.5138
  0
POINT
  8
3
 10
502.7588
 20
415.0946
  0
POINT
  8
3
 10
506.4771
 20
418.0154
  0
POINT
  8
3
 10
509.9585
 20
421.2307
  0
POINT
  8
3
 10
513.1885
 20
424.7048
  0
POINT
  8
3
 10
516.5747
 20
428.8343
  0
POINT
  8
3
 10
519.6875
 20
433.1747
  0
POINT
  8
3
 10
522.5488
 20
437.7905
  0
POINT
  8
2
 10
525.1123
 20
442.6052
  0
POINT
  8
2
 10
775.3442
 20
370.7090
  0
POINT
  8
3
 10
770.8423
 20
351.9802
  0
POINT
  8
3
 10
766.8970
 20
333.1436
  0
POINT
  8
3
 10
763.5059
 20
314.1903
  0
POINT
  8
3
 10
760.6689
 20
295.1463
  0
POINT
  8
3
 10
758.3618
 20
276.0302
  0
POINT
  8
3
 10
756.6260
 20
256.8554
  0
POINT
  8
3
 10
755.4932
 20
237.6443
  0
POINT
  8
4
 10
755.1675
 20
228.6027
 38
5.0000
 50
178.2873
  0
POINT
  8
3
 10
755.1675
 20
228.6027
  0
POINT
  8
4
 10
754.9463
 20
218.3888
 38
5.0000
 50
179.0523
  0
POINT
  8
2
 10
754.9463
 20
218.3888
  0
POINT
  8
3
 10
755.1099
 20
204.6983
  0
POINT
  8
3
 10
755.5884
 20
191.0224
  0
POINT
  8
3
 10
756.3696
 20
177.3558
  0
POINT
  8
3
 10
757.4878
 20
163.7133
  0
POINT
  8
3
 10
758.9331
 20
150.0996
  0
POINT
  8
3
 10
760.8105
 20
136.5431
  0
POINT
  8
3
 10
763.1519
 20
123.0503
  0
POINT
  8
3
 10
766.1377
 20
109.7013
  0
POINT
  8
3
 10
769.9829
 20
96.5669
  0
POINT
  8
3
 10
774.6265
 20
83.6982
  0
POINT
  8
3
 10
780.0854
 20
71.1769
  0
POINT
  8
2
 10
786.3550
 20
58.9791
  0
POINT
  8
2
 10
783.7524
 20
42.0022
  0
POINT
  8
2
 10
414.4165
 20
42.0022
  0
POINT
  8
2
 10
45.0806
 20
42.0019
  0
LINE
  8
8
 10
414.4165
 20
399.0027
 11
414.4165
 21
42.0027
  0
POINT
  8
2
 10
414.4165
 20
399.0027
  0
POINT
  8
2
 10
414.4165
 20
42.0027
  0
LINE
  8
8
 10
308.7231
 20
417.3191
 11
324.3506
 21
430.4283
  0
POINT
  8
2
 10
308.7231
 20
417.3191
  0
POINT
  8
2
 10
324.3506
 20
430.4283
  0
LINE
  8
8
 10
241.0156
 20
271.5022
 11
587.8149
 21
271.5022
  0
POINT
  8
2
 10
241.0156
 20
271.5022
  0
POINT
  8
2
 10
587.8149
 20
271.5022
  0
LINE
  8
8
 10
414.4165
 20
72.6022
 11
779.4214
 21
72.6022
  0
POINT
  8
2
 10
414.4165
 20
72.6022
  0
POINT
  8
2
 10
779.4214
 20
72.6022
  0
LINE
  8
8
 10
414.4165
 20
72.6027
 11
49.4092
 21
72.6022
  0
POINT
  8
2
 10
414.4165
 20
72.6027
  0
POINT
  8
2
 10
49.4092
 20
72.6022
  0
LINE
  8
8
 10
198.0786
 20
42.0022
 11
198.0786
 21
72.6022
  0
POINT
  8
2
 10
198.0786
 20
42.0022
  0
POINT
  8
2
 10
198.0786
 20
72.6022
  0
LINE
  8
8
 10
630.7520
 20
42.0022
 11
630.7520
 21
72.6022
  0
POINT
  8
2
 10
630.7520
 20
42.0022
  0
POINT
  8
2
 10
630.7520
 20
72.6022
  0
ENDBLK
  0
BLOCK
  8
0
  2
BLK_4_1
 70
64
 10
0.0000
 20
0.0000
  0
TEXT
  8
1
 10
409.7217
 20
40.9417
 40
2.8000
 50
0.0000
  1
PIECE NAME: 등요크단
  7
STANDARD
  0
TEXT
  8
1
 10
409.7217
 20
38.1417
 40
2.8000
 50
0.0000
  1
SIZE: L
  7
STANDARD
  0
TEXT
  8
1
 10
409.7217
 20
35.3417
 40
2.8000
 50
0.0000
  1
CATEGORY: 겉감
  7
STANDARD
  0
TEXT
  8
1
 10
409.7217
 20
32.5417
 40
2.8000
 50
0.0000
  1
QUANTITY: 1
  7
STANDARD
  0
TEXT
  8
1
 10
409.7217
 20
29.7417
 40
2.8000
 50
0.0000
  1
ANNOTATION: 
  7
STANDARD
  0
TEXT
  8
1
 10
353.6768
 20
60.6441
 40
5.1000
 50
360.0000
  1
ANNOTATION: S/#NOS725SSWT01
  7
STANDARD
  0
TEXT
  8
1
 10
381.7261
 20
54.5241
 40
5.1000
 50
360.0000
  1
ANNOTATION: BACK
  7
STANDARD
  0
TEXT
  8
1
 10
384.2774
 20
48.4039
 40
5.1000
 50
360.0000
  1
ANNOTATION: <L>
  7
STANDARD
  0
POLYLINE
  8
1
 66
1
 70
1
  0
VERTEX
  8
1
 10
34.7754
 20
30.0014
  0
VERTEX
  8
1
 10
31.9360
 20
48.6615
  0
VERTEX
  8
1
 10
30.0025
 20
61.1986
  0
VERTEX
  8
1
 10
31.9653
 20
64.7510
  0
VERTEX
  8
1
 10
33.7158
 20
67.9791
  0
VERTEX
  8
1
 10
35.1587
 20
70.7432
  0
VERTEX
  8
1
 10
36.9922
 20
74.4206
  0
VERTEX
  8
1
 10
38.5498
 20
77.6858
  0
VERTEX
  8
1
 10
41.7603
 20
84.5994
  0
VERTEX
  8
1
 10
414.4238
 20
84.5994
  0
VERTEX
  8
1
 10
787.0044
 20
84.5978
  0
VERTEX
  8
1
 10
791.8579
 20
74.4189
  0
VERTEX
  8
1
 10
793.2715
 20
71.5663
  0
VERTEX
  8
1
 10
795.1343
 20
67.9710
  0
VERTEX
  8
1
 10
796.8823
 20
64.7493
  0
VERTEX
  8
1
 10
798.8452
 20
61.2074
  0
VERTEX
  8
1
 10
796.9116
 20
48.6612
  0
VERTEX
  8
1
 10
795.6226
 20
40.1987
  0
VERTEX
  8
1
 10
794.0918
 20
30.0004
  0
VERTEX
  8
1
 10
414.4238
 20
30.0004
  0
VERTEX
  8
1
 10
34.7754
 20
30.0014
  0
SEQEND
  0
POINT
  8
2
 10
34.7754
 20
30.0014
  0
POINT
  8
3
 10
31.9360
 20
48.6615
  0
POINT
  8
2
 10
30.0025
 20
61.1986
  0
POINT
  8
3
 10
31.9653
 20
64.7510
  0
POINT
  8
3
 10
33.7158
 20
67.9791
  0
POINT
  8
3
 10
35.1587
 20
70.7432
  0
POINT
  8
3
 10
36.9922
 20
74.4206
  0
POINT
  8
3
 10
38.5498
 20
77.6858
  0
POINT
  8
2
 10
41.7603
 20
84.5994
  0
POINT
  8
2
 10
414.4238
 20
84.5994
  0
POINT
  8
2
 10
787.0044
 20
84.5978
  0
POINT
  8
3
 10
791.8579
 20
74.4189
  0
POINT
  8
3
 10
793.2715
 20
71.5663
  0
POINT
  8
3
 10
795.1343
 20
67.9710
  0
POINT
  8
3
 10
796.8823
 20
64.7493
  0
POINT
  8
2
 10
798.8452
 20
61.2074
  0
POINT
  8
3
 10
796.9116
 20
48.6612
  0
POINT
  8
3
 10
795.6226
 20
40.1987
  0
POINT
  8
2
 10
794.0918
 20
30.0004
  0
POINT
  8
2
 10
414.4238
 20
30.0004
  0
POINT
  8
2
 10
34.7754
 20
30.0014
  0
POLYLINE
  8
14
 66
1
 70
1
  0
VERTEX
  8
14
 10
45.0879
 20
41.9993
  0
VERTEX
  8
14
 10
42.4854
 20
58.9770
  0
VERTEX
  8
14
 10
45.7178
 20
65.0291
  0
VERTEX
  8
14
 10
49.4190
 20
72.5999
  0
VERTEX
  8
14
 10
414.4238
 20
72.5999
  0
VERTEX
  8
14
 10
779.4287
 20
72.6010
  0
VERTEX
  8
14
 10
783.1299
 20
65.0291
  0
VERTEX
  8
14
 10
786.3623
 20
58.9772
  0
VERTEX
  8
14
 10
783.7598
 20
42.0000
  0
VERTEX
  8
14
 10
414.4238
 20
42.0000
  0
VERTEX
  8
14
 10
45.0879
 20
41.9993
  0
SEQEND
  0
POINT
  8
2
 10
45.0879
 20
41.9993
  0
POINT
  8
2
 10
42.4854
 20
58.9770
  0
POINT
  8
3
 10
45.7178
 20
65.0291
  0
POINT
  8
2
 10
49.4190
 20
72.5999
  0
POINT
  8
2
 10
414.4238
 20
72.5999
  0
POINT
  8
2
 10
779.4287
 20
72.6010
  0
POINT
  8
3
 10
783.1299
 20
65.0291
  0
POINT
  8
2
 10
786.3623
 20
58.9772
  0
POINT
  8
2
 10
783.7598
 20
42.0000
  0
POINT
  8
2
 10
414.4238
 20
42.0000
  0
POINT
  8
2
 10
45.0879
 20
41.9993
  0
LINE
  8
8
 10
414.4238
 20
72.6004
 11
414.4238
 21
42.0005
  0
POINT
  8
2
 10
414.4238
 20
72.6004
  0
POINT
  8
2
 10
414.4238
 20
42.0005
  0
ENDBLK
  0
BLOCK
  8
0
  2
BLK_5_1
 70
64
 10
0.0000
 20
0.0000
  0
TEXT
  8
1
 10
324.5435
 20
340.7354
 40
2.8000
 50
0.0000
  1
PIECE NAME: 소매
  7
STANDARD
  0
TEXT
  8
1
 10
324.5435
 20
337.9354
 40
2.8000
 50
0.0000
  1
SIZE: L
  7
STANDARD
  0
TEXT
  8
1
 10
324.5435
 20
335.1354
 40
2.8000
 50
0.0000
  1
CATEGORY: 겉감
  7
STANDARD
  0
TEXT
  8
1
 10
324.5435
 20
332.3354
 40
2.8000
 50
0.0000
  1
QUANTITY: 2
  7
STANDARD
  0
TEXT
  8
1
 10
324.5435
 20
329.5354
 40
2.8000
 50
0.0000
  1
ANNOTATION: 
  7
STANDARD
  0
TEXT
  8
1
 10
297.7320
 20
332.0654
 40
5.1000
 50
0.0000
  1
ANNOTATION: S/#NOS725SSWT01
  7
STANDARD
  0
TEXT
  8
1
 10
320.6812
 20
325.9455
 40
5.1000
 50
0.0000
  1
ANNOTATION: SLEEVE
  7
STANDARD
  0
TEXT
  8
1
 10
328.3326
 20
319.8254
 40
5.1000
 50
0.0000
  1
ANNOTATION: <L>
  7
STANDARD
  0
POLYLINE
  8
1
 66
1
 70
1
  0
VERTEX
  8
1
 10
139.6534
 20
30.0000
  0
VERTEX
  8
1
 10
139.6094
 20
74.0333
  0
VERTEX
  8
1
 10
139.5752
 20
105.3238
  0
VERTEX
  8
1
 10
137.3194
 20
121.9795
  0
VERTEX
  8
1
 10
134.7266
 20
139.3741
  0
VERTEX
  8
1
 10
129.0137
 20
172.8699
  0
VERTEX
  8
1
 10
123.1177
 20
204.8105
  0
VERTEX
  8
1
 10
116.0010
 20
241.1423
  0
VERTEX
  8
1
 10
108.5206
 20
277.7040
  0
VERTEX
  8
1
 10
101.9068
 20
308.6041
  0
VERTEX
  8
1
 10
94.1651
 20
343.1256
  0
VERTEX
  8
1
 10
86.0303
 20
378.2750
  0
VERTEX
  8
1
 10
78.0298
 20
410.9253
  0
VERTEX
  8
1
 10
68.5352
 20
446.2936
  0
VERTEX
  8
1
 10
64.0943
 20
461.9043
  0
VERTEX
  8
1
 10
59.4165
 20
477.4461
  0
VERTEX
  8
1
 10
54.2530
 20
493.6888
  0
VERTEX
  8
1
 10
48.7354
 20
509.8098
  0
VERTEX
  8
1
 10
44.2554
 20
521.8486
  0
VERTEX
  8
1
 10
36.2305
 20
541.7112
  0
VERTEX
  8
1
 10
30.0000
 20
556.5716
  0
VERTEX
  8
1
 10
45.9986
 20
558.2895
  0
VERTEX
  8
1
 10
70.1197
 20
561.7979
  0
VERTEX
  8
1
 10
93.5254
 20
567.6498
  0
VERTEX
  8
1
 10
116.0718
 20
575.9808
  0
VERTEX
  8
1
 10
137.9102
 20
586.2010
  0
VERTEX
  8
1
 10
159.8829
 20
598.5211
  0
VERTEX
  8
1
 10
181.5577
 20
611.4554
  0
VERTEX
  8
1
 10
203.7696
 20
624.4019
  0
VERTEX
  8
1
 10
226.4478
 20
636.3647
  0
VERTEX
  8
1
 10
250.7374
 20
646.6396
  0
VERTEX
  8
1
 10
275.7618
 20
654.8117
  0
VERTEX
  8
1
 10
301.3697
 20
660.4060
  0
VERTEX
  8
1
 10
328.0201
 20
663.5910
  0
VERTEX
  8
1
 10
341.1133
 20
663.6308
  0
VERTEX
  8
1
 10
353.7793
 20
663.1252
  0
VERTEX
  8
1
 10
366.4551
 20
662.0715
  0
VERTEX
  8
1
 10
379.0796
 20
660.4988
  0
VERTEX
  8
1
 10
391.5479
 20
658.4576
  0
VERTEX
  8
1
 10
403.9185
 20
655.9023
  0
VERTEX
  8
1
 10
416.4039
 20
652.8098
  0
VERTEX
  8
1
 10
428.7110
 20
649.1028
  0
VERTEX
  8
1
 10
440.7520
 20
644.5950
  0
VERTEX
  8
1
 10
452.5684
 20
639.5007
  0
VERTEX
  8
1
 10
463.8257
 20
634.0616
  0
VERTEX
  8
1
 10
474.9366
 20
628.3115
  0
VERTEX
  8
1
 10
518.1153
 20
605.2032
  0
VERTEX
  8
1
 10
539.6460
 20
594.0279
  0
VERTEX
  8
1
 10
550.4322
 20
588.7477
  0
VERTEX
  8
1
 10
561.3086
 20
583.6557
  0
VERTEX
  8
1
 10
572.1363
 20
578.8188
  0
VERTEX
  8
1
 10
583.0640
 20
574.2168
  0
VERTEX
  8
1
 10
594.1724
 20
569.8778
  0
VERTEX
  8
1
 10
605.3785
 20
565.7944
  0
VERTEX
  8
1
 10
613.8965
 20
562.8654
  0
VERTEX
  8
1
 10
628.2032
 20
558.2890
  0
VERTEX
  8
1
 10
640.7154
 20
554.4349
  0
VERTEX
  8
1
 10
635.7911
 20
542.3092
  0
VERTEX
  8
1
 10
629.4532
 20
526.3105
  0
VERTEX
  8
1
 10
623.4839
 20
510.1809
  0
VERTEX
  8
1
 10
617.8980
 20
493.9632
  0
VERTEX
  8
1
 10
612.6758
 20
477.6252
  0
VERTEX
  8
1
 10
607.3267
 20
459.5298
  0
VERTEX
  8
1
 10
602.2535
 20
441.3534
  0
VERTEX
  8
1
 10
594.3116
 20
411.1259
  0
VERTEX
  8
1
 10
586.1231
 20
377.1956
  0
VERTEX
  8
1
 10
578.4375
 20
343.5378
  0
VERTEX
  8
1
 10
570.8619
 20
309.1867
  0
VERTEX
  8
1
 10
563.7354
 20
275.3178
  0
VERTEX
  8
1
 10
557.2242
 20
242.9849
  0
VERTEX
  8
1
 10
550.6446
 20
208.9252
  0
VERTEX
  8
1
 10
544.1431
 20
173.2536
  0
VERTEX
  8
1
 10
538.4351
 20
139.1532
  0
VERTEX
  8
1
 10
535.9473
 20
122.0652
  0
VERTEX
  8
1
 10
533.7989
 20
105.7111
  0
VERTEX
  8
1
 10
533.8282
 20
74.4087
  0
VERTEX
  8
1
 10
533.8746
 20
30.3663
  0
VERTEX
  8
1
 10
139.6534
 20
30.0000
  0
SEQEND
  0
POINT
  8
2
 10
139.6534
 20
30.0000
  0
POINT
  8
2
 10
139.6094
 20
74.0333
  0
POINT
  8
2
 10
139.5752
 20
105.3238
  0
POINT
  8
3
 10
137.3194
 20
121.9795
  0
POINT
  8
3
 10
134.7266
 20
139.3741
  0
POINT
  8
3
 10
129.0137
 20
172.8699
  0
POINT
  8
3
 10
123.1177
 20
204.8105
  0
POINT
  8
3
 10
116.0010
 20
241.1423
  0
POINT
  8
3
 10
108.5206
 20
277.7040
  0
POINT
  8
3
 10
101.9068
 20
308.6041
  0
POINT
  8
3
 10
94.1651
 20
343.1256
  0
POINT
  8
3
 10
86.0303
 20
378.2750
  0
POINT
  8
3
 10
78.0298
 20
410.9253
  0
POINT
  8
3
 10
68.5352
 20
446.2936
  0
POINT
  8
3
 10
64.0943
 20
461.9043
  0
POINT
  8
3
 10
59.4165
 20
477.4461
  0
POINT
  8
3
 10
54.2530
 20
493.6888
  0
POINT
  8
3
 10
48.7354
 20
509.8098
  0
POINT
  8
3
 10
44.2554
 20
521.8486
  0
POINT
  8
3
 10
36.2305
 20
541.7112
  0
POINT
  8
2
 10
30.0000
 20
556.5716
  0
POINT
  8
3
 10
45.9986
 20
558.2895
  0
POINT
  8
3
 10
70.1197
 20
561.7979
  0
POINT
  8
3
 10
93.5254
 20
567.6498
  0
POINT
  8
3
 10
116.0718
 20
575.9808
  0
POINT
  8
3
 10
137.9102
 20
586.2010
  0
POINT
  8
3
 10
159.8829
 20
598.5211
  0
POINT
  8
3
 10
181.5577
 20
611.4554
  0
POINT
  8
3
 10
203.7696
 20
624.4019
  0
POINT
  8
3
 10
226.4478
 20
636.3647
  0
POINT
  8
3
 10
250.7374
 20
646.6396
  0
POINT
  8
3
 10
275.7618
 20
654.8117
  0
POINT
  8
3
 10
301.3697
 20
660.4060
  0
POINT
  8
2
 10
328.0201
 20
663.5910
  0
POINT
  8
3
 10
341.1133
 20
663.6308
  0
POINT
  8
3
 10
353.7793
 20
663.1252
  0
POINT
  8
3
 10
366.4551
 20
662.0715
  0
POINT
  8
3
 10
379.0796
 20
660.4988
  0
POINT
  8
3
 10
391.5479
 20
658.4576
  0
POINT
  8
3
 10
403.9185
 20
655.9023
  0
POINT
  8
3
 10
416.4039
 20
652.8098
  0
POINT
  8
3
 10
428.7110
 20
649.1028
  0
POINT
  8
3
 10
440.7520
 20
644.5950
  0
POINT
  8
3
 10
452.5684
 20
639.5007
  0
POINT
  8
3
 10
463.8257
 20
634.0616
  0
POINT
  8
3
 10
474.9366
 20
628.3115
  0
POINT
  8
3
 10
518.1153
 20
605.2032
  0
POINT
  8
3
 10
539.6460
 20
594.0279
  0
POINT
  8
3
 10
550.4322
 20
588.7477
  0
POINT
  8
3
 10
561.3086
 20
583.6557
  0
POINT
  8
3
 10
572.1363
 20
578.8188
  0
POINT
  8
3
 10
583.0640
 20
574.2168
  0
POINT
  8
3
 10
594.1724
 20
569.8778
  0
POINT
  8
3
 10
605.3785
 20
565.7944
  0
POINT
  8
3
 10
613.8965
 20
562.8654
  0
POINT
  8
3
 10
628.2032
 20
558.2890
  0
POINT
  8
2
 10
640.7154
 20
554.4349
  0
POINT
  8
3
 10
635.7911
 20
542.3092
  0
POINT
  8
3
 10
629.4532
 20
526.3105
  0
POINT
  8
3
 10
623.4839
 20
510.1809
  0
POINT
  8
3
 10
617.8980
 20
493.9632
  0
POINT
  8
3
 10
612.6758
 20
477.6252
  0
POINT
  8
3
 10
607.3267
 20
459.5298
  0
POINT
  8
3
 10
602.2535
 20
441.3534
  0
POINT
  8
3
 10
594.3116
 20
411.1259
  0
POINT
  8
3
 10
586.1231
 20
377.1956
  0
POINT
  8
3
 10
578.4375
 20
343.5378
  0
POINT
  8
3
 10
570.8619
 20
309.1867
  0
POINT
  8
3
 10
563.7354
 20
275.3178
  0
POINT
  8
3
 10
557.2242
 20
242.9849
  0
POINT
  8
3
 10
550.6446
 20
208.9252
  0
POINT
  8
3
 10
544.1431
 20
173.2536
  0
POINT
  8
3
 10
538.4351
 20
139.1532
  0
POINT
  8
3
 10
535.9473
 20
122.0652
  0
POINT
  8
2
 10
533.7989
 20
105.7111
  0
POINT
  8
2
 10
533.8282
 20
74.4087
  0
POINT
  8
2
 10
533.8746
 20
30.3663
  0
POINT
  8
2
 10
139.6534
 20
30.0000
  0
POLYLINE
  8
14
 66
1
 70
1
  0
VERTEX
  8
14
 10
151.6407
 20
42.0107
  0
VERTEX
  8
14
 10
151.6089
 20
74.0455
  0
VERTEX
  8
14
 10
151.5748
 20
106.0866
  0
VERTEX
  8
14
 10
149.2481
 20
123.3681
  0
VERTEX
  8
14
 10
146.6797
 20
140.6121
  0
VERTEX
  8
14
 10
140.8252
 20
174.9867
  0
VERTEX
  8
14
 10
134.4800
 20
209.2754
  0
VERTEX
  8
14
 10
127.7686
 20
243.4948
  0
VERTEX
  8
14
 10
120.7886
 20
277.6599
  0
VERTEX
  8
14
 10
113.4986
 20
311.7602
  0
VERTEX
  8
14
 10
105.8667
 20
345.7873
  0
VERTEX
  8
14
 10
98.0103
 20
379.7614
  0
VERTEX
  8
14
 10
89.7217
 20
413.6343
  0
VERTEX
  8
14
 10
80.7056
 20
447.3184
  0
VERTEX
  8
14
 10
75.9449
 20
464.0915
  0
VERTEX
  8
14
 10
70.9424
 20
480.7932
  0
VERTEX
  8
14
 10
65.6641
 20
497.4120
  0
VERTEX
  8
14
 10
60.0147
 20
513.9043
  0
VERTEX
  8
14
 10
53.8770
 20
530.2130
  0
VERTEX
  8
14
 10
47.2901
 20
546.3594
  0
VERTEX
  8
14
 10
72.5708
 20
550.0548
  0
VERTEX
  8
14
 10
97.1070
 20
556.1954
  0
VERTEX
  8
14
 10
120.6568
 20
564.9043
  0
VERTEX
  8
14
 10
143.4717
 20
575.5676
  0
VERTEX
  8
14
 10
165.6104
 20
587.9622
  0
VERTEX
  8
14
 10
187.4390
 20
600.9917
  0
VERTEX
  8
14
 10
193.2571
 20
604.4510
  0
VERTEX
  8
14
 10
209.3091
 20
613.7424
  0
VERTEX
  8
14
 10
231.6309
 20
625.5405
  0
VERTEX
  8
14
 10
254.9097
 20
635.3995
  0
VERTEX
  8
14
 10
278.9014
 20
643.2282
  0
VERTEX
  8
14
 10
303.4522
 20
648.5869
  0
VERTEX
  8
14
 10
328.6329
 20
651.6002
  0
VERTEX
  8
14
 10
340.8570
 20
651.6327
  0
VERTEX
  8
14
 10
353.0494
 20
651.1472
  0
VERTEX
  8
14
 10
365.2222
 20
650.1361
  0
VERTEX
  8
14
 10
377.3414
 20
648.6249
  0
VERTEX
  8
14
 10
389.3970
 20
646.6475
  0
VERTEX
  8
14
 10
401.3599
 20
644.1774
  0
VERTEX
  8
14
 10
413.2203
 20
641.2415
  0
VERTEX
  8
14
 10
424.9097
 20
637.7197
  0
VERTEX
  8
14
 10
436.3404
 20
633.4390
  0
VERTEX
  8
14
 10
447.5562
 20
628.5980
  0
VERTEX
  8
14
 10
458.5499
 20
623.2803
  0
VERTEX
  8
14
 10
466.9068
 20
618.9741
  0
VERTEX
  8
14
 10
469.4043
 20
617.6634
  0
VERTEX
  8
14
 10
475.9832
 20
614.1895
  0
VERTEX
  8
14
 10
512.4854
 20
594.6073
  0
VERTEX
  8
14
 10
534.1651
 20
583.3530
  0
VERTEX
  8
14
 10
545.1343
 20
577.9807
  0
VERTEX
  8
14
 10
556.1963
 20
572.7998
  0
VERTEX
  8
14
 10
567.3511
 20
567.8163
  0
VERTEX
  8
14
 10
578.6084
 20
563.0743
  0
VERTEX
  8
14
 10
589.9878
 20
558.6317
  0
VERTEX
  8
14
 10
601.4624
 20
554.4510
  0
VERTEX
  8
14
 10
613.0225
 20
550.5115
  0
VERTEX
  8
14
 10
624.6705
 20
546.8206
  0
VERTEX
  8
14
 10
618.2544
 20
530.6166
  0
VERTEX
  8
14
 10
612.2071
 20
514.2802
  0
VERTEX
  8
14
 10
606.5406
 20
497.8011
  0
VERTEX
  8
14
 10
601.2232
 20
481.2047
  0
VERTEX
  8
14
 10
596.2574
 20
464.5016
  0
VERTEX
  8
14
 10
591.5577
 20
447.7206
  0
VERTEX
  8
14
 10
582.6661
 20
414.0210
  0
VERTEX
  8
14
 10
574.4874
 20
380.1402
  0
VERTEX
  8
14
 10
566.7310
 20
346.1597
  0
VERTEX
  8
14
 10
559.2212
 20
312.1269
  0
VERTEX
  8
14
 10
552.0386
 20
278.0206
  0
VERTEX
  8
14
 10
545.1661
 20
243.8514
  0
VERTEX
  8
14
 10
538.5669
 20
209.6284
  0
VERTEX
  8
14
 10
532.3267
 20
175.3378
  0
VERTEX
  8
14
 10
526.5723
 20
140.9634
  0
VERTEX
  8
14
 10
524.0650
 20
123.7202
  0
VERTEX
  8
14
 10
521.7994
 20
106.4395
  0
VERTEX
  8
14
 10
521.8287
 20
74.3990
  0
VERTEX
  8
14
 10
521.8628
 20
42.3547
  0
VERTEX
  8
14
 10
151.6407
 20
42.0107
  0
SEQEND
  0
POINT
  8
2
 10
151.6407
 20
42.0107
  0
POINT
  8
2
 10
151.6089
 20
74.0455
  0
POINT
  8
2
 10
151.5748
 20
106.0866
  0
POINT
  8
3
 10
149.2481
 20
123.3681
  0
POINT
  8
3
 10
146.6797
 20
140.6121
  0
POINT
  8
3
 10
140.8252
 20
174.9867
  0
POINT
  8
3
 10
134.4800
 20
209.2754
  0
POINT
  8
3
 10
127.7686
 20
243.4948
  0
POINT
  8
3
 10
120.7886
 20
277.6599
  0
POINT
  8
3
 10
113.4986
 20
311.7602
  0
POINT
  8
3
 10
105.8667
 20
345.7873
  0
POINT
  8
3
 10
98.0103
 20
379.7614
  0
POINT
  8
3
 10
89.7217
 20
413.6343
  0
POINT
  8
3
 10
80.7056
 20
447.3184
  0
POINT
  8
3
 10
75.9449
 20
464.0915
  0
POINT
  8
3
 10
70.9424
 20
480.7932
  0
POINT
  8
3
 10
65.6641
 20
497.4120
  0
POINT
  8
3
 10
60.0147
 20
513.9043
  0
POINT
  8
3
 10
53.8770
 20
530.2130
  0
POINT
  8
2
 10
47.2901
 20
546.3594
  0
POINT
  8
3
 10
72.5708
 20
550.0548
  0
POINT
  8
3
 10
97.1070
 20
556.1954
  0
POINT
  8
3
 10
120.6568
 20
564.9043
  0
POINT
  8
3
 10
143.4717
 20
575.5676
  0
POINT
  8
3
 10
165.6104
 20
587.9622
  0
POINT
  8
3
 10
187.4390
 20
600.9917
  0
POINT
  8
4
 10
193.2571
 20
604.4510
 38
5.0000
 50
294.9598
  0
POINT
  8
3
 10
193.2571
 20
604.4510
  0
POINT
  8
3
 10
209.3091
 20
613.7424
  0
POINT
  8
3
 10
231.6309
 20
625.5405
  0
POINT
  8
3
 10
254.9097
 20
635.3995
  0
POINT
  8
3
 10
278.9014
 20
643.2282
  0
POINT
  8
3
 10
303.4522
 20
648.5869
  0
POINT
  8
2
 10
328.6329
 20
651.6002
  0
POINT
  8
3
 10
340.8570
 20
651.6327
  0
POINT
  8
3
 10
353.0494
 20
651.1472
  0
POINT
  8
3
 10
365.2222
 20
650.1361
  0
POINT
  8
3
 10
377.3414
 20
648.6249
  0
POINT
  8
3
 10
389.3970
 20
646.6475
  0
POINT
  8
3
 10
401.3599
 20
644.1774
  0
POINT
  8
3
 10
413.2203
 20
641.2415
  0
POINT
  8
3
 10
424.9097
 20
637.7197
  0
POINT
  8
3
 10
436.3404
 20
633.4390
  0
POINT
  8
3
 10
447.5562
 20
628.5980
  0
POINT
  8
3
 10
458.5499
 20
623.2803
  0
POINT
  8
4
 10
466.9068
 20
618.9741
 38
5.0000
 50
248.5037
  0
POINT
  8
3
 10
466.9068
 20
618.9741
  0
POINT
  8
3
 10
469.4043
 20
617.6634
  0
POINT
  8
4
 10
475.9832
 20
614.1895
 38
5.0000
 50
247.8893
  0
POINT
  8
3
 10
475.9832
 20
614.1895
  0
POINT
  8
3
 10
512.4854
 20
594.6073
  0
POINT
  8
3
 10
534.1651
 20
583.3530
  0
POINT
  8
3
 10
545.1343
 20
577.9807
  0
POINT
  8
3
 10
556.1963
 20
572.7998
  0
POINT
  8
3
 10
567.3511
 20
567.8163
  0
POINT
  8
3
 10
578.6084
 20
563.0743
  0
POINT
  8
3
 10
589.9878
 20
558.6317
  0
POINT
  8
3
 10
601.4624
 20
554.4510
  0
POINT
  8
3
 10
613.0225
 20
550.5115
  0
POINT
  8
2
 10
624.6705
 20
546.8206
  0
POINT
  8
3
 10
618.2544
 20
530.6166
  0
POINT
  8
3
 10
612.2071
 20
514.2802
  0
POINT
  8
3
 10
606.5406
 20
497.8011
  0
POINT
  8
3
 10
601.2232
 20
481.2047
  0
POINT
  8
3
 10
596.2574
 20
464.5016
  0
POINT
  8
3
 10
591.5577
 20
447.7206
  0
POINT
  8
3
 10
582.6661
 20
414.0210
  0
POINT
  8
3
 10
574.4874
 20
380.1402
  0
POINT
  8
3
 10
566.7310
 20
346.1597
  0
POINT
  8
3
 10
559.2212
 20
312.1269
  0
POINT
  8
3
 10
552.0386
 20
278.0206
  0
POINT
  8
3
 10
545.1661
 20
243.8514
  0
POINT
  8
3
 10
538.5669
 20
209.6284
  0
POINT
  8
3
 10
532.3267
 20
175.3378
  0
POINT
  8
3
 10
526.5723
 20
140.9634
  0
POINT
  8
3
 10
524.0650
 20
123.7202
  0
POINT
  8
2
 10
521.7994
 20
106.4395
  0
POINT
  8
2
 10
521.8287
 20
74.3990
  0
POINT
  8
2
 10
521.8628
 20
42.3547
  0
POINT
  8
2
 10
151.6407
 20
42.0107
  0
LINE
  8
8
 10
328.6329
 20
651.6007
 11
328.6329
 21
632.7264
  0
POINT
  8
2
 10
328.6329
 20
651.6007
  0
POINT
  8
2
 10
328.6329
 20
632.7264
  0
POLYLINE
  8
8
 66
1
 70
0
  0
VERTEX
  8
8
 10
254.8462
 20
74.1386
  0
VERTEX
  8
8
 10
256.2159
 20
69.0400
  0
VERTEX
  8
8
 10
259.9512
 20
65.3104
  0
VERTEX
  8
8
 10
265.0562
 20
63.9491
  0
VERTEX
  8
8
 10
270.1514
 20
65.3210
  0
VERTEX
  8
8
 10
273.8794
 20
69.0583
  0
VERTEX
  8
8
 10
275.2442
 20
74.1597
  0
SEQEND
  0
POINT
  8
2
 10
254.8462
 20
74.1386
  0
POINT
  8
3
 10
256.2159
 20
69.0400
  0
POINT
  8
3
 10
259.9512
 20
65.3104
  0
POINT
  8
3
 10
265.0562
 20
63.9491
  0
POINT
  8
3
 10
270.1514
 20
65.3210
  0
POINT
  8
3
 10
273.8794
 20
69.0583
  0
POINT
  8
2
 10
275.2442
 20
74.1597
  0
POLYLINE
  8
8
 66
1
 70
0
  0
VERTEX
  8
8
 10
259.9463
 20
74.1438
  0
VERTEX
  8
8
 10
261.4405
 20
70.5383
  0
VERTEX
  8
8
 10
265.0513
 20
69.0492
  0
VERTEX
  8
8
 10
268.6548
 20
70.5460
  0
VERTEX
  8
8
 10
270.1441
 20
74.1544
  0
SEQEND
  0
POINT
  8
2
 10
259.9463
 20
74.1438
  0
POINT
  8
3
 10
261.4405
 20
70.5383
  0
POINT
  8
3
 10
265.0513
 20
69.0492
  0
POINT
  8
3
 10
268.6548
 20
70.5460
  0
POINT
  8
2
 10
270.1441
 20
74.1544
  0
LINE
  8
8
 10
57.1460
 20
519.8476
 11
615.0025
 21
519.9858
  0
POINT
  8
2
 10
57.1460
 20
519.8476
  0
POINT
  8
2
 10
615.0025
 20
519.9858
  0
LINE
  8
8
 10
541.5210
 20
229.4557
 11
131.4087
 21
229.0697
  0
POINT
  8
2
 10
541.5210
 20
229.4557
  0
POINT
  8
2
 10
131.4087
 20
229.0697
  0
LINE
  8
8
 10
336.8091
 20
650.6998
 11
336.8091
 21
73.9680
  0
POINT
  8
2
 10
336.8091
 20
650.6998
  0
POINT
  8
2
 10
336.8091
 20
73.9680
  0
LINE
  8
8
 10
521.8287
 20
74.3995
 11
151.6089
 21
74.0464
  0
POINT
  8
2
 10
521.8287
 20
74.3995
  0
POINT
  8
2
 10
151.6089
 20
74.0464
  0
LINE
  8
8
 10
151.5796
 20
106.0866
 11
521.7994
 21
106.4400
  0
POINT
  8
2
 10
151.5796
 20
106.0866
  0
POINT
  8
2
 10
521.7994
 20
106.4400
  0
ENDBLK
  0
BLOCK
  8
0
  2
BLK_6_1
 70
64
 10
0.0000
 20
0.0000
  0
TEXT
  8
1
 10
137.0166
 20
168.5359
 40
2.8000
 50
0.0000
  1
PIECE NAME: 주머니
  7
STANDARD
  0
TEXT
  8
1
 10
137.0166
 20
165.7359
 40
2.8000
 50
0.0000
  1
SIZE: L
  7
STANDARD
  0
TEXT
  8
1
 10
137.0166
 20
162.9359
 40
2.8000
 50
0.0000
  1
CATEGORY: 겉감
  7
STANDARD
  0
TEXT
  8
1
 10
137.0166
 20
160.1359
 40
2.8000
 50
0.0000
  1
QUANTITY: 2
  7
STANDARD
  0
TEXT
  8
1
 10
137.0166
 20
157.3359
 40
2.8000
 50
0.0000
  1
ANNOTATION: 
  7
STANDARD
  0
TEXT
  8
1
 10
96.3403
 20
174.9637
 40
5.2020
 50
0.0000
  1
ANNOTATION: S/#NOS725SSWT01
  7
STANDARD
  0
TEXT
  8
1
 10
122.3510
 20
168.7213
 40
5.2020
 50
0.0000
  1
ANNOTATION: FRONT
  7
STANDARD
  0
TEXT
  8
1
 10
127.5537
 20
162.4789
 40
5.2020
 50
0.0000
  1
ANNOTATION: pkt
  7
STANDARD
  0
TEXT
  8
1
 10
189.3750
 20
230.3458
 40
10.2000
 50
0.0000
  1
ANNOTATION: 바택배색
  7
STANDARD
  0
TEXT
  8
1
 10
187.7148
 20
167.8839
 40
10.2000
 50
0.0000
  1
ANNOTATION: 바택배색
  7
STANDARD
  0
POLYLINE
  8
1
 66
1
 70
1
  0
VERTEX
  8
1
 10
30.0000
 20
30.0000
  0
VERTEX
  8
1
 10
30.0000
 20
308.6480
  0
VERTEX
  8
1
 10
276.2085
 20
308.6492
  0
VERTEX
  8
1
 10
274.8462
 20
295.4183
  0
VERTEX
  8
1
 10
273.8947
 20
286.0247
  0
VERTEX
  8
1
 10
272.4243
 20
270.5372
  0
VERTEX
  8
1
 10
269.0991
 20
232.2127
  0
VERTEX
  8
1
 10
266.0278
 20
190.0245
  0
VERTEX
  8
1
 10
263.4961
 20
147.8049
  0
VERTEX
  8
1
 10
261.2671
 20
94.7880
  0
VERTEX
  8
1
 10
259.5312
 20
30.0014
  0
VERTEX
  8
1
 10
30.0000
 20
30.0000
  0
SEQEND
  0
POINT
  8
2
 10
30.0000
 20
30.0000
  0
POINT
  8
2
 10
30.0000
 20
308.6480
  0
POINT
  8
2
 10
276.2085
 20
308.6492
  0
POINT
  8
3
 10
274.8462
 20
295.4183
  0
POINT
  8
3
 10
273.8947
 20
286.0247
  0
POINT
  8
3
 10
272.4243
 20
270.5372
  0
POINT
  8
3
 10
269.0991
 20
232.2127
  0
POINT
  8
3
 10
266.0278
 20
190.0245
  0
POINT
  8
3
 10
263.4961
 20
147.8049
  0
POINT
  8
3
 10
261.2671
 20
94.7880
  0
POINT
  8
2
 10
259.5312
 20
30.0014
  0
POINT
  8
2
 10
30.0000
 20
30.0000
  0
POLYLINE
  8
14
 66
1
 70
1
  0
VERTEX
  8
14
 10
41.9995
 20
41.9996
  0
VERTEX
  8
14
 10
41.9995
 20
296.6485
  0
VERTEX
  8
14
 10
262.9101
 20
296.6492
  0
VERTEX
  8
14
 10
261.8987
 20
286.4970
  0
VERTEX
  8
14
 10
258.9843
 20
255.2298
  0
VERTEX
  8
14
 10
254.7851
 20
202.0043
  0
VERTEX
  8
14
 10
251.5283
 20
148.7129
  0
VERTEX
  8
14
 10
250.3139
 20
123.5705
  0
VERTEX
  8
14
 10
249.1967
 20
95.3810
  0
VERTEX
  8
14
 10
247.8003
 20
42.0008
  0
VERTEX
  8
14
 10
41.9995
 20
41.9996
  0
SEQEND
  0
POINT
  8
2
 10
41.9995
 20
41.9996
  0
POINT
  8
2
 10
41.9995
 20
296.6485
  0
POINT
  8
2
 10
262.9101
 20
296.6492
  0
POINT
  8
4
 10
261.8987
 20
286.4970
 38
5.0000
 50
177.7457
  0
POINT
  8
3
 10
261.8987
 20
286.4970
  0
POINT
  8
3
 10
258.9843
 20
255.2298
  0
POINT
  8
3
 10
254.7851
 20
202.0043
  0
POINT
  8
3
 10
251.5283
 20
148.7129
  0
POINT
  8
4
 10
250.3139
 20
123.5705
 38
5.0000
 50
177.7462
  0
POINT
  8
3
 10
250.3139
 20
123.5705
  0
POINT
  8
3
 10
249.1967
 20
95.3810
  0
POINT
  8
2
 10
247.8003
 20
42.0008
  0
POINT
  8
2
 10
41.9995
 20
41.9996
  0
LINE
  8
8
 10
250.3637
 20
126.0671
 11
210.3613
 21
180.5693
  0
POINT
  8
2
 10
250.3637
 20
126.0671
  0
POINT
  8
2
 10
210.3613
 20
180.5693
  0
LINE
  8
8
 10
258.1469
 20
282.3626
 11
212.0239
 21
227.8604
  0
POINT
  8
2
 10
258.1469
 20
282.3626
  0
POINT
  8
2
 10
212.0239
 20
227.8604
  0
LINE
  8
8
 10
258.1469
 20
282.3631
 11
234.5459
 21
269.1585
  0
POINT
  8
2
 10
258.1469
 20
282.3631
  0
POINT
  8
2
 10
234.5459
 20
269.1585
  0
LINE
  8
8
 10
211.9067
 20
296.6485
 11
196.7993
 21
42.0005
  0
POINT
  8
2
 10
211.9067
 20
296.6485
  0
POINT
  8
2
 10
196.7993
 20
42.0005
  0
LINE
  8
8
 10
249.1137
 20
67.4986
 11
41.9995
 21
67.4988
  0
POINT
  8
2
 10
249.1137
 20
67.4986
  0
POINT
  8
2
 10
41.9995
 20
67.4988
  0
LINE
  8
8
 10
250.3637
 20
126.0676
 11
226.7651
 21
139.2713
  0
POINT
  8
2
 10
250.3637
 20
126.0676
  0
POINT
  8
2
 10
226.7651
 20
139.2713
  0
ENDBLK
  0
BLOCK
  8
0
  2
BLK_7_1
 70
64
 10
0.0000
 20
0.0000
  0
TEXT
  8
1
 10
375.8496
 20
442.8705
 40
2.8000
 50
0.0000
  1
PIECE NAME: 등판안
  7
STANDARD
  0
TEXT
  8
1
 10
375.8496
 20
440.0705
 40
2.8000
 50
0.0000
  1
SIZE: L
  7
STANDARD
  0
TEXT
  8
1
 10
375.8496
 20
437.2705
 40
2.8000
 50
0.0000
  1
CATEGORY: 안감
  7
STANDARD
  0
TEXT
  8
1
 10
375.8496
 20
434.4705
 40
2.8000
 50
0.0000
  1
QUANTITY: 1
  7
STANDARD
  0
TEXT
  8
1
 10
375.8496
 20
431.6705
 40
2.8000
 50
0.0000
  1
ANNOTATION: 
  7
STANDARD
  0
TEXT
  8
1
 10
432.0215
 20
398.4069
 40
5.1000
 50
0.0000
  1
ANNOTATION: S/#NOS725SSWT01
  7
STANDARD
  0
TEXT
  8
1
 10
462.6221
 20
392.2870
 40
5.1000
 50
0.0000
  1
ANNOTATION: <L>
  7
STANDARD
  0
TEXT
  8
1
 10
454.9707
 20
386.1669
 40
5.1000
 50
0.0000
  1
ANNOTATION: LINING
  7
STANDARD
  0
POLYLINE
  8
1
 66
1
 70
1
  0
VERTEX
  8
1
 10
68.5816
 20
30.0022
  0
VERTEX
  8
1
 10
66.9653
 20
94.7850
  0
VERTEX
  8
1
 10
64.6509
 20
147.7550
  0
VERTEX
  8
1
 10
61.3892
 20
201.0892
  0
VERTEX
  8
1
 10
57.1948
 20
254.3577
  0
VERTEX
  8
1
 10
52.1069
 20
307.0579
  0
VERTEX
  8
1
 10
46.0596
 20
359.6567
  0
VERTEX
  8
1
 10
38.9990
 20
412.5026
  0
VERTEX
  8
1
 10
30.0000
 20
471.3504
  0
VERTEX
  8
1
 10
34.4043
 20
475.6656
  0
VERTEX
  8
1
 10
42.6172
 20
484.4484
  0
VERTEX
  8
1
 10
49.6631
 20
493.9936
  0
VERTEX
  8
1
 10
55.5542
 20
504.3806
  0
VERTEX
  8
1
 10
60.3223
 20
515.3576
  0
VERTEX
  8
1
 10
64.0991
 20
527.0770
  0
VERTEX
  8
1
 10
66.9751
 20
539.0831
  0
VERTEX
  8
1
 10
69.2407
 20
551.5020
  0
VERTEX
  8
1
 10
70.9033
 20
564.0282
  0
VERTEX
  8
1
 10
72.1411
 20
577.0373
  0
VERTEX
  8
1
 10
72.9785
 20
590.0841
  0
VERTEX
  8
1
 10
73.5352
 20
602.9317
  0
VERTEX
  8
1
 10
73.7744
 20
615.6145
  0
VERTEX
  8
1
 10
73.4277
 20
624.2791
  0
VERTEX
  8
1
 10
72.7783
 20
633.1944
  0
VERTEX
  8
1
 10
71.4819
 20
647.1528
  0
VERTEX
  8
1
 10
69.7168
 20
661.0532
  0
VERTEX
  8
1
 10
65.8960
 20
684.4512
  0
VERTEX
  8
1
 10
61.2598
 20
707.6921
  0
VERTEX
  8
1
 10
57.0386
 20
725.2350
  0
VERTEX
  8
1
 10
48.7988
 20
754.1964
  0
VERTEX
  8
1
 10
45.2173
 20
765.8746
  0
VERTEX
  8
1
 10
322.0435
 20
845.2716
  0
VERTEX
  8
1
 10
323.3154
 20
830.7852
  0
VERTEX
  8
1
 10
324.7705
 20
818.1588
  0
VERTEX
  8
1
 10
327.0191
 20
805.5201
  0
VERTEX
  8
1
 10
329.8438
 20
793.1858
  0
VERTEX
  8
1
 10
331.5552
 20
787.2026
  0
VERTEX
  8
1
 10
333.5230
 20
781.3011
  0
VERTEX
  8
1
 10
335.7251
 20
775.6277
  0
VERTEX
  8
1
 10
338.2275
 20
770.0825
  0
VERTEX
  8
1
 10
340.9888
 20
764.7842
  0
VERTEX
  8
1
 10
344.0869
 20
759.6817
  0
VERTEX
  8
1
 10
347.4414
 20
754.9822
  0
VERTEX
  8
1
 10
351.1450
 20
750.5558
  0
VERTEX
  8
1
 10
355.1392
 20
746.4832
  0
VERTEX
  8
1
 10
359.4580
 20
742.7598
  0
VERTEX
  8
1
 10
364.0479
 20
739.4497
  0
VERTEX
  8
1
 10
368.9160
 20
736.5683
  0
VERTEX
  8
1
 10
374.0991
 20
734.1534
  0
VERTEX
  8
1
 10
379.4727
 20
732.1668
  0
VERTEX
  8
1
 10
385.2271
 20
730.4684
  0
VERTEX
  8
1
 10
391.0840
 20
729.1260
  0
VERTEX
  8
1
 10
397.0239
 20
728.0714
  0
VERTEX
  8
1
 10
403.0151
 20
727.3659
  0
VERTEX
  8
1
 10
409.0137
 20
727.0454
  0
VERTEX
  8
1
 10
415.4102
 20
727.1115
  0
VERTEX
  8
1
 10
421.8262
 20
727.0452
  0
VERTEX
  8
1
 10
427.8247
 20
727.3660
  0
VERTEX
  8
1
 10
433.8208
 20
728.0728
  0
VERTEX
  8
1
 10
439.7705
 20
729.1285
  0
VERTEX
  8
1
 10
445.5982
 20
730.4636
  0
VERTEX
  8
1
 10
451.3306
 20
732.1548
  0
VERTEX
  8
1
 10
456.7456
 20
734.1586
  0
VERTEX
  8
1
 10
461.9702
 20
736.5911
  0
VERTEX
  8
1
 10
466.7993
 20
739.4490
  0
VERTEX
  8
1
 10
471.3525
 20
742.7352
  0
VERTEX
  8
1
 10
475.6738
 20
746.4587
  0
VERTEX
  8
1
 10
479.6729
 20
750.5310
  0
VERTEX
  8
1
 10
483.3960
 20
754.9791
  0
VERTEX
  8
1
 10
486.7676
 20
759.7007
  0
VERTEX
  8
1
 10
489.8462
 20
764.7665
  0
VERTEX
  8
1
 10
492.5879
 20
770.0269
  0
VERTEX
  8
1
 10
495.0781
 20
775.5318
  0
VERTEX
  8
1
 10
497.2681
 20
781.1642
  0
VERTEX
  8
1
 10
499.2481
 20
787.0896
  0
VERTEX
  8
1
 10
500.9717
 20
793.0975
  0
VERTEX
  8
1
 10
502.5098
 20
799.3565
  0
VERTEX
  8
1
 10
503.8525
 20
805.6629
  0
VERTEX
  8
1
 10
506.0913
 20
818.3153
  0
VERTEX
  8
1
 10
507.5269
 20
830.7849
  0
VERTEX
  8
1
 10
508.8159
 20
845.2647
  0
VERTEX
  8
1
 10
785.6201
 20
765.8752
  0
VERTEX
  8
1
 10
782.0410
 20
754.1962
  0
VERTEX
  8
1
 10
775.3174
 20
730.9912
  0
VERTEX
  8
1
 10
769.5532
 20
707.5708
  0
VERTEX
  8
1
 10
764.9292
 20
684.4119
  0
VERTEX
  8
1
 10
761.1255
 20
661.0960
  0
VERTEX
  8
1
 10
759.3530
 20
647.1082
  0
VERTEX
  8
1
 10
758.0493
 20
633.0622
  0
VERTEX
  8
1
 10
757.4072
 20
624.2130
  0
VERTEX
  8
1
 10
757.0630
 20
615.4354
  0
VERTEX
  8
1
 10
757.2974
 20
602.9727
  0
VERTEX
  8
1
 10
757.8589
 20
590.1665
  0
VERTEX
  8
1
 10
758.7232
 20
576.7992
  0
VERTEX
  8
1
 10
760.0000
 20
563.4705
  0
VERTEX
  8
1
 10
761.6382
 20
551.1919
  0
VERTEX
  8
1
 10
763.8794
 20
539.0204
  0
VERTEX
  8
1
 10
766.7774
 20
526.9737
  0
VERTEX
  8
1
 10
770.5713
 20
515.2129
  0
VERTEX
  8
1
 10
775.3101
 20
504.3140
  0
VERTEX
  8
1
 10
781.1694
 20
494.0039
  0
VERTEX
  8
1
 10
786.3525
 20
486.7663
  0
VERTEX
  8
1
 10
796.4356
 20
475.6722
  0
VERTEX
  8
1
 10
800.8447
 20
471.3482
  0
VERTEX
  8
1
 10
791.8164
 20
412.2897
  0
VERTEX
  8
1
 10
784.7290
 20
359.2284
  0
VERTEX
  8
1
 10
778.7036
 20
306.7295
  0
VERTEX
  8
1
 10
773.6279
 20
254.1296
  0
VERTEX
  8
1
 10
769.4605
 20
201.3294
  0
VERTEX
  8
1
 10
766.2232
 20
148.4639
  0
VERTEX
  8
1
 10
763.8916
 20
95.1395
  0
VERTEX
  8
1
 10
762.2559
 20
30.0021
  0
VERTEX
  8
1
 10
415.4199
 20
30.0000
  0
VERTEX
  8
1
 10
68.5816
 20
30.0022
  0
SEQEND
  0
POINT
  8
2
 10
68.5816
 20
30.0022
  0
POINT
  8
3
 10
66.9653
 20
94.7850
  0
POINT
  8
3
 10
64.6509
 20
147.7550
  0
POINT
  8
3
 10
61.3892
 20
201.0892
  0
POINT
  8
3
 10
57.1948
 20
254.3577
  0
POINT
  8
3
 10
52.1069
 20
307.0579
  0
POINT
  8
3
 10
46.0596
 20
359.6567
  0
POINT
  8
3
 10
38.9990
 20
412.5026
  0
POINT
  8
2
 10
30.0000
 20
471.3504
  0
POINT
  8
3
 10
34.4043
 20
475.6656
  0
POINT
  8
3
 10
42.6172
 20
484.4484
  0
POINT
  8
3
 10
49.6631
 20
493.9936
  0
POINT
  8
3
 10
55.5542
 20
504.3806
  0
POINT
  8
3
 10
60.3223
 20
515.3576
  0
POINT
  8
3
 10
64.0991
 20
527.0770
  0
POINT
  8
3
 10
66.9751
 20
539.0831
  0
POINT
  8
3
 10
69.2407
 20
551.5020
  0
POINT
  8
3
 10
70.9033
 20
564.0282
  0
POINT
  8
3
 10
72.1411
 20
577.0373
  0
POINT
  8
3
 10
72.9785
 20
590.0841
  0
POINT
  8
3
 10
73.5352
 20
602.9317
  0
POINT
  8
2
 10
73.7744
 20
615.6145
  0
POINT
  8
3
 10
73.4277
 20
624.2791
  0
POINT
  8
3
 10
72.7783
 20
633.1944
  0
POINT
  8
3
 10
71.4819
 20
647.1528
  0
POINT
  8
3
 10
69.7168
 20
661.0532
  0
POINT
  8
3
 10
65.8960
 20
684.4512
  0
POINT
  8
3
 10
61.2598
 20
707.6921
  0
POINT
  8
3
 10
57.0386
 20
725.2350
  0
POINT
  8
3
 10
48.7988
 20
754.1964
  0
POINT
  8
2
 10
45.2173
 20
765.8746
  0
POINT
  8
2
 10
322.0435
 20
845.2716
  0
POINT
  8
3
 10
323.3154
 20
830.7852
  0
POINT
  8
3
 10
324.7705
 20
818.1588
  0
POINT
  8
3
 10
327.0191
 20
805.5201
  0
POINT
  8
3
 10
329.8438
 20
793.1858
  0
POINT
  8
3
 10
331.5552
 20
787.2026
  0
POINT
  8
3
 10
333.5230
 20
781.3011
  0
POINT
  8
3
 10
335.7251
 20
775.6277
  0
POINT
  8
3
 10
338.2275
 20
770.0825
  0
POINT
  8
3
 10
340.9888
 20
764.7842
  0
POINT
  8
3
 10
344.0869
 20
759.6817
  0
POINT
  8
3
 10
347.4414
 20
754.9822
  0
POINT
  8
3
 10
351.1450
 20
750.5558
  0
POINT
  8
3
 10
355.1392
 20
746.4832
  0
POINT
  8
3
 10
359.4580
 20
742.7598
  0
POINT
  8
3
 10
364.0479
 20
739.4497
  0
POINT
  8
3
 10
368.9160
 20
736.5683
  0
POINT
  8
3
 10
374.0991
 20
734.1534
  0
POINT
  8
3
 10
379.4727
 20
732.1668
  0
POINT
  8
3
 10
385.2271
 20
730.4684
  0
POINT
  8
3
 10
391.0840
 20
729.1260
  0
POINT
  8
3
 10
397.0239
 20
728.0714
  0
POINT
  8
3
 10
403.0151
 20
727.3659
  0
POINT
  8
3
 10
409.0137
 20
727.0454
  0
POINT
  8
2
 10
415.4102
 20
727.1115
  0
POINT
  8
3
 10
421.8262
 20
727.0452
  0
POINT
  8
3
 10
427.8247
 20
727.3660
  0
POINT
  8
3
 10
433.8208
 20
728.0728
  0
POINT
  8
3
 10
439.7705
 20
729.1285
  0
POINT
  8
3
 10
445.5982
 20
730.4636
  0
POINT
  8
3
 10
451.3306
 20
732.1548
  0
POINT
  8
3
 10
456.7456
 20
734.1586
  0
POINT
  8
3
 10
461.9702
 20
736.5911
  0
POINT
  8
3
 10
466.7993
 20
739.4490
  0
POINT
  8
3
 10
471.3525
 20
742.7352
  0
POINT
  8
3
 10
475.6738
 20
746.4587
  0
POINT
  8
3
 10
479.6729
 20
750.5310
  0
POINT
  8
3
 10
483.3960
 20
754.9791
  0
POINT
  8
3
 10
486.7676
 20
759.7007
  0
POINT
  8
3
 10
489.8462
 20
764.7665
  0
POINT
  8
3
 10
492.5879
 20
770.0269
  0
POINT
  8
3
 10
495.0781
 20
775.5318
  0
POINT
  8
3
 10
497.2681
 20
781.1642
  0
POINT
  8
3
 10
499.2481
 20
787.0896
  0
POINT
  8
3
 10
500.9717
 20
793.0975
  0
POINT
  8
3
 10
502.5098
 20
799.3565
  0
POINT
  8
3
 10
503.8525
 20
805.6629
  0
POINT
  8
3
 10
506.0913
 20
818.3153
  0
POINT
  8
3
 10
507.5269
 20
830.7849
  0
POINT
  8
2
 10
508.8159
 20
845.2647
  0
POINT
  8
2
 10
785.6201
 20
765.8752
  0
POINT
  8
3
 10
782.0410
 20
754.1962
  0
POINT
  8
3
 10
775.3174
 20
730.9912
  0
POINT
  8
3
 10
769.5532
 20
707.5708
  0
POINT
  8
3
 10
764.9292
 20
684.4119
  0
POINT
  8
3
 10
761.1255
 20
661.0960
  0
POINT
  8
3
 10
759.3530
 20
647.1082
  0
POINT
  8
3
 10
758.0493
 20
633.0622
  0
POINT
  8
3
 10
757.4072
 20
624.2130
  0
POINT
  8
2
 10
757.0630
 20
615.4354
  0
POINT
  8
3
 10
757.2974
 20
602.9727
  0
POINT
  8
3
 10
757.8589
 20
590.1665
  0
POINT
  8
3
 10
758.7232
 20
576.7992
  0
POINT
  8
3
 10
760.0000
 20
563.4705
  0
POINT
  8
3
 10
761.6382
 20
551.1919
  0
POINT
  8
3
 10
763.8794
 20
539.0204
  0
POINT
  8
3
 10
766.7774
 20
526.9737
  0
POINT
  8
3
 10
770.5713
 20
515.2129
  0
POINT
  8
3
 10
775.3101
 20
504.3140
  0
POINT
  8
3
 10
781.1694
 20
494.0039
  0
POINT
  8
3
 10
786.3525
 20
486.7663
  0
POINT
  8
3
 10
796.4356
 20
475.6722
  0
POINT
  8
2
 10
800.8447
 20
471.3482
  0
POINT
  8
3
 10
791.8164
 20
412.2897
  0
POINT
  8
3
 10
784.7290
 20
359.2284
  0
POINT
  8
3
 10
778.7036
 20
306.7295
  0
POINT
  8
3
 10
773.6279
 20
254.1296
  0
POINT
  8
3
 10
769.4605
 20
201.3294
  0
POINT
  8
3
 10
766.2232
 20
148.4639
  0
POINT
  8
3
 10
763.8916
 20
95.1395
  0
POINT
  8
2
 10
762.2559
 20
30.0021
  0
POINT
  8
2
 10
415.4199
 20
30.0000
  0
POINT
  8
2
 10
68.5816
 20
30.0022
  0
POLYLINE
  8
14
 66
1
 70
1
  0
VERTEX
  8
14
 10
80.3491
 20
42.0011
  0
VERTEX
  8
14
 10
78.9502
 20
95.3818
  0
VERTEX
  8
14
 10
76.6187
 20
148.7136
  0
VERTEX
  8
14
 10
73.3594
 20
202.0050
  0
VERTEX
  8
14
 10
69.1626
 20
255.2305
  0
VERTEX
  8
14
 10
64.0259
 20
308.3738
  0
VERTEX
  8
14
 10
57.9321
 20
361.4153
  0
VERTEX
  8
14
 10
50.8643
 20
414.3268
  0
VERTEX
  8
14
 10
42.8223
 20
467.1173
  0
VERTEX
  8
14
 10
51.9190
 20
476.8688
  0
VERTEX
  8
14
 10
59.7315
 20
487.4601
  0
VERTEX
  8
14
 10
66.2524
 20
498.9609
  0
VERTEX
  8
14
 10
71.5454
 20
511.1085
  0
VERTEX
  8
14
 10
75.6152
 20
523.6991
  0
VERTEX
  8
14
 10
78.7158
 20
536.6002
  0
VERTEX
  8
14
 10
81.0938
 20
549.6270
  0
VERTEX
  8
14
 10
82.8369
 20
562.7672
  0
VERTEX
  8
14
 10
84.0967
 20
575.9570
  0
VERTEX
  8
14
 10
84.9463
 20
589.1855
  0
VERTEX
  8
14
 10
85.5225
 20
602.4204
  0
VERTEX
  8
14
 10
85.7764
 20
615.6732
  0
VERTEX
  8
14
 10
85.3955
 20
625.1392
  0
VERTEX
  8
14
 10
84.7046
 20
634.5795
  0
VERTEX
  8
14
 10
83.3838
 20
648.7252
  0
VERTEX
  8
14
 10
81.5894
 20
662.8120
  0
VERTEX
  8
14
 10
77.7002
 20
686.6182
  0
VERTEX
  8
14
 10
72.9810
 20
710.2650
  0
VERTEX
  8
14
 10
67.1167
 20
734.0966
  0
VERTEX
  8
14
 10
60.2759
 20
757.7090
  0
VERTEX
  8
14
 10
311.3623
 20
829.7224
  0
VERTEX
  8
14
 10
312.0313
 20
823.0304
  0
VERTEX
  8
14
 10
312.9053
 20
816.3681
  0
VERTEX
  8
14
 10
315.2588
 20
803.1331
  0
VERTEX
  8
14
 10
316.6602
 20
796.5570
  0
VERTEX
  8
14
 10
318.2666
 20
790.0304
  0
VERTEX
  8
14
 10
320.1196
 20
783.5675
  0
VERTEX
  8
14
 10
322.2485
 20
777.1931
  0
VERTEX
  8
14
 10
324.6851
 20
770.9273
  0
VERTEX
  8
14
 10
327.4512
 20
764.8033
  0
VERTEX
  8
14
 10
330.5640
 20
758.8418
  0
VERTEX
  8
14
 10
334.0527
 20
753.1013
  0
VERTEX
  8
14
 10
337.9614
 20
747.6327
  0
VERTEX
  8
14
 10
342.2705
 20
742.4803
  0
VERTEX
  8
14
 10
346.9800
 20
737.6846
  0
VERTEX
  8
14
 10
352.0728
 20
733.3007
  0
VERTEX
  8
14
 10
357.5269
 20
729.3779
  0
VERTEX
  8
14
 10
363.3081
 20
725.9583
  0
VERTEX
  8
14
 10
369.3945
 20
723.1194
  0
VERTEX
  8
14
 10
375.6983
 20
720.7758
  0
VERTEX
  8
14
 10
382.1411
 20
718.8682
  0
VERTEX
  8
14
 10
388.6963
 20
717.3655
  0
VERTEX
  8
14
 10
395.3149
 20
716.1928
  0
VERTEX
  8
14
 10
401.9873
 20
715.4095
  0
VERTEX
  8
14
 10
408.6865
 20
715.0500
  0
VERTEX
  8
14
 10
415.4199
 20
715.1049
  0
VERTEX
  8
14
 10
422.1533
 20
715.0500
  0
VERTEX
  8
14
 10
428.8525
 20
715.4095
  0
VERTEX
  8
14
 10
435.5274
 20
716.1928
  0
VERTEX
  8
14
 10
442.1460
 20
717.3655
  0
VERTEX
  8
14
 10
448.7012
 20
718.8682
  0
VERTEX
  8
14
 10
455.1416
 20
720.7758
  0
VERTEX
  8
14
 10
461.4478
 20
723.1193
  0
VERTEX
  8
14
 10
467.5342
 20
725.9583
  0
VERTEX
  8
14
 10
473.3130
 20
729.3779
  0
VERTEX
  8
14
 10
478.7671
 20
733.3007
  0
VERTEX
  8
14
 10
483.8599
 20
737.6847
  0
VERTEX
  8
14
 10
488.5718
 20
742.4803
  0
VERTEX
  8
14
 10
492.8833
 20
747.6326
  0
VERTEX
  8
14
 10
496.7896
 20
753.1013
  0
VERTEX
  8
14
 10
500.2808
 20
758.8417
  0
VERTEX
  8
14
 10
503.3911
 20
764.8033
  0
VERTEX
  8
14
 10
506.1548
 20
770.9274
  0
VERTEX
  8
14
 10
508.5913
 20
777.1931
  0
VERTEX
  8
14
 10
510.7202
 20
783.5675
  0
VERTEX
  8
14
 10
512.5733
 20
790.0304
  0
VERTEX
  8
14
 10
514.1821
 20
796.5570
  0
VERTEX
  8
14
 10
515.5835
 20
803.1331
  0
VERTEX
  8
14
 10
517.9346
 20
816.3681
  0
VERTEX
  8
14
 10
518.8086
 20
823.0305
  0
VERTEX
  8
14
 10
519.4775
 20
829.7224
  0
VERTEX
  8
14
 10
770.5664
 20
757.7087
  0
VERTEX
  8
14
 10
763.7232
 20
734.0966
  0
VERTEX
  8
14
 10
757.8589
 20
710.2650
  0
VERTEX
  8
14
 10
753.1397
 20
686.6182
  0
VERTEX
  8
14
 10
749.2505
 20
662.8120
  0
VERTEX
  8
14
 10
747.4561
 20
648.7252
  0
VERTEX
  8
14
 10
746.1353
 20
634.5795
  0
VERTEX
  8
14
 10
745.4468
 20
625.1393
  0
VERTEX
  8
14
 10
745.0635
 20
615.6730
  0
VERTEX
  8
14
 10
745.3174
 20
602.4204
  0
VERTEX
  8
14
 10
745.8936
 20
589.1855
  0
VERTEX
  8
14
 10
746.7407
 20
575.9570
  0
VERTEX
  8
14
 10
748.0029
 20
562.7672
  0
VERTEX
  8
14
 10
749.7461
 20
549.6270
  0
VERTEX
  8
14
 10
752.1240
 20
536.6002
  0
VERTEX
  8
14
 10
755.2246
 20
523.6991
  0
VERTEX
  8
14
 10
759.2944
 20
511.1085
  0
VERTEX
  8
14
 10
764.5874
 20
498.9608
  0
VERTEX
  8
14
 10
771.1084
 20
487.4601
  0
VERTEX
  8
14
 10
778.9209
 20
476.8687
  0
VERTEX
  8
14
 10
788.0200
 20
467.1178
  0
VERTEX
  8
14
 10
779.9780
 20
414.3269
  0
VERTEX
  8
14
 10
772.9077
 20
361.4153
  0
VERTEX
  8
14
 10
766.8140
 20
308.3738
  0
VERTEX
  8
14
 10
761.6773
 20
255.2305
  0
VERTEX
  8
14
 10
757.4805
 20
202.0050
  0
VERTEX
  8
14
 10
754.2212
 20
148.7136
  0
VERTEX
  8
14
 10
751.8897
 20
95.3818
  0
VERTEX
  8
14
 10
750.4907
 20
42.0015
  0
VERTEX
  8
14
 10
415.4199
 20
41.9995
  0
VERTEX
  8
14
 10
80.3491
 20
42.0011
  0
SEQEND
  0
POINT
  8
2
 10
80.3491
 20
42.0011
  0
POINT
  8
3
 10
78.9502
 20
95.3818
  0
POINT
  8
3
 10
76.6187
 20
148.7136
  0
POINT
  8
3
 10
73.3594
 20
202.0050
  0
POINT
  8
3
 10
69.1626
 20
255.2305
  0
POINT
  8
3
 10
64.0259
 20
308.3738
  0
POINT
  8
3
 10
57.9321
 20
361.4153
  0
POINT
  8
3
 10
50.8643
 20
414.3268
  0
POINT
  8
2
 10
42.8223
 20
467.1173
  0
POINT
  8
3
 10
51.9190
 20
476.8688
  0
POINT
  8
3
 10
59.7315
 20
487.4601
  0
POINT
  8
3
 10
66.2524
 20
498.9609
  0
POINT
  8
3
 10
71.5454
 20
511.1085
  0
POINT
  8
3
 10
75.6152
 20
523.6991
  0
POINT
  8
3
 10
78.7158
 20
536.6002
  0
POINT
  8
3
 10
81.0938
 20
549.6270
  0
POINT
  8
3
 10
82.8369
 20
562.7672
  0
POINT
  8
3
 10
84.0967
 20
575.9570
  0
POINT
  8
3
 10
84.9463
 20
589.1855
  0
POINT
  8
3
 10
85.5225
 20
602.4204
  0
POINT
  8
4
 10
85.7764
 20
615.6732
 38
5.0000
 50
355.7255
  0
POINT
  8
2
 10
85.7764
 20
615.6732
  0
POINT
  8
3
 10
85.3955
 20
625.1392
  0
POINT
  8
3
 10
84.7046
 20
634.5795
  0
POINT
  8
3
 10
83.3838
 20
648.7252
  0
POINT
  8
3
 10
81.5894
 20
662.8120
  0
POINT
  8
3
 10
77.7002
 20
686.6182
  0
POINT
  8
3
 10
72.9810
 20
710.2650
  0
POINT
  8
3
 10
67.1167
 20
734.0966
  0
POINT
  8
2
 10
60.2759
 20
757.7090
  0
POINT
  8
2
 10
311.3623
 20
829.7224
  0
POINT
  8
3
 10
312.0313
 20
823.0304
  0
POINT
  8
3
 10
312.9053
 20
816.3681
  0
POINT
  8
3
 10
315.2588
 20
803.1331
  0
POINT
  8
3
 10
316.6602
 20
796.5570
  0
POINT
  8
3
 10
318.2666
 20
790.0304
  0
POINT
  8
3
 10
320.1196
 20
783.5675
  0
POINT
  8
3
 10
322.2485
 20
777.1931
  0
POINT
  8
3
 10
324.6851
 20
770.9273
  0
POINT
  8
3
 10
327.4512
 20
764.8033
  0
POINT
  8
3
 10
330.5640
 20
758.8418
  0
POINT
  8
3
 10
334.0527
 20
753.1013
  0
POINT
  8
3
 10
337.9614
 20
747.6327
  0
POINT
  8
3
 10
342.2705
 20
742.4803
  0
POINT
  8
3
 10
346.9800
 20
737.6846
  0
POINT
  8
3
 10
352.0728
 20
733.3007
  0
POINT
  8
3
 10
357.5269
 20
729.3779
  0
POINT
  8
3
 10
363.3081
 20
725.9583
  0
POINT
  8
3
 10
369.3945
 20
723.1194
  0
POINT
  8
3
 10
375.6983
 20
720.7758
  0
POINT
  8
3
 10
382.1411
 20
718.8682
  0
POINT
  8
3
 10
388.6963
 20
717.3655
  0
POINT
  8
3
 10
395.3149
 20
716.1928
  0
POINT
  8
3
 10
401.9873
 20
715.4095
  0
POINT
  8
3
 10
408.6865
 20
715.0500
  0
POINT
  8
2
 10
415.4199
 20
715.1049
  0
POINT
  8
3
 10
422.1533
 20
715.0500
  0
POINT
  8
3
 10
428.8525
 20
715.4095
  0
POINT
  8
3
 10
435.5274
 20
716.1928
  0
POINT
  8
3
 10
442.1460
 20
717.3655
  0
POINT
  8
3
 10
448.7012
 20
718.8682
  0
POINT
  8
3
 10
455.1416
 20
720.7758
  0
POINT
  8
3
 10
461.4478
 20
723.1193
  0
POINT
  8
3
 10
467.5342
 20
725.9583
  0
POINT
  8
3
 10
473.3130
 20
729.3779
  0
POINT
  8
3
 10
478.7671
 20
733.3007
  0
POINT
  8
3
 10
483.8599
 20
737.6847
  0
POINT
  8
3
 10
488.5718
 20
742.4803
  0
POINT
  8
3
 10
492.8833
 20
747.6326
  0
POINT
  8
3
 10
496.7896
 20
753.1013
  0
POINT
  8
3
 10
500.2808
 20
758.8417
  0
POINT
  8
3
 10
503.3911
 20
764.8033
  0
POINT
  8
3
 10
506.1548
 20
770.9274
  0
POINT
  8
3
 10
508.5913
 20
777.1931
  0
POINT
  8
3
 10
510.7202
 20
783.5675
  0
POINT
  8
3
 10
512.5733
 20
790.0304
  0
POINT
  8
3
 10
514.1821
 20
796.5570
  0
POINT
  8
3
 10
515.5835
 20
803.1331
  0
POINT
  8
3
 10
517.9346
 20
816.3681
  0
POINT
  8
3
 10
518.8086
 20
823.0305
  0
POINT
  8
2
 10
519.4775
 20
829.7224
  0
POINT
  8
2
 10
770.5664
 20
757.7087
  0
POINT
  8
3
 10
763.7232
 20
734.0966
  0
POINT
  8
3
 10
757.8589
 20
710.2650
  0
POINT
  8
3
 10
753.1397
 20
686.6182
  0
POINT
  8
3
 10
749.2505
 20
662.8120
  0
POINT
  8
3
 10
747.4561
 20
648.7252
  0
POINT
  8
3
 10
746.1353
 20
634.5795
  0
POINT
  8
3
 10
745.4468
 20
625.1393
  0
POINT
  8
4
 10
745.0635
 20
615.6730
 38
5.0000
 50
184.2745
  0
POINT
  8
2
 10
745.0635
 20
615.6730
  0
POINT
  8
3
 10
745.3174
 20
602.4204
  0
POINT
  8
3
 10
745.8936
 20
589.1855
  0
POINT
  8
3
 10
746.7407
 20
575.9570
  0
POINT
  8
3
 10
748.0029
 20
562.7672
  0
POINT
  8
3
 10
749.7461
 20
549.6270
  0
POINT
  8
3
 10
752.1240
 20
536.6002
  0
POINT
  8
3
 10
755.2246
 20
523.6991
  0
POINT
  8
3
 10
759.2944
 20
511.1085
  0
POINT
  8
3
 10
764.5874
 20
498.9608
  0
POINT
  8
3
 10
771.1084
 20
487.4601
  0
POINT
  8
3
 10
778.9209
 20
476.8687
  0
POINT
  8
2
 10
788.0200
 20
467.1178
  0
POINT
  8
3
 10
779.9780
 20
414.3269
  0
POINT
  8
3
 10
772.9077
 20
361.4153
  0
POINT
  8
3
 10
766.8140
 20
308.3738
  0
POINT
  8
3
 10
761.6773
 20
255.2305
  0
POINT
  8
3
 10
757.4805
 20
202.0050
  0
POINT
  8
3
 10
754.2212
 20
148.7136
  0
POINT
  8
3
 10
751.8897
 20
95.3818
  0
POINT
  8
2
 10
750.4907
 20
42.0015
  0
POINT
  8
2
 10
415.4199
 20
41.9995
  0
POINT
  8
2
 10
80.3491
 20
42.0011
  0
LINE
  8
8
 10
415.4199
 20
41.9987
 11
415.4199
 21
715.1054
  0
POINT
  8
2
 10
415.4199
 20
41.9987
  0
POINT
  8
2
 10
415.4199
 20
715.1054
  0
LINE
  8
8
 10
751.8066
 20
67.4994
 11
415.4199
 21
67.4997
  0
POINT
  8
2
 10
751.8066
 20
67.4994
  0
POINT
  8
2
 10
415.4199
 20
67.4997
  0
LINE
  8
8
 10
79.0357
 20
67.4994
 11
415.4199
 21
67.5002
  0
POINT
  8
2
 10
79.0357
 20
67.4994
  0
POINT
  8
2
 10
415.4199
 20
67.5002
  0
ENDBLK
  0
BLOCK
  8
0
  2
BLK_8_1
 70
64
 10
0.0000
 20
0.0000
  0
TEXT
  8
1
 10
394.2017
 20
465.1123
 40
2.8000
 50
0.0000
  1
PIECE NAME: 앞판안
  7
STANDARD
  0
TEXT
  8
1
 10
394.2017
 20
462.3123
 40
2.8000
 50
0.0000
  1
SIZE: L
  7
STANDARD
  0
TEXT
  8
1
 10
394.2017
 20
459.5123
 40
2.8000
 50
0.0000
  1
CATEGORY: 안감
  7
STANDARD
  0
TEXT
  8
1
 10
394.2017
 20
456.7123
 40
2.8000
 50
0.0000
  1
QUANTITY: 1
  7
STANDARD
  0
TEXT
  8
1
 10
394.2017
 20
453.9123
 40
2.8000
 50
0.0000
  1
ANNOTATION: 
  7
STANDARD
  0
TEXT
  8
1
 10
450.8277
 20
384.5466
 40
5.1000
 50
360.0000
  1
ANNOTATION: <L>
  7
STANDARD
  0
TEXT
  8
1
 10
443.1763
 20
378.4265
 40
5.1000
 50
360.0000
  1
ANNOTATION: LINING
  7
STANDARD
  0
TEXT
  8
1
 10
420.2271
 20
390.6665
 40
5.1000
 50
360.0000
  1
ANNOTATION: S/#NOS725SSWT01
  7
STANDARD
  0
POLYLINE
  8
1
 66
1
 70
1
  0
VERTEX
  8
1
 10
67.4341
 20
30.0019
  0
VERTEX
  8
1
 10
67.3438
 20
41.9076
  0
VERTEX
  8
1
 10
66.8726
 20
77.4937
  0
VERTEX
  8
1
 10
65.8789
 20
113.0612
  0
VERTEX
  8
1
 10
64.3726
 20
148.2613
  0
VERTEX
  8
1
 10
62.3462
 20
183.4358
  0
VERTEX
  8
1
 10
59.7876
 20
218.6055
  0
VERTEX
  8
1
 10
56.7798
 20
253.7409
  0
VERTEX
  8
1
 10
53.3862
 20
289.0762
  0
VERTEX
  8
1
 10
49.5996
 20
324.3716
  0
VERTEX
  8
1
 10
45.3931
 20
359.7877
  0
VERTEX
  8
1
 10
40.8081
 20
395.1570
  0
VERTEX
  8
1
 10
35.8985
 20
430.2473
  0
VERTEX
  8
1
 10
30.0000
 20
469.2857
  0
VERTEX
  8
1
 10
31.9385
 20
472.8568
  0
VERTEX
  8
1
 10
37.9028
 20
484.4641
  0
VERTEX
  8
1
 10
43.0982
 20
496.3784
  0
VERTEX
  8
1
 10
47.4634
 20
508.4731
  0
VERTEX
  8
1
 10
51.0694
 20
520.8202
  0
VERTEX
  8
1
 10
53.9282
 20
533.6131
  0
VERTEX
  8
1
 10
56.1670
 20
546.5433
  0
VERTEX
  8
1
 10
57.9907
 20
559.7680
  0
VERTEX
  8
1
 10
59.4019
 20
573.0479
  0
VERTEX
  8
1
 10
60.4859
 20
586.2187
  0
VERTEX
  8
1
 10
61.2427
 20
599.4132
  0
VERTEX
  8
1
 10
61.7188
 20
612.9848
  0
VERTEX
  8
1
 10
61.8872
 20
626.3319
  0
VERTEX
  8
1
 10
61.3526
 20
645.2394
  0
VERTEX
  8
1
 10
60.2368
 20
664.1138
  0
VERTEX
  8
1
 10
58.5230
 20
683.0214
  0
VERTEX
  8
1
 10
56.2476
 20
701.8709
  0
VERTEX
  8
1
 10
53.4693
 20
720.4969
  0
VERTEX
  8
1
 10
50.1489
 20
739.0336
  0
VERTEX
  8
1
 10
47.2901
 20
752.9151
  0
VERTEX
  8
1
 10
41.8506
 20
775.9165
  0
VERTEX
  8
1
 10
39.0161
 20
787.1695
  0
VERTEX
  8
1
 10
309.9951
 20
865.0346
  0
VERTEX
  8
1
 10
314.4434
 20
856.1300
  0
VERTEX
  8
1
 10
316.6309
 20
852.0041
  0
VERTEX
  8
1
 10
319.0747
 20
848.0504
  0
VERTEX
  8
1
 10
321.7603
 20
844.3065
  0
VERTEX
  8
1
 10
324.6778
 20
840.7427
  0
VERTEX
  8
1
 10
327.3316
 20
837.8851
  0
VERTEX
  8
1
 10
330.1929
 20
835.2396
  0
VERTEX
  8
1
 10
333.0542
 20
832.9833
  0
VERTEX
  8
1
 10
336.1109
 20
831.0016
  0
VERTEX
  8
1
 10
339.9683
 20
828.9912
  0
VERTEX
  8
1
 10
343.9746
 20
827.2692
  0
VERTEX
  8
1
 10
348.3618
 20
825.6908
  0
VERTEX
  8
1
 10
352.8320
 20
824.3532
  0
VERTEX
  8
1
 10
357.5073
 20
823.1850
  0
VERTEX
  8
1
 10
362.2290
 20
822.2209
  0
VERTEX
  8
1
 10
372.0069
 20
820.8039
  0
VERTEX
  8
1
 10
382.0752
 20
819.9391
  0
VERTEX
  8
1
 10
392.4317
 20
819.4894
  0
VERTEX
  8
1
 10
403.4229
 20
819.1830
  0
VERTEX
  8
1
 10
414.4141
 20
819.1418
  0
VERTEX
  8
1
 10
425.3931
 20
819.1828
  0
VERTEX
  8
1
 10
436.3892
 20
819.4890
  0
VERTEX
  8
1
 10
446.7627
 20
819.9396
  0
VERTEX
  8
1
 10
456.7774
 20
820.7989
  0
VERTEX
  8
1
 10
466.6260
 20
822.2253
  0
VERTEX
  8
1
 10
471.3403
 20
823.1876
  0
VERTEX
  8
1
 10
476.0059
 20
824.3545
  0
VERTEX
  8
1
 10
480.4688
 20
825.6892
  0
VERTEX
  8
1
 10
484.8487
 20
827.2653
  0
VERTEX
  8
1
 10
488.8867
 20
829.0039
  0
VERTEX
  8
1
 10
492.7783
 20
831.0336
  0
VERTEX
  8
1
 10
495.8252
 20
833.0202
  0
VERTEX
  8
1
 10
498.6841
 20
835.2804
  0
VERTEX
  8
1
 10
501.5064
 20
837.8877
  0
VERTEX
  8
1
 10
504.1211
 20
840.7032
  0
VERTEX
  8
1
 10
507.0337
 20
844.2528
  0
VERTEX
  8
1
 10
509.7119
 20
847.9821
  0
VERTEX
  8
1
 10
511.5894
 20
850.9573
  0
VERTEX
  8
1
 10
514.3897
 20
856.1302
  0
VERTEX
  8
1
 10
518.8403
 20
865.0318
  0
VERTEX
  8
1
 10
789.8218
 20
787.1672
  0
VERTEX
  8
1
 10
786.9800
 20
775.9169
  0
VERTEX
  8
1
 10
782.5684
 20
757.5893
  0
VERTEX
  8
1
 10
778.7085
 20
739.1549
  0
VERTEX
  8
1
 10
775.3443
 20
720.3447
  0
VERTEX
  8
1
 10
772.5293
 20
701.4447
  0
VERTEX
  8
1
 10
770.2808
 20
682.7521
  0
VERTEX
  8
1
 10
768.5864
 20
664.0017
  0
VERTEX
  8
1
 10
767.4780
 20
645.1831
  0
VERTEX
  8
1
 10
766.9483
 20
626.4409
  0
VERTEX
  8
1
 10
767.0972
 20
613.3376
  0
VERTEX
  8
1
 10
767.5562
 20
600.1187
  0
VERTEX
  8
1
 10
768.3277
 20
586.5450
  0
VERTEX
  8
1
 10
769.4336
 20
572.9954
  0
VERTEX
  8
1
 10
770.8472
 20
559.6946
  0
VERTEX
  8
1
 10
772.6807
 20
546.4495
  0
VERTEX
  8
1
 10
774.9097
 20
533.5704
  0
VERTEX
  8
1
 10
777.7588
 20
520.8295
  0
VERTEX
  8
1
 10
781.4063
 20
508.3703
  0
VERTEX
  8
1
 10
785.8203
 20
496.1641
  0
VERTEX
  8
1
 10
789.6118
 20
487.2768
  0
VERTEX
  8
1
 10
796.8945
 20
472.8562
  0
VERTEX
  8
1
 10
798.8355
 20
469.2912
  0
VERTEX
  8
1
 10
792.9956
 20
430.7105
  0
VERTEX
  8
1
 10
788.1470
 20
396.0828
  0
VERTEX
  8
1
 10
783.4741
 20
360.0388
  0
VERTEX
  8
1
 10
779.1846
 20
323.9479
  0
VERTEX
  8
1
 10
775.4859
 20
289.5771
  0
VERTEX
  8
1
 10
772.1802
 20
255.1666
  0
VERTEX
  8
1
 10
769.1187
 20
219.5689
  0
VERTEX
  8
1
 10
766.5137
 20
183.9368
  0
VERTEX
  8
1
 10
764.4629
 20
148.2449
  0
VERTEX
  8
1
 10
762.9370
 20
112.5268
  0
VERTEX
  8
1
 10
762.1460
 20
86.0529
  0
VERTEX
  8
1
 10
761.4868
 20
41.9077
  0
VERTEX
  8
1
 10
761.3989
 20
30.0008
  0
VERTEX
  8
1
 10
414.4165
 20
30.0008
  0
VERTEX
  8
1
 10
67.4341
 20
30.0019
  0
SEQEND
  0
POINT
  8
2
 10
67.4341
 20
30.0019
  0
POINT
  8
3
 10
67.3438
 20
41.9076
  0
POINT
  8
3
 10
66.8726
 20
77.4937
  0
POINT
  8
3
 10
65.8789
 20
113.0612
  0
POINT
  8
3
 10
64.3726
 20
148.2613
  0
POINT
  8
3
 10
62.3462
 20
183.4358
  0
POINT
  8
3
 10
59.7876
 20
218.6055
  0
POINT
  8
3
 10
56.7798
 20
253.7409
  0
POINT
  8
3
 10
53.3862
 20
289.0762
  0
POINT
  8
3
 10
49.5996
 20
324.3716
  0
POINT
  8
3
 10
45.3931
 20
359.7877
  0
POINT
  8
3
 10
40.8081
 20
395.1570
  0
POINT
  8
3
 10
35.8985
 20
430.2473
  0
POINT
  8
2
 10
30.0000
 20
469.2857
  0
POINT
  8
3
 10
31.9385
 20
472.8568
  0
POINT
  8
3
 10
37.9028
 20
484.4641
  0
POINT
  8
3
 10
43.0982
 20
496.3784
  0
POINT
  8
3
 10
47.4634
 20
508.4731
  0
POINT
  8
3
 10
51.0694
 20
520.8202
  0
POINT
  8
3
 10
53.9282
 20
533.6131
  0
POINT
  8
3
 10
56.1670
 20
546.5433
  0
POINT
  8
3
 10
57.9907
 20
559.7680
  0
POINT
  8
3
 10
59.4019
 20
573.0479
  0
POINT
  8
3
 10
60.4859
 20
586.2187
  0
POINT
  8
3
 10
61.2427
 20
599.4132
  0
POINT
  8
3
 10
61.7188
 20
612.9848
  0
POINT
  8
2
 10
61.8872
 20
626.3319
  0
POINT
  8
3
 10
61.3526
 20
645.2394
  0
POINT
  8
3
 10
60.2368
 20
664.1138
  0
POINT
  8
3
 10
58.5230
 20
683.0214
  0
POINT
  8
3
 10
56.2476
 20
701.8709
  0
POINT
  8
3
 10
53.4693
 20
720.4969
  0
POINT
  8
3
 10
50.1489
 20
739.0336
  0
POINT
  8
3
 10
47.2901
 20
752.9151
  0
POINT
  8
3
 10
41.8506
 20
775.9165
  0
POINT
  8
2
 10
39.0161
 20
787.1695
  0
POINT
  8
2
 10
309.9951
 20
865.0346
  0
POINT
  8
3
 10
314.4434
 20
856.1300
  0
POINT
  8
3
 10
316.6309
 20
852.0041
  0
POINT
  8
3
 10
319.0747
 20
848.0504
  0
POINT
  8
3
 10
321.7603
 20
844.3065
  0
POINT
  8
3
 10
324.6778
 20
840.7427
  0
POINT
  8
3
 10
327.3316
 20
837.8851
  0
POINT
  8
3
 10
330.1929
 20
835.2396
  0
POINT
  8
3
 10
333.0542
 20
832.9833
  0
POINT
  8
3
 10
336.1109
 20
831.0016
  0
POINT
  8
3
 10
339.9683
 20
828.9912
  0
POINT
  8
3
 10
343.9746
 20
827.2692
  0
POINT
  8
3
 10
348.3618
 20
825.6908
  0
POINT
  8
3
 10
352.8320
 20
824.3532
  0
POINT
  8
3
 10
357.5073
 20
823.1850
  0
POINT
  8
3
 10
362.2290
 20
822.2209
  0
POINT
  8
3
 10
372.0069
 20
820.8039
  0
POINT
  8
3
 10
382.0752
 20
819.9391
  0
POINT
  8
3
 10
392.4317
 20
819.4894
  0
POINT
  8
3
 10
403.4229
 20
819.1830
  0
POINT
  8
2
 10
414.4141
 20
819.1418
  0
POINT
  8
3
 10
425.3931
 20
819.1828
  0
POINT
  8
3
 10
436.3892
 20
819.4890
  0
POINT
  8
3
 10
446.7627
 20
819.9396
  0
POINT
  8
3
 10
456.7774
 20
820.7989
  0
POINT
  8
3
 10
466.6260
 20
822.2253
  0
POINT
  8
3
 10
471.3403
 20
823.1876
  0
POINT
  8
3
 10
476.0059
 20
824.3545
  0
POINT
  8
3
 10
480.4688
 20
825.6892
  0
POINT
  8
3
 10
484.8487
 20
827.2653
  0
POINT
  8
3
 10
488.8867
 20
829.0039
  0
POINT
  8
3
 10
492.7783
 20
831.0336
  0
POINT
  8
3
 10
495.8252
 20
833.0202
  0
POINT
  8
3
 10
498.6841
 20
835.2804
  0
POINT
  8
3
 10
501.5064
 20
837.8877
  0
POINT
  8
3
 10
504.1211
 20
840.7032
  0
POINT
  8
3
 10
507.0337
 20
844.2528
  0
POINT
  8
3
 10
509.7119
 20
847.9821
  0
POINT
  8
3
 10
511.5894
 20
850.9573
  0
POINT
  8
3
 10
514.3897
 20
856.1302
  0
POINT
  8
2
 10
518.8403
 20
865.0318
  0
POINT
  8
2
 10
789.8218
 20
787.1672
  0
POINT
  8
3
 10
786.9800
 20
775.9169
  0
POINT
  8
3
 10
782.5684
 20
757.5893
  0
POINT
  8
3
 10
778.7085
 20
739.1549
  0
POINT
  8
3
 10
775.3443
 20
720.3447
  0
POINT
  8
3
 10
772.5293
 20
701.4447
  0
POINT
  8
3
 10
770.2808
 20
682.7521
  0
POINT
  8
3
 10
768.5864
 20
664.0017
  0
POINT
  8
3
 10
767.4780
 20
645.1831
  0
POINT
  8
2
 10
766.9483
 20
626.4409
  0
POINT
  8
3
 10
767.0972
 20
613.3376
  0
POINT
  8
3
 10
767.5562
 20
600.1187
  0
POINT
  8
3
 10
768.3277
 20
586.5450
  0
POINT
  8
3
 10
769.4336
 20
572.9954
  0
POINT
  8
3
 10
770.8472
 20
559.6946
  0
POINT
  8
3
 10
772.6807
 20
546.4495
  0
POINT
  8
3
 10
774.9097
 20
533.5704
  0
POINT
  8
3
 10
777.7588
 20
520.8295
  0
POINT
  8
3
 10
781.4063
 20
508.3703
  0
POINT
  8
3
 10
785.8203
 20
496.1641
  0
POINT
  8
3
 10
789.6118
 20
487.2768
  0
POINT
  8
3
 10
796.8945
 20
472.8562
  0
POINT
  8
2
 10
798.8355
 20
469.2912
  0
POINT
  8
3
 10
792.9956
 20
430.7105
  0
POINT
  8
3
 10
788.1470
 20
396.0828
  0
POINT
  8
3
 10
783.4741
 20
360.0388
  0
POINT
  8
3
 10
779.1846
 20
323.9479
  0
POINT
  8
3
 10
775.4859
 20
289.5771
  0
POINT
  8
3
 10
772.1802
 20
255.1666
  0
POINT
  8
3
 10
769.1187
 20
219.5689
  0
POINT
  8
3
 10
766.5137
 20
183.9368
  0
POINT
  8
3
 10
764.4629
 20
148.2449
  0
POINT
  8
3
 10
762.9370
 20
112.5268
  0
POINT
  8
3
 10
762.1460
 20
86.0529
  0
POINT
  8
3
 10
761.4868
 20
41.9077
  0
POINT
  8
2
 10
761.3989
 20
30.0008
  0
POINT
  8
2
 10
414.4165
 20
30.0008
  0
POINT
  8
2
 10
67.4341
 20
30.0019
  0
POLYLINE
  8
14
 66
1
 70
1
  0
VERTEX
  8
14
 10
79.3457
 20
41.9998
  0
VERTEX
  8
14
 10
78.8770
 20
77.5926
  0
VERTEX
  8
14
 10
77.8809
 20
113.1668
  0
VERTEX
  8
14
 10
76.3599
 20
148.7259
  0
VERTEX
  8
14
 10
74.3189
 20
184.2591
  0
VERTEX
  8
14
 10
71.7359
 20
219.7562
  0
VERTEX
  8
14
 10
68.6963
 20
255.2187
  0
VERTEX
  8
14
 10
65.2857
 20
290.6471
  0
VERTEX
  8
14
 10
61.4868
 20
326.0354
  0
VERTEX
  8
14
 10
57.2876
 20
361.3789
  0
VERTEX
  8
14
 10
52.7124
 20
396.6757
  0
VERTEX
  8
14
 10
47.7783
 20
431.9218
  0
VERTEX
  8
14
 10
42.4780
 20
467.1188
  0
VERTEX
  8
14
 10
48.7476
 20
479.3163
  0
VERTEX
  8
14
 10
54.2066
 20
491.8375
  0
VERTEX
  8
14
 10
58.8501
 20
504.7063
  0
VERTEX
  8
14
 10
62.6953
 20
517.8407
  0
VERTEX
  8
14
 10
65.6812
 20
531.1896
  0
VERTEX
  8
14
 10
68.0225
 20
544.6825
  0
VERTEX
  8
14
 10
69.8975
 20
558.2390
  0
VERTEX
  8
14
 10
71.3428
 20
571.8527
  0
VERTEX
  8
14
 10
72.4610
 20
585.4950
  0
VERTEX
  8
14
 10
73.2446
 20
599.1617
  0
VERTEX
  8
14
 10
73.7232
 20
612.8376
  0
VERTEX
  8
14
 10
73.8843
 20
626.5283
  0
VERTEX
  8
14
 10
73.6655
 20
636.7425
  0
VERTEX
  8
14
 10
73.3399
 20
645.7836
  0
VERTEX
  8
14
 10
72.2046
 20
664.9948
  0
VERTEX
  8
14
 10
70.4663
 20
684.1697
  0
VERTEX
  8
14
 10
68.1641
 20
703.2858
  0
VERTEX
  8
14
 10
65.3272
 20
722.3298
  0
VERTEX
  8
14
 10
61.9361
 20
741.2830
  0
VERTEX
  8
14
 10
57.9907
 20
760.1197
  0
VERTEX
  8
14
 10
53.4863
 20
778.8423
  0
VERTEX
  8
14
 10
303.7207
 20
850.7445
  0
VERTEX
  8
14
 10
306.2842
 20
845.9296
  0
VERTEX
  8
14
 10
309.1431
 20
841.3142
  0
VERTEX
  8
14
 10
312.2583
 20
836.9737
  0
VERTEX
  8
14
 10
315.6445
 20
832.8441
  0
VERTEX
  8
14
 10
318.8745
 20
829.3701
  0
VERTEX
  8
14
 10
322.3535
 20
826.1547
  0
VERTEX
  8
14
 10
326.0742
 20
823.2337
  0
VERTEX
  8
14
 10
330.0318
 20
820.6533
  0
VERTEX
  8
14
 10
334.7095
 20
818.2074
  0
VERTEX
  8
14
 10
339.5606
 20
816.1100
  0
VERTEX
  8
14
 10
344.5581
 20
814.3062
  0
VERTEX
  8
14
 10
349.6558
 20
812.7807
  0
VERTEX
  8
14
 10
354.8340
 20
811.4853
  0
VERTEX
  8
14
 10
360.0684
 20
810.4167
  0
VERTEX
  8
14
 10
370.6714
 20
808.8784
  0
VERTEX
  8
14
 10
381.3452
 20
807.9614
  0
VERTEX
  8
14
 10
392.0581
 20
807.4951
  0
VERTEX
  8
14
 10
403.2398
 20
807.1844
  0
VERTEX
  8
14
 10
414.4165
 20
807.1414
  0
VERTEX
  8
14
 10
425.5933
 20
807.1844
  0
VERTEX
  8
14
 10
436.7725
 20
807.4951
  0
VERTEX
  8
14
 10
447.4854
 20
807.9614
  0
VERTEX
  8
14
 10
458.1592
 20
808.8784
  0
VERTEX
  8
14
 10
468.7622
 20
810.4167
  0
VERTEX
  8
14
 10
473.9966
 20
811.4853
  0
VERTEX
  8
14
 10
479.1773
 20
812.7807
  0
VERTEX
  8
14
 10
484.2749
 20
814.3061
  0
VERTEX
  8
14
 10
489.2725
 20
816.1100
  0
VERTEX
  8
14
 10
494.1236
 20
818.2074
  0
VERTEX
  8
14
 10
498.8013
 20
820.6533
  0
VERTEX
  8
14
 10
502.7588
 20
823.2338
  0
VERTEX
  8
14
 10
506.4771
 20
826.1547
  0
VERTEX
  8
14
 10
509.9585
 20
829.3701
  0
VERTEX
  8
14
 10
513.1885
 20
832.8441
  0
VERTEX
  8
14
 10
516.5747
 20
836.9737
  0
VERTEX
  8
14
 10
519.6875
 20
841.3142
  0
VERTEX
  8
14
 10
522.5488
 20
845.9299
  0
VERTEX
  8
14
 10
525.1123
 20
850.7445
  0
VERTEX
  8
14
 10
775.3467
 20
778.8483
  0
VERTEX
  8
14
 10
770.8423
 20
760.1197
  0
VERTEX
  8
14
 10
766.8970
 20
741.2830
  0
VERTEX
  8
14
 10
763.5059
 20
722.3298
  0
VERTEX
  8
14
 10
760.6690
 20
703.2858
  0
VERTEX
  8
14
 10
758.3618
 20
684.1697
  0
VERTEX
  8
14
 10
756.6260
 20
664.9948
  0
VERTEX
  8
14
 10
755.4932
 20
645.7836
  0
VERTEX
  8
14
 10
755.1676
 20
636.7425
  0
VERTEX
  8
14
 10
754.9463
 20
626.5281
  0
VERTEX
  8
14
 10
755.1099
 20
612.8376
  0
VERTEX
  8
14
 10
755.5884
 20
599.1617
  0
VERTEX
  8
14
 10
756.3696
 20
585.4950
  0
VERTEX
  8
14
 10
757.4878
 20
571.8527
  0
VERTEX
  8
14
 10
758.9331
 20
558.2390
  0
VERTEX
  8
14
 10
760.8106
 20
544.6825
  0
VERTEX
  8
14
 10
763.1519
 20
531.1896
  0
VERTEX
  8
14
 10
766.1377
 20
517.8407
  0
VERTEX
  8
14
 10
769.9829
 20
504.7063
  0
VERTEX
  8
14
 10
774.6265
 20
491.8375
  0
VERTEX
  8
14
 10
780.0855
 20
479.3163
  0
VERTEX
  8
14
 10
786.3550
 20
467.1188
  0
VERTEX
  8
14
 10
781.0547
 20
431.9218
  0
VERTEX
  8
14
 10
776.1206
 20
396.6757
  0
VERTEX
  8
14
 10
771.5405
 20
361.3789
  0
VERTEX
  8
14
 10
767.3438
 20
326.0354
  0
VERTEX
  8
14
 10
763.5425
 20
290.6471
  0
VERTEX
  8
14
 10
760.1343
 20
255.2187
  0
VERTEX
  8
14
 10
757.0923
 20
219.7562
  0
VERTEX
  8
14
 10
754.5117
 20
184.2591
  0
VERTEX
  8
14
 10
752.4732
 20
148.7259
  0
VERTEX
  8
14
 10
750.9522
 20
113.1668
  0
VERTEX
  8
14
 10
749.9585
 20
77.5926
  0
VERTEX
  8
14
 10
749.4873
 20
42.0003
  0
VERTEX
  8
14
 10
414.4165
 20
42.0003
  0
VERTEX
  8
14
 10
79.3457
 20
41.9998
  0
SEQEND
  0
POINT
  8
2
 10
79.3457
 20
41.9998
  0
POINT
  8
3
 10
78.8770
 20
77.5926
  0
POINT
  8
3
 10
77.8809
 20
113.1668
  0
POINT
  8
3
 10
76.3599
 20
148.7259
  0
POINT
  8
3
 10
74.3189
 20
184.2591
  0
POINT
  8
3
 10
71.7359
 20
219.7562
  0
POINT
  8
3
 10
68.6963
 20
255.2187
  0
POINT
  8
3
 10
65.2857
 20
290.6471
  0
POINT
  8
3
 10
61.4868
 20
326.0354
  0
POINT
  8
3
 10
57.2876
 20
361.3789
  0
POINT
  8
3
 10
52.7124
 20
396.6757
  0
POINT
  8
3
 10
47.7783
 20
431.9218
  0
POINT
  8
2
 10
42.4780
 20
467.1188
  0
POINT
  8
3
 10
48.7476
 20
479.3163
  0
POINT
  8
3
 10
54.2066
 20
491.8375
  0
POINT
  8
3
 10
58.8501
 20
504.7063
  0
POINT
  8
3
 10
62.6953
 20
517.8407
  0
POINT
  8
3
 10
65.6812
 20
531.1896
  0
POINT
  8
3
 10
68.0225
 20
544.6825
  0
POINT
  8
3
 10
69.8975
 20
558.2390
  0
POINT
  8
3
 10
71.3428
 20
571.8527
  0
POINT
  8
3
 10
72.4610
 20
585.4950
  0
POINT
  8
3
 10
73.2446
 20
599.1617
  0
POINT
  8
3
 10
73.7232
 20
612.8376
  0
POINT
  8
4
 10
73.8843
 20
626.5283
 38
5.0000
 50
357.0806
  0
POINT
  8
2
 10
73.8843
 20
626.5283
  0
POINT
  8
4
 10
73.6655
 20
636.7425
 38
5.0000
 50
357.9680
  0
POINT
  8
3
 10
73.6655
 20
636.7425
  0
POINT
  8
3
 10
73.3399
 20
645.7836
  0
POINT
  8
3
 10
72.2046
 20
664.9948
  0
POINT
  8
3
 10
70.4663
 20
684.1697
  0
POINT
  8
3
 10
68.1641
 20
703.2858
  0
POINT
  8
3
 10
65.3272
 20
722.3298
  0
POINT
  8
3
 10
61.9361
 20
741.2830
  0
POINT
  8
3
 10
57.9907
 20
760.1197
  0
POINT
  8
2
 10
53.4863
 20
778.8423
  0
POINT
  8
2
 10
303.7207
 20
850.7445
  0
POINT
  8
3
 10
306.2842
 20
845.9296
  0
POINT
  8
3
 10
309.1431
 20
841.3142
  0
POINT
  8
3
 10
312.2583
 20
836.9737
  0
POINT
  8
3
 10
315.6445
 20
832.8441
  0
POINT
  8
3
 10
318.8745
 20
829.3701
  0
POINT
  8
3
 10
322.3535
 20
826.1547
  0
POINT
  8
3
 10
326.0742
 20
823.2337
  0
POINT
  8
3
 10
330.0318
 20
820.6533
  0
POINT
  8
3
 10
334.7095
 20
818.2074
  0
POINT
  8
3
 10
339.5606
 20
816.1100
  0
POINT
  8
3
 10
344.5581
 20
814.3062
  0
POINT
  8
3
 10
349.6558
 20
812.7807
  0
POINT
  8
3
 10
354.8340
 20
811.4853
  0
POINT
  8
3
 10
360.0684
 20
810.4167
  0
POINT
  8
3
 10
370.6714
 20
808.8784
  0
POINT
  8
3
 10
381.3452
 20
807.9614
  0
POINT
  8
3
 10
392.0581
 20
807.4951
  0
POINT
  8
3
 10
403.2398
 20
807.1844
  0
POINT
  8
2
 10
414.4165
 20
807.1414
  0
POINT
  8
3
 10
425.5933
 20
807.1844
  0
POINT
  8
3
 10
436.7725
 20
807.4951
  0
POINT
  8
3
 10
447.4854
 20
807.9614
  0
POINT
  8
3
 10
458.1592
 20
808.8784
  0
POINT
  8
3
 10
468.7622
 20
810.4167
  0
POINT
  8
3
 10
473.9966
 20
811.4853
  0
POINT
  8
3
 10
479.1773
 20
812.7807
  0
POINT
  8
3
 10
484.2749
 20
814.3061
  0
POINT
  8
3
 10
489.2725
 20
816.1100
  0
POINT
  8
3
 10
494.1236
 20
818.2074
  0
POINT
  8
3
 10
498.8013
 20
820.6533
  0
POINT
  8
3
 10
502.7588
 20
823.2338
  0
POINT
  8
3
 10
506.4771
 20
826.1547
  0
POINT
  8
3
 10
509.9585
 20
829.3701
  0
POINT
  8
3
 10
513.1885
 20
832.8441
  0
POINT
  8
3
 10
516.5747
 20
836.9737
  0
POINT
  8
3
 10
519.6875
 20
841.3142
  0
POINT
  8
3
 10
522.5488
 20
845.9299
  0
POINT
  8
2
 10
525.1123
 20
850.7445
  0
POINT
  8
2
 10
775.3467
 20
778.8483
  0
POINT
  8
3
 10
770.8423
 20
760.1197
  0
POINT
  8
3
 10
766.8970
 20
741.2830
  0
POINT
  8
3
 10
763.5059
 20
722.3298
  0
POINT
  8
3
 10
760.6690
 20
703.2858
  0
POINT
  8
3
 10
758.3618
 20
684.1697
  0
POINT
  8
3
 10
756.6260
 20
664.9948
  0
POINT
  8
3
 10
755.4932
 20
645.7836
  0
POINT
  8
4
 10
755.1676
 20
636.7425
 38
5.0000
 50
182.0320
  0
POINT
  8
3
 10
755.1676
 20
636.7425
  0
POINT
  8
4
 10
754.9463
 20
626.5281
 38
5.0000
 50
182.9194
  0
POINT
  8
2
 10
754.9463
 20
626.5281
  0
POINT
  8
3
 10
755.1099
 20
612.8376
  0
POINT
  8
3
 10
755.5884
 20
599.1617
  0
POINT
  8
3
 10
756.3696
 20
585.4950
  0
POINT
  8
3
 10
757.4878
 20
571.8527
  0
POINT
  8
3
 10
758.9331
 20
558.2390
  0
POINT
  8
3
 10
760.8106
 20
544.6825
  0
POINT
  8
3
 10
763.1519
 20
531.1896
  0
POINT
  8
3
 10
766.1377
 20
517.8407
  0
POINT
  8
3
 10
769.9829
 20
504.7063
  0
POINT
  8
3
 10
774.6265
 20
491.8375
  0
POINT
  8
3
 10
780.0855
 20
479.3163
  0
POINT
  8
2
 10
786.3550
 20
467.1188
  0
POINT
  8
3
 10
781.0547
 20
431.9218
  0
POINT
  8
3
 10
776.1206
 20
396.6757
  0
POINT
  8
3
 10
771.5405
 20
361.3789
  0
POINT
  8
3
 10
767.3438
 20
326.0354
  0
POINT
  8
3
 10
763.5425
 20
290.6471
  0
POINT
  8
3
 10
760.1343
 20
255.2187
  0
POINT
  8
3
 10
757.0923
 20
219.7562
  0
POINT
  8
3
 10
754.5117
 20
184.2591
  0
POINT
  8
3
 10
752.4732
 20
148.7259
  0
POINT
  8
3
 10
750.9522
 20
113.1668
  0
POINT
  8
3
 10
749.9585
 20
77.5926
  0
POINT
  8
2
 10
749.4873
 20
42.0003
  0
POINT
  8
2
 10
414.4165
 20
42.0003
  0
POINT
  8
2
 10
79.3457
 20
41.9998
  0
LINE
  8
8
 10
414.4165
 20
807.1419
 11
414.4165
 21
41.9998
  0
POINT
  8
2
 10
414.4165
 20
807.1419
  0
POINT
  8
2
 10
414.4165
 20
41.9998
  0
LINE
  8
8
 10
78.0298
 20
67.5014
 11
414.4165
 21
67.5011
  0
POINT
  8
2
 10
78.0298
 20
67.5014
  0
POINT
  8
2
 10
414.4165
 20
67.5011
  0
LINE
  8
8
 10
308.7232
 20
825.4584
 11
324.3506
 21
838.5677
  0
POINT
  8
2
 10
308.7232
 20
825.4584
  0
POINT
  8
2
 10
324.3506
 20
838.5677
  0
LINE
  8
8
 10
750.8008
 20
67.5014
 11
414.4165
 21
67.5016
  0
POINT
  8
2
 10
750.8008
 20
67.5014
  0
POINT
  8
2
 10
414.4165
 20
67.5016
  0
ENDBLK
  0
BLOCK
  8
0
  2
BLK_9_1
 70
64
 10
0.0000
 20
0.0000
  0
TEXT
  8
1
 10
343.3716
 20
343.2127
 40
2.8000
 50
0.0000
  1
PIECE NAME: 소매안
  7
STANDARD
  0
TEXT
  8
1
 10
343.3716
 20
340.4127
 40
2.8000
 50
0.0000
  1
SIZE: L
  7
STANDARD
  0
TEXT
  8
1
 10
343.3716
 20
337.6127
 40
2.8000
 50
0.0000
  1
CATEGORY: 안감
  7
STANDARD
  0
TEXT
  8
1
 10
343.3716
 20
334.8127
 40
2.8000
 50
0.0000
  1
QUANTITY: 2
  7
STANDARD
  0
TEXT
  8
1
 10
343.3716
 20
332.0127
 40
2.8000
 50
0.0000
  1
ANNOTATION: 
  7
STANDARD
  0
TEXT
  8
1
 10
320.6934
 20
278.6206
 40
5.1000
 50
0.0000
  1
ANNOTATION: LINING
  7
STANDARD
  0
TEXT
  8
1
 10
297.7442
 20
290.8606
 40
5.1000
 50
0.0000
  1
ANNOTATION: S/#NOS725SSWT01
  7
STANDARD
  0
TEXT
  8
1
 10
325.2002
 20
284.4590
 40
5.1000
 50
360.0000
  1
ANNOTATION: <L>
  7
STANDARD
  0
POLYLINE
  8
1
 66
1
 70
1
  0
VERTEX
  8
1
 10
139.6411
 20
30.0000
  0
VERTEX
  8
1
 10
139.5899
 20
73.2644
  0
VERTEX
  8
1
 10
137.3657
 20
89.7437
  0
VERTEX
  8
1
 10
134.8047
 20
106.9376
  0
VERTEX
  8
1
 10
129.0283
 20
140.8348
  0
VERTEX
  8
1
 10
122.6660
 20
175.2073
  0
VERTEX
  8
1
 10
116.0181
 20
209.1077
  0
VERTEX
  8
1
 10
108.7622
 20
244.5806
  0
VERTEX
  8
1
 10
101.3770
 20
279.0531
  0
VERTEX
  8
1
 10
94.1821
 20
311.0909
  0
VERTEX
  8
1
 10
86.5088
 20
344.2945
  0
VERTEX
  8
1
 10
78.1787
 20
378.3686
  0
VERTEX
  8
1
 10
69.5435
 20
410.6911
  0
VERTEX
  8
1
 10
64.6362
 20
427.9982
  0
VERTEX
  8
1
 10
59.4849
 20
445.2331
  0
VERTEX
  8
1
 10
54.2896
 20
461.6029
  0
VERTEX
  8
1
 10
48.7256
 20
477.8463
  0
VERTEX
  8
1
 10
44.2554
 20
489.8586
  0
VERTEX
  8
1
 10
36.2427
 20
509.6757
  0
VERTEX
  8
1
 10
30.0025
 20
524.5325
  0
VERTEX
  8
1
 10
46.0132
 20
526.2545
  0
VERTEX
  8
1
 10
70.1563
 20
529.7695
  0
VERTEX
  8
1
 10
93.5864
 20
535.6293
  0
VERTEX
  8
1
 10
116.1206
 20
543.9618
  0
VERTEX
  8
1
 10
137.9468
 20
554.1788
  0
VERTEX
  8
1
 10
159.7339
 20
566.3900
  0
VERTEX
  8
1
 10
181.2232
 20
579.2120
  0
VERTEX
  8
1
 10
203.6011
 20
592.2576
  0
VERTEX
  8
1
 10
226.4429
 20
604.3184
  0
VERTEX
  8
1
 10
250.7324
 20
614.5981
  0
VERTEX
  8
1
 10
275.7569
 20
622.7709
  0
VERTEX
  8
1
 10
301.3745
 20
628.3686
  0
VERTEX
  8
1
 10
328.0274
 20
631.5557
  0
VERTEX
  8
1
 10
341.1231
 20
631.5962
  0
VERTEX
  8
1
 10
353.7866
 20
631.0905
  0
VERTEX
  8
1
 10
366.4746
 20
630.0362
  0
VERTEX
  8
1
 10
379.1089
 20
628.4618
  0
VERTEX
  8
1
 10
391.6162
 20
626.4116
  0
VERTEX
  8
1
 10
404.0259
 20
623.8464
  0
VERTEX
  8
1
 10
416.4771
 20
620.7598
  0
VERTEX
  8
1
 10
428.7500
 20
617.0596
  0
VERTEX
  8
1
 10
440.7837
 20
612.5536
  0
VERTEX
  8
1
 10
452.5928
 20
607.4622
  0
VERTEX
  8
1
 10
463.8696
 20
602.0121
  0
VERTEX
  8
1
 10
475.0000
 20
596.2512
  0
VERTEX
  8
1
 10
496.6626
 20
584.6692
  0
VERTEX
  8
1
 10
518.1299
 20
573.1686
  0
VERTEX
  8
1
 10
539.4019
 20
562.1238
  0
VERTEX
  8
1
 10
550.3736
 20
556.7527
  0
VERTEX
  8
1
 10
561.4331
 20
551.5719
  0
VERTEX
  8
1
 10
572.2827
 20
546.7268
  0
VERTEX
  8
1
 10
583.2349
 20
542.1181
  0
VERTEX
  8
1
 10
594.2456
 20
537.8193
  0
VERTEX
  8
1
 10
605.3516
 20
533.7749
  0
VERTEX
  8
1
 10
613.8867
 20
530.8409
  0
VERTEX
  8
1
 10
628.2202
 20
526.2528
  0
VERTEX
  8
1
 10
640.7178
 20
522.3955
  0
VERTEX
  8
1
 10
635.8032
 20
510.2745
  0
VERTEX
  8
1
 10
629.4434
 20
494.2079
  0
VERTEX
  8
1
 10
623.4522
 20
478.0097
  0
VERTEX
  8
1
 10
617.8491
 20
461.6924
  0
VERTEX
  8
1
 10
612.5903
 20
445.2598
  0
VERTEX
  8
1
 10
607.8125
 20
429.1858
  0
VERTEX
  8
1
 10
603.2886
 20
413.0358
  0
VERTEX
  8
1
 10
594.3408
 20
379.1390
  0
VERTEX
  8
1
 10
586.3111
 20
345.9097
  0
VERTEX
  8
1
 10
578.4546
 20
311.4960
  0
VERTEX
  8
1
 10
571.0352
 20
277.8901
  0
VERTEX
  8
1
 10
564.0503
 20
244.7459
  0
VERTEX
  8
1
 10
557.4317
 20
211.9181
  0
VERTEX
  8
1
 10
550.5786
 20
176.4715
  0
VERTEX
  8
1
 10
544.1553
 20
141.2186
  0
VERTEX
  8
1
 10
538.4351
 20
107.0313
  0
VERTEX
  8
1
 10
535.9546
 20
89.9868
  0
VERTEX
  8
1
 10
533.8135
 20
73.6679
  0
VERTEX
  8
1
 10
533.8526
 20
30.3764
  0
VERTEX
  8
1
 10
139.6411
 20
30.0000
  0
SEQEND
  0
POINT
  8
2
 10
139.6411
 20
30.0000
  0
POINT
  8
2
 10
139.5899
 20
73.2644
  0
POINT
  8
3
 10
137.3657
 20
89.7437
  0
POINT
  8
3
 10
134.8047
 20
106.9376
  0
POINT
  8
3
 10
129.0283
 20
140.8348
  0
POINT
  8
3
 10
122.6660
 20
175.2073
  0
POINT
  8
3
 10
116.0181
 20
209.1077
  0
POINT
  8
3
 10
108.7622
 20
244.5806
  0
POINT
  8
3
 10
101.3770
 20
279.0531
  0
POINT
  8
3
 10
94.1821
 20
311.0909
  0
POINT
  8
3
 10
86.5088
 20
344.2945
  0
POINT
  8
3
 10
78.1787
 20
378.3686
  0
POINT
  8
3
 10
69.5435
 20
410.6911
  0
POINT
  8
3
 10
64.6362
 20
427.9982
  0
POINT
  8
3
 10
59.4849
 20
445.2331
  0
POINT
  8
3
 10
54.2896
 20
461.6029
  0
POINT
  8
3
 10
48.7256
 20
477.8463
  0
POINT
  8
3
 10
44.2554
 20
489.8586
  0
POINT
  8
3
 10
36.2427
 20
509.6757
  0
POINT
  8
2
 10
30.0025
 20
524.5325
  0
POINT
  8
3
 10
46.0132
 20
526.2545
  0
POINT
  8
3
 10
70.1563
 20
529.7695
  0
POINT
  8
3
 10
93.5864
 20
535.6293
  0
POINT
  8
3
 10
116.1206
 20
543.9618
  0
POINT
  8
3
 10
137.9468
 20
554.1788
  0
POINT
  8
3
 10
159.7339
 20
566.3900
  0
POINT
  8
3
 10
181.2232
 20
579.2120
  0
POINT
  8
3
 10
203.6011
 20
592.2576
  0
POINT
  8
3
 10
226.4429
 20
604.3184
  0
POINT
  8
3
 10
250.7324
 20
614.5981
  0
POINT
  8
3
 10
275.7569
 20
622.7709
  0
POINT
  8
3
 10
301.3745
 20
628.3686
  0
POINT
  8
2
 10
328.0274
 20
631.5557
  0
POINT
  8
3
 10
341.1231
 20
631.5962
  0
POINT
  8
3
 10
353.7866
 20
631.0905
  0
POINT
  8
3
 10
366.4746
 20
630.0362
  0
POINT
  8
3
 10
379.1089
 20
628.4618
  0
POINT
  8
3
 10
391.6162
 20
626.4116
  0
POINT
  8
3
 10
404.0259
 20
623.8464
  0
POINT
  8
3
 10
416.4771
 20
620.7598
  0
POINT
  8
3
 10
428.7500
 20
617.0596
  0
POINT
  8
3
 10
440.7837
 20
612.5536
  0
POINT
  8
3
 10
452.5928
 20
607.4622
  0
POINT
  8
3
 10
463.8696
 20
602.0121
  0
POINT
  8
3
 10
475.0000
 20
596.2512
  0
POINT
  8
3
 10
496.6626
 20
584.6692
  0
POINT
  8
3
 10
518.1299
 20
573.1686
  0
POINT
  8
3
 10
539.4019
 20
562.1238
  0
POINT
  8
3
 10
550.3736
 20
556.7527
  0
POINT
  8
3
 10
561.4331
 20
551.5719
  0
POINT
  8
3
 10
572.2827
 20
546.7268
  0
POINT
  8
3
 10
583.2349
 20
542.1181
  0
POINT
  8
3
 10
594.2456
 20
537.8193
  0
POINT
  8
3
 10
605.3516
 20
533.7749
  0
POINT
  8
3
 10
613.8867
 20
530.8409
  0
POINT
  8
3
 10
628.2202
 20
526.2528
  0
POINT
  8
2
 10
640.7178
 20
522.3955
  0
POINT
  8
3
 10
635.8032
 20
510.2745
  0
POINT
  8
3
 10
629.4434
 20
494.2079
  0
POINT
  8
3
 10
623.4522
 20
478.0097
  0
POINT
  8
3
 10
617.8491
 20
461.6924
  0
POINT
  8
3
 10
612.5903
 20
445.2598
  0
POINT
  8
3
 10
607.8125
 20
429.1858
  0
POINT
  8
3
 10
603.2886
 20
413.0358
  0
POINT
  8
3
 10
594.3408
 20
379.1390
  0
POINT
  8
3
 10
586.3111
 20
345.9097
  0
POINT
  8
3
 10
578.4546
 20
311.4960
  0
POINT
  8
3
 10
571.0352
 20
277.8901
  0
POINT
  8
3
 10
564.0503
 20
244.7459
  0
POINT
  8
3
 10
557.4317
 20
211.9181
  0
POINT
  8
3
 10
550.5786
 20
176.4715
  0
POINT
  8
3
 10
544.1553
 20
141.2186
  0
POINT
  8
3
 10
538.4351
 20
107.0313
  0
POINT
  8
3
 10
535.9546
 20
89.9868
  0
POINT
  8
2
 10
533.8135
 20
73.6679
  0
POINT
  8
2
 10
533.8526
 20
30.3764
  0
POINT
  8
2
 10
139.6411
 20
30.0000
  0
POLYLINE
  8
14
 66
1
 70
1
  0
VERTEX
  8
14
 10
151.6260
 20
42.0104
  0
VERTEX
  8
14
 10
151.5894
 20
74.0515
  0
VERTEX
  8
14
 10
149.2627
 20
91.3330
  0
VERTEX
  8
14
 10
146.6944
 20
108.5770
  0
VERTEX
  8
14
 10
140.8399
 20
142.9516
  0
VERTEX
  8
14
 10
134.4946
 20
177.2403
  0
VERTEX
  8
14
 10
127.7832
 20
211.4597
  0
VERTEX
  8
14
 10
120.8032
 20
245.6248
  0
VERTEX
  8
14
 10
113.5156
 20
279.7251
  0
VERTEX
  8
14
 10
105.8814
 20
313.7522
  0
VERTEX
  8
14
 10
98.0249
 20
347.7264
  0
VERTEX
  8
14
 10
89.7388
 20
381.5992
  0
VERTEX
  8
14
 10
80.7202
 20
415.2833
  0
VERTEX
  8
14
 10
75.9570
 20
432.0564
  0
VERTEX
  8
14
 10
70.9570
 20
448.7581
  0
VERTEX
  8
14
 10
65.6787
 20
465.3769
  0
VERTEX
  8
14
 10
60.0293
 20
481.8692
  0
VERTEX
  8
14
 10
53.8916
 20
498.1780
  0
VERTEX
  8
14
 10
47.3047
 20
514.3244
  0
VERTEX
  8
14
 10
72.5855
 20
518.0197
  0
VERTEX
  8
14
 10
97.1216
 20
524.1603
  0
VERTEX
  8
14
 10
120.6714
 20
532.8692
  0
VERTEX
  8
14
 10
143.4863
 20
543.5325
  0
VERTEX
  8
14
 10
165.6250
 20
555.9272
  0
VERTEX
  8
14
 10
187.4536
 20
568.9566
  0
VERTEX
  8
14
 10
193.2726
 20
572.4165
  0
VERTEX
  8
14
 10
209.3237
 20
581.7073
  0
VERTEX
  8
14
 10
231.6455
 20
593.5054
  0
VERTEX
  8
14
 10
254.9243
 20
603.3643
  0
VERTEX
  8
14
 10
278.9160
 20
611.1930
  0
VERTEX
  8
14
 10
303.4668
 20
616.5517
  0
VERTEX
  8
14
 10
328.6475
 20
619.5651
  0
VERTEX
  8
14
 10
340.8716
 20
619.5977
  0
VERTEX
  8
14
 10
353.0640
 20
619.1121
  0
VERTEX
  8
14
 10
365.2368
 20
618.1009
  0
VERTEX
  8
14
 10
377.3584
 20
616.5897
  0
VERTEX
  8
14
 10
389.4141
 20
614.6124
  0
VERTEX
  8
14
 10
401.3745
 20
612.1423
  0
VERTEX
  8
14
 10
413.2373
 20
609.2065
  0
VERTEX
  8
14
 10
424.9268
 20
605.6846
  0
VERTEX
  8
14
 10
436.3574
 20
601.4040
  0
VERTEX
  8
14
 10
447.5733
 20
596.5630
  0
VERTEX
  8
14
 10
458.5669
 20
591.2452
  0
VERTEX
  8
14
 10
466.9218
 20
586.9401
  0
VERTEX
  8
14
 10
469.4190
 20
585.6283
  0
VERTEX
  8
14
 10
475.9988
 20
582.1538
  0
VERTEX
  8
14
 10
512.5000
 20
562.5723
  0
VERTEX
  8
14
 10
534.1797
 20
551.3179
  0
VERTEX
  8
14
 10
545.1489
 20
545.9456
  0
VERTEX
  8
14
 10
556.2110
 20
540.7647
  0
VERTEX
  8
14
 10
567.3657
 20
535.7813
  0
VERTEX
  8
14
 10
578.6231
 20
531.0392
  0
VERTEX
  8
14
 10
590.0025
 20
526.5967
  0
VERTEX
  8
14
 10
601.4795
 20
522.4159
  0
VERTEX
  8
14
 10
613.0396
 20
518.4766
  0
VERTEX
  8
14
 10
624.6851
 20
514.7855
  0
VERTEX
  8
14
 10
618.2691
 20
498.5816
  0
VERTEX
  8
14
 10
612.2217
 20
482.2451
  0
VERTEX
  8
14
 10
606.5552
 20
465.7660
  0
VERTEX
  8
14
 10
601.2403
 20
449.1697
  0
VERTEX
  8
14
 10
596.2769
 20
432.4665
  0
VERTEX
  8
14
 10
591.5723
 20
415.6856
  0
VERTEX
  8
14
 10
582.6831
 20
381.9859
  0
VERTEX
  8
14
 10
574.5020
 20
348.1051
  0
VERTEX
  8
14
 10
566.7481
 20
314.1247
  0
VERTEX
  8
14
 10
559.2359
 20
280.0919
  0
VERTEX
  8
14
 10
552.0557
 20
245.9856
  0
VERTEX
  8
14
 10
545.1807
 20
211.8163
  0
VERTEX
  8
14
 10
538.5816
 20
177.5934
  0
VERTEX
  8
14
 10
532.3413
 20
143.3027
  0
VERTEX
  8
14
 10
526.5869
 20
108.9284
  0
VERTEX
  8
14
 10
524.0796
 20
91.6851
  0
VERTEX
  8
14
 10
521.8140
 20
74.4045
  0
VERTEX
  8
14
 10
521.8433
 20
42.3644
  0
VERTEX
  8
14
 10
151.6260
 20
42.0104
  0
SEQEND
  0
POINT
  8
2
 10
151.6260
 20
42.0104
  0
POINT
  8
2
 10
151.5894
 20
74.0515
  0
POINT
  8
3
 10
149.2627
 20
91.3330
  0
POINT
  8
3
 10
146.6944
 20
108.5770
  0
POINT
  8
3
 10
140.8399
 20
142.9516
  0
POINT
  8
3
 10
134.4946
 20
177.2403
  0
POINT
  8
3
 10
127.7832
 20
211.4597
  0
POINT
  8
3
 10
120.8032
 20
245.6248
  0
POINT
  8
3
 10
113.5156
 20
279.7251
  0
POINT
  8
3
 10
105.8814
 20
313.7522
  0
POINT
  8
3
 10
98.0249
 20
347.7264
  0
POINT
  8
3
 10
89.7388
 20
381.5992
  0
POINT
  8
3
 10
80.7202
 20
415.2833
  0
POINT
  8
3
 10
75.9570
 20
432.0564
  0
POINT
  8
3
 10
70.9570
 20
448.7581
  0
POINT
  8
3
 10
65.6787
 20
465.3769
  0
POINT
  8
3
 10
60.0293
 20
481.8692
  0
POINT
  8
3
 10
53.8916
 20
498.1780
  0
POINT
  8
2
 10
47.3047
 20
514.3244
  0
POINT
  8
3
 10
72.5855
 20
518.0197
  0
POINT
  8
3
 10
97.1216
 20
524.1603
  0
POINT
  8
3
 10
120.6714
 20
532.8692
  0
POINT
  8
3
 10
143.4863
 20
543.5325
  0
POINT
  8
3
 10
165.6250
 20
555.9272
  0
POINT
  8
3
 10
187.4536
 20
568.9566
  0
POINT
  8
4
 10
193.2726
 20
572.4165
 38
5.0000
 50
294.9536
  0
POINT
  8
3
 10
193.2726
 20
572.4165
  0
POINT
  8
3
 10
209.3237
 20
581.7073
  0
POINT
  8
3
 10
231.6455
 20
593.5054
  0
POINT
  8
3
 10
254.9243
 20
603.3643
  0
POINT
  8
3
 10
278.9160
 20
611.1930
  0
POINT
  8
3
 10
303.4668
 20
616.5517
  0
POINT
  8
2
 10
328.6475
 20
619.5651
  0
POINT
  8
3
 10
340.8716
 20
619.5977
  0
POINT
  8
3
 10
353.0640
 20
619.1121
  0
POINT
  8
3
 10
365.2368
 20
618.1009
  0
POINT
  8
3
 10
377.3584
 20
616.5897
  0
POINT
  8
3
 10
389.4141
 20
614.6124
  0
POINT
  8
3
 10
401.3745
 20
612.1423
  0
POINT
  8
3
 10
413.2373
 20
609.2065
  0
POINT
  8
3
 10
424.9268
 20
605.6846
  0
POINT
  8
3
 10
436.3574
 20
601.4040
  0
POINT
  8
3
 10
447.5733
 20
596.5630
  0
POINT
  8
3
 10
458.5669
 20
591.2452
  0
POINT
  8
4
 10
466.9218
 20
586.9401
 38
5.0000
 50
248.5037
  0
POINT
  8
3
 10
466.9218
 20
586.9401
  0
POINT
  8
3
 10
469.4190
 20
585.6283
  0
POINT
  8
4
 10
475.9988
 20
582.1538
 38
5.0000
 50
247.8828
  0
POINT
  8
3
 10
475.9988
 20
582.1538
  0
POINT
  8
3
 10
512.5000
 20
562.5723
  0
POINT
  8
3
 10
534.1797
 20
551.3179
  0
POINT
  8
3
 10
545.1489
 20
545.9456
  0
POINT
  8
3
 10
556.2110
 20
540.7647
  0
POINT
  8
3
 10
567.3657
 20
535.7813
  0
POINT
  8
3
 10
578.6231
 20
531.0392
  0
POINT
  8
3
 10
590.0025
 20
526.5967
  0
POINT
  8
3
 10
601.4795
 20
522.4159
  0
POINT
  8
3
 10
613.0396
 20
518.4766
  0
POINT
  8
2
 10
624.6851
 20
514.7855
  0
POINT
  8
3
 10
618.2691
 20
498.5816
  0
POINT
  8
3
 10
612.2217
 20
482.2451
  0
POINT
  8
3
 10
606.5552
 20
465.7660
  0
POINT
  8
3
 10
601.2403
 20
449.1697
  0
POINT
  8
3
 10
596.2769
 20
432.4665
  0
POINT
  8
3
 10
591.5723
 20
415.6856
  0
POINT
  8
3
 10
582.6831
 20
381.9859
  0
POINT
  8
3
 10
574.5020
 20
348.1051
  0
POINT
  8
3
 10
566.7481
 20
314.1247
  0
POINT
  8
3
 10
559.2359
 20
280.0919
  0
POINT
  8
3
 10
552.0557
 20
245.9856
  0
POINT
  8
3
 10
545.1807
 20
211.8163
  0
POINT
  8
3
 10
538.5816
 20
177.5934
  0
POINT
  8
3
 10
532.3413
 20
143.3027
  0
POINT
  8
3
 10
526.5869
 20
108.9284
  0
POINT
  8
3
 10
524.0796
 20
91.6851
  0
POINT
  8
2
 10
521.8140
 20
74.4045
  0
POINT
  8
2
 10
521.8433
 20
42.3644
  0
POINT
  8
2
 10
151.6260
 20
42.0104
  0
LINE
  8
8
 10
328.6475
 20
619.5657
 11
328.6475
 21
600.6914
  0
POINT
  8
2
 10
328.6475
 20
619.5657
  0
POINT
  8
2
 10
328.6475
 20
600.6914
  0
LINE
  8
8
 10
336.8237
 20
618.6647
 11
336.8237
 21
41.9329
  0
POINT
  8
2
 10
336.8237
 20
618.6647
  0
POINT
  8
2
 10
336.8237
 20
41.9329
  0
LINE
  8
8
 10
151.5943
 20
74.0515
 11
521.8140
 21
74.4054
  0
POINT
  8
2
 10
151.5943
 20
74.0515
  0
POINT
  8
2
 10
521.8140
 20
74.4054
  0
ENDBLK
  0
BLOCK
  8
0
  2
BLK_10_1
 70
64
 10
0.0000
 20
0.0000
  0
TEXT
  8
1
 10
414.5947
 20
260.9484
 40
2.8000
 50
0.0000
  1
PIECE NAME: 등요크안
  7
STANDARD
  0
TEXT
  8
1
 10
414.5947
 20
258.1484
 40
2.8000
 50
0.0000
  1
SIZE: L
  7
STANDARD
  0
TEXT
  8
1
 10
414.5947
 20
255.3484
 40
2.8000
 50
0.0000
  1
CATEGORY: 메쉬
  7
STANDARD
  0
TEXT
  8
1
 10
414.5947
 20
252.5484
 40
2.8000
 50
0.0000
  1
QUANTITY: 1
  7
STANDARD
  0
TEXT
  8
1
 10
414.5947
 20
249.7484
 40
2.8000
 50
0.0000
  1
ANNOTATION: 
  7
STANDARD
  0
TEXT
  8
1
 10
329.7461
 20
207.7464
 40
5.1000
 50
360.0000
  1
ANNOTATION: S/#NOS725SSWT01
  7
STANDARD
  0
TEXT
  8
1
 10
357.7954
 20
201.6265
 40
5.1000
 50
360.0000
  1
ANNOTATION: BACK
  7
STANDARD
  0
TEXT
  8
1
 10
360.3467
 20
195.5063
 40
5.1000
 50
360.0000
  1
ANNOTATION: <L>
  7
STANDARD
  0
POLYLINE
  8
1
 66
1
 70
1
  0
VERTEX
  8
1
 10
30.0000
 20
30.0002
  0
VERTEX
  8
1
 10
37.7808
 20
46.9832
  0
VERTEX
  8
1
 10
41.4990
 20
55.4856
  0
VERTEX
  8
1
 10
44.8218
 20
64.1303
  0
VERTEX
  8
1
 10
47.8174
 20
72.9878
  0
VERTEX
  8
1
 10
50.3320
 20
81.9878
  0
VERTEX
  8
1
 10
53.1690
 20
94.8775
  0
VERTEX
  8
1
 10
55.4663
 20
107.8800
  0
VERTEX
  8
1
 10
57.3120
 20
121.3225
  0
VERTEX
  8
1
 10
58.7378
 20
134.8210
  0
VERTEX
  8
1
 10
59.7974
 20
147.7867
  0
VERTEX
  8
1
 10
60.5347
 20
160.7756
  0
VERTEX
  8
1
 10
61.0059
 20
174.2952
  0
VERTEX
  8
1
 10
61.1694
 20
187.7654
  0
VERTEX
  8
1
 10
60.6323
 20
206.5929
  0
VERTEX
  8
1
 10
59.5093
 20
225.5625
  0
VERTEX
  8
1
 10
57.8076
 20
244.3126
  0
VERTEX
  8
1
 10
55.5493
 20
263.0046
  0
VERTEX
  8
1
 10
52.7637
 20
281.6713
  0
VERTEX
  8
1
 10
49.4409
 20
300.2490
  0
VERTEX
  8
1
 10
46.5796
 20
314.1466
  0
VERTEX
  8
1
 10
41.1353
 20
337.1747
  0
VERTEX
  8
1
 10
38.3057
 20
348.4291
  0
VERTEX
  8
1
 10
309.2505
 20
426.2828
  0
VERTEX
  8
1
 10
313.7280
 20
417.3886
  0
VERTEX
  8
1
 10
315.9473
 20
413.2154
  0
VERTEX
  8
1
 10
318.4253
 20
409.2137
  0
VERTEX
  8
1
 10
321.0693
 20
405.5283
  0
VERTEX
  8
1
 10
323.9453
 20
402.0217
  0
VERTEX
  8
1
 10
326.6065
 20
399.1576
  0
VERTEX
  8
1
 10
329.4751
 20
396.5033
  0
VERTEX
  8
1
 10
332.3096
 20
394.2595
  0
VERTEX
  8
1
 10
335.3418
 20
392.2896
  0
VERTEX
  8
1
 10
339.2285
 20
390.2620
  0
VERTEX
  8
1
 10
343.2642
 20
388.5242
  0
VERTEX
  8
1
 10
347.6416
 20
386.9490
  0
VERTEX
  8
1
 10
352.1021
 20
385.6151
  0
VERTEX
  8
1
 10
356.7627
 20
384.4496
  0
VERTEX
  8
1
 10
361.4673
 20
383.4880
  0
VERTEX
  8
1
 10
371.2891
 20
382.0629
  0
VERTEX
  8
1
 10
381.3208
 20
381.2000
  0
VERTEX
  8
1
 10
391.6748
 20
380.7489
  0
VERTEX
  8
1
 10
402.7295
 20
380.4405
  0
VERTEX
  8
1
 10
413.6939
 20
380.3998
  0
VERTEX
  8
1
 10
424.6802
 20
380.4407
  0
VERTEX
  8
1
 10
435.6445
 20
380.7459
  0
VERTEX
  8
1
 10
446.0400
 20
381.1969
  0
VERTEX
  8
1
 10
456.1109
 20
382.0621
  0
VERTEX
  8
1
 10
465.8936
 20
383.4799
  0
VERTEX
  8
1
 10
470.6348
 20
384.4493
  0
VERTEX
  8
1
 10
475.3296
 20
385.6236
  0
VERTEX
  8
1
 10
479.7852
 20
386.9570
  0
VERTEX
  8
1
 10
484.1553
 20
388.5321
  0
VERTEX
  8
1
 10
488.1934
 20
390.2719
  0
VERTEX
  8
1
 10
492.0825
 20
392.3023
  0
VERTEX
  8
1
 10
495.1172
 20
394.2787
  0
VERTEX
  8
1
 10
497.9590
 20
396.5306
  0
VERTEX
  8
1
 10
500.8399
 20
399.2061
  0
VERTEX
  8
1
 10
503.5181
 20
402.0925
  0
VERTEX
  8
1
 10
506.3989
 20
405.6130
  0
VERTEX
  8
1
 10
509.0454
 20
409.3120
  0
VERTEX
  8
1
 10
510.9009
 20
412.2621
  0
VERTEX
  8
1
 10
513.6743
 20
417.3892
  0
VERTEX
  8
1
 10
518.1250
 20
426.2898
  0
VERTEX
  8
1
 10
789.1065
 20
348.4252
  0
VERTEX
  8
1
 10
786.2671
 20
337.1744
  0
VERTEX
  8
1
 10
781.8286
 20
318.7073
  0
VERTEX
  8
1
 10
777.9395
 20
300.1335
  0
VERTEX
  8
1
 10
774.6045
 20
281.4653
  0
VERTEX
  8
1
 10
771.8140
 20
262.7077
  0
VERTEX
  8
1
 10
769.5703
 20
244.0999
  0
VERTEX
  8
1
 10
767.8858
 20
225.4347
  0
VERTEX
  8
1
 10
766.7700
 20
206.5288
  0
VERTEX
  8
1
 10
766.2329
 20
187.8256
  0
VERTEX
  8
1
 10
766.3941
 20
174.4225
  0
VERTEX
  8
1
 10
766.8579
 20
161.0304
  0
VERTEX
  8
1
 10
767.6074
 20
147.7991
  0
VERTEX
  8
1
 10
768.6865
 20
134.5915
  0
VERTEX
  8
1
 10
770.1270
 20
121.0536
  0
VERTEX
  8
1
 10
771.9849
 20
107.5719
  0
VERTEX
  8
1
 10
774.2578
 20
94.7310
  0
VERTEX
  8
1
 10
777.0654
 20
82.0023
  0
VERTEX
  8
1
 10
779.6094
 20
72.9207
  0
VERTEX
  8
1
 10
782.6318
 20
63.9820
  0
VERTEX
  8
1
 10
785.0684
 20
57.5398
  0
VERTEX
  8
1
 10
789.6240
 20
46.9837
  0
VERTEX
  8
1
 10
797.4146
 20
30.0000
  0
VERTEX
  8
1
 10
413.7012
 20
30.0000
  0
VERTEX
  8
1
 10
30.0000
 20
30.0002
  0
SEQEND
  0
POINT
  8
2
 10
30.0000
 20
30.0002
  0
POINT
  8
3
 10
37.7808
 20
46.9832
  0
POINT
  8
3
 10
41.4990
 20
55.4856
  0
POINT
  8
3
 10
44.8218
 20
64.1303
  0
POINT
  8
3
 10
47.8174
 20
72.9878
  0
POINT
  8
3
 10
50.3320
 20
81.9878
  0
POINT
  8
3
 10
53.1690
 20
94.8775
  0
POINT
  8
3
 10
55.4663
 20
107.8800
  0
POINT
  8
3
 10
57.3120
 20
121.3225
  0
POINT
  8
3
 10
58.7378
 20
134.8210
  0
POINT
  8
3
 10
59.7974
 20
147.7867
  0
POINT
  8
3
 10
60.5347
 20
160.7756
  0
POINT
  8
3
 10
61.0059
 20
174.2952
  0
POINT
  8
2
 10
61.1694
 20
187.7654
  0
POINT
  8
3
 10
60.6323
 20
206.5929
  0
POINT
  8
3
 10
59.5093
 20
225.5625
  0
POINT
  8
3
 10
57.8076
 20
244.3126
  0
POINT
  8
3
 10
55.5493
 20
263.0046
  0
POINT
  8
3
 10
52.7637
 20
281.6713
  0
POINT
  8
3
 10
49.4409
 20
300.2490
  0
POINT
  8
3
 10
46.5796
 20
314.1466
  0
POINT
  8
3
 10
41.1353
 20
337.1747
  0
POINT
  8
2
 10
38.3057
 20
348.4291
  0
POINT
  8
2
 10
309.2505
 20
426.2828
  0
POINT
  8
3
 10
313.7280
 20
417.3886
  0
POINT
  8
3
 10
315.9473
 20
413.2154
  0
POINT
  8
3
 10
318.4253
 20
409.2137
  0
POINT
  8
3
 10
321.0693
 20
405.5283
  0
POINT
  8
3
 10
323.9453
 20
402.0217
  0
POINT
  8
3
 10
326.6065
 20
399.1576
  0
POINT
  8
3
 10
329.4751
 20
396.5033
  0
POINT
  8
3
 10
332.3096
 20
394.2595
  0
POINT
  8
3
 10
335.3418
 20
392.2896
  0
POINT
  8
3
 10
339.2285
 20
390.2620
  0
POINT
  8
3
 10
343.2642
 20
388.5242
  0
POINT
  8
3
 10
347.6416
 20
386.9490
  0
POINT
  8
3
 10
352.1021
 20
385.6151
  0
POINT
  8
3
 10
356.7627
 20
384.4496
  0
POINT
  8
3
 10
361.4673
 20
383.4880
  0
POINT
  8
3
 10
371.2891
 20
382.0629
  0
POINT
  8
3
 10
381.3208
 20
381.2000
  0
POINT
  8
3
 10
391.6748
 20
380.7489
  0
POINT
  8
3
 10
402.7295
 20
380.4405
  0
POINT
  8
2
 10
413.6939
 20
380.3998
  0
POINT
  8
3
 10
424.6802
 20
380.4407
  0
POINT
  8
3
 10
435.6445
 20
380.7459
  0
POINT
  8
3
 10
446.0400
 20
381.1969
  0
POINT
  8
3
 10
456.1109
 20
382.0621
  0
POINT
  8
3
 10
465.8936
 20
383.4799
  0
POINT
  8
3
 10
470.6348
 20
384.4493
  0
POINT
  8
3
 10
475.3296
 20
385.6236
  0
POINT
  8
3
 10
479.7852
 20
386.9570
  0
POINT
  8
3
 10
484.1553
 20
388.5321
  0
POINT
  8
3
 10
488.1934
 20
390.2719
  0
POINT
  8
3
 10
492.0825
 20
392.3023
  0
POINT
  8
3
 10
495.1172
 20
394.2787
  0
POINT
  8
3
 10
497.9590
 20
396.5306
  0
POINT
  8
3
 10
500.8399
 20
399.2061
  0
POINT
  8
3
 10
503.5181
 20
402.0925
  0
POINT
  8
3
 10
506.3989
 20
405.6130
  0
POINT
  8
3
 10
509.0454
 20
409.3120
  0
POINT
  8
3
 10
510.9009
 20
412.2621
  0
POINT
  8
3
 10
513.6743
 20
417.3892
  0
POINT
  8
2
 10
518.1250
 20
426.2898
  0
POINT
  8
2
 10
789.1065
 20
348.4252
  0
POINT
  8
3
 10
786.2671
 20
337.1744
  0
POINT
  8
3
 10
781.8286
 20
318.7073
  0
POINT
  8
3
 10
777.9395
 20
300.1335
  0
POINT
  8
3
 10
774.6045
 20
281.4653
  0
POINT
  8
3
 10
771.8140
 20
262.7077
  0
POINT
  8
3
 10
769.5703
 20
244.0999
  0
POINT
  8
3
 10
767.8858
 20
225.4347
  0
POINT
  8
3
 10
766.7700
 20
206.5288
  0
POINT
  8
2
 10
766.2329
 20
187.8256
  0
POINT
  8
3
 10
766.3941
 20
174.4225
  0
POINT
  8
3
 10
766.8579
 20
161.0304
  0
POINT
  8
3
 10
767.6074
 20
147.7991
  0
POINT
  8
3
 10
768.6865
 20
134.5915
  0
POINT
  8
3
 10
770.1270
 20
121.0536
  0
POINT
  8
3
 10
771.9849
 20
107.5719
  0
POINT
  8
3
 10
774.2578
 20
94.7310
  0
POINT
  8
3
 10
777.0654
 20
82.0023
  0
POINT
  8
3
 10
779.6094
 20
72.9207
  0
POINT
  8
3
 10
782.6318
 20
63.9820
  0
POINT
  8
3
 10
785.0684
 20
57.5398
  0
POINT
  8
3
 10
789.6240
 20
46.9837
  0
POINT
  8
2
 10
797.4146
 20
30.0000
  0
POINT
  8
2
 10
413.7012
 20
30.0000
  0
POINT
  8
2
 10
30.0000
 20
30.0002
  0
POLYLINE
  8
14
 66
1
 70
1
  0
VERTEX
  8
14
 10
48.6963
 20
42.0003
  0
VERTEX
  8
14
 10
53.4912
 20
53.0957
  0
VERTEX
  8
14
 10
58.1348
 20
65.9645
  0
VERTEX
  8
14
 10
61.9800
 20
79.0988
  0
VERTEX
  8
14
 10
64.9658
 20
92.4477
  0
VERTEX
  8
14
 10
67.3071
 20
105.9406
  0
VERTEX
  8
14
 10
69.1846
 20
119.4969
  0
VERTEX
  8
14
 10
70.6299
 20
133.1108
  0
VERTEX
  8
14
 10
71.7481
 20
146.7531
  0
VERTEX
  8
14
 10
72.5293
 20
160.4198
  0
VERTEX
  8
14
 10
73.0078
 20
174.0956
  0
VERTEX
  8
14
 10
73.1690
 20
187.7866
  0
VERTEX
  8
14
 10
72.9502
 20
198.0007
  0
VERTEX
  8
14
 10
72.6245
 20
207.0418
  0
VERTEX
  8
14
 10
71.4917
 20
226.2529
  0
VERTEX
  8
14
 10
69.7559
 20
245.4279
  0
VERTEX
  8
14
 10
67.4487
 20
264.5439
  0
VERTEX
  8
14
 10
64.6118
 20
283.5881
  0
VERTEX
  8
14
 10
61.2207
 20
302.5412
  0
VERTEX
  8
14
 10
57.2754
 20
321.3777
  0
VERTEX
  8
14
 10
52.7710
 20
340.1004
  0
VERTEX
  8
14
 10
303.0054
 20
412.0026
  0
VERTEX
  8
14
 10
305.5689
 20
407.1880
  0
VERTEX
  8
14
 10
308.4302
 20
402.5723
  0
VERTEX
  8
14
 10
311.5430
 20
398.2318
  0
VERTEX
  8
14
 10
314.9292
 20
394.1022
  0
VERTEX
  8
14
 10
318.1592
 20
390.6282
  0
VERTEX
  8
14
 10
321.6406
 20
387.4127
  0
VERTEX
  8
14
 10
325.3589
 20
384.4917
  0
VERTEX
  8
14
 10
329.3164
 20
381.9115
  0
VERTEX
  8
14
 10
333.9942
 20
379.4655
  0
VERTEX
  8
14
 10
338.8452
 20
377.3680
  0
VERTEX
  8
14
 10
343.8428
 20
375.5641
  0
VERTEX
  8
14
 10
348.9404
 20
374.0389
  0
VERTEX
  8
14
 10
354.1211
 20
372.7435
  0
VERTEX
  8
14
 10
359.3555
 20
371.6748
  0
VERTEX
  8
14
 10
369.9585
 20
370.1364
  0
VERTEX
  8
14
 10
380.6323
 20
369.2194
  0
VERTEX
  8
14
 10
391.3452
 20
368.7531
  0
VERTEX
  8
14
 10
402.5244
 20
368.4424
  0
VERTEX
  8
14
 10
413.7012
 20
368.3995
  0
VERTEX
  8
14
 10
424.8779
 20
368.4424
  0
VERTEX
  8
14
 10
436.0596
 20
368.7531
  0
VERTEX
  8
14
 10
446.7725
 20
369.2194
  0
VERTEX
  8
14
 10
457.4439
 20
370.1364
  0
VERTEX
  8
14
 10
468.0493
 20
371.6748
  0
VERTEX
  8
14
 10
473.2837
 20
372.7434
  0
VERTEX
  8
14
 10
478.4619
 20
374.0389
  0
VERTEX
  8
14
 10
483.5596
 20
375.5643
  0
VERTEX
  8
14
 10
488.5571
 20
377.3680
  0
VERTEX
  8
14
 10
493.4082
 20
379.4655
  0
VERTEX
  8
14
 10
498.0859
 20
381.9115
  0
VERTEX
  8
14
 10
502.0435
 20
384.4917
  0
VERTEX
  8
14
 10
505.7617
 20
387.4127
  0
VERTEX
  8
14
 10
509.2432
 20
390.6282
  0
VERTEX
  8
14
 10
512.4732
 20
394.1022
  0
VERTEX
  8
14
 10
515.8594
 20
398.2317
  0
VERTEX
  8
14
 10
518.9746
 20
402.5723
  0
VERTEX
  8
14
 10
521.8335
 20
407.1878
  0
VERTEX
  8
14
 10
524.3970
 20
412.0026
  0
VERTEX
  8
14
 10
774.6314
 20
340.1064
  0
VERTEX
  8
14
 10
770.1270
 20
321.3777
  0
VERTEX
  8
14
 10
766.1817
 20
302.5412
  0
VERTEX
  8
14
 10
762.7905
 20
283.5881
  0
VERTEX
  8
14
 10
759.9536
 20
264.5439
  0
VERTEX
  8
14
 10
757.6514
 20
245.4277
  0
VERTEX
  8
14
 10
755.9131
 20
226.2529
  0
VERTEX
  8
14
 10
754.7778
 20
207.0418
  0
VERTEX
  8
14
 10
754.4522
 20
198.0007
  0
VERTEX
  8
14
 10
754.2310
 20
187.7860
  0
VERTEX
  8
14
 10
754.3945
 20
174.0956
  0
VERTEX
  8
14
 10
754.8731
 20
160.4198
  0
VERTEX
  8
14
 10
755.6543
 20
146.7531
  0
VERTEX
  8
14
 10
756.7725
 20
133.1108
  0
VERTEX
  8
14
 10
758.2178
 20
119.4969
  0
VERTEX
  8
14
 10
760.0952
 20
105.9406
  0
VERTEX
  8
14
 10
762.4365
 20
92.4477
  0
VERTEX
  8
14
 10
765.4224
 20
79.0988
  0
VERTEX
  8
14
 10
769.2676
 20
65.9645
  0
VERTEX
  8
14
 10
773.9111
 20
53.0957
  0
VERTEX
  8
14
 10
778.7085
 20
41.9995
  0
VERTEX
  8
14
 10
413.7012
 20
41.9995
  0
VERTEX
  8
14
 10
48.6963
 20
42.0003
  0
SEQEND
  0
POINT
  8
2
 10
48.6963
 20
42.0003
  0
POINT
  8
3
 10
53.4912
 20
53.0957
  0
POINT
  8
3
 10
58.1348
 20
65.9645
  0
POINT
  8
3
 10
61.9800
 20
79.0988
  0
POINT
  8
3
 10
64.9658
 20
92.4477
  0
POINT
  8
3
 10
67.3071
 20
105.9406
  0
POINT
  8
3
 10
69.1846
 20
119.4969
  0
POINT
  8
3
 10
70.6299
 20
133.1108
  0
POINT
  8
3
 10
71.7481
 20
146.7531
  0
POINT
  8
3
 10
72.5293
 20
160.4198
  0
POINT
  8
3
 10
73.0078
 20
174.0956
  0
POINT
  8
4
 10
73.1690
 20
187.7866
 38
5.0000
 50
357.0800
  0
POINT
  8
2
 10
73.1690
 20
187.7866
  0
POINT
  8
4
 10
72.9502
 20
198.0007
 38
5.0000
 50
357.9680
  0
POINT
  8
3
 10
72.9502
 20
198.0007
  0
POINT
  8
3
 10
72.6245
 20
207.0418
  0
POINT
  8
3
 10
71.4917
 20
226.2529
  0
POINT
  8
3
 10
69.7559
 20
245.4279
  0
POINT
  8
3
 10
67.4487
 20
264.5439
  0
POINT
  8
3
 10
64.6118
 20
283.5881
  0
POINT
  8
3
 10
61.2207
 20
302.5412
  0
POINT
  8
3
 10
57.2754
 20
321.3777
  0
POINT
  8
2
 10
52.7710
 20
340.1004
  0
POINT
  8
2
 10
303.0054
 20
412.0026
  0
POINT
  8
3
 10
305.5689
 20
407.1880
  0
POINT
  8
3
 10
308.4302
 20
402.5723
  0
POINT
  8
3
 10
311.5430
 20
398.2318
  0
POINT
  8
3
 10
314.9292
 20
394.1022
  0
POINT
  8
3
 10
318.1592
 20
390.6282
  0
POINT
  8
3
 10
321.6406
 20
387.4127
  0
POINT
  8
3
 10
325.3589
 20
384.4917
  0
POINT
  8
3
 10
329.3164
 20
381.9115
  0
POINT
  8
3
 10
333.9942
 20
379.4655
  0
POINT
  8
3
 10
338.8452
 20
377.3680
  0
POINT
  8
3
 10
343.8428
 20
375.5641
  0
POINT
  8
3
 10
348.9404
 20
374.0389
  0
POINT
  8
3
 10
354.1211
 20
372.7435
  0
POINT
  8
3
 10
359.3555
 20
371.6748
  0
POINT
  8
3
 10
369.9585
 20
370.1364
  0
POINT
  8
3
 10
380.6323
 20
369.2194
  0
POINT
  8
3
 10
391.3452
 20
368.7531
  0
POINT
  8
3
 10
402.5244
 20
368.4424
  0
POINT
  8
2
 10
413.7012
 20
368.3995
  0
POINT
  8
3
 10
424.8779
 20
368.4424
  0
POINT
  8
3
 10
436.0596
 20
368.7531
  0
POINT
  8
3
 10
446.7725
 20
369.2194
  0
POINT
  8
3
 10
457.4439
 20
370.1364
  0
POINT
  8
3
 10
468.0493
 20
371.6748
  0
POINT
  8
3
 10
473.2837
 20
372.7434
  0
POINT
  8
3
 10
478.4619
 20
374.0389
  0
POINT
  8
3
 10
483.5596
 20
375.5643
  0
POINT
  8
3
 10
488.5571
 20
377.3680
  0
POINT
  8
3
 10
493.4082
 20
379.4655
  0
POINT
  8
3
 10
498.0859
 20
381.9115
  0
POINT
  8
3
 10
502.0435
 20
384.4917
  0
POINT
  8
3
 10
505.7617
 20
387.4127
  0
POINT
  8
3
 10
509.2432
 20
390.6282
  0
POINT
  8
3
 10
512.4732
 20
394.1022
  0
POINT
  8
3
 10
515.8594
 20
398.2317
  0
POINT
  8
3
 10
518.9746
 20
402.5723
  0
POINT
  8
3
 10
521.8335
 20
407.1878
  0
POINT
  8
2
 10
524.3970
 20
412.0026
  0
POINT
  8
2
 10
774.6314
 20
340.1064
  0
POINT
  8
3
 10
770.1270
 20
321.3777
  0
POINT
  8
3
 10
766.1817
 20
302.5412
  0
POINT
  8
3
 10
762.7905
 20
283.5881
  0
POINT
  8
3
 10
759.9536
 20
264.5439
  0
POINT
  8
3
 10
757.6514
 20
245.4277
  0
POINT
  8
3
 10
755.9131
 20
226.2529
  0
POINT
  8
3
 10
754.7778
 20
207.0418
  0
POINT
  8
4
 10
754.4522
 20
198.0007
 38
5.0000
 50
182.0320
  0
POINT
  8
3
 10
754.4522
 20
198.0007
  0
POINT
  8
4
 10
754.2310
 20
187.7860
 38
5.0000
 50
182.9200
  0
POINT
  8
2
 10
754.2310
 20
187.7860
  0
POINT
  8
3
 10
754.3945
 20
174.0956
  0
POINT
  8
3
 10
754.8731
 20
160.4198
  0
POINT
  8
3
 10
755.6543
 20
146.7531
  0
POINT
  8
3
 10
756.7725
 20
133.1108
  0
POINT
  8
3
 10
758.2178
 20
119.4969
  0
POINT
  8
3
 10
760.0952
 20
105.9406
  0
POINT
  8
3
 10
762.4365
 20
92.4477
  0
POINT
  8
3
 10
765.4224
 20
79.0988
  0
POINT
  8
3
 10
769.2676
 20
65.9645
  0
POINT
  8
3
 10
773.9111
 20
53.0957
  0
POINT
  8
2
 10
778.7085
 20
41.9995
  0
POINT
  8
2
 10
413.7012
 20
41.9995
  0
POINT
  8
2
 10
48.6963
 20
42.0003
  0
LINE
  8
8
 10
413.7012
 20
368.4000
 11
413.7012
 21
42.0000
  0
POINT
  8
2
 10
413.7012
 20
368.4000
  0
POINT
  8
2
 10
413.7012
 20
42.0000
  0
LINE
  8
8
 10
308.0078
 20
386.7165
 11
323.6377
 21
399.8259
  0
POINT
  8
2
 10
308.0078
 20
386.7165
  0
POINT
  8
2
 10
323.6377
 20
399.8259
  0
ENDBLK
  0
BLOCK
  8
0
  2
BLK_11_1
 70
64
 10
0.0000
 20
0.0000
  0
TEXT
  8
1
 10
129.4018
 20
155.2067
 40
2.8000
 50
0.0000
  1
PIECE NAME: 주머니손등
  7
STANDARD
  0
TEXT
  8
1
 10
129.4018
 20
152.4067
 40
2.8000
 50
0.0000
  1
SIZE: L
  7
STANDARD
  0
TEXT
  8
1
 10
129.4018
 20
149.6067
 40
2.8000
 50
0.0000
  1
CATEGORY: 안감
  7
STANDARD
  0
TEXT
  8
1
 10
129.4018
 20
146.8067
 40
2.8000
 50
0.0000
  1
QUANTITY: 2
  7
STANDARD
  0
TEXT
  8
1
 10
129.4018
 20
144.0067
 40
2.8000
 50
0.0000
  1
ANNOTATION: 
  7
STANDARD
  0
TEXT
  8
1
 10
96.3403
 20
174.9637
 40
5.2020
 50
0.0000
  1
ANNOTATION: S/#NOS725SSWT01
  7
STANDARD
  0
TEXT
  8
1
 10
122.3510
 20
168.7213
 40
5.2020
 50
0.0000
  1
ANNOTATION: FRONT
  7
STANDARD
  0
TEXT
  8
1
 10
127.5537
 20
162.4789
 40
5.2020
 50
0.0000
  1
ANNOTATION: pkt
  7
STANDARD
  0
TEXT
  8
1
 10
189.3750
 20
230.3458
 40
10.2000
 50
0.0000
  1
ANNOTATION: 바택배색
  7
STANDARD
  0
TEXT
  8
1
 10
187.7148
 20
167.8839
 40
10.2000
 50
0.0000
  1
ANNOTATION: 바택배색
  7
STANDARD
  0
POLYLINE
  8
1
 66
1
 70
1
  0
VERTEX
  8
1
 10
30.0000
 20
30.0000
  0
VERTEX
  8
1
 10
30.0000
 20
308.6480
  0
VERTEX
  8
1
 10
276.2085
 20
308.6492
  0
VERTEX
  8
1
 10
274.8462
 20
295.4183
  0
VERTEX
  8
1
 10
273.8947
 20
286.0247
  0
VERTEX
  8
1
 10
272.4243
 20
270.5372
  0
VERTEX
  8
1
 10
269.0991
 20
232.2127
  0
VERTEX
  8
1
 10
266.0278
 20
190.0245
  0
VERTEX
  8
1
 10
263.4961
 20
147.8049
  0
VERTEX
  8
1
 10
261.2671
 20
94.7880
  0
VERTEX
  8
1
 10
259.5312
 20
30.0014
  0
VERTEX
  8
1
 10
30.0000
 20
30.0000
  0
SEQEND
  0
POINT
  8
2
 10
30.0000
 20
30.0000
  0
POINT
  8
2
 10
30.0000
 20
308.6480
  0
POINT
  8
2
 10
276.2085
 20
308.6492
  0
POINT
  8
3
 10
274.8462
 20
295.4183
  0
POINT
  8
3
 10
273.8947
 20
286.0247
  0
POINT
  8
3
 10
272.4243
 20
270.5372
  0
POINT
  8
3
 10
269.0991
 20
232.2127
  0
POINT
  8
3
 10
266.0278
 20
190.0245
  0
POINT
  8
3
 10
263.4961
 20
147.8049
  0
POINT
  8
3
 10
261.2671
 20
94.7880
  0
POINT
  8
2
 10
259.5312
 20
30.0014
  0
POINT
  8
2
 10
30.0000
 20
30.0000
  0
POLYLINE
  8
14
 66
1
 70
1
  0
VERTEX
  8
14
 10
41.9995
 20
41.9996
  0
VERTEX
  8
14
 10
41.9995
 20
296.6485
  0
VERTEX
  8
14
 10
262.9101
 20
296.6492
  0
VERTEX
  8
14
 10
261.8987
 20
286.4970
  0
VERTEX
  8
14
 10
258.9843
 20
255.2298
  0
VERTEX
  8
14
 10
254.7851
 20
202.0043
  0
VERTEX
  8
14
 10
251.5283
 20
148.7129
  0
VERTEX
  8
14
 10
250.3139
 20
123.5705
  0
VERTEX
  8
14
 10
249.1967
 20
95.3810
  0
VERTEX
  8
14
 10
247.8003
 20
42.0008
  0
VERTEX
  8
14
 10
41.9995
 20
41.9996
  0
SEQEND
  0
POINT
  8
2
 10
41.9995
 20
41.9996
  0
POINT
  8
2
 10
41.9995
 20
296.6485
  0
POINT
  8
2
 10
262.9101
 20
296.6492
  0
POINT
  8
4
 10
261.8987
 20
286.4970
 38
5.0000
 50
177.7457
  0
POINT
  8
3
 10
261.8987
 20
286.4970
  0
POINT
  8
3
 10
258.9843
 20
255.2298
  0
POINT
  8
3
 10
254.7851
 20
202.0043
  0
POINT
  8
3
 10
251.5283
 20
148.7129
  0
POINT
  8
4
 10
250.3139
 20
123.5705
 38
5.0000
 50
177.7462
  0
POINT
  8
3
 10
250.3139
 20
123.5705
  0
POINT
  8
3
 10
249.1967
 20
95.3810
  0
POINT
  8
2
 10
247.8003
 20
42.0008
  0
POINT
  8
2
 10
41.9995
 20
41.9996
  0
LINE
  8
8
 10
250.3637
 20
126.0671
 11
210.3613
 21
180.5693
  0
POINT
  8
2
 10
250.3637
 20
126.0671
  0
POINT
  8
2
 10
210.3613
 20
180.5693
  0
LINE
  8
8
 10
258.1469
 20
282.3626
 11
212.0239
 21
227.8604
  0
POINT
  8
2
 10
258.1469
 20
282.3626
  0
POINT
  8
2
 10
212.0239
 20
227.8604
  0
LINE
  8
8
 10
258.1469
 20
282.3631
 11
234.5459
 21
269.1585
  0
POINT
  8
2
 10
258.1469
 20
282.3631
  0
POINT
  8
2
 10
234.5459
 20
269.1585
  0
LINE
  8
8
 10
211.9067
 20
296.6485
 11
196.7993
 21
42.0005
  0
POINT
  8
2
 10
211.9067
 20
296.6485
  0
POINT
  8
2
 10
196.7993
 20
42.0005
  0
LINE
  8
8
 10
249.1137
 20
67.4986
 11
41.9995
 21
67.4988
  0
POINT
  8
2
 10
249.1137
 20
67.4986
  0
POINT
  8
2
 10
41.9995
 20
67.4988
  0
LINE
  8
8
 10
250.3637
 20
126.0676
 11
226.7651
 21
139.2713
  0
POINT
  8
2
 10
250.3637
 20
126.0676
  0
POINT
  8
2
 10
226.7651
 20
139.2713
  0
ENDBLK
  0
BLOCK
  8
0
  2
BLK_12_1
 70
64
 10
0.0000
 20
0.0000
  0
TEXT
  8
1
 10
117.7490
 20
169.9278
 40
2.8000
 50
0.0000
  1
PIECE NAME: 주머니손등무
  7
STANDARD
  0
TEXT
  8
1
 10
117.7490
 20
167.1278
 40
2.8000
 50
0.0000
  1
SIZE: L
  7
STANDARD
  0
TEXT
  8
1
 10
117.7490
 20
164.3278
 40
2.8000
 50
0.0000
  1
CATEGORY: 겉감
  7
STANDARD
  0
TEXT
  8
1
 10
117.7490
 20
161.5278
 40
2.8000
 50
0.0000
  1
QUANTITY: 2
  7
STANDARD
  0
TEXT
  8
1
 10
117.7490
 20
158.7278
 40
2.8000
 50
0.0000
  1
ANNOTATION: 
  7
STANDARD
  0
TEXT
  8
1
 10
81.7016
 20
224.3682
 40
5.2020
 50
269.9997
  1
ANNOTATION: S/#NOS725SSWT01
  7
STANDARD
  0
TEXT
  8
1
 10
75.4565
 20
198.3581
 40
5.2020
 50
269.9997
  1
ANNOTATION: FRONT
  7
STANDARD
  0
TEXT
  8
1
 10
69.2163
 20
193.1562
 40
5.2020
 50
269.9997
  1
ANNOTATION: pkt
  7
STANDARD
  0
POLYLINE
  8
1
 66
1
 70
1
  0
VERTEX
  8
1
 10
30.0000
 20
30.0001
  0
VERTEX
  8
1
 10
46.5307
 20
308.6471
  0
VERTEX
  8
1
 10
122.1508
 20
308.6469
  0
VERTEX
  8
1
 10
120.7837
 20
295.4172
  0
VERTEX
  8
1
 10
118.4228
 20
271.2169
  0
VERTEX
  8
1
 10
115.0317
 20
232.1475
  0
VERTEX
  8
1
 10
111.9580
 20
189.8603
  0
VERTEX
  8
1
 10
109.4214
 20
147.5415
  0
VERTEX
  8
1
 10
107.1972
 20
94.6558
  0
VERTEX
  8
1
 10
105.4687
 20
30.0006
  0
VERTEX
  8
1
 10
30.0000
 20
30.0001
  0
SEQEND
  0
POINT
  8
2
 10
30.0000
 20
30.0001
  0
POINT
  8
2
 10
46.5307
 20
308.6471
  0
POINT
  8
2
 10
122.1508
 20
308.6469
  0
POINT
  8
3
 10
120.7837
 20
295.4172
  0
POINT
  8
3
 10
118.4228
 20
271.2169
  0
POINT
  8
3
 10
115.0317
 20
232.1475
  0
POINT
  8
3
 10
111.9580
 20
189.8603
  0
POINT
  8
3
 10
109.4214
 20
147.5415
  0
POINT
  8
3
 10
107.1972
 20
94.6558
  0
POINT
  8
2
 10
105.4687
 20
30.0006
  0
POINT
  8
2
 10
30.0000
 20
30.0001
  0
POLYLINE
  8
14
 66
1
 70
1
  0
VERTEX
  8
14
 10
42.7343
 20
41.9997
  0
VERTEX
  8
14
 10
57.8418
 20
296.6476
  0
VERTEX
  8
14
 10
108.8476
 20
296.6481
  0
VERTEX
  8
14
 10
107.8362
 20
286.4959
  0
VERTEX
  8
14
 10
104.9194
 20
255.2289
  0
VERTEX
  8
14
 10
100.7226
 20
202.0034
  0
VERTEX
  8
14
 10
97.4658
 20
148.7121
  0
VERTEX
  8
14
 10
96.2514
 20
123.5696
  0
VERTEX
  8
14
 10
95.1342
 20
95.3802
  0
VERTEX
  8
14
 10
93.7353
 20
42.0000
  0
VERTEX
  8
14
 10
42.7343
 20
41.9997
  0
SEQEND
  0
POINT
  8
2
 10
42.7343
 20
41.9997
  0
POINT
  8
2
 10
57.8418
 20
296.6476
  0
POINT
  8
2
 10
108.8476
 20
296.6481
  0
POINT
  8
4
 10
107.8362
 20
286.4959
 38
5.0000
 50
174.3521
  0
POINT
  8
3
 10
107.8362
 20
286.4959
  0
POINT
  8
3
 10
104.9194
 20
255.2289
  0
POINT
  8
3
 10
100.7226
 20
202.0034
  0
POINT
  8
3
 10
97.4658
 20
148.7121
  0
POINT
  8
4
 10
96.2514
 20
123.5696
 38
5.0000
 50
177.3716
  0
POINT
  8
3
 10
96.2514
 20
123.5696
  0
POINT
  8
3
 10
95.1342
 20
95.3802
  0
POINT
  8
2
 10
93.7353
 20
42.0000
  0
POINT
  8
2
 10
42.7343
 20
41.9997
  0
LINE
  8
7
 10
66.0229
 20
213.8759
 11
66.0229
 21
154.7505
  0
POINT
  8
2
 10
66.0229
 20
213.8759
  0
POINT
  8
2
 10
66.0229
 20
154.7505
  0
LINE
  8
5
 10
66.0229
 20
213.8759
 11
66.0229
 21
154.7505
  0
LINE
  8
8
 10
95.0488
 20
67.4978
 11
44.2480
 21
67.4979
  0
POINT
  8
2
 10
95.0488
 20
67.4978
  0
POINT
  8
2
 10
44.2480
 20
67.4979
  0
ENDBLK
  0
BLOCK
  8
0
  2
BLK_13_1
 70
64
 10
0.0000
 20
0.0000
  0
TEXT
  8
1
 10
244.8974
 20
26.4902
 40
2.8000
 50
0.0000
  1
PIECE NAME: 카라
  7
STANDARD
  0
TEXT
  8
1
 10
244.8974
 20
23.6902
 40
2.8000
 50
0.0000
  1
SIZE: L
  7
STANDARD
  0
TEXT
  8
1
 10
244.8974
 20
20.8902
 40
2.8000
 50
0.0000
  1
CATEGORY: 니트
  7
STANDARD
  0
TEXT
  8
1
 10
244.8974
 20
18.0902
 40
2.8000
 50
0.0000
  1
QUANTITY: 1
  7
STANDARD
  0
TEXT
  8
1
 10
244.8974
 20
15.2902
 40
2.8000
 50
0.0000
  1
ANNOTATION: 
  7
STANDARD
  0
TEXT
  8
1
 10
199.1675
 20
66.5337
 40
5.1000
 50
0.0000
  1
ANNOTATION: S/#NOS725SSWT01
  7
STANDARD
  0
TEXT
  8
1
 10
222.1167
 20
60.4137
 40
5.1000
 50
0.0000
  1
ANNOTATION: COLLAR
  7
STANDARD
  0
TEXT
  8
1
 10
229.7680
 20
54.2937
 40
5.1000
 50
0.0000
  1
ANNOTATION: <L>
  7
STANDARD
  0
POLYLINE
  8
1
 66
1
 70
1
  0
VERTEX
  8
1
 10
30.0000
 20
30.0000
  0
VERTEX
  8
1
 10
30.0000
 20
67.4995
  0
VERTEX
  8
1
 10
30.0000
 20
104.9991
  0
VERTEX
  8
1
 10
123.3642
 20
104.9991
  0
VERTEX
  8
1
 10
224.1113
 20
104.9991
  0
VERTEX
  8
1
 10
368.5522
 20
104.9947
  0
VERTEX
  8
1
 10
512.9760
 20
104.9991
  0
VERTEX
  8
1
 10
543.8476
 20
104.9991
  0
VERTEX
  8
1
 10
543.8476
 20
67.4995
  0
VERTEX
  8
1
 10
543.8476
 20
30.0000
  0
VERTEX
  8
1
 10
512.9760
 20
30.0000
  0
VERTEX
  8
1
 10
368.5449
 20
30.0029
  0
VERTEX
  8
1
 10
224.1113
 20
30.0000
  0
VERTEX
  8
1
 10
123.3642
 20
30.0000
  0
VERTEX
  8
1
 10
30.0000
 20
30.0000
  0
SEQEND
  0
POINT
  8
2
 10
30.0000
 20
30.0000
  0
POINT
  8
2
 10
30.0000
 20
67.4995
  0
POINT
  8
2
 10
30.0000
 20
104.9991
  0
POINT
  8
2
 10
123.3642
 20
104.9991
  0
POINT
  8
2
 10
224.1113
 20
104.9991
  0
POINT
  8
2
 10
368.5522
 20
104.9947
  0
POINT
  8
2
 10
512.9760
 20
104.9991
  0
POINT
  8
2
 10
543.8476
 20
104.9991
  0
POINT
  8
2
 10
543.8476
 20
67.4995
  0
POINT
  8
2
 10
543.8476
 20
30.0000
  0
POINT
  8
2
 10
512.9760
 20
30.0000
  0
POINT
  8
2
 10
368.5449
 20
30.0029
  0
POINT
  8
2
 10
224.1113
 20
30.0000
  0
POINT
  8
2
 10
123.3642
 20
30.0000
  0
POINT
  8
2
 10
30.0000
 20
30.0000
  0
POLYLINE
  8
14
 66
1
 70
1
  0
VERTEX
  8
14
 10
41.9995
 20
41.9995
  0
VERTEX
  8
14
 10
41.9995
 20
67.4995
  0
VERTEX
  8
14
 10
41.9995
 20
92.9996
  0
VERTEX
  8
14
 10
123.3642
 20
92.9996
  0
VERTEX
  8
14
 10
224.1113
 20
92.9996
  0
VERTEX
  8
14
 10
368.5522
 20
92.9951
  0
VERTEX
  8
14
 10
512.9760
 20
92.9996
  0
VERTEX
  8
14
 10
531.8481
 20
92.9996
  0
VERTEX
  8
14
 10
531.8481
 20
67.4995
  0
VERTEX
  8
14
 10
531.8481
 20
41.9995
  0
VERTEX
  8
14
 10
512.9760
 20
41.9995
  0
VERTEX
  8
14
 10
368.5449
 20
42.0024
  0
VERTEX
  8
14
 10
224.1113
 20
41.9995
  0
VERTEX
  8
14
 10
123.3642
 20
41.9995
  0
VERTEX
  8
14
 10
41.9995
 20
41.9995
  0
SEQEND
  0
POINT
  8
2
 10
41.9995
 20
41.9995
  0
POINT
  8
2
 10
41.9995
 20
67.4995
  0
POINT
  8
2
 10
41.9995
 20
92.9996
  0
POINT
  8
2
 10
123.3642
 20
92.9996
  0
POINT
  8
2
 10
224.1113
 20
92.9996
  0
POINT
  8
2
 10
368.5522
 20
92.9951
  0
POINT
  8
2
 10
512.9760
 20
92.9996
  0
POINT
  8
2
 10
531.8481
 20
92.9996
  0
POINT
  8
2
 10
531.8481
 20
67.4995
  0
POINT
  8
2
 10
531.8481
 20
41.9995
  0
POINT
  8
2
 10
512.9760
 20
41.9995
  0
POINT
  8
2
 10
368.5449
 20
42.0024
  0
POINT
  8
2
 10
224.1113
 20
41.9995
  0
POINT
  8
2
 10
123.3642
 20
41.9995
  0
POINT
  8
2
 10
41.9995
 20
41.9995
  0
LINE
  8
8
 10
224.1113
 20
67.5000
 11
224.1113
 21
42.0000
  0
POINT
  8
2
 10
224.1113
 20
67.5000
  0
POINT
  8
2
 10
224.1113
 20
42.0000
  0
LINE
  8
8
 10
224.1113
 20
67.4989
 11
368.5449
 21
67.4989
  0
POINT
  8
2
 10
224.1113
 20
67.4989
  0
POINT
  8
2
 10
368.5449
 20
67.4989
  0
LINE
  8
8
 10
531.8481
 20
67.5000
 11
512.9760
 21
67.4989
  0
POINT
  8
2
 10
531.8481
 20
67.5000
  0
POINT
  8
2
 10
512.9760
 20
67.4989
  0
LINE
  8
8
 10
123.3642
 20
93.0000
 11
123.3642
 21
67.4995
  0
POINT
  8
2
 10
123.3642
 20
93.0000
  0
POINT
  8
2
 10
123.3642
 20
67.4995
  0
LINE
  8
8
 10
512.9760
 20
67.4995
 11
512.9760
 21
93.0000
  0
POINT
  8
2
 10
512.9760
 20
67.4995
  0
POINT
  8
2
 10
512.9760
 20
93.0000
  0
LINE
  8
8
 10
224.1113
 20
67.4995
 11
224.1113
 21
93.0000
  0
POINT
  8
2
 10
224.1113
 20
67.4995
  0
POINT
  8
2
 10
224.1113
 20
93.0000
  0
LINE
  8
8
 10
123.3642
 20
42.0000
 11
123.3642
 21
67.5000
  0
POINT
  8
2
 10
123.3642
 20
42.0000
  0
POINT
  8
2
 10
123.3642
 20
67.5000
  0
LINE
  8
8
 10
123.3642
 20
67.5005
 11
41.9995
 21
67.5000
  0
POINT
  8
2
 10
123.3642
 20
67.5005
  0
POINT
  8
2
 10
41.9995
 20
67.5000
  0
LINE
  8
8
 10
368.5449
 20
92.9951
 11
368.5449
 21
41.9995
  0
POINT
  8
2
 10
368.5449
 20
92.9951
  0
POINT
  8
2
 10
368.5449
 20
41.9995
  0
LINE
  8
8
 10
512.9760
 20
67.5000
 11
368.5449
 21
67.5000
  0
POINT
  8
2
 10
512.9760
 20
67.5000
  0
POINT
  8
2
 10
368.5449
 20
67.5000
  0
LINE
  8
8
 10
512.9760
 20
67.5005
 11
512.9760
 21
42.0000
  0
POINT
  8
2
 10
512.9760
 20
67.5005
  0
POINT
  8
2
 10
512.9760
 20
42.0000
  0
LINE
  8
8
 10
123.3642
 20
67.4989
 11
224.1118
 21
67.4995
  0
POINT
  8
2
 10
123.3642
 20
67.4989
  0
POINT
  8
2
 10
224.1118
 20
67.4995
  0
POLYLINE
  8
8
 66
1
 70
0
  0
VERTEX
  8
8
 10
298.7793
 20
67.4995
  0
VERTEX
  8
8
 10
297.4121
 20
62.3996
  0
VERTEX
  8
8
 10
293.6792
 20
58.6661
  0
VERTEX
  8
8
 10
288.5791
 20
57.2995
  0
VERTEX
  8
8
 10
283.4790
 20
58.6661
  0
VERTEX
  8
8
 10
279.7461
 20
62.3996
  0
VERTEX
  8
8
 10
278.3789
 20
67.4995
  0
SEQEND
  0
POINT
  8
2
 10
298.7793
 20
67.4995
  0
POINT
  8
3
 10
297.4121
 20
62.3996
  0
POINT
  8
3
 10
293.6792
 20
58.6661
  0
POINT
  8
3
 10
288.5791
 20
57.2995
  0
POINT
  8
3
 10
283.4790
 20
58.6661
  0
POINT
  8
3
 10
279.7461
 20
62.3996
  0
POINT
  8
2
 10
278.3789
 20
67.4995
  0
POLYLINE
  8
8
 66
1
 70
0
  0
VERTEX
  8
8
 10
293.6792
 20
67.4995
  0
VERTEX
  8
8
 10
292.1826
 20
63.8927
  0
VERTEX
  8
8
 10
288.5791
 20
62.3996
  0
VERTEX
  8
8
 10
284.9756
 20
63.8927
  0
VERTEX
  8
8
 10
283.4790
 20
67.4995
  0
SEQEND
  0
POINT
  8
2
 10
293.6792
 20
67.4995
  0
POINT
  8
3
 10
292.1826
 20
63.8927
  0
POINT
  8
3
 10
288.5791
 20
62.3996
  0
POINT
  8
3
 10
284.9756
 20
63.8927
  0
POINT
  8
2
 10
283.4790
 20
67.4995
  0
ENDBLK
  0
ENDSEC
  0
SECTION
  2
ENTITIES
  0
TEXT
  8
1
 10
0.0000
 20
0.0000
 40
2.8000
 50
0.0000
  1
STYLE NAME: 35717요척
  7
STANDARD
  0
TEXT
  8
1
 10
0.0000
 20
3.0000
 40
2.8000
 50
0.0000
  1
CREATION DATE: 2025-12-25
  7
STANDARD
  0
TEXT
  8
1
 10
0.0000
 20
6.0000
 40
2.8000
 50
0.0000
  1
CREATION TIME: 19:55
  7
STANDARD
  0
TEXT
  8
1
 10
0.0000
 20
9.0000
 40
2.8000
 50
0.0000
  1
AUTHOR: Yuka And Alpha Co., Ltd.
  7
STANDARD
  0
TEXT
  8
1
 10
0.0000
 20
12.0000
 40
2.8000
 50
0.0000
  1
PRODUCT: SuperALPHA_Plus
  7
STANDARD
  0
TEXT
  8
1
 10
0.0000
 20
15.0000
 40
2.8000
 50
0.0000
  1
VERSION: 2.40
  7
STANDARD
  0
TEXT
  8
1
 10
0.0000
 20
18.0000
 40
2.8000
 50
0.0000
  1
SAMPLE SIZE: L
  7
STANDARD
  0
TEXT
  8
1
 10
0.0000
 20
21.0000
 40
2.8000
 50
0.0000
  1
GRADE RULE TABLE:
  7
STANDARD
  0
TEXT
  8
1
 10
0.0000
 20
24.0000
 40
2.8000
 50
0.0000
  1
UNITS: METRIC
  7
STANDARD
  0
TEXT
  8
1
 10
0.0000
 20
27.0000
 40
2.8000
 50
0.0000
  1
TOLERANCE: 0.001
  7
STANDARD
  0
INSERT
  8
1
  2
BLK_1_1
 50
0.0000
 10
0.0000
 20
0.0000
  0
INSERT
  8
1
  2
BLK_2_1
 50
0.0000
 10
870.8472
 20
0.0000
  0
INSERT
  8
1
  2
BLK_3_1
 50
0.0000
 10
1739.6973
 20
0.0000
  0
INSERT
  8
1
  2
BLK_4_1
 50
0.0000
 10
2608.5278
 20
0.0000
  0
INSERT
  8
1
  2
BLK_5_1
 50
0.0000
 10
0.0000
 20
940.7713
  0
INSERT
  8
1
  2
BLK_6_1
 50
0.0000
 10
710.7153
 20
940.7713
  0
INSERT
  8
1
  2
BLK_7_1
 50
0.0000
 10
1059.4531
 20
940.7713
  0
INSERT
  8
1
  2
BLK_8_1
 50
0.0000
 10
1930.3027
 20
940.7713
  0
INSERT
  8
1
  2
BLK_9_1
 50
0.0000
 10
2799.1382
 20
940.7713
  0
INSERT
  8
1
  2
BLK_10_1
 50
0.0000
 10
0.0000
 20
1875.8058
  0
INSERT
  8
1
  2
BLK_11_1
 50
0.0000
 10
867.4146
 20
1875.8058
  0
INSERT
  8
1
  2
BLK_12_1
 50
0.0000
 10
1216.1523
 20
1875.8058
  0
INSERT
  8
1
  2
BLK_13_1
 50
0.0000
 10
1409.1357
 20
1875.8058
  0
ENDSEC
  0
EOF
