  0
SECTION
  2
HEADER
  9
$CLAYER
  8
1
  0
ENDSEC
  0
SECTION
  2
TABLES
  0
TABLE
  2
LTYPE
 70
1
  0
LTYPE
  2
CONTINUOUS
 70
64
  3
SOLIDLINE
 72
65
 73
0
 40
0.0000
  0
ENDTAB
  0
TABLE
  2
LAYER
  2
1
 70
5
  0
LAYER
  2
1
 70
0
 62
7
  6
CONTINUOUS
  0
LAYER
  2
2
 70
0
 62
7
  6
CONTINUOUS
  0
LAYER
  2
3
 70
0
 62
2
  6
CONTINUOUS
  0
LAYER
  2
4
 70
0
 62
3
  6
CONTINUOUS
  0
LAYER
  2
5
 70
0
 62
5
  6
CONTINUOUS
  0
LAYER
  2
6
 70
0
 62
5
  6
CONTINUOUS
  0
LAYER
  2
7
 70
0
 62
5
  6
CONTINUOUS
  0
LAYER
  2
8
 70
0
 62
4
  6
CONTINUOUS
  0
LAYER
  2
9
 70
0
 62
4
  6
CONTINUOUS
  0
LAYER
  2
10
 70
0
 62
4
  6
CONTINUOUS
  0
LAYER
  2
11
 70
0
 62
4
  6
CONTINUOUS
  0
LAYER
  2
12
 70
0
 62
6
  6
CONTINUOUS
  0
LAYER
  2
13
 70
0
 62
7
  6
CONTINUOUS
  0
LAYER
  2
14
 70
0
 62
7
  6
CONTINUOUS
  0
ENDTAB
  0
TABLE
  2
STYLE
 70
1
  0
STYLE
  2
STANDARD
 70
0
 40
0.0000
 41
1.0000
 50
0.0000
 71
0
 42
0.4000
  3
txt
  4
 
  0
ENDTAB
  0
ENDSEC
  0
SECTION
  2
BLOCKS
  0
BLOCK
  8
0
  2
BLK_1_M
 70
64
 10
0.0000
 20
0.0000
  0
TEXT
  8
1
 10
360.6706
 20
382.1421
 40
2.8000
 50
0.0000
  1
PIECE NAME: 1
  7
STANDARD
  0
TEXT
  8
1
 10
360.6706
 20
379.3421
 40
2.8000
 50
0.0000
  1
SIZE: M
  7
STANDARD
  0
TEXT
  8
1
 10
360.6706
 20
376.5421
 40
2.8000
 50
0.0000
  1
CATEGORY: 
  7
STANDARD
  0
TEXT
  8
1
 10
360.6706
 20
373.7421
 40
2.8000
 50
0.0000
  1
QUANTITY: 1
  7
STANDARD
  0
TEXT
  8
1
 10
360.6706
 20
370.9421
 40
2.8000
 50
0.0000
  1
ANNOTATION: 
  7
STANDARD
  0
TEXT
  8
1
 10
370.4280
 20
346.5619
 40
5.0000
 50
0.0000
  1
ANNOTATION: S/#5635-785
  7
STANDARD
  0
TEXT
  8
1
 10
390.4280
 20
339.5619
 40
5.0000
 50
0.0000
  1
ANNOTATION: <M>
  7
STANDARD
  0
TEXT
  8
1
 10
387.9280
 20
327.5619
 40
10.0000
 50
0.0000
  1
ANNOTATION: µÓ∆«
  7
STANDARD
  0
POLYLINE
  8
1
 66
1
 70
1
  0
VERTEX
  8
1
 10
30.0000
 20
40.8941
  0
VERTEX
  8
1
 10
30.6951
 20
50.8348
  0
VERTEX
  8
1
 10
33.1400
 20
89.3874
  0
VERTEX
  8
1
 10
34.9176
 20
127.9650
  0
VERTEX
  8
1
 10
36.0380
 20
166.5563
  0
VERTEX
  8
1
 10
36.4706
 20
205.1607
  0
VERTEX
  8
1
 10
36.2092
 20
243.7538
  0
VERTEX
  8
1
 10
35.1918
 20
282.3326
  0
VERTEX
  8
1
 10
33.3477
 20
320.8680
  0
VERTEX
  8
1
 10
30.0908
 20
367.3182
  0
VERTEX
  8
1
 10
37.6464
 20
369.6689
  0
VERTEX
  8
1
 10
48.5243
 20
374.0022
  0
VERTEX
  8
1
 10
57.8510
 20
380.2524
  0
VERTEX
  8
1
 10
66.8342
 20
389.2746
  0
VERTEX
  8
1
 10
74.0768
 20
399.8082
  0
VERTEX
  8
1
 10
79.1926
 20
411.4521
  0
VERTEX
  8
1
 10
82.8263
 20
423.7932
  0
VERTEX
  8
1
 10
85.7856
 20
436.8910
  0
VERTEX
  8
1
 10
87.8533
 20
450.1808
  0
VERTEX
  8
1
 10
89.1773
 20
463.8216
  0
VERTEX
  8
1
 10
89.9504
 20
477.5215
  0
VERTEX
  8
1
 10
90.4844
 20
491.3394
  0
VERTEX
  8
1
 10
90.6688
 20
504.6929
  0
VERTEX
  8
1
 10
90.6702
 20
505.0294
  0
VERTEX
  8
1
 10
90.0975
 20
522.0722
  0
VERTEX
  8
1
 10
89.1654
 20
539.2417
  0
VERTEX
  8
1
 10
87.8824
 20
556.3723
  0
VERTEX
  8
1
 10
86.2378
 20
573.4716
  0
VERTEX
  8
1
 10
84.2313
 20
590.5208
  0
VERTEX
  8
1
 10
81.8427
 20
607.5199
  0
VERTEX
  8
1
 10
79.7857
 20
620.2291
  0
VERTEX
  8
1
 10
75.8612
 20
641.3337
  0
VERTEX
  8
1
 10
74.1365
 20
650.0432
  0
VERTEX
  8
1
 10
264.4638
 20
711.8842
  0
VERTEX
  8
1
 10
268.7231
 20
706.0667
  0
VERTEX
  8
1
 10
273.6928
 20
699.9745
  0
VERTEX
  8
1
 10
279.3554
 20
694.7459
  0
VERTEX
  8
1
 10
285.7548
 20
690.3520
  0
VERTEX
  8
1
 10
292.6955
 20
686.8332
  0
VERTEX
  8
1
 10
300.2050
 20
684.1135
  0
VERTEX
  8
1
 10
307.9866
 20
682.2230
  0
VERTEX
  8
1
 10
316.3358
 20
681.0793
  0
VERTEX
  8
1
 10
324.7732
 20
680.4884
  0
VERTEX
  8
1
 10
333.6401
 20
680.1354
  0
VERTEX
  8
1
 10
342.5185
 20
680.0216
  0
VERTEX
  8
1
 10
360.6719
 20
680.1392
  0
VERTEX
  8
1
 10
378.8219
 20
680.0216
  0
VERTEX
  8
1
 10
387.7013
 20
680.1353
  0
VERTEX
  8
1
 10
396.5694
 20
680.4884
  0
VERTEX
  8
1
 10
405.0067
 20
681.0794
  0
VERTEX
  8
1
 10
413.3559
 20
682.2232
  0
VERTEX
  8
1
 10
421.1371
 20
684.1136
  0
VERTEX
  8
1
 10
428.6463
 20
686.8333
  0
VERTEX
  8
1
 10
435.5865
 20
690.3519
  0
VERTEX
  8
1
 10
441.9855
 20
694.7455
  0
VERTEX
  8
1
 10
446.3037
 20
698.5917
  0
VERTEX
  8
1
 10
452.6183
 20
706.0666
  0
VERTEX
  8
1
 10
456.8780
 20
711.8842
  0
VERTEX
  8
1
 10
647.2052
 20
650.0433
  0
VERTEX
  8
1
 10
645.4803
 20
641.3337
  0
VERTEX
  8
1
 10
642.2913
 20
624.4576
  0
VERTEX
  8
1
 10
639.4988
 20
607.5208
  0
VERTEX
  8
1
 10
637.1103
 20
590.5223
  0
VERTEX
  8
1
 10
635.1039
 20
573.4736
  0
VERTEX
  8
1
 10
633.4590
 20
556.3718
  0
VERTEX
  8
1
 10
632.1758
 20
539.2387
  0
VERTEX
  8
1
 10
631.2438
 20
522.0707
  0
VERTEX
  8
1
 10
630.6712
 20
505.0298
  0
VERTEX
  8
1
 10
630.6726
 20
504.6929
  0
VERTEX
  8
1
 10
630.8572
 20
491.3361
  0
VERTEX
  8
1
 10
631.3913
 20
477.5150
  0
VERTEX
  8
1
 10
632.1641
 20
463.8199
  0
VERTEX
  8
1
 10
633.4877
 20
450.1838
  0
VERTEX
  8
1
 10
635.5551
 20
436.8951
  0
VERTEX
  8
1
 10
638.5138
 20
423.7983
  0
VERTEX
  8
1
 10
642.1482
 20
411.4544
  0
VERTEX
  8
1
 10
647.2650
 20
399.8076
  0
VERTEX
  8
1
 10
654.5071
 20
389.2744
  0
VERTEX
  8
1
 10
663.4901
 20
380.2527
  0
VERTEX
  8
1
 10
670.3630
 20
375.3740
  0
VERTEX
  8
1
 10
683.6950
 20
369.6689
  0
VERTEX
  8
1
 10
691.2502
 20
367.3185
  0
VERTEX
  8
1
 10
687.9938
 20
320.8677
  0
VERTEX
  8
1
 10
686.1497
 20
282.3320
  0
VERTEX
  8
1
 10
685.1323
 20
243.7569
  0
VERTEX
  8
1
 10
684.8708
 20
205.1674
  0
VERTEX
  8
1
 10
685.3034
 20
166.5604
  0
VERTEX
  8
1
 10
686.4238
 20
127.9666
  0
VERTEX
  8
1
 10
687.6948
 20
99.0298
  0
VERTEX
  8
1
 10
690.6464
 20
50.8347
  0
VERTEX
  8
1
 10
691.3412
 20
40.8939
  0
VERTEX
  8
1
 10
641.3575
 20
37.3968
  0
VERTEX
  8
1
 10
601.2881
 20
35.0907
  0
VERTEX
  8
1
 10
561.1931
 20
33.2601
  0
VERTEX
  8
1
 10
521.0800
 20
31.8614
  0
VERTEX
  8
1
 10
480.9687
 20
30.8573
  0
VERTEX
  8
1
 10
440.8494
 20
30.2435
  0
VERTEX
  8
1
 10
400.7274
 20
30.0015
  0
VERTEX
  8
1
 10
360.6716
 20
30.1369
  0
VERTEX
  8
1
 10
320.6191
 20
30.0014
  0
VERTEX
  8
1
 10
280.5022
 20
30.2434
  0
VERTEX
  8
1
 10
240.3780
 20
30.8572
  0
VERTEX
  8
1
 10
200.2619
 20
31.8614
  0
VERTEX
  8
1
 10
160.1538
 20
33.2598
  0
VERTEX
  8
1
 10
120.0638
 20
35.0901
  0
VERTEX
  8
1
 10
79.9891
 20
37.3965
  0
VERTEX
  8
1
 10
30.0000
 20
40.8941
  0
SEQEND
  0
POINT
  8
2
 10
30.0000
 20
40.8941
  0
TEXT
  8
2
 10
30.0000
 20
40.8941
 40
0.1000
 50
0.0000
  1
# 1
  0
POINT
  8
3
 10
30.6951
 20
50.8348
  0
POINT
  8
3
 10
33.1400
 20
89.3874
  0
POINT
  8
3
 10
34.9176
 20
127.9650
  0
POINT
  8
3
 10
36.0380
 20
166.5563
  0
POINT
  8
3
 10
36.4706
 20
205.1607
  0
POINT
  8
3
 10
36.2092
 20
243.7538
  0
POINT
  8
3
 10
35.1918
 20
282.3326
  0
POINT
  8
3
 10
33.3477
 20
320.8680
  0
POINT
  8
2
 10
30.0908
 20
367.3182
  0
TEXT
  8
2
 10
30.0908
 20
367.3182
 40
0.1000
 50
0.0000
  1
# 2
  0
POINT
  8
3
 10
37.6464
 20
369.6689
  0
POINT
  8
3
 10
48.5243
 20
374.0022
  0
POINT
  8
3
 10
57.8510
 20
380.2524
  0
POINT
  8
3
 10
66.8342
 20
389.2746
  0
POINT
  8
3
 10
74.0768
 20
399.8082
  0
POINT
  8
3
 10
79.1926
 20
411.4521
  0
POINT
  8
3
 10
82.8263
 20
423.7932
  0
POINT
  8
3
 10
85.7856
 20
436.8910
  0
POINT
  8
3
 10
87.8533
 20
450.1808
  0
POINT
  8
3
 10
89.1773
 20
463.8216
  0
POINT
  8
3
 10
89.9504
 20
477.5215
  0
POINT
  8
3
 10
90.4844
 20
491.3394
  0
POINT
  8
4
 10
90.6688
 20
504.6929
 30
19.9817
 39
0.0000
 50
2.5434
  0
TEXT
  8
4
 10
90.6688
 20
504.6929
 40
0.1000
 50
0.0000
  1
# 3
  0
POINT
  8
2
 10
90.6688
 20
504.6929
  0
TEXT
  8
2
 10
90.6688
 20
504.6929
 40
0.1000
 50
0.0000
  1
# 3
  0
POINT
  8
2
 10
90.6702
 20
505.0294
  0
TEXT
  8
2
 10
90.6702
 20
505.0294
 40
0.1000
 50
0.0000
  1
# 4
  0
POINT
  8
3
 10
90.0975
 20
522.0722
  0
POINT
  8
3
 10
89.1654
 20
539.2417
  0
POINT
  8
3
 10
87.8824
 20
556.3723
  0
POINT
  8
3
 10
86.2378
 20
573.4716
  0
POINT
  8
3
 10
84.2313
 20
590.5208
  0
POINT
  8
3
 10
81.8427
 20
607.5199
  0
POINT
  8
3
 10
79.7857
 20
620.2291
  0
POINT
  8
3
 10
75.8612
 20
641.3337
  0
POINT
  8
2
 10
74.1365
 20
650.0432
  0
TEXT
  8
2
 10
74.1365
 20
650.0432
 40
0.1000
 50
0.0000
  1
# 5
  0
POINT
  8
2
 10
264.4638
 20
711.8842
  0
TEXT
  8
2
 10
264.4638
 20
711.8842
 40
0.1000
 50
0.0000
  1
# 6
  0
POINT
  8
3
 10
268.7231
 20
706.0667
  0
POINT
  8
3
 10
273.6928
 20
699.9745
  0
POINT
  8
3
 10
279.3554
 20
694.7459
  0
POINT
  8
3
 10
285.7548
 20
690.3520
  0
POINT
  8
3
 10
292.6955
 20
686.8332
  0
POINT
  8
3
 10
300.2050
 20
684.1135
  0
POINT
  8
3
 10
307.9866
 20
682.2230
  0
POINT
  8
3
 10
316.3358
 20
681.0793
  0
POINT
  8
3
 10
324.7732
 20
680.4884
  0
POINT
  8
3
 10
333.6401
 20
680.1354
  0
POINT
  8
3
 10
342.5185
 20
680.0216
  0
POINT
  8
2
 10
360.6719
 20
680.1392
  0
TEXT
  8
2
 10
360.6719
 20
680.1392
 40
0.1000
 50
0.0000
  1
# 7
  0
POINT
  8
3
 10
378.8219
 20
680.0216
  0
POINT
  8
3
 10
387.7013
 20
680.1353
  0
POINT
  8
3
 10
396.5694
 20
680.4884
  0
POINT
  8
3
 10
405.0067
 20
681.0794
  0
POINT
  8
3
 10
413.3559
 20
682.2232
  0
POINT
  8
3
 10
421.1371
 20
684.1136
  0
POINT
  8
3
 10
428.6463
 20
686.8333
  0
POINT
  8
3
 10
435.5865
 20
690.3519
  0
POINT
  8
3
 10
441.9855
 20
694.7455
  0
POINT
  8
3
 10
446.3037
 20
698.5917
  0
POINT
  8
3
 10
452.6183
 20
706.0666
  0
POINT
  8
2
 10
456.8780
 20
711.8842
  0
TEXT
  8
2
 10
456.8780
 20
711.8842
 40
0.1000
 50
0.0000
  1
# 8
  0
POINT
  8
2
 10
647.2052
 20
650.0433
  0
TEXT
  8
2
 10
647.2052
 20
650.0433
 40
0.1000
 50
0.0000
  1
# 9
  0
POINT
  8
3
 10
645.4803
 20
641.3337
  0
POINT
  8
3
 10
642.2913
 20
624.4576
  0
POINT
  8
3
 10
639.4988
 20
607.5208
  0
POINT
  8
3
 10
637.1103
 20
590.5223
  0
POINT
  8
3
 10
635.1039
 20
573.4736
  0
POINT
  8
3
 10
633.4590
 20
556.3718
  0
POINT
  8
3
 10
632.1758
 20
539.2387
  0
POINT
  8
3
 10
631.2438
 20
522.0707
  0
POINT
  8
2
 10
630.6712
 20
505.0298
  0
TEXT
  8
2
 10
630.6712
 20
505.0298
 40
0.1000
 50
0.0000
  1
# 10
  0
POINT
  8
4
 10
630.6726
 20
504.6929
 30
19.9816
 39
0.0000
 50
177.4566
  0
TEXT
  8
4
 10
630.6726
 20
504.6929
 40
0.1000
 50
0.0000
  1
# 11
  0
POINT
  8
2
 10
630.6726
 20
504.6929
  0
TEXT
  8
2
 10
630.6726
 20
504.6929
 40
0.1000
 50
0.0000
  1
# 11
  0
POINT
  8
3
 10
630.8572
 20
491.3361
  0
POINT
  8
3
 10
631.3913
 20
477.5150
  0
POINT
  8
3
 10
632.1641
 20
463.8199
  0
POINT
  8
3
 10
633.4877
 20
450.1838
  0
POINT
  8
3
 10
635.5551
 20
436.8951
  0
POINT
  8
3
 10
638.5138
 20
423.7983
  0
POINT
  8
3
 10
642.1482
 20
411.4544
  0
POINT
  8
3
 10
647.2650
 20
399.8076
  0
POINT
  8
3
 10
654.5071
 20
389.2744
  0
POINT
  8
3
 10
663.4901
 20
380.2527
  0
POINT
  8
3
 10
670.3630
 20
375.3740
  0
POINT
  8
3
 10
683.6950
 20
369.6689
  0
POINT
  8
2
 10
691.2502
 20
367.3185
  0
TEXT
  8
2
 10
691.2502
 20
367.3185
 40
0.1000
 50
0.0000
  1
# 12
  0
POINT
  8
3
 10
687.9938
 20
320.8677
  0
POINT
  8
3
 10
686.1497
 20
282.3320
  0
POINT
  8
3
 10
685.1323
 20
243.7569
  0
POINT
  8
3
 10
684.8708
 20
205.1674
  0
POINT
  8
3
 10
685.3034
 20
166.5604
  0
POINT
  8
3
 10
686.4238
 20
127.9666
  0
POINT
  8
3
 10
687.6948
 20
99.0298
  0
POINT
  8
3
 10
690.6464
 20
50.8347
  0
POINT
  8
2
 10
691.3412
 20
40.8939
  0
TEXT
  8
2
 10
691.3412
 20
40.8939
 40
0.1000
 50
0.0000
  1
# 13
  0
POINT
  8
3
 10
641.3575
 20
37.3968
  0
POINT
  8
3
 10
601.2881
 20
35.0907
  0
POINT
  8
3
 10
561.1931
 20
33.2601
  0
POINT
  8
3
 10
521.0800
 20
31.8614
  0
POINT
  8
3
 10
480.9687
 20
30.8573
  0
POINT
  8
3
 10
440.8494
 20
30.2435
  0
POINT
  8
3
 10
400.7274
 20
30.0015
  0
POINT
  8
2
 10
360.6716
 20
30.1369
  0
TEXT
  8
2
 10
360.6716
 20
30.1369
 40
0.1000
 50
0.0000
  1
# 14
  0
POINT
  8
3
 10
320.6191
 20
30.0014
  0
POINT
  8
3
 10
280.5022
 20
30.2434
  0
POINT
  8
3
 10
240.3780
 20
30.8572
  0
POINT
  8
3
 10
200.2619
 20
31.8614
  0
POINT
  8
3
 10
160.1538
 20
33.2598
  0
POINT
  8
3
 10
120.0638
 20
35.0901
  0
POINT
  8
3
 10
79.9891
 20
37.3965
  0
POINT
  8
2
 10
30.0000
 20
40.8941
  0
POLYLINE
  8
8
 66
1
 70
1
  0
VERTEX
  8
8
 10
40.6707
 20
50.1372
  0
VERTEX
  8
8
 10
43.1258
 20
88.8514
  0
VERTEX
  8
8
 10
44.9106
 20
127.5907
  0
VERTEX
  8
8
 10
46.0361
 20
166.3609
  0
VERTEX
  8
8
 10
46.4706
 20
205.1442
  0
VERTEX
  8
8
 10
46.2076
 20
243.9298
  0
VERTEX
  8
8
 10
45.1850
 20
282.7010
  0
VERTEX
  8
8
 10
43.3316
 20
321.4342
  0
VERTEX
  8
8
 10
40.6708
 20
360.1372
  0
VERTEX
  8
8
 10
53.3552
 20
365.2537
  0
VERTEX
  8
8
 10
64.2556
 20
372.5687
  0
VERTEX
  8
8
 10
74.5211
 20
382.9005
  0
VERTEX
  8
8
 10
82.8206
 20
394.9483
  0
VERTEX
  8
8
 10
88.4863
 20
407.7429
  0
VERTEX
  8
8
 10
92.5141
 20
421.3135
  0
VERTEX
  8
8
 10
95.6203
 20
435.0309
  0
VERTEX
  8
8
 10
97.7781
 20
448.9548
  0
VERTEX
  8
8
 10
99.1428
 20
462.9738
  0
VERTEX
  8
8
 10
99.9395
 20
477.0537
  0
VERTEX
  8
8
 10
100.4835
 20
491.0863
  0
VERTEX
  8
8
 10
100.6707
 20
505.1372
  0
VERTEX
  8
8
 10
100.0876
 20
522.5219
  0
VERTEX
  8
8
 10
99.1449
 20
539.8834
  0
VERTEX
  8
8
 10
97.8459
 20
557.2256
  0
VERTEX
  8
8
 10
96.1810
 20
574.5364
  0
VERTEX
  8
8
 10
94.1481
 20
591.8080
  0
VERTEX
  8
8
 10
91.7283
 20
609.0289
  0
VERTEX
  8
8
 10
88.9002
 20
626.1833
  0
VERTEX
  8
8
 10
85.6707
 20
643.2762
  0
VERTEX
  8
8
 10
260.6707
 20
700.1371
  0
VERTEX
  8
8
 10
266.4986
 20
693.0267
  0
VERTEX
  8
8
 10
273.1294
 20
686.9183
  0
VERTEX
  8
8
 10
280.6191
 20
681.7784
  0
VERTEX
  8
8
 10
288.7348
 20
677.6497
  0
VERTEX
  8
8
 10
297.2842
 20
674.5544
  0
VERTEX
  8
8
 10
306.1434
 20
672.3933
  0
VERTEX
  8
8
 10
315.1456
 20
671.1473
  0
VERTEX
  8
8
 10
324.2448
 20
670.5023
  0
VERTEX
  8
8
 10
333.3440
 20
670.1364
  0
VERTEX
  8
8
 10
342.4556
 20
670.0218
  0
VERTEX
  8
8
 10
360.6707
 20
670.1371
  0
VERTEX
  8
8
 10
378.8859
 20
670.0218
  0
VERTEX
  8
8
 10
387.9974
 20
670.1364
  0
VERTEX
  8
8
 10
397.0967
 20
670.5023
  0
VERTEX
  8
8
 10
406.1958
 20
671.1473
  0
VERTEX
  8
8
 10
415.1980
 20
672.3933
  0
VERTEX
  8
8
 10
424.0572
 20
674.5544
  0
VERTEX
  8
8
 10
432.6067
 20
677.6497
  0
VERTEX
  8
8
 10
440.7223
 20
681.7784
  0
VERTEX
  8
8
 10
448.2120
 20
686.9183
  0
VERTEX
  8
8
 10
454.8428
 20
693.0267
  0
VERTEX
  8
8
 10
460.6707
 20
700.1371
  0
VERTEX
  8
8
 10
635.6707
 20
643.2762
  0
VERTEX
  8
8
 10
632.4412
 20
626.1833
  0
VERTEX
  8
8
 10
629.6131
 20
609.0289
  0
VERTEX
  8
8
 10
627.1934
 20
591.8080
  0
VERTEX
  8
8
 10
625.1605
 20
574.5364
  0
VERTEX
  8
8
 10
623.4955
 20
557.2256
  0
VERTEX
  8
8
 10
622.1965
 20
539.8834
  0
VERTEX
  8
8
 10
621.2538
 20
522.5219
  0
VERTEX
  8
8
 10
620.6707
 20
505.1372
  0
VERTEX
  8
8
 10
620.8580
 20
491.0863
  0
VERTEX
  8
8
 10
621.4020
 20
477.0537
  0
VERTEX
  8
8
 10
622.1986
 20
462.9738
  0
VERTEX
  8
8
 10
623.5632
 20
448.9548
  0
VERTEX
  8
8
 10
625.7211
 20
435.0309
  0
VERTEX
  8
8
 10
628.8273
 20
421.3135
  0
VERTEX
  8
8
 10
632.8552
 20
407.7429
  0
VERTEX
  8
8
 10
638.5208
 20
394.9483
  0
VERTEX
  8
8
 10
646.8203
 20
382.9005
  0
VERTEX
  8
8
 10
657.0858
 20
372.5687
  0
VERTEX
  8
8
 10
667.9862
 20
365.2537
  0
VERTEX
  8
8
 10
680.6707
 20
360.1372
  0
VERTEX
  8
8
 10
678.0099
 20
321.4342
  0
VERTEX
  8
8
 10
676.1564
 20
282.7010
  0
VERTEX
  8
8
 10
675.1338
 20
243.9298
  0
VERTEX
  8
8
 10
674.8708
 20
205.1442
  0
VERTEX
  8
8
 10
675.3054
 20
166.3609
  0
VERTEX
  8
8
 10
676.4308
 20
127.5907
  0
VERTEX
  8
8
 10
678.2157
 20
88.8514
  0
VERTEX
  8
8
 10
680.6707
 20
50.1372
  0
VERTEX
  8
8
 10
640.7327
 20
47.3773
  0
VERTEX
  8
8
 10
600.7707
 20
45.0773
  0
VERTEX
  8
8
 10
560.7821
 20
43.2516
  0
VERTEX
  8
8
 10
520.7755
 20
41.8568
  0
VERTEX
  8
8
 10
480.7574
 20
40.8551
  0
VERTEX
  8
8
 10
440.7313
 20
40.2428
  0
VERTEX
  8
8
 10
400.7030
 20
40.0014
  0
VERTEX
  8
8
 10
360.6707
 20
40.1372
  0
VERTEX
  8
8
 10
320.6384
 20
40.0014
  0
VERTEX
  8
8
 10
280.6101
 20
40.2428
  0
VERTEX
  8
8
 10
240.5840
 20
40.8551
  0
VERTEX
  8
8
 10
200.5659
 20
41.8568
  0
VERTEX
  8
8
 10
160.5593
 20
43.2516
  0
VERTEX
  8
8
 10
120.5707
 20
45.0773
  0
VERTEX
  8
8
 10
80.6088
 20
47.3773
  0
VERTEX
  8
8
 10
40.6707
 20
50.1372
  0
SEQEND
  0
POINT
  8
2
 10
40.6707
 20
50.1372
  0
TEXT
  8
2
 10
40.6707
 20
50.1372
 40
0.1000
 50
0.0000
  1
# 15
  0
POINT
  8
3
 10
43.1258
 20
88.8514
  0
POINT
  8
3
 10
44.9106
 20
127.5907
  0
POINT
  8
3
 10
46.0361
 20
166.3609
  0
POINT
  8
3
 10
46.4706
 20
205.1442
  0
POINT
  8
3
 10
46.2076
 20
243.9298
  0
POINT
  8
3
 10
45.1850
 20
282.7010
  0
POINT
  8
3
 10
43.3316
 20
321.4342
  0
POINT
  8
2
 10
40.6708
 20
360.1372
  0
TEXT
  8
2
 10
40.6708
 20
360.1372
 40
0.1000
 50
0.0000
  1
# 16
  0
POINT
  8
3
 10
53.3552
 20
365.2537
  0
POINT
  8
3
 10
64.2556
 20
372.5687
  0
POINT
  8
3
 10
74.5211
 20
382.9005
  0
POINT
  8
3
 10
82.8206
 20
394.9483
  0
POINT
  8
3
 10
88.4863
 20
407.7429
  0
POINT
  8
3
 10
92.5141
 20
421.3135
  0
POINT
  8
3
 10
95.6203
 20
435.0309
  0
POINT
  8
3
 10
97.7781
 20
448.9548
  0
POINT
  8
3
 10
99.1428
 20
462.9738
  0
POINT
  8
3
 10
99.9395
 20
477.0537
  0
POINT
  8
3
 10
100.4835
 20
491.0863
  0
POINT
  8
2
 10
100.6707
 20
505.1372
  0
TEXT
  8
2
 10
100.6707
 20
505.1372
 40
0.1000
 50
0.0000
  1
# 17
  0
POINT
  8
3
 10
100.0876
 20
522.5219
  0
POINT
  8
3
 10
99.1449
 20
539.8834
  0
POINT
  8
3
 10
97.8459
 20
557.2256
  0
POINT
  8
3
 10
96.1810
 20
574.5364
  0
POINT
  8
3
 10
94.1481
 20
591.8080
  0
POINT
  8
3
 10
91.7283
 20
609.0289
  0
POINT
  8
3
 10
88.9002
 20
626.1833
  0
POINT
  8
2
 10
85.6707
 20
643.2762
  0
TEXT
  8
2
 10
85.6707
 20
643.2762
 40
0.1000
 50
0.0000
  1
# 18
  0
POINT
  8
2
 10
260.6707
 20
700.1371
  0
TEXT
  8
2
 10
260.6707
 20
700.1371
 40
0.1000
 50
0.0000
  1
# 19
  0
POINT
  8
3
 10
266.4986
 20
693.0267
  0
POINT
  8
3
 10
273.1294
 20
686.9183
  0
POINT
  8
3
 10
280.6191
 20
681.7784
  0
POINT
  8
3
 10
288.7348
 20
677.6497
  0
POINT
  8
3
 10
297.2842
 20
674.5544
  0
POINT
  8
3
 10
306.1434
 20
672.3933
  0
POINT
  8
3
 10
315.1456
 20
671.1473
  0
POINT
  8
3
 10
324.2448
 20
670.5023
  0
POINT
  8
3
 10
333.3440
 20
670.1364
  0
POINT
  8
3
 10
342.4556
 20
670.0218
  0
POINT
  8
2
 10
360.6707
 20
670.1371
  0
TEXT
  8
2
 10
360.6707
 20
670.1371
 40
0.1000
 50
0.0000
  1
# 20
  0
POINT
  8
3
 10
378.8859
 20
670.0218
  0
POINT
  8
3
 10
387.9974
 20
670.1364
  0
POINT
  8
3
 10
397.0967
 20
670.5023
  0
POINT
  8
3
 10
406.1958
 20
671.1473
  0
POINT
  8
3
 10
415.1980
 20
672.3933
  0
POINT
  8
3
 10
424.0572
 20
674.5544
  0
POINT
  8
3
 10
432.6067
 20
677.6497
  0
POINT
  8
3
 10
440.7223
 20
681.7784
  0
POINT
  8
3
 10
448.2120
 20
686.9183
  0
POINT
  8
3
 10
454.8428
 20
693.0267
  0
POINT
  8
2
 10
460.6707
 20
700.1371
  0
TEXT
  8
2
 10
460.6707
 20
700.1371
 40
0.1000
 50
0.0000
  1
# 21
  0
POINT
  8
2
 10
635.6707
 20
643.2762
  0
TEXT
  8
2
 10
635.6707
 20
643.2762
 40
0.1000
 50
0.0000
  1
# 22
  0
POINT
  8
3
 10
632.4412
 20
626.1833
  0
POINT
  8
3
 10
629.6131
 20
609.0289
  0
POINT
  8
3
 10
627.1934
 20
591.8080
  0
POINT
  8
3
 10
625.1605
 20
574.5364
  0
POINT
  8
3
 10
623.4955
 20
557.2256
  0
POINT
  8
3
 10
622.1965
 20
539.8834
  0
POINT
  8
3
 10
621.2538
 20
522.5219
  0
POINT
  8
2
 10
620.6707
 20
505.1372
  0
TEXT
  8
2
 10
620.6707
 20
505.1372
 40
0.1000
 50
0.0000
  1
# 23
  0
POINT
  8
3
 10
620.8580
 20
491.0863
  0
POINT
  8
3
 10
621.4020
 20
477.0537
  0
POINT
  8
3
 10
622.1986
 20
462.9738
  0
POINT
  8
3
 10
623.5632
 20
448.9548
  0
POINT
  8
3
 10
625.7211
 20
435.0309
  0
POINT
  8
3
 10
628.8273
 20
421.3135
  0
POINT
  8
3
 10
632.8552
 20
407.7429
  0
POINT
  8
3
 10
638.5208
 20
394.9483
  0
POINT
  8
3
 10
646.8203
 20
382.9005
  0
POINT
  8
3
 10
657.0858
 20
372.5687
  0
POINT
  8
3
 10
667.9862
 20
365.2537
  0
POINT
  8
2
 10
680.6707
 20
360.1372
  0
TEXT
  8
2
 10
680.6707
 20
360.1372
 40
0.1000
 50
0.0000
  1
# 24
  0
POINT
  8
3
 10
678.0099
 20
321.4342
  0
POINT
  8
3
 10
676.1564
 20
282.7010
  0
POINT
  8
3
 10
675.1338
 20
243.9298
  0
POINT
  8
3
 10
674.8708
 20
205.1442
  0
POINT
  8
3
 10
675.3054
 20
166.3609
  0
POINT
  8
3
 10
676.4308
 20
127.5907
  0
POINT
  8
3
 10
678.2157
 20
88.8514
  0
POINT
  8
2
 10
680.6707
 20
50.1372
  0
TEXT
  8
2
 10
680.6707
 20
50.1372
 40
0.1000
 50
0.0000
  1
# 25
  0
POINT
  8
3
 10
640.7327
 20
47.3773
  0
POINT
  8
3
 10
600.7707
 20
45.0773
  0
POINT
  8
3
 10
560.7821
 20
43.2516
  0
POINT
  8
3
 10
520.7755
 20
41.8568
  0
POINT
  8
3
 10
480.7574
 20
40.8551
  0
POINT
  8
3
 10
440.7313
 20
40.2428
  0
POINT
  8
3
 10
400.7030
 20
40.0014
  0
POINT
  8
2
 10
360.6707
 20
40.1372
  0
TEXT
  8
2
 10
360.6707
 20
40.1372
 40
0.1000
 50
0.0000
  1
# 26
  0
POINT
  8
3
 10
320.6384
 20
40.0014
  0
POINT
  8
3
 10
280.6101
 20
40.2428
  0
POINT
  8
3
 10
240.5840
 20
40.8551
  0
POINT
  8
3
 10
200.5659
 20
41.8568
  0
POINT
  8
3
 10
160.5593
 20
43.2516
  0
POINT
  8
3
 10
120.5707
 20
45.0773
  0
POINT
  8
3
 10
80.6088
 20
47.3773
  0
POINT
  8
2
 10
40.6707
 20
50.1372
  0
LINE
  8
7
 10
332.4843
 20
434.9940
 11
332.4843
 21
188.6618
  0
POINT
  8
2
 10
332.4843
 20
434.9940
  0
TEXT
  8
2
 10
332.4843
 20
434.9940
 40
0.1000
 50
0.0000
  1
# 27
  0
POINT
  8
2
 10
332.4843
 20
188.6618
  0
TEXT
  8
2
 10
332.4843
 20
188.6618
 40
0.1000
 50
0.0000
  1
# 28
  0
LINE
  8
5
 10
332.4843
 20
434.9940
 11
332.4843
 21
188.6618
  0
LINE
  8
8
 10
360.6707
 20
670.1411
 11
360.6707
 21
40.1412
  0
POINT
  8
2
 10
360.6707
 20
670.1411
  0
TEXT
  8
2
 10
360.6707
 20
670.1411
 40
0.1000
 50
0.0000
  1
# 29
  0
POINT
  8
2
 10
360.6707
 20
40.1412
  0
TEXT
  8
2
 10
360.6707
 20
40.1412
 40
0.1000
 50
0.0000
  1
# 30
  0
LINE
  8
8
 10
610.2365
 20
495.5908
 11
630.2150
 21
494.7034
  0
POINT
  8
2
 10
610.2365
 20
495.5908
  0
TEXT
  8
2
 10
610.2365
 20
495.5908
 40
0.1000
 50
0.0000
  1
# 31
  0
POINT
  8
2
 10
630.2150
 20
494.7034
  0
TEXT
  8
2
 10
630.2150
 20
494.7034
 40
0.1000
 50
0.0000
  1
# 32
  0
LINE
  8
8
 10
111.1049
 20
495.5908
 11
91.1265
 21
494.7034
  0
POINT
  8
2
 10
111.1049
 20
495.5908
  0
TEXT
  8
2
 10
111.1049
 20
495.5908
 40
0.1000
 50
0.0000
  1
# 33
  0
POINT
  8
2
 10
91.1265
 20
494.7034
  0
TEXT
  8
2
 10
91.1265
 20
494.7034
 40
0.1000
 50
0.0000
  1
# 34
  0
ENDBLK
  0
BLOCK
  8
0
  2
BLK_2_M
 70
64
 10
0.0000
 20
0.0000
  0
TEXT
  8
1
 10
360.5772
 20
379.6418
 40
2.8000
 50
0.0000
  1
PIECE NAME: 2
  7
STANDARD
  0
TEXT
  8
1
 10
360.5772
 20
376.8417
 40
2.8000
 50
0.0000
  1
SIZE: M
  7
STANDARD
  0
TEXT
  8
1
 10
360.5772
 20
374.0417
 40
2.8000
 50
0.0000
  1
CATEGORY: 
  7
STANDARD
  0
TEXT
  8
1
 10
360.5772
 20
371.2418
 40
2.8000
 50
0.0000
  1
QUANTITY: 1
  7
STANDARD
  0
TEXT
  8
1
 10
360.5772
 20
368.4418
 40
2.8000
 50
0.0000
  1
ANNOTATION: 
  7
STANDARD
  0
TEXT
  8
1
 10
353.0283
 20
279.3706
 40
5.0000
 50
0.0000
  1
ANNOTATION: S/#5635-785
  7
STANDARD
  0
TEXT
  8
1
 10
373.0283
 20
272.3706
 40
5.0000
 50
0.0000
  1
ANNOTATION: <M>
  7
STANDARD
  0
TEXT
  8
1
 10
365.5283
 20
265.3706
 40
5.0000
 50
0.0000
  1
ANNOTATION: LINING
  7
STANDARD
  0
POLYLINE
  8
1
 66
1
 70
1
  0
VERTEX
  8
1
 10
31.6615
 20
40.8315
  0
VERTEX
  8
1
 10
32.2478
 20
50.6773
  0
VERTEX
  8
1
 10
34.1216
 20
85.3163
  0
VERTEX
  8
1
 10
35.4917
 20
119.9716
  0
VERTEX
  8
1
 10
36.3947
 20
154.6201
  0
VERTEX
  8
1
 10
36.7200
 20
189.2769
  0
VERTEX
  8
1
 10
36.4292
 20
230.5898
  0
VERTEX
  8
1
 10
35.3829
 20
271.8870
  0
VERTEX
  8
1
 10
33.4244
 20
313.1476
  0
VERTEX
  8
1
 10
30.0000
 20
362.3187
  0
VERTEX
  8
1
 10
37.5521
 20
364.6686
  0
VERTEX
  8
1
 10
48.4302
 20
369.0020
  0
VERTEX
  8
1
 10
57.7570
 20
375.2524
  0
VERTEX
  8
1
 10
66.7401
 20
384.2743
  0
VERTEX
  8
1
 10
73.9824
 20
394.8076
  0
VERTEX
  8
1
 10
79.0992
 20
406.4546
  0
VERTEX
  8
1
 10
82.7335
 20
418.7987
  0
VERTEX
  8
1
 10
85.6924
 20
431.8973
  0
VERTEX
  8
1
 10
87.7599
 20
445.1879
  0
VERTEX
  8
1
 10
89.0834
 20
458.8249
  0
VERTEX
  8
1
 10
89.8561
 20
472.5211
  0
VERTEX
  8
1
 10
90.3901
 20
486.3390
  0
VERTEX
  8
1
 10
90.5745
 20
499.6924
  0
VERTEX
  8
1
 10
90.5759
 20
500.0286
  0
VERTEX
  8
1
 10
90.0035
 20
517.0664
  0
VERTEX
  8
1
 10
89.0718
 20
534.2307
  0
VERTEX
  8
1
 10
87.7882
 20
551.3690
  0
VERTEX
  8
1
 10
86.1428
 20
568.4760
  0
VERTEX
  8
1
 10
84.1367
 20
585.5228
  0
VERTEX
  8
1
 10
81.7484
 20
602.5195
  0
VERTEX
  8
1
 10
79.6912
 20
615.2286
  0
VERTEX
  8
1
 10
75.7668
 20
636.3334
  0
VERTEX
  8
1
 10
74.0418
 20
645.0427
  0
VERTEX
  8
1
 10
264.3688
 20
706.8838
  0
VERTEX
  8
1
 10
268.6288
 20
701.0660
  0
VERTEX
  8
1
 10
273.5996
 20
694.9732
  0
VERTEX
  8
1
 10
279.2630
 20
689.7439
  0
VERTEX
  8
1
 10
285.6610
 20
685.3511
  0
VERTEX
  8
1
 10
292.6003
 20
681.8332
  0
VERTEX
  8
1
 10
300.1091
 20
679.1132
  0
VERTEX
  8
1
 10
307.8900
 20
677.2230
  0
VERTEX
  8
1
 10
316.2495
 20
676.0785
  0
VERTEX
  8
1
 10
324.6974
 20
675.4871
  0
VERTEX
  8
1
 10
333.5551
 20
675.1346
  0
VERTEX
  8
1
 10
342.4242
 20
675.0211
  0
VERTEX
  8
1
 10
360.5768
 20
675.1387
  0
VERTEX
  8
1
 10
378.7275
 20
675.0211
  0
VERTEX
  8
1
 10
387.6055
 20
675.1349
  0
VERTEX
  8
1
 10
396.4721
 20
675.4879
  0
VERTEX
  8
1
 10
404.9101
 20
676.0788
  0
VERTEX
  8
1
 10
413.2600
 20
677.2225
  0
VERTEX
  8
1
 10
421.0421
 20
679.1130
  0
VERTEX
  8
1
 10
428.5522
 20
681.8331
  0
VERTEX
  8
1
 10
435.4922
 20
685.3516
  0
VERTEX
  8
1
 10
441.8909
 20
689.7449
  0
VERTEX
  8
1
 10
446.2091
 20
693.5911
  0
VERTEX
  8
1
 10
452.5239
 20
701.0660
  0
VERTEX
  8
1
 10
456.7840
 20
706.8835
  0
VERTEX
  8
1
 10
647.1106
 20
645.0421
  0
VERTEX
  8
1
 10
645.3859
 20
636.3334
  0
VERTEX
  8
1
 10
642.1969
 20
619.4568
  0
VERTEX
  8
1
 10
639.4044
 20
602.5198
  0
VERTEX
  8
1
 10
637.0159
 20
585.5215
  0
VERTEX
  8
1
 10
635.0095
 20
568.4733
  0
VERTEX
  8
1
 10
633.3647
 20
551.3716
  0
VERTEX
  8
1
 10
632.0814
 20
534.2386
  0
VERTEX
  8
1
 10
631.1494
 20
517.0704
  0
VERTEX
  8
1
 10
630.5769
 20
500.0281
  0
VERTEX
  8
1
 10
630.5782
 20
499.6924
  0
VERTEX
  8
1
 10
630.7628
 20
486.3357
  0
VERTEX
  8
1
 10
631.2969
 20
472.5146
  0
VERTEX
  8
1
 10
632.0698
 20
458.8187
  0
VERTEX
  8
1
 10
633.3936
 20
445.1819
  0
VERTEX
  8
1
 10
635.4609
 20
431.8933
  0
VERTEX
  8
1
 10
638.4198
 20
418.7966
  0
VERTEX
  8
1
 10
642.0541
 20
406.4532
  0
VERTEX
  8
1
 10
647.1707
 20
394.8069
  0
VERTEX
  8
1
 10
654.4128
 20
384.2738
  0
VERTEX
  8
1
 10
663.3958
 20
375.2522
  0
VERTEX
  8
1
 10
670.2686
 20
370.3735
  0
VERTEX
  8
1
 10
683.6005
 20
364.6685
  0
VERTEX
  8
1
 10
691.1530
 20
362.3187
  0
VERTEX
  8
1
 10
687.7287
 20
313.1565
  0
VERTEX
  8
1
 10
685.7704
 20
271.9047
  0
VERTEX
  8
1
 10
684.7236
 20
230.5987
  0
VERTEX
  8
1
 10
684.4326
 20
189.2770
  0
VERTEX
  8
1
 10
684.7578
 20
154.6207
  0
VERTEX
  8
1
 10
685.6610
 20
119.9727
  0
VERTEX
  8
1
 10
686.6428
 20
93.9789
  0
VERTEX
  8
1
 10
688.9050
 20
50.6769
  0
VERTEX
  8
1
 10
689.4913
 20
40.8322
  0
VERTEX
  8
1
 10
639.8099
 20
37.3549
  0
VERTEX
  8
1
 10
599.9387
 20
35.0589
  0
VERTEX
  8
1
 10
560.1166
 20
33.2401
  0
VERTEX
  8
1
 10
520.2766
 20
31.8509
  0
VERTEX
  8
1
 10
480.4032
 20
30.8522
  0
VERTEX
  8
1
 10
440.5217
 20
30.2422
  0
VERTEX
  8
1
 10
400.5164
 20
30.0014
  0
VERTEX
  8
1
 10
360.5719
 20
30.1373
  0
VERTEX
  8
1
 10
320.6691
 20
30.0011
  0
VERTEX
  8
1
 10
280.6960
 20
30.2414
  0
VERTEX
  8
1
 10
240.7782
 20
30.8521
  0
VERTEX
  8
1
 10
200.8685
 20
31.8512
  0
VERTEX
  8
1
 10
161.0434
 20
33.2396
  0
VERTEX
  8
1
 10
121.2362
 20
35.0577
  0
VERTEX
  8
1
 10
81.3545
 20
37.3543
  0
VERTEX
  8
1
 10
31.6615
 20
40.8315
  0
SEQEND
  0
POINT
  8
2
 10
31.6615
 20
40.8315
  0
TEXT
  8
2
 10
31.6615
 20
40.8315
 40
0.1000
 50
0.0000
  1
# 35
  0
POINT
  8
3
 10
32.2478
 20
50.6773
  0
POINT
  8
3
 10
34.1216
 20
85.3163
  0
POINT
  8
3
 10
35.4917
 20
119.9716
  0
POINT
  8
3
 10
36.3947
 20
154.6201
  0
POINT
  8
3
 10
36.7200
 20
189.2769
  0
POINT
  8
3
 10
36.4292
 20
230.5898
  0
POINT
  8
3
 10
35.3829
 20
271.8870
  0
POINT
  8
3
 10
33.4244
 20
313.1476
  0
POINT
  8
2
 10
30.0000
 20
362.3187
  0
TEXT
  8
2
 10
30.0000
 20
362.3187
 40
0.1000
 50
0.0000
  1
# 36
  0
POINT
  8
3
 10
37.5521
 20
364.6686
  0
POINT
  8
3
 10
48.4302
 20
369.0020
  0
POINT
  8
3
 10
57.7570
 20
375.2524
  0
POINT
  8
3
 10
66.7401
 20
384.2743
  0
POINT
  8
3
 10
73.9824
 20
394.8076
  0
POINT
  8
3
 10
79.0992
 20
406.4546
  0
POINT
  8
3
 10
82.7335
 20
418.7987
  0
POINT
  8
3
 10
85.6924
 20
431.8973
  0
POINT
  8
3
 10
87.7599
 20
445.1879
  0
POINT
  8
3
 10
89.0834
 20
458.8249
  0
POINT
  8
3
 10
89.8561
 20
472.5211
  0
POINT
  8
3
 10
90.3901
 20
486.3390
  0
POINT
  8
4
 10
90.5745
 20
499.6924
 30
19.9816
 39
0.0000
 50
2.5434
  0
TEXT
  8
4
 10
90.5745
 20
499.6924
 40
0.1000
 50
0.0000
  1
# 37
  0
POINT
  8
2
 10
90.5745
 20
499.6924
  0
TEXT
  8
2
 10
90.5745
 20
499.6924
 40
0.1000
 50
0.0000
  1
# 37
  0
POINT
  8
2
 10
90.5759
 20
500.0286
  0
TEXT
  8
2
 10
90.5759
 20
500.0286
 40
0.1000
 50
0.0000
  1
# 38
  0
POINT
  8
3
 10
90.0035
 20
517.0664
  0
POINT
  8
3
 10
89.0718
 20
534.2307
  0
POINT
  8
3
 10
87.7882
 20
551.3690
  0
POINT
  8
3
 10
86.1428
 20
568.4760
  0
POINT
  8
3
 10
84.1367
 20
585.5228
  0
POINT
  8
3
 10
81.7484
 20
602.5195
  0
POINT
  8
3
 10
79.6912
 20
615.2286
  0
POINT
  8
3
 10
75.7668
 20
636.3334
  0
POINT
  8
2
 10
74.0418
 20
645.0427
  0
TEXT
  8
2
 10
74.0418
 20
645.0427
 40
0.1000
 50
0.0000
  1
# 39
  0
POINT
  8
2
 10
264.3688
 20
706.8838
  0
TEXT
  8
2
 10
264.3688
 20
706.8838
 40
0.1000
 50
0.0000
  1
# 40
  0
POINT
  8
3
 10
268.6288
 20
701.0660
  0
POINT
  8
3
 10
273.5996
 20
694.9732
  0
POINT
  8
3
 10
279.2630
 20
689.7439
  0
POINT
  8
3
 10
285.6610
 20
685.3511
  0
POINT
  8
3
 10
292.6003
 20
681.8332
  0
POINT
  8
3
 10
300.1091
 20
679.1132
  0
POINT
  8
3
 10
307.8900
 20
677.2230
  0
POINT
  8
3
 10
316.2495
 20
676.0785
  0
POINT
  8
3
 10
324.6974
 20
675.4871
  0
POINT
  8
3
 10
333.5551
 20
675.1346
  0
POINT
  8
3
 10
342.4242
 20
675.0211
  0
POINT
  8
2
 10
360.5768
 20
675.1387
  0
TEXT
  8
2
 10
360.5768
 20
675.1387
 40
0.1000
 50
0.0000
  1
# 41
  0
POINT
  8
3
 10
378.7275
 20
675.0211
  0
POINT
  8
3
 10
387.6055
 20
675.1349
  0
POINT
  8
3
 10
396.4721
 20
675.4879
  0
POINT
  8
3
 10
404.9101
 20
676.0788
  0
POINT
  8
3
 10
413.2600
 20
677.2225
  0
POINT
  8
3
 10
421.0421
 20
679.1130
  0
POINT
  8
3
 10
428.5522
 20
681.8331
  0
POINT
  8
3
 10
435.4922
 20
685.3516
  0
POINT
  8
3
 10
441.8909
 20
689.7449
  0
POINT
  8
3
 10
446.2091
 20
693.5911
  0
POINT
  8
3
 10
452.5239
 20
701.0660
  0
POINT
  8
2
 10
456.7840
 20
706.8835
  0
TEXT
  8
2
 10
456.7840
 20
706.8835
 40
0.1000
 50
0.0000
  1
# 42
  0
POINT
  8
2
 10
647.1106
 20
645.0421
  0
TEXT
  8
2
 10
647.1106
 20
645.0421
 40
0.1000
 50
0.0000
  1
# 43
  0
POINT
  8
3
 10
645.3859
 20
636.3334
  0
POINT
  8
3
 10
642.1969
 20
619.4568
  0
POINT
  8
3
 10
639.4044
 20
602.5198
  0
POINT
  8
3
 10
637.0159
 20
585.5215
  0
POINT
  8
3
 10
635.0095
 20
568.4733
  0
POINT
  8
3
 10
633.3647
 20
551.3716
  0
POINT
  8
3
 10
632.0814
 20
534.2386
  0
POINT
  8
3
 10
631.1494
 20
517.0704
  0
POINT
  8
2
 10
630.5769
 20
500.0281
  0
TEXT
  8
2
 10
630.5769
 20
500.0281
 40
0.1000
 50
0.0000
  1
# 44
  0
POINT
  8
4
 10
630.5782
 20
499.6924
 30
19.9816
 39
0.0000
 50
177.4566
  0
TEXT
  8
4
 10
630.5782
 20
499.6924
 40
0.1000
 50
0.0000
  1
# 45
  0
POINT
  8
2
 10
630.5782
 20
499.6924
  0
TEXT
  8
2
 10
630.5782
 20
499.6924
 40
0.1000
 50
0.0000
  1
# 45
  0
POINT
  8
3
 10
630.7628
 20
486.3357
  0
POINT
  8
3
 10
631.2969
 20
472.5146
  0
POINT
  8
3
 10
632.0698
 20
458.8187
  0
POINT
  8
3
 10
633.3936
 20
445.1819
  0
POINT
  8
3
 10
635.4609
 20
431.8933
  0
POINT
  8
3
 10
638.4198
 20
418.7966
  0
POINT
  8
3
 10
642.0541
 20
406.4532
  0
POINT
  8
3
 10
647.1707
 20
394.8069
  0
POINT
  8
3
 10
654.4128
 20
384.2738
  0
POINT
  8
3
 10
663.3958
 20
375.2522
  0
POINT
  8
3
 10
670.2686
 20
370.3735
  0
POINT
  8
3
 10
683.6005
 20
364.6685
  0
POINT
  8
2
 10
691.1530
 20
362.3187
  0
TEXT
  8
2
 10
691.1530
 20
362.3187
 40
0.1000
 50
0.0000
  1
# 46
  0
POINT
  8
3
 10
687.7287
 20
313.1565
  0
POINT
  8
3
 10
685.7704
 20
271.9047
  0
POINT
  8
3
 10
684.7236
 20
230.5987
  0
POINT
  8
3
 10
684.4326
 20
189.2770
  0
POINT
  8
3
 10
684.7578
 20
154.6207
  0
POINT
  8
3
 10
685.6610
 20
119.9727
  0
POINT
  8
3
 10
686.6428
 20
93.9789
  0
POINT
  8
3
 10
688.9050
 20
50.6769
  0
POINT
  8
2
 10
689.4913
 20
40.8322
  0
TEXT
  8
2
 10
689.4913
 20
40.8322
 40
0.1000
 50
0.0000
  1
# 47
  0
POINT
  8
3
 10
639.8099
 20
37.3549
  0
POINT
  8
3
 10
599.9387
 20
35.0589
  0
POINT
  8
3
 10
560.1166
 20
33.2401
  0
POINT
  8
3
 10
520.2766
 20
31.8509
  0
POINT
  8
3
 10
480.4032
 20
30.8522
  0
POINT
  8
3
 10
440.5217
 20
30.2422
  0
POINT
  8
3
 10
400.5164
 20
30.0014
  0
POINT
  8
2
 10
360.5719
 20
30.1373
  0
TEXT
  8
2
 10
360.5719
 20
30.1373
 40
0.1000
 50
0.0000
  1
# 48
  0
POINT
  8
3
 10
320.6691
 20
30.0011
  0
POINT
  8
3
 10
280.6960
 20
30.2414
  0
POINT
  8
3
 10
240.7782
 20
30.8521
  0
POINT
  8
3
 10
200.8685
 20
31.8512
  0
POINT
  8
3
 10
161.0434
 20
33.2396
  0
POINT
  8
3
 10
121.2362
 20
35.0577
  0
POINT
  8
3
 10
81.3545
 20
37.3543
  0
POINT
  8
2
 10
31.6615
 20
40.8315
  0
POLYLINE
  8
8
 66
1
 70
1
  0
VERTEX
  8
8
 10
42.2301
 20
50.0827
  0
VERTEX
  8
8
 10
44.1111
 20
84.8544
  0
VERTEX
  8
8
 10
45.4863
 20
119.6426
  0
VERTEX
  8
8
 10
46.3934
 20
154.4507
  0
VERTEX
  8
8
 10
46.7200
 20
189.2671
  0
VERTEX
  8
8
 10
46.4274
 20
230.7744
  0
VERTEX
  8
8
 10
45.3758
 20
272.2658
  0
VERTEX
  8
8
 10
43.4082
 20
313.7172
  0
VERTEX
  8
8
 10
40.5764
 20
355.1368
  0
VERTEX
  8
8
 10
53.2608
 20
360.2533
  0
VERTEX
  8
8
 10
64.1612
 20
367.5683
  0
VERTEX
  8
8
 10
74.4267
 20
377.9001
  0
VERTEX
  8
8
 10
82.7263
 20
389.9478
  0
VERTEX
  8
8
 10
88.3919
 20
402.7425
  0
VERTEX
  8
8
 10
92.4197
 20
416.3132
  0
VERTEX
  8
8
 10
95.5259
 20
430.0305
  0
VERTEX
  8
8
 10
97.6838
 20
443.9545
  0
VERTEX
  8
8
 10
99.0485
 20
457.9733
  0
VERTEX
  8
8
 10
99.8451
 20
472.0533
  0
VERTEX
  8
8
 10
100.3891
 20
486.0858
  0
VERTEX
  8
8
 10
100.5764
 20
500.1367
  0
VERTEX
  8
8
 10
99.9933
 20
517.5215
  0
VERTEX
  8
8
 10
99.0505
 20
534.8829
  0
VERTEX
  8
8
 10
97.7515
 20
552.2253
  0
VERTEX
  8
8
 10
96.0866
 20
569.5359
  0
VERTEX
  8
8
 10
94.0537
 20
586.8076
  0
VERTEX
  8
8
 10
91.6339
 20
604.0284
  0
VERTEX
  8
8
 10
88.8058
 20
621.1829
  0
VERTEX
  8
8
 10
85.5763
 20
638.2758
  0
VERTEX
  8
8
 10
260.5763
 20
695.1367
  0
VERTEX
  8
8
 10
266.4042
 20
688.0262
  0
VERTEX
  8
8
 10
273.0350
 20
681.9178
  0
VERTEX
  8
8
 10
280.5248
 20
676.7781
  0
VERTEX
  8
8
 10
288.6404
 20
672.6492
  0
VERTEX
  8
8
 10
297.1898
 20
669.5540
  0
VERTEX
  8
8
 10
306.0490
 20
667.3929
  0
VERTEX
  8
8
 10
315.0512
 20
666.1469
  0
VERTEX
  8
8
 10
324.1504
 20
665.5020
  0
VERTEX
  8
8
 10
333.2497
 20
665.1361
  0
VERTEX
  8
8
 10
342.3612
 20
665.0214
  0
VERTEX
  8
8
 10
360.5764
 20
665.1367
  0
VERTEX
  8
8
 10
378.7915
 20
665.0214
  0
VERTEX
  8
8
 10
387.9030
 20
665.1361
  0
VERTEX
  8
8
 10
397.0023
 20
665.5020
  0
VERTEX
  8
8
 10
406.1014
 20
666.1469
  0
VERTEX
  8
8
 10
415.1037
 20
667.3929
  0
VERTEX
  8
8
 10
423.9629
 20
669.5540
  0
VERTEX
  8
8
 10
432.5123
 20
672.6492
  0
VERTEX
  8
8
 10
440.6279
 20
676.7781
  0
VERTEX
  8
8
 10
448.1177
 20
681.9178
  0
VERTEX
  8
8
 10
454.7484
 20
688.0262
  0
VERTEX
  8
8
 10
460.5764
 20
695.1367
  0
VERTEX
  8
8
 10
635.5764
 20
638.2758
  0
VERTEX
  8
8
 10
632.3469
 20
621.1829
  0
VERTEX
  8
8
 10
629.5187
 20
604.0284
  0
VERTEX
  8
8
 10
627.0990
 20
586.8076
  0
VERTEX
  8
8
 10
625.0662
 20
569.5359
  0
VERTEX
  8
8
 10
623.4011
 20
552.2253
  0
VERTEX
  8
8
 10
622.1022
 20
534.8829
  0
VERTEX
  8
8
 10
621.1594
 20
517.5215
  0
VERTEX
  8
8
 10
620.5764
 20
500.1367
  0
VERTEX
  8
8
 10
620.7635
 20
486.0858
  0
VERTEX
  8
8
 10
621.3076
 20
472.0533
  0
VERTEX
  8
8
 10
622.1042
 20
457.9733
  0
VERTEX
  8
8
 10
623.4689
 20
443.9545
  0
VERTEX
  8
8
 10
625.6268
 20
430.0305
  0
VERTEX
  8
8
 10
628.7330
 20
416.3132
  0
VERTEX
  8
8
 10
632.7609
 20
402.7425
  0
VERTEX
  8
8
 10
638.4265
 20
389.9478
  0
VERTEX
  8
8
 10
646.7259
 20
377.9001
  0
VERTEX
  8
8
 10
656.9914
 20
367.5683
  0
VERTEX
  8
8
 10
667.8918
 20
360.2533
  0
VERTEX
  8
8
 10
680.5764
 20
355.1363
  0
VERTEX
  8
8
 10
677.7446
 20
313.7171
  0
VERTEX
  8
8
 10
675.7769
 20
272.2658
  0
VERTEX
  8
8
 10
674.7252
 20
230.7744
  0
VERTEX
  8
8
 10
674.4326
 20
189.2671
  0
VERTEX
  8
8
 10
674.7593
 20
154.4506
  0
VERTEX
  8
8
 10
675.6664
 20
119.6425
  0
VERTEX
  8
8
 10
677.0417
 20
84.8543
  0
VERTEX
  8
8
 10
678.9248
 20
50.0827
  0
VERTEX
  8
8
 10
639.1642
 20
47.3343
  0
VERTEX
  8
8
 10
599.3800
 20
45.0433
  0
VERTEX
  8
8
 10
559.7031
 20
43.2312
  0
VERTEX
  8
8
 10
520.0082
 20
41.8474
  0
VERTEX
  8
8
 10
480.2091
 20
40.8505
  0
VERTEX
  8
8
 10
440.4021
 20
40.2414
  0
VERTEX
  8
8
 10
400.4912
 20
40.0014
  0
VERTEX
  8
8
 10
360.5767
 20
40.1375
  0
VERTEX
  8
8
 10
320.6688
 20
40.0014
  0
VERTEX
  8
8
 10
280.7651
 20
40.2412
  0
VERTEX
  8
8
 10
240.9788
 20
40.8496
  0
VERTEX
  8
8
 10
201.2006
 20
41.8457
  0
VERTEX
  8
8
 10
161.4628
 20
43.2309
  0
VERTEX
  8
8
 10
121.7429
 20
45.0449
  0
VERTEX
  8
8
 10
81.9742
 20
47.3349
  0
VERTEX
  8
8
 10
42.2301
 20
50.0827
  0
SEQEND
  0
POINT
  8
2
 10
42.2301
 20
50.0827
  0
TEXT
  8
2
 10
42.2301
 20
50.0827
 40
0.1000
 50
0.0000
  1
# 49
  0
POINT
  8
3
 10
44.1111
 20
84.8544
  0
POINT
  8
3
 10
45.4863
 20
119.6426
  0
POINT
  8
3
 10
46.3934
 20
154.4507
  0
POINT
  8
3
 10
46.7200
 20
189.2671
  0
POINT
  8
3
 10
46.4274
 20
230.7744
  0
POINT
  8
3
 10
45.3758
 20
272.2658
  0
POINT
  8
3
 10
43.4082
 20
313.7172
  0
POINT
  8
2
 10
40.5764
 20
355.1368
  0
TEXT
  8
2
 10
40.5764
 20
355.1368
 40
0.1000
 50
0.0000
  1
# 50
  0
POINT
  8
3
 10
53.2608
 20
360.2533
  0
POINT
  8
3
 10
64.1612
 20
367.5683
  0
POINT
  8
3
 10
74.4267
 20
377.9001
  0
POINT
  8
3
 10
82.7263
 20
389.9478
  0
POINT
  8
3
 10
88.3919
 20
402.7425
  0
POINT
  8
3
 10
92.4197
 20
416.3132
  0
POINT
  8
3
 10
95.5259
 20
430.0305
  0
POINT
  8
3
 10
97.6838
 20
443.9545
  0
POINT
  8
3
 10
99.0485
 20
457.9733
  0
POINT
  8
3
 10
99.8451
 20
472.0533
  0
POINT
  8
3
 10
100.3891
 20
486.0858
  0
POINT
  8
2
 10
100.5764
 20
500.1367
  0
TEXT
  8
2
 10
100.5764
 20
500.1367
 40
0.1000
 50
0.0000
  1
# 51
  0
POINT
  8
3
 10
99.9933
 20
517.5215
  0
POINT
  8
3
 10
99.0505
 20
534.8829
  0
POINT
  8
3
 10
97.7515
 20
552.2253
  0
POINT
  8
3
 10
96.0866
 20
569.5359
  0
POINT
  8
3
 10
94.0537
 20
586.8076
  0
POINT
  8
3
 10
91.6339
 20
604.0284
  0
POINT
  8
3
 10
88.8058
 20
621.1829
  0
POINT
  8
2
 10
85.5763
 20
638.2758
  0
TEXT
  8
2
 10
85.5763
 20
638.2758
 40
0.1000
 50
0.0000
  1
# 52
  0
POINT
  8
2
 10
260.5763
 20
695.1367
  0
TEXT
  8
2
 10
260.5763
 20
695.1367
 40
0.1000
 50
0.0000
  1
# 53
  0
POINT
  8
3
 10
266.4042
 20
688.0262
  0
POINT
  8
3
 10
273.0350
 20
681.9178
  0
POINT
  8
3
 10
280.5248
 20
676.7781
  0
POINT
  8
3
 10
288.6404
 20
672.6492
  0
POINT
  8
3
 10
297.1898
 20
669.5540
  0
POINT
  8
3
 10
306.0490
 20
667.3929
  0
POINT
  8
3
 10
315.0512
 20
666.1469
  0
POINT
  8
3
 10
324.1504
 20
665.5020
  0
POINT
  8
3
 10
333.2497
 20
665.1361
  0
POINT
  8
3
 10
342.3612
 20
665.0214
  0
POINT
  8
2
 10
360.5764
 20
665.1367
  0
TEXT
  8
2
 10
360.5764
 20
665.1367
 40
0.1000
 50
0.0000
  1
# 54
  0
POINT
  8
3
 10
378.7915
 20
665.0214
  0
POINT
  8
3
 10
387.9030
 20
665.1361
  0
POINT
  8
3
 10
397.0023
 20
665.5020
  0
POINT
  8
3
 10
406.1014
 20
666.1469
  0
POINT
  8
3
 10
415.1037
 20
667.3929
  0
POINT
  8
3
 10
423.9629
 20
669.5540
  0
POINT
  8
3
 10
432.5123
 20
672.6492
  0
POINT
  8
3
 10
440.6279
 20
676.7781
  0
POINT
  8
3
 10
448.1177
 20
681.9178
  0
POINT
  8
3
 10
454.7484
 20
688.0262
  0
POINT
  8
2
 10
460.5764
 20
695.1367
  0
TEXT
  8
2
 10
460.5764
 20
695.1367
 40
0.1000
 50
0.0000
  1
# 55
  0
POINT
  8
2
 10
635.5764
 20
638.2758
  0
TEXT
  8
2
 10
635.5764
 20
638.2758
 40
0.1000
 50
0.0000
  1
# 56
  0
POINT
  8
3
 10
632.3469
 20
621.1829
  0
POINT
  8
3
 10
629.5187
 20
604.0284
  0
POINT
  8
3
 10
627.0990
 20
586.8076
  0
POINT
  8
3
 10
625.0662
 20
569.5359
  0
POINT
  8
3
 10
623.4011
 20
552.2253
  0
POINT
  8
3
 10
622.1022
 20
534.8829
  0
POINT
  8
3
 10
621.1594
 20
517.5215
  0
POINT
  8
2
 10
620.5764
 20
500.1367
  0
TEXT
  8
2
 10
620.5764
 20
500.1367
 40
0.1000
 50
0.0000
  1
# 57
  0
POINT
  8
3
 10
620.7635
 20
486.0858
  0
POINT
  8
3
 10
621.3076
 20
472.0533
  0
POINT
  8
3
 10
622.1042
 20
457.9733
  0
POINT
  8
3
 10
623.4689
 20
443.9545
  0
POINT
  8
3
 10
625.6268
 20
430.0305
  0
POINT
  8
3
 10
628.7330
 20
416.3132
  0
POINT
  8
3
 10
632.7609
 20
402.7425
  0
POINT
  8
3
 10
638.4265
 20
389.9478
  0
POINT
  8
3
 10
646.7259
 20
377.9001
  0
POINT
  8
3
 10
656.9914
 20
367.5683
  0
POINT
  8
3
 10
667.8918
 20
360.2533
  0
POINT
  8
2
 10
680.5764
 20
355.1363
  0
TEXT
  8
2
 10
680.5764
 20
355.1363
 40
0.1000
 50
0.0000
  1
# 58
  0
POINT
  8
3
 10
677.7446
 20
313.7171
  0
POINT
  8
3
 10
675.7769
 20
272.2658
  0
POINT
  8
3
 10
674.7252
 20
230.7744
  0
POINT
  8
3
 10
674.4326
 20
189.2671
  0
POINT
  8
3
 10
674.7593
 20
154.4506
  0
POINT
  8
3
 10
675.6664
 20
119.6425
  0
POINT
  8
3
 10
677.0417
 20
84.8543
  0
POINT
  8
2
 10
678.9248
 20
50.0827
  0
TEXT
  8
2
 10
678.9248
 20
50.0827
 40
0.1000
 50
0.0000
  1
# 59
  0
POINT
  8
3
 10
639.1642
 20
47.3343
  0
POINT
  8
3
 10
599.3800
 20
45.0433
  0
POINT
  8
3
 10
559.7031
 20
43.2312
  0
POINT
  8
3
 10
520.0082
 20
41.8474
  0
POINT
  8
3
 10
480.2091
 20
40.8505
  0
POINT
  8
3
 10
440.4021
 20
40.2414
  0
POINT
  8
3
 10
400.4912
 20
40.0014
  0
POINT
  8
2
 10
360.5767
 20
40.1375
  0
TEXT
  8
2
 10
360.5767
 20
40.1375
 40
0.1000
 50
0.0000
  1
# 60
  0
POINT
  8
3
 10
320.6688
 20
40.0014
  0
POINT
  8
3
 10
280.7651
 20
40.2412
  0
POINT
  8
3
 10
240.9788
 20
40.8496
  0
POINT
  8
3
 10
201.2006
 20
41.8457
  0
POINT
  8
3
 10
161.4628
 20
43.2309
  0
POINT
  8
3
 10
121.7429
 20
45.0449
  0
POINT
  8
3
 10
81.9742
 20
47.3349
  0
POINT
  8
2
 10
42.2301
 20
50.0827
  0
LINE
  8
7
 10
421.8694
 20
446.6447
 11
421.8694
 21
232.0033
  0
POINT
  8
2
 10
421.8694
 20
446.6447
  0
TEXT
  8
2
 10
421.8694
 20
446.6447
 40
0.1000
 50
0.0000
  1
# 61
  0
POINT
  8
2
 10
421.8694
 20
232.0033
  0
TEXT
  8
2
 10
421.8694
 20
232.0033
 40
0.1000
 50
0.0000
  1
# 62
  0
LINE
  8
5
 10
421.8694
 20
446.6447
 11
421.8694
 21
232.0033
  0
LINE
  8
8
 10
360.5764
 20
665.1407
 11
360.5764
 21
40.1414
  0
POINT
  8
2
 10
360.5764
 20
665.1407
  0
TEXT
  8
2
 10
360.5764
 20
665.1407
 40
0.1000
 50
0.0000
  1
# 63
  0
POINT
  8
2
 10
360.5764
 20
40.1414
  0
TEXT
  8
2
 10
360.5764
 20
40.1414
 40
0.1000
 50
0.0000
  1
# 64
  0
LINE
  8
8
 10
610.1422
 20
490.5904
 11
630.1206
 21
489.7029
  0
POINT
  8
2
 10
610.1422
 20
490.5904
  0
TEXT
  8
2
 10
610.1422
 20
490.5904
 40
0.1000
 50
0.0000
  1
# 65
  0
POINT
  8
2
 10
630.1206
 20
489.7029
  0
TEXT
  8
2
 10
630.1206
 20
489.7029
 40
0.1000
 50
0.0000
  1
# 66
  0
LINE
  8
8
 10
111.0106
 20
490.5904
 11
91.0321
 21
489.7029
  0
POINT
  8
2
 10
111.0106
 20
490.5904
  0
TEXT
  8
2
 10
111.0106
 20
490.5904
 40
0.1000
 50
0.0000
  1
# 67
  0
POINT
  8
2
 10
91.0321
 20
489.7029
  0
TEXT
  8
2
 10
91.0321
 20
489.7029
 40
0.1000
 50
0.0000
  1
# 68
  0
ENDBLK
  0
BLOCK
  8
0
  2
BLK_3_M
 70
64
 10
0.0000
 20
0.0000
  0
TEXT
  8
1
 10
322.7397
 20
341.0376
 40
2.8000
 50
0.0000
  1
PIECE NAME: 3
  7
STANDARD
  0
TEXT
  8
1
 10
322.7397
 20
338.2375
 40
2.8000
 50
0.0000
  1
SIZE: M
  7
STANDARD
  0
TEXT
  8
1
 10
322.7397
 20
335.4375
 40
2.8000
 50
0.0000
  1
CATEGORY: 
  7
STANDARD
  0
TEXT
  8
1
 10
322.7397
 20
332.6375
 40
2.8000
 50
0.0000
  1
QUANTITY: 1
  7
STANDARD
  0
TEXT
  8
1
 10
322.7397
 20
329.8376
 40
2.8000
 50
0.0000
  1
ANNOTATION: 
  7
STANDARD
  0
TEXT
  8
1
 10
317.0113
 20
291.3046
 40
5.0000
 50
0.0000
  1
ANNOTATION: S/#5635-785
  7
STANDARD
  0
TEXT
  8
1
 10
337.0113
 20
284.3047
 40
5.0000
 50
0.0000
  1
ANNOTATION: <M>
  7
STANDARD
  0
TEXT
  8
1
 10
329.5113
 20
277.3046
 40
5.0000
 50
0.0000
  1
ANNOTATION: LINING
  7
STANDARD
  0
POLYLINE
  8
1
 66
1
 70
1
  0
VERTEX
  8
1
 10
154.4849
 20
30.0000
  0
VERTEX
  8
1
 10
152.8149
 20
37.9459
  0
VERTEX
  8
1
 10
143.4563
 20
81.4568
  0
VERTEX
  8
1
 10
136.2560
 20
114.0652
  0
VERTEX
  8
1
 10
128.8393
 20
146.6241
  0
VERTEX
  8
1
 10
115.0729
 20
205.0724
  0
VERTEX
  8
1
 10
100.8392
 20
263.4069
  0
VERTEX
  8
1
 10
84.9052
 20
325.8541
  0
VERTEX
  8
1
 10
68.3699
 20
388.1445
  0
VERTEX
  8
1
 10
51.2119
 20
450.2589
  0
VERTEX
  8
1
 10
30.0003
 20
524.0168
  0
VERTEX
  8
1
 10
42.2513
 20
524.9689
  0
VERTEX
  8
1
 10
66.2605
 20
527.8146
  0
VERTEX
  8
1
 10
89.5427
 20
533.1772
  0
VERTEX
  8
1
 10
111.5686
 20
541.2388
  0
VERTEX
  8
1
 10
132.9930
 20
551.0579
  0
VERTEX
  8
1
 10
146.2669
 20
557.9895
  0
VERTEX
  8
1
 10
159.2712
 20
565.4703
  0
VERTEX
  8
1
 10
176.7963
 20
575.7472
  0
VERTEX
  8
1
 10
191.6536
 20
584.6610
  0
VERTEX
  8
1
 10
206.7061
 20
593.4614
  0
VERTEX
  8
1
 10
222.1510
 20
601.4191
  0
VERTEX
  8
1
 10
244.8357
 20
610.4379
  0
VERTEX
  8
1
 10
268.0681
 20
617.9527
  0
VERTEX
  8
1
 10
281.2364
 20
620.9764
  0
VERTEX
  8
1
 10
294.6271
 20
623.0514
  0
VERTEX
  8
1
 10
303.6050
 20
624.1392
  0
VERTEX
  8
1
 10
312.5479
 20
624.6755
  0
VERTEX
  8
1
 10
324.8297
 20
625.1599
  0
VERTEX
  8
1
 10
337.1663
 20
625.1169
  0
VERTEX
  8
1
 10
349.5808
 20
624.5700
  0
VERTEX
  8
1
 10
361.9507
 20
623.4385
  0
VERTEX
  8
1
 10
374.2732
 20
621.6270
  0
VERTEX
  8
1
 10
386.4940
 20
619.2081
  0
VERTEX
  8
1
 10
398.5371
 20
616.2192
  0
VERTEX
  8
1
 10
410.4378
 20
612.6946
  0
VERTEX
  8
1
 10
421.6490
 20
608.8134
  0
VERTEX
  8
1
 10
432.7234
 20
604.5406
  0
VERTEX
  8
1
 10
445.3139
 20
598.9982
  0
VERTEX
  8
1
 10
453.5085
 20
595.0999
  0
VERTEX
  8
1
 10
462.3709
 20
590.6996
  0
VERTEX
  8
1
 10
477.4289
 20
582.9039
  0
VERTEX
  8
1
 10
498.6369
 20
571.6311
  0
VERTEX
  8
1
 10
519.6696
 20
560.3376
  0
VERTEX
  8
1
 10
540.6244
 20
549.3928
  0
VERTEX
  8
1
 10
551.0818
 20
544.3036
  0
VERTEX
  8
1
 10
561.6852
 20
539.5413
  0
VERTEX
  8
1
 10
572.4551
 20
535.2826
  0
VERTEX
  8
1
 10
583.3738
 20
531.4117
  0
VERTEX
  8
1
 10
591.6807
 20
528.7100
  0
VERTEX
  8
1
 10
605.6729
 20
524.6470
  0
VERTEX
  8
1
 10
615.4811
 20
521.9685
  0
VERTEX
  8
1
 10
594.8734
 20
450.2843
  0
VERTEX
  8
1
 10
577.7220
 20
388.1953
  0
VERTEX
  8
1
 10
561.1897
 20
325.9189
  0
VERTEX
  8
1
 10
545.2588
 20
263.4857
  0
VERTEX
  8
1
 10
531.0060
 20
205.0732
  0
VERTEX
  8
1
 10
517.2208
 20
146.5469
  0
VERTEX
  8
1
 10
509.8132
 20
114.0271
  0
VERTEX
  8
1
 10
502.6221
 20
81.4578
  0
VERTEX
  8
1
 10
493.2629
 20
37.9453
  0
VERTEX
  8
1
 10
491.5936
 20
30.0000
  0
VERTEX
  8
1
 10
154.4849
 20
30.0000
  0
SEQEND
  0
POINT
  8
2
 10
154.4849
 20
30.0000
  0
TEXT
  8
2
 10
154.4849
 20
30.0000
 40
0.1000
 50
0.0000
  1
# 69
  0
POINT
  8
3
 10
152.8149
 20
37.9459
  0
POINT
  8
3
 10
143.4563
 20
81.4568
  0
POINT
  8
3
 10
136.2560
 20
114.0652
  0
POINT
  8
3
 10
128.8393
 20
146.6241
  0
POINT
  8
3
 10
115.0729
 20
205.0724
  0
POINT
  8
3
 10
100.8392
 20
263.4069
  0
POINT
  8
3
 10
84.9052
 20
325.8541
  0
POINT
  8
3
 10
68.3699
 20
388.1445
  0
POINT
  8
3
 10
51.2119
 20
450.2589
  0
POINT
  8
2
 10
30.0003
 20
524.0168
  0
TEXT
  8
2
 10
30.0003
 20
524.0168
 40
0.1000
 50
0.0000
  1
# 70
  0
POINT
  8
3
 10
42.2513
 20
524.9689
  0
POINT
  8
3
 10
66.2605
 20
527.8146
  0
POINT
  8
3
 10
89.5427
 20
533.1772
  0
POINT
  8
3
 10
111.5686
 20
541.2388
  0
POINT
  8
3
 10
132.9930
 20
551.0579
  0
POINT
  8
3
 10
146.2669
 20
557.9895
  0
POINT
  8
3
 10
159.2712
 20
565.4703
  0
POINT
  8
4
 10
176.7963
 20
575.7472
 30
19.9976
 39
0.0000
 50
300.7123
  0
TEXT
  8
4
 10
176.7963
 20
575.7472
 40
0.1000
 50
0.0000
  1
# 71
  0
POINT
  8
2
 10
176.7963
 20
575.7472
  0
TEXT
  8
2
 10
176.7963
 20
575.7472
 40
0.1000
 50
0.0000
  1
# 71
  0
POINT
  8
3
 10
191.6536
 20
584.6610
  0
POINT
  8
3
 10
206.7061
 20
593.4614
  0
POINT
  8
3
 10
222.1510
 20
601.4191
  0
POINT
  8
3
 10
244.8357
 20
610.4379
  0
POINT
  8
3
 10
268.0681
 20
617.9527
  0
POINT
  8
3
 10
281.2364
 20
620.9764
  0
POINT
  8
3
 10
294.6271
 20
623.0514
  0
POINT
  8
3
 10
303.6050
 20
624.1392
  0
POINT
  8
4
 10
312.5479
 20
624.6755
 30
19.9966
 39
0.0000
 50
272.7898
  0
TEXT
  8
4
 10
312.5479
 20
624.6755
 40
0.1000
 50
0.0000
  1
# 72
  0
POINT
  8
2
 10
312.5479
 20
624.6755
  0
TEXT
  8
2
 10
312.5479
 20
624.6755
 40
0.1000
 50
0.0000
  1
# 72
  0
POINT
  8
3
 10
324.8297
 20
625.1599
  0
POINT
  8
3
 10
337.1663
 20
625.1169
  0
POINT
  8
3
 10
349.5808
 20
624.5700
  0
POINT
  8
3
 10
361.9507
 20
623.4385
  0
POINT
  8
3
 10
374.2732
 20
621.6270
  0
POINT
  8
3
 10
386.4940
 20
619.2081
  0
POINT
  8
3
 10
398.5371
 20
616.2192
  0
POINT
  8
3
 10
410.4378
 20
612.6946
  0
POINT
  8
3
 10
421.6490
 20
608.8134
  0
POINT
  8
3
 10
432.7234
 20
604.5406
  0
POINT
  8
3
 10
445.3139
 20
598.9982
  0
POINT
  8
4
 10
453.5085
 20
595.0999
 30
19.9987
 39
0.0000
 50
243.9130
  0
TEXT
  8
4
 10
453.5085
 20
595.0999
 40
0.1000
 50
0.0000
  1
# 73
  0
POINT
  8
2
 10
453.5085
 20
595.0999
  0
TEXT
  8
2
 10
453.5085
 20
595.0999
 40
0.1000
 50
0.0000
  1
# 73
  0
POINT
  8
3
 10
462.3709
 20
590.6996
  0
POINT
  8
3
 10
477.4289
 20
582.9039
  0
POINT
  8
3
 10
498.6369
 20
571.6311
  0
POINT
  8
3
 10
519.6696
 20
560.3376
  0
POINT
  8
3
 10
540.6244
 20
549.3928
  0
POINT
  8
3
 10
551.0818
 20
544.3036
  0
POINT
  8
3
 10
561.6852
 20
539.5413
  0
POINT
  8
3
 10
572.4551
 20
535.2826
  0
POINT
  8
3
 10
583.3738
 20
531.4117
  0
POINT
  8
3
 10
591.6807
 20
528.7100
  0
POINT
  8
3
 10
605.6729
 20
524.6470
  0
POINT
  8
2
 10
615.4811
 20
521.9685
  0
TEXT
  8
2
 10
615.4811
 20
521.9685
 40
0.1000
 50
0.0000
  1
# 74
  0
POINT
  8
3
 10
594.8734
 20
450.2843
  0
POINT
  8
3
 10
577.7220
 20
388.1953
  0
POINT
  8
3
 10
561.1897
 20
325.9189
  0
POINT
  8
3
 10
545.2588
 20
263.4857
  0
POINT
  8
3
 10
531.0060
 20
205.0732
  0
POINT
  8
3
 10
517.2208
 20
146.5469
  0
POINT
  8
3
 10
509.8132
 20
114.0271
  0
POINT
  8
3
 10
502.6221
 20
81.4578
  0
POINT
  8
3
 10
493.2629
 20
37.9453
  0
POINT
  8
2
 10
491.5936
 20
30.0000
  0
TEXT
  8
2
 10
491.5936
 20
30.0000
 40
0.1000
 50
0.0000
  1
# 75
  0
POINT
  8
2
 10
154.4849
 20
30.0000
  0
POLYLINE
  8
8
 66
1
 70
1
  0
VERTEX
  8
8
 10
162.6012
 20
40.0026
  0
VERTEX
  8
8
 10
153.2239
 20
83.6000
  0
VERTEX
  8
8
 10
146.0121
 20
116.2599
  0
VERTEX
  8
8
 10
138.5838
 20
148.8703
  0
VERTEX
  8
8
 10
124.7945
 20
207.4158
  0
VERTEX
  8
8
 10
110.5370
 20
265.8474
  0
VERTEX
  8
8
 10
94.5807
 20
328.3813
  0
VERTEX
  8
8
 10
78.0223
 20
390.7581
  0
VERTEX
  8
8
 10
60.8393
 20
452.9627
  0
VERTEX
  8
8
 10
43.0391
 20
515.0001
  0
VERTEX
  8
8
 10
68.1009
 20
517.9883
  0
VERTEX
  8
8
 10
92.4062
 20
523.5941
  0
VERTEX
  8
8
 10
115.3987
 20
531.8961
  0
VERTEX
  8
8
 10
137.6695
 20
542.2155
  0
VERTEX
  8
8
 10
160.3716
 20
554.5712
  0
VERTEX
  8
8
 10
181.9035
 20
567.1498
  0
VERTEX
  8
8
 10
204.2711
 20
580.4776
  0
VERTEX
  8
8
 10
226.2738
 20
592.3071
  0
VERTEX
  8
8
 10
249.7975
 20
601.9261
  0
VERTEX
  8
8
 10
274.1000
 20
609.1721
  0
VERTEX
  8
8
 10
292.1709
 20
612.6373
  0
VERTEX
  8
8
 10
313.0347
 20
614.6866
  0
VERTEX
  8
8
 10
324.9887
 20
615.1591
  0
VERTEX
  8
8
 10
336.9302
 20
615.1196
  0
VERTEX
  8
8
 10
348.8718
 20
614.5952
  0
VERTEX
  8
8
 10
360.7703
 20
613.5081
  0
VERTEX
  8
8
 10
372.5920
 20
611.7700
  0
VERTEX
  8
8
 10
384.3156
 20
609.4481
  0
VERTEX
  8
8
 10
395.9148
 20
606.5738
  0
VERTEX
  8
8
 10
407.3737
 20
603.1754
  0
VERTEX
  8
8
 10
418.6714
 20
599.2859
  0
VERTEX
  8
8
 10
429.8004
 20
594.9313
  0
VERTEX
  8
8
 10
440.7292
 20
590.1026
  0
VERTEX
  8
8
 10
449.1110
 20
586.1185
  0
VERTEX
  8
8
 10
472.7881
 20
574.0460
  0
VERTEX
  8
8
 10
493.8954
 20
562.8266
  0
VERTEX
  8
8
 10
514.9554
 20
551.5186
  0
VERTEX
  8
8
 10
536.1430
 20
540.4531
  0
VERTEX
  8
8
 10
546.8927
 20
535.2244
  0
VERTEX
  8
8
 10
557.7917
 20
530.3301
  0
VERTEX
  8
8
 10
568.9039
 20
525.9354
  0
VERTEX
  8
8
 10
580.1688
 20
521.9391
  0
VERTEX
  8
8
 10
591.5424
 20
518.2879
  0
VERTEX
  8
8
 10
603.0391
 20
515.0001
  0
VERTEX
  8
8
 10
585.2390
 20
452.9627
  0
VERTEX
  8
8
 10
568.0558
 20
390.7581
  0
VERTEX
  8
8
 10
551.4976
 20
328.3813
  0
VERTEX
  8
8
 10
535.5414
 20
265.8474
  0
VERTEX
  8
8
 10
521.2837
 20
207.4158
  0
VERTEX
  8
8
 10
507.4942
 20
148.8702
  0
VERTEX
  8
8
 10
500.0658
 20
116.2597
  0
VERTEX
  8
8
 10
492.8542
 20
83.5997
  0
VERTEX
  8
8
 10
483.4763
 20
40.0000
  0
VERTEX
  8
8
 10
162.6012
 20
40.0026
  0
SEQEND
  0
POINT
  8
2
 10
162.6012
 20
40.0026
  0
TEXT
  8
2
 10
162.6012
 20
40.0026
 40
0.1000
 50
0.0000
  1
# 76
  0
POINT
  8
3
 10
153.2239
 20
83.6000
  0
POINT
  8
3
 10
146.0121
 20
116.2599
  0
POINT
  8
3
 10
138.5838
 20
148.8703
  0
POINT
  8
3
 10
124.7945
 20
207.4158
  0
POINT
  8
3
 10
110.5370
 20
265.8474
  0
POINT
  8
3
 10
94.5807
 20
328.3813
  0
POINT
  8
3
 10
78.0223
 20
390.7581
  0
POINT
  8
3
 10
60.8393
 20
452.9627
  0
POINT
  8
2
 10
43.0391
 20
515.0001
  0
TEXT
  8
2
 10
43.0391
 20
515.0001
 40
0.1000
 50
0.0000
  1
# 77
  0
POINT
  8
3
 10
68.1009
 20
517.9883
  0
POINT
  8
3
 10
92.4062
 20
523.5941
  0
POINT
  8
3
 10
115.3987
 20
531.8961
  0
POINT
  8
3
 10
137.6695
 20
542.2155
  0
POINT
  8
3
 10
160.3716
 20
554.5712
  0
POINT
  8
2
 10
181.9035
 20
567.1498
  0
TEXT
  8
2
 10
181.9035
 20
567.1498
 40
0.1000
 50
0.0000
  1
# 78
  0
POINT
  8
3
 10
204.2711
 20
580.4776
  0
POINT
  8
3
 10
226.2738
 20
592.3071
  0
POINT
  8
3
 10
249.7975
 20
601.9261
  0
POINT
  8
3
 10
274.1000
 20
609.1721
  0
POINT
  8
3
 10
292.1709
 20
612.6373
  0
POINT
  8
2
 10
313.0347
 20
614.6866
  0
TEXT
  8
2
 10
313.0347
 20
614.6866
 40
0.1000
 50
0.0000
  1
# 79
  0
POINT
  8
3
 10
324.9887
 20
615.1591
  0
POINT
  8
3
 10
336.9302
 20
615.1196
  0
POINT
  8
3
 10
348.8718
 20
614.5952
  0
POINT
  8
3
 10
360.7703
 20
613.5081
  0
POINT
  8
3
 10
372.5920
 20
611.7700
  0
POINT
  8
3
 10
384.3156
 20
609.4481
  0
POINT
  8
3
 10
395.9148
 20
606.5738
  0
POINT
  8
3
 10
407.3737
 20
603.1754
  0
POINT
  8
3
 10
418.6714
 20
599.2859
  0
POINT
  8
3
 10
429.8004
 20
594.9313
  0
POINT
  8
3
 10
440.7292
 20
590.1026
  0
POINT
  8
2
 10
449.1110
 20
586.1185
  0
TEXT
  8
2
 10
449.1110
 20
586.1185
 40
0.1000
 50
0.0000
  1
# 80
  0
POINT
  8
3
 10
472.7881
 20
574.0460
  0
POINT
  8
3
 10
493.8954
 20
562.8266
  0
POINT
  8
3
 10
514.9554
 20
551.5186
  0
POINT
  8
3
 10
536.1430
 20
540.4531
  0
POINT
  8
3
 10
546.8927
 20
535.2244
  0
POINT
  8
3
 10
557.7917
 20
530.3301
  0
POINT
  8
3
 10
568.9039
 20
525.9354
  0
POINT
  8
3
 10
580.1688
 20
521.9391
  0
POINT
  8
3
 10
591.5424
 20
518.2879
  0
POINT
  8
2
 10
603.0391
 20
515.0001
  0
TEXT
  8
2
 10
603.0391
 20
515.0001
 40
0.1000
 50
0.0000
  1
# 81
  0
POINT
  8
3
 10
585.2390
 20
452.9627
  0
POINT
  8
3
 10
568.0558
 20
390.7581
  0
POINT
  8
3
 10
551.4976
 20
328.3813
  0
POINT
  8
3
 10
535.5414
 20
265.8474
  0
POINT
  8
3
 10
521.2837
 20
207.4158
  0
POINT
  8
3
 10
507.4942
 20
148.8702
  0
POINT
  8
3
 10
500.0658
 20
116.2597
  0
POINT
  8
3
 10
492.8542
 20
83.5997
  0
POINT
  8
2
 10
483.4763
 20
40.0000
  0
TEXT
  8
2
 10
483.4763
 20
40.0000
 40
0.1000
 50
0.0000
  1
# 82
  0
POINT
  8
2
 10
162.6012
 20
40.0026
  0
LINE
  8
7
 10
267.4646
 20
432.1989
 11
267.4646
 21
250.8268
  0
POINT
  8
2
 10
267.4646
 20
432.1989
  0
TEXT
  8
2
 10
267.4646
 20
432.1989
 40
0.1000
 50
0.0000
  1
# 83
  0
POINT
  8
2
 10
267.4646
 20
250.8268
  0
TEXT
  8
2
 10
267.4646
 20
250.8268
 40
0.1000
 50
0.0000
  1
# 84
  0
LINE
  8
5
 10
267.4646
 20
432.1989
 11
267.4646
 21
250.8268
  0
LINE
  8
8
 10
323.0391
 20
615.0001
 11
323.0391
 21
40.0000
  0
POINT
  8
2
 10
323.0391
 20
615.0001
  0
TEXT
  8
2
 10
323.0391
 20
615.0001
 40
0.1000
 50
0.0000
  1
# 85
  0
POINT
  8
2
 10
323.0391
 20
40.0000
  0
TEXT
  8
2
 10
323.0391
 20
40.0000
 40
0.1000
 50
0.0000
  1
# 86
  0
LINE
  8
8
 10
453.6948
 20
572.7397
 11
462.4887
 21
590.7006
  0
POINT
  8
2
 10
453.6948
 20
572.7397
  0
TEXT
  8
2
 10
453.6948
 20
572.7397
 40
0.1000
 50
0.0000
  1
# 87
  0
POINT
  8
2
 10
462.4887
 20
590.7006
  0
TEXT
  8
2
 10
462.4887
 20
590.7006
 40
0.1000
 50
0.0000
  1
# 88
  0
ENDBLK
  0
BLOCK
  8
0
  2
BLK_4_M
 70
64
 10
0.0000
 20
0.0000
  0
TEXT
  8
1
 10
322.9148
 20
334.0375
 40
2.8000
 50
0.0000
  1
PIECE NAME: 4
  7
STANDARD
  0
TEXT
  8
1
 10
322.9148
 20
331.2375
 40
2.8000
 50
0.0000
  1
SIZE: M
  7
STANDARD
  0
TEXT
  8
1
 10
322.9148
 20
328.4376
 40
2.8000
 50
0.0000
  1
CATEGORY: 
  7
STANDARD
  0
TEXT
  8
1
 10
322.9148
 20
325.6375
 40
2.8000
 50
0.0000
  1
QUANTITY: 1
  7
STANDARD
  0
TEXT
  8
1
 10
322.9148
 20
322.8376
 40
2.8000
 50
0.0000
  1
ANNOTATION: 
  7
STANDARD
  0
TEXT
  8
1
 10
296.3767
 20
289.1698
 40
5.0000
 50
0.0000
  1
ANNOTATION: S/#5635-785
  7
STANDARD
  0
TEXT
  8
1
 10
316.3767
 20
282.1698
 40
5.0000
 50
0.0000
  1
ANNOTATION: <M>
  7
STANDARD
  0
TEXT
  8
1
 10
313.8767
 20
270.1698
 40
10.0000
 50
0.0000
  1
ANNOTATION: º“∏≈
  7
STANDARD
  0
POLYLINE
  8
1
 66
1
 70
1
  0
VERTEX
  8
1
 10
158.2075
 20
30.0000
  0
VERTEX
  8
1
 10
144.9476
 20
87.9985
  0
VERTEX
  8
1
 10
130.8215
 20
147.0412
  0
VERTEX
  8
1
 10
116.0932
 20
205.9388
  0
VERTEX
  8
1
 10
100.7723
 20
264.6851
  0
VERTEX
  8
1
 10
84.8632
 20
323.2884
  0
VERTEX
  8
1
 10
68.3718
 20
381.7306
  0
VERTEX
  8
1
 10
51.3121
 20
439.9778
  0
VERTEX
  8
1
 10
29.9995
 20
510.0017
  0
VERTEX
  8
1
 10
42.4440
 20
510.9690
  0
VERTEX
  8
1
 10
66.4535
 20
513.8146
  0
VERTEX
  8
1
 10
89.7359
 20
519.1774
  0
VERTEX
  8
1
 10
111.7648
 20
527.2404
  0
VERTEX
  8
1
 10
133.1921
 20
537.0609
  0
VERTEX
  8
1
 10
146.4648
 20
543.9921
  0
VERTEX
  8
1
 10
159.4677
 20
551.4724
  0
VERTEX
  8
1
 10
176.9889
 20
561.7473
  0
VERTEX
  8
1
 10
191.8595
 20
570.6688
  0
VERTEX
  8
1
 10
206.9062
 20
579.4655
  0
VERTEX
  8
1
 10
222.3452
 20
587.4197
  0
VERTEX
  8
1
 10
245.0291
 20
596.4380
  0
VERTEX
  8
1
 10
268.2606
 20
603.9526
  0
VERTEX
  8
1
 10
281.4294
 20
606.9764
  0
VERTEX
  8
1
 10
294.8200
 20
609.0515
  0
VERTEX
  8
1
 10
303.7981
 20
610.1392
  0
VERTEX
  8
1
 10
312.7407
 20
610.6750
  0
VERTEX
  8
1
 10
325.0216
 20
611.1599
  0
VERTEX
  8
1
 10
337.3577
 20
611.1169
  0
VERTEX
  8
1
 10
349.7732
 20
610.5700
  0
VERTEX
  8
1
 10
362.1441
 20
609.4384
  0
VERTEX
  8
1
 10
374.4698
 20
607.6262
  0
VERTEX
  8
1
 10
386.6935
 20
605.2066
  0
VERTEX
  8
1
 10
398.7342
 20
602.2181
  0
VERTEX
  8
1
 10
410.6324
 20
598.6940
  0
VERTEX
  8
1
 10
421.8380
 20
594.8148
  0
VERTEX
  8
1
 10
432.9067
 20
590.5444
  0
VERTEX
  8
1
 10
445.4851
 20
585.0083
  0
VERTEX
  8
1
 10
453.7011
 20
581.1000
  0
VERTEX
  8
1
 10
462.5651
 20
576.6989
  0
VERTEX
  8
1
 10
477.6832
 20
568.8716
  0
VERTEX
  8
1
 10
498.8460
 20
557.6223
  0
VERTEX
  8
1
 10
519.8624
 20
546.3376
  0
VERTEX
  8
1
 10
540.8243
 20
535.3892
  0
VERTEX
  8
1
 10
551.2762
 20
530.3029
  0
VERTEX
  8
1
 10
561.8740
 20
525.5430
  0
VERTEX
  8
1
 10
572.6386
 20
521.2859
  0
VERTEX
  8
1
 10
583.5517
 20
517.4167
  0
VERTEX
  8
1
 10
591.8643
 20
514.7131
  0
VERTEX
  8
1
 10
605.8657
 20
510.6470
  0
VERTEX
  8
1
 10
615.8260
 20
507.9269
  0
VERTEX
  8
1
 10
595.1447
 20
439.9529
  0
VERTEX
  8
1
 10
578.0776
 20
381.6808
  0
VERTEX
  8
1
 10
561.6006
 20
323.2892
  0
VERTEX
  8
1
 10
545.7052
 20
264.7367
  0
VERTEX
  8
1
 10
530.3808
 20
205.9781
  0
VERTEX
  8
1
 10
515.6489
 20
147.0683
  0
VERTEX
  8
1
 10
501.5192
 20
88.0122
  0
VERTEX
  8
1
 10
488.2567
 20
30.0000
  0
VERTEX
  8
1
 10
158.2075
 20
30.0000
  0
SEQEND
  0
POINT
  8
2
 10
158.2075
 20
30.0000
  0
TEXT
  8
2
 10
158.2075
 20
30.0000
 40
0.1000
 50
0.0000
  1
# 89
  0
POINT
  8
3
 10
144.9476
 20
87.9985
  0
POINT
  8
3
 10
130.8215
 20
147.0412
  0
POINT
  8
3
 10
116.0932
 20
205.9388
  0
POINT
  8
3
 10
100.7723
 20
264.6851
  0
POINT
  8
3
 10
84.8632
 20
323.2884
  0
POINT
  8
3
 10
68.3718
 20
381.7306
  0
POINT
  8
3
 10
51.3121
 20
439.9778
  0
POINT
  8
2
 10
29.9995
 20
510.0017
  0
TEXT
  8
2
 10
29.9995
 20
510.0017
 40
0.1000
 50
0.0000
  1
# 90
  0
POINT
  8
3
 10
42.4440
 20
510.9690
  0
POINT
  8
3
 10
66.4535
 20
513.8146
  0
POINT
  8
3
 10
89.7359
 20
519.1774
  0
POINT
  8
3
 10
111.7648
 20
527.2404
  0
POINT
  8
3
 10
133.1921
 20
537.0609
  0
POINT
  8
3
 10
146.4648
 20
543.9921
  0
POINT
  8
3
 10
159.4677
 20
551.4724
  0
POINT
  8
4
 10
176.9889
 20
561.7473
 30
19.9977
 39
0.0000
 50
300.7123
  0
TEXT
  8
4
 10
176.9889
 20
561.7473
 40
0.1000
 50
0.0000
  1
# 91
  0
POINT
  8
2
 10
176.9889
 20
561.7473
  0
TEXT
  8
2
 10
176.9889
 20
561.7473
 40
0.1000
 50
0.0000
  1
# 91
  0
POINT
  8
3
 10
191.8595
 20
570.6688
  0
POINT
  8
3
 10
206.9062
 20
579.4655
  0
POINT
  8
3
 10
222.3452
 20
587.4197
  0
POINT
  8
3
 10
245.0291
 20
596.4380
  0
POINT
  8
3
 10
268.2606
 20
603.9526
  0
POINT
  8
3
 10
281.4294
 20
606.9764
  0
POINT
  8
3
 10
294.8200
 20
609.0515
  0
POINT
  8
3
 10
303.7981
 20
610.1392
  0
POINT
  8
4
 10
312.7407
 20
610.6750
 30
19.9975
 39
0.0000
 50
272.7898
  0
TEXT
  8
4
 10
312.7407
 20
610.6750
 40
0.1000
 50
0.0000
  1
# 92
  0
POINT
  8
2
 10
312.7407
 20
610.6750
  0
TEXT
  8
2
 10
312.7407
 20
610.6750
 40
0.1000
 50
0.0000
  1
# 92
  0
POINT
  8
3
 10
325.0216
 20
611.1599
  0
POINT
  8
3
 10
337.3577
 20
611.1169
  0
POINT
  8
3
 10
349.7732
 20
610.5700
  0
POINT
  8
3
 10
362.1441
 20
609.4384
  0
POINT
  8
3
 10
374.4698
 20
607.6262
  0
POINT
  8
3
 10
386.6935
 20
605.2066
  0
POINT
  8
3
 10
398.7342
 20
602.2181
  0
POINT
  8
3
 10
410.6324
 20
598.6940
  0
POINT
  8
3
 10
421.8380
 20
594.8148
  0
POINT
  8
3
 10
432.9067
 20
590.5444
  0
POINT
  8
3
 10
445.4851
 20
585.0083
  0
POINT
  8
4
 10
453.7011
 20
581.1000
 30
19.9986
 39
0.0000
 50
243.9129
  0
TEXT
  8
4
 10
453.7011
 20
581.1000
 40
0.1000
 50
0.0000
  1
# 93
  0
POINT
  8
2
 10
453.7011
 20
581.1000
  0
TEXT
  8
2
 10
453.7011
 20
581.1000
 40
0.1000
 50
0.0000
  1
# 93
  0
POINT
  8
3
 10
462.5651
 20
576.6989
  0
POINT
  8
3
 10
477.6832
 20
568.8716
  0
POINT
  8
3
 10
498.8460
 20
557.6223
  0
POINT
  8
3
 10
519.8624
 20
546.3376
  0
POINT
  8
3
 10
540.8243
 20
535.3892
  0
POINT
  8
3
 10
551.2762
 20
530.3029
  0
POINT
  8
3
 10
561.8740
 20
525.5430
  0
POINT
  8
3
 10
572.6386
 20
521.2859
  0
POINT
  8
3
 10
583.5517
 20
517.4167
  0
POINT
  8
3
 10
591.8643
 20
514.7131
  0
POINT
  8
3
 10
605.8657
 20
510.6470
  0
POINT
  8
2
 10
615.8260
 20
507.9269
  0
TEXT
  8
2
 10
615.8260
 20
507.9269
 40
0.1000
 50
0.0000
  1
# 94
  0
POINT
  8
3
 10
595.1447
 20
439.9529
  0
POINT
  8
3
 10
578.0776
 20
381.6808
  0
POINT
  8
3
 10
561.6006
 20
323.2892
  0
POINT
  8
3
 10
545.7052
 20
264.7367
  0
POINT
  8
3
 10
530.3808
 20
205.9781
  0
POINT
  8
3
 10
515.6489
 20
147.0683
  0
POINT
  8
3
 10
501.5192
 20
88.0122
  0
POINT
  8
2
 10
488.2567
 20
30.0000
  0
TEXT
  8
2
 10
488.2567
 20
30.0000
 40
0.1000
 50
0.0000
  1
# 95
  0
POINT
  8
2
 10
158.2075
 20
30.0000
  0
POLYLINE
  8
8
 66
1
 70
1
  0
VERTEX
  8
8
 10
168.2319
 20
31.0001
  0
VERTEX
  8
8
 10
154.6832
 20
90.2831
  0
VERTEX
  8
8
 10
140.5346
 20
149.4192
  0
VERTEX
  8
8
 10
125.7829
 20
208.4109
  0
VERTEX
  8
8
 10
110.4375
 20
267.2512
  0
VERTEX
  8
8
 10
94.5065
 20
325.9355
  0
VERTEX
  8
8
 10
77.9926
 20
384.4585
  0
VERTEX
  8
8
 10
60.9018
 20
442.8125
  0
VERTEX
  8
8
 10
43.2319
 20
501.0001
  0
VERTEX
  8
8
 10
68.2936
 20
503.9883
  0
VERTEX
  8
8
 10
92.5990
 20
509.5940
  0
VERTEX
  8
8
 10
115.5915
 20
517.8960
  0
VERTEX
  8
8
 10
137.8623
 20
528.2155
  0
VERTEX
  8
8
 10
160.5642
 20
540.5711
  0
VERTEX
  8
8
 10
182.0963
 20
553.1497
  0
VERTEX
  8
8
 10
204.4639
 20
566.4777
  0
VERTEX
  8
8
 10
226.4666
 20
578.3071
  0
VERTEX
  8
8
 10
249.9903
 20
587.9261
  0
VERTEX
  8
8
 10
274.2928
 20
595.1721
  0
VERTEX
  8
8
 10
292.3638
 20
598.6375
  0
VERTEX
  8
8
 10
313.2274
 20
600.6866
  0
VERTEX
  8
8
 10
325.1815
 20
601.1591
  0
VERTEX
  8
8
 10
337.1230
 20
601.1196
  0
VERTEX
  8
8
 10
349.0645
 20
600.5953
  0
VERTEX
  8
8
 10
360.9630
 20
599.5081
  0
VERTEX
  8
8
 10
372.7849
 20
597.7700
  0
VERTEX
  8
8
 10
384.5084
 20
595.4481
  0
VERTEX
  8
8
 10
396.1077
 20
592.5737
  0
VERTEX
  8
8
 10
407.5664
 20
589.1754
  0
VERTEX
  8
8
 10
418.8642
 20
585.2859
  0
VERTEX
  8
8
 10
429.9932
 20
580.9313
  0
VERTEX
  8
8
 10
440.9221
 20
576.1026
  0
VERTEX
  8
8
 10
449.3036
 20
572.1187
  0
VERTEX
  8
8
 10
472.9809
 20
560.0460
  0
VERTEX
  8
8
 10
494.0882
 20
548.8266
  0
VERTEX
  8
8
 10
515.1483
 20
537.5186
  0
VERTEX
  8
8
 10
536.3358
 20
526.4531
  0
VERTEX
  8
8
 10
547.0855
 20
521.2244
  0
VERTEX
  8
8
 10
557.9846
 20
516.3301
  0
VERTEX
  8
8
 10
569.0966
 20
511.9354
  0
VERTEX
  8
8
 10
580.3616
 20
507.9392
  0
VERTEX
  8
8
 10
591.7352
 20
504.2879
  0
VERTEX
  8
8
 10
603.2319
 20
501.0001
  0
VERTEX
  8
8
 10
585.5621
 20
442.8125
  0
VERTEX
  8
8
 10
568.4711
 20
384.4585
  0
VERTEX
  8
8
 10
551.9573
 20
325.9355
  0
VERTEX
  8
8
 10
536.0264
 20
267.2512
  0
VERTEX
  8
8
 10
520.6811
 20
208.4109
  0
VERTEX
  8
8
 10
505.9290
 20
149.4192
  0
VERTEX
  8
8
 10
491.7805
 20
90.2831
  0
VERTEX
  8
8
 10
478.2319
 20
31.0001
  0
VERTEX
  8
8
 10
168.2319
 20
31.0001
  0
SEQEND
  0
POINT
  8
2
 10
168.2319
 20
31.0001
  0
TEXT
  8
2
 10
168.2319
 20
31.0001
 40
0.1000
 50
0.0000
  1
# 96
  0
POINT
  8
3
 10
154.6832
 20
90.2831
  0
POINT
  8
3
 10
140.5346
 20
149.4192
  0
POINT
  8
3
 10
125.7829
 20
208.4109
  0
POINT
  8
3
 10
110.4375
 20
267.2512
  0
POINT
  8
3
 10
94.5065
 20
325.9355
  0
POINT
  8
3
 10
77.9926
 20
384.4585
  0
POINT
  8
3
 10
60.9018
 20
442.8125
  0
POINT
  8
2
 10
43.2319
 20
501.0001
  0
TEXT
  8
2
 10
43.2319
 20
501.0001
 40
0.1000
 50
0.0000
  1
# 97
  0
POINT
  8
3
 10
68.2936
 20
503.9883
  0
POINT
  8
3
 10
92.5990
 20
509.5940
  0
POINT
  8
3
 10
115.5915
 20
517.8960
  0
POINT
  8
3
 10
137.8623
 20
528.2155
  0
POINT
  8
3
 10
160.5642
 20
540.5711
  0
POINT
  8
2
 10
182.0963
 20
553.1497
  0
TEXT
  8
2
 10
182.0963
 20
553.1497
 40
0.1000
 50
0.0000
  1
# 98
  0
POINT
  8
3
 10
204.4639
 20
566.4777
  0
POINT
  8
3
 10
226.4666
 20
578.3071
  0
POINT
  8
3
 10
249.9903
 20
587.9261
  0
POINT
  8
3
 10
274.2928
 20
595.1721
  0
POINT
  8
3
 10
292.3638
 20
598.6375
  0
POINT
  8
2
 10
313.2274
 20
600.6866
  0
TEXT
  8
2
 10
313.2274
 20
600.6866
 40
0.1000
 50
0.0000
  1
# 99
  0
POINT
  8
3
 10
325.1815
 20
601.1591
  0
POINT
  8
3
 10
337.1230
 20
601.1196
  0
POINT
  8
3
 10
349.0645
 20
600.5953
  0
POINT
  8
3
 10
360.9630
 20
599.5081
  0
POINT
  8
3
 10
372.7849
 20
597.7700
  0
POINT
  8
3
 10
384.5084
 20
595.4481
  0
POINT
  8
3
 10
396.1077
 20
592.5737
  0
POINT
  8
3
 10
407.5664
 20
589.1754
  0
POINT
  8
3
 10
418.8642
 20
585.2859
  0
POINT
  8
3
 10
429.9932
 20
580.9313
  0
POINT
  8
3
 10
440.9221
 20
576.1026
  0
POINT
  8
2
 10
449.3036
 20
572.1187
  0
TEXT
  8
2
 10
449.3036
 20
572.1187
 40
0.1000
 50
0.0000
  1
# 100
  0
POINT
  8
3
 10
472.9809
 20
560.0460
  0
POINT
  8
3
 10
494.0882
 20
548.8266
  0
POINT
  8
3
 10
515.1483
 20
537.5186
  0
POINT
  8
3
 10
536.3358
 20
526.4531
  0
POINT
  8
3
 10
547.0855
 20
521.2244
  0
POINT
  8
3
 10
557.9846
 20
516.3301
  0
POINT
  8
3
 10
569.0966
 20
511.9354
  0
POINT
  8
3
 10
580.3616
 20
507.9392
  0
POINT
  8
3
 10
591.7352
 20
504.2879
  0
POINT
  8
2
 10
603.2319
 20
501.0001
  0
TEXT
  8
2
 10
603.2319
 20
501.0001
 40
0.1000
 50
0.0000
  1
# 101
  0
POINT
  8
3
 10
585.5621
 20
442.8125
  0
POINT
  8
3
 10
568.4711
 20
384.4585
  0
POINT
  8
3
 10
551.9573
 20
325.9355
  0
POINT
  8
3
 10
536.0264
 20
267.2512
  0
POINT
  8
3
 10
520.6811
 20
208.4109
  0
POINT
  8
3
 10
505.9290
 20
149.4192
  0
POINT
  8
3
 10
491.7805
 20
90.2831
  0
POINT
  8
2
 10
478.2319
 20
31.0001
  0
TEXT
  8
2
 10
478.2319
 20
31.0001
 40
0.1000
 50
0.0000
  1
# 102
  0
POINT
  8
2
 10
168.2319
 20
31.0001
  0
LINE
  8
7
 10
364.9178
 20
442.6921
 11
364.9178
 21
188.3706
  0
POINT
  8
2
 10
364.9178
 20
442.6921
  0
TEXT
  8
2
 10
364.9178
 20
442.6921
 40
0.1000
 50
0.0000
  1
# 103
  0
POINT
  8
2
 10
364.9178
 20
188.3706
  0
TEXT
  8
2
 10
364.9178
 20
188.3706
 40
0.1000
 50
0.0000
  1
# 104
  0
LINE
  8
5
 10
364.9178
 20
442.6921
 11
364.9178
 21
188.3706
  0
LINE
  8
8
 10
323.2319
 20
601.0001
 11
323.2319
 21
31.0001
  0
POINT
  8
2
 10
323.2319
 20
601.0001
  0
TEXT
  8
2
 10
323.2319
 20
601.0001
 40
0.1000
 50
0.0000
  1
# 105
  0
POINT
  8
2
 10
323.2319
 20
31.0001
  0
TEXT
  8
2
 10
323.2319
 20
31.0001
 40
0.1000
 50
0.0000
  1
# 106
  0
LINE
  8
8
 10
453.8875
 20
558.7397
 11
462.6815
 21
576.7006
  0
POINT
  8
2
 10
453.8875
 20
558.7397
  0
TEXT
  8
2
 10
453.8875
 20
558.7397
 40
0.1000
 50
0.0000
  1
# 107
  0
POINT
  8
2
 10
462.6815
 20
576.7006
  0
TEXT
  8
2
 10
462.6815
 20
576.7006
 40
0.1000
 50
0.0000
  1
# 108
  0
LINE
  8
8
 10
168.2319
 20
41.0001
 11
478.2319
 21
41.0001
  0
POINT
  8
2
 10
168.2319
 20
41.0001
  0
TEXT
  8
2
 10
168.2319
 20
41.0001
 40
0.1000
 50
0.0000
  1
# 109
  0
POINT
  8
2
 10
478.2319
 20
41.0001
  0
TEXT
  8
2
 10
478.2319
 20
41.0001
 40
0.1000
 50
0.0000
  1
# 110
  0
ENDBLK
  0
BLOCK
  8
0
  2
BLK_5_M
 70
64
 10
0.0000
 20
0.0000
  0
TEXT
  8
1
 10
231.4126
 20
433.3415
 40
2.8000
 50
0.0000
  1
PIECE NAME: 5
  7
STANDARD
  0
TEXT
  8
1
 10
231.4126
 20
430.5414
 40
2.8000
 50
0.0000
  1
SIZE: M
  7
STANDARD
  0
TEXT
  8
1
 10
231.4126
 20
427.7415
 40
2.8000
 50
0.0000
  1
CATEGORY: 
  7
STANDARD
  0
TEXT
  8
1
 10
231.4126
 20
424.9415
 40
2.8000
 50
0.0000
  1
QUANTITY: 1
  7
STANDARD
  0
TEXT
  8
1
 10
231.4126
 20
422.1415
 40
2.8000
 50
0.0000
  1
ANNOTATION: 
  7
STANDARD
  0
TEXT
  8
1
 10
175.0026
 20
360.1389
 40
5.0000
 50
0.0000
  1
ANNOTATION: S/#5635-785
  7
STANDARD
  0
TEXT
  8
1
 10
195.0026
 20
353.1389
 40
5.0000
 50
0.0000
  1
ANNOTATION: <M>
  7
STANDARD
  0
TEXT
  8
1
 10
192.5026
 20
341.1388
 40
10.0000
 50
0.0000
  1
ANNOTATION: æ’∆«
  7
STANDARD
  0
POLYLINE
  8
1
 66
1
 70
1
  0
VERTEX
  8
1
 10
30.0000
 20
30.0000
  0
VERTEX
  8
1
 10
30.6731
 20
41.4448
  0
VERTEX
  8
1
 10
32.7375
 20
80.1531
  0
VERTEX
  8
1
 10
34.2374
 20
118.8791
  0
VERTEX
  8
1
 10
35.1794
 20
157.6129
  0
VERTEX
  8
1
 10
35.5428
 20
196.3560
  0
VERTEX
  8
1
 10
35.3229
 20
235.0883
  0
VERTEX
  8
1
 10
34.4788
 20
273.8110
  0
VERTEX
  8
1
 10
32.9630
 20
312.5086
  0
VERTEX
  8
1
 10
30.2106
 20
360.4740
  0
VERTEX
  8
1
 10
39.3981
 20
361.7151
  0
VERTEX
  8
1
 10
49.6251
 20
363.8532
  0
VERTEX
  8
1
 10
58.8824
 20
367.7841
  0
VERTEX
  8
1
 10
67.4106
 20
373.5630
  0
VERTEX
  8
1
 10
74.7326
 20
380.8561
  0
VERTEX
  8
1
 10
81.1493
 20
389.9682
  0
VERTEX
  8
1
 10
86.1018
 20
400.0071
  0
VERTEX
  8
1
 10
89.4967
 20
410.8490
  0
VERTEX
  8
1
 10
91.8275
 20
422.0652
  0
VERTEX
  8
1
 10
93.8074
 20
433.7775
  0
VERTEX
  8
1
 10
95.2011
 20
445.5801
  0
VERTEX
  8
1
 10
96.1176
 20
457.6708
  0
VERTEX
  8
1
 10
96.4930
 20
469.2267
  0
VERTEX
  8
1
 10
96.4983
 20
469.5782
  0
VERTEX
  8
1
 10
95.4397
 20
492.2155
  0
VERTEX
  8
1
 10
93.6239
 20
515.0060
  0
VERTEX
  8
1
 10
91.0577
 20
537.7332
  0
VERTEX
  8
1
 10
87.7612
 20
560.3759
  0
VERTEX
  8
1
 10
83.7630
 20
582.9117
  0
VERTEX
  8
1
 10
79.0744
 20
605.3522
  0
VERTEX
  8
1
 10
77.2145
 20
613.7013
  0
VERTEX
  8
1
 10
237.0190
 20
676.5751
  0
VERTEX
  8
1
 10
151.9433
 20
729.2042
  0
VERTEX
  8
1
 10
204.5743
 20
814.2830
  0
VERTEX
  8
1
 10
213.0921
 20
808.9641
  0
VERTEX
  8
1
 10
248.4517
 20
786.6708
  0
VERTEX
  8
1
 10
283.6014
 20
764.0199
  0
VERTEX
  8
1
 10
318.6027
 20
741.1262
  0
VERTEX
  8
1
 10
353.2558
 20
718.1178
  0
VERTEX
  8
1
 10
370.6836
 20
707.1448
  0
VERTEX
  8
1
 10
388.3733
 20
696.6121
  0
VERTEX
  8
1
 10
401.8471
 20
689.1359
  0
VERTEX
  8
1
 10
424.7035
 20
677.3828
  0
VERTEX
  8
1
 10
432.8188
 20
673.3679
  0
VERTEX
  8
1
 10
429.6271
 20
664.8951
  0
VERTEX
  8
1
 10
420.2584
 20
638.5146
  0
VERTEX
  8
1
 10
412.2617
 20
611.7616
  0
VERTEX
  8
1
 10
405.6380
 20
584.6486
  0
VERTEX
  8
1
 10
400.3962
 20
557.2343
  0
VERTEX
  8
1
 10
396.6265
 20
529.5200
  0
VERTEX
  8
1
 10
394.0597
 20
501.6513
  0
VERTEX
  8
1
 10
392.5513
 20
473.5023
  0
VERTEX
  8
1
 10
391.7358
 20
445.3088
  0
VERTEX
  8
1
 10
391.1857
 20
416.9533
  0
VERTEX
  8
1
 10
390.8907
 20
388.5918
  0
VERTEX
  8
1
 10
390.5971
 20
331.7983
  0
VERTEX
  8
1
 10
390.5971
 20
48.3598
  0
VERTEX
  8
1
 10
360.7532
 20
48.3598
  0
VERTEX
  8
1
 10
307.6261
 20
46.5339
  0
VERTEX
  8
1
 10
254.3273
 20
44.2398
  0
VERTEX
  8
1
 10
201.0711
 20
41.4998
  0
VERTEX
  8
1
 10
147.8271
 20
38.3727
  0
VERTEX
  8
1
 10
94.6138
 20
34.8388
  0
VERTEX
  8
1
 10
41.4309
 20
30.8877
  0
VERTEX
  8
1
 10
30.0000
 20
30.0000
  0
SEQEND
  0
POINT
  8
2
 10
30.0000
 20
30.0000
  0
TEXT
  8
2
 10
30.0000
 20
30.0000
 40
0.1000
 50
0.0000
  1
# 111
  0
POINT
  8
3
 10
30.6731
 20
41.4448
  0
POINT
  8
3
 10
32.7375
 20
80.1531
  0
POINT
  8
3
 10
34.2374
 20
118.8791
  0
POINT
  8
3
 10
35.1794
 20
157.6129
  0
POINT
  8
3
 10
35.5428
 20
196.3560
  0
POINT
  8
3
 10
35.3229
 20
235.0883
  0
POINT
  8
3
 10
34.4788
 20
273.8110
  0
POINT
  8
3
 10
32.9630
 20
312.5086
  0
POINT
  8
2
 10
30.2106
 20
360.4740
  0
TEXT
  8
2
 10
30.2106
 20
360.4740
 40
0.1000
 50
0.0000
  1
# 112
  0
POINT
  8
3
 10
39.3981
 20
361.7151
  0
POINT
  8
3
 10
49.6251
 20
363.8532
  0
POINT
  8
3
 10
58.8824
 20
367.7841
  0
POINT
  8
3
 10
67.4106
 20
373.5630
  0
POINT
  8
3
 10
74.7326
 20
380.8561
  0
POINT
  8
3
 10
81.1493
 20
389.9682
  0
POINT
  8
3
 10
86.1018
 20
400.0071
  0
POINT
  8
3
 10
89.4967
 20
410.8490
  0
POINT
  8
3
 10
91.8275
 20
422.0652
  0
POINT
  8
3
 10
93.8074
 20
433.7775
  0
POINT
  8
3
 10
95.2011
 20
445.5801
  0
POINT
  8
3
 10
96.1176
 20
457.6708
  0
POINT
  8
4
 10
96.4930
 20
469.2267
 30
19.9641
 39
0.0000
 50
2.4906
  0
TEXT
  8
4
 10
96.4930
 20
469.2267
 40
0.1000
 50
0.0000
  1
# 113
  0
POINT
  8
2
 10
96.4930
 20
469.2267
  0
TEXT
  8
2
 10
96.4930
 20
469.2267
 40
0.1000
 50
0.0000
  1
# 113
  0
POINT
  8
2
 10
96.4983
 20
469.5782
  0
TEXT
  8
2
 10
96.4983
 20
469.5782
 40
0.1000
 50
0.0000
  1
# 114
  0
POINT
  8
3
 10
95.4397
 20
492.2155
  0
POINT
  8
3
 10
93.6239
 20
515.0060
  0
POINT
  8
3
 10
91.0577
 20
537.7332
  0
POINT
  8
3
 10
87.7612
 20
560.3759
  0
POINT
  8
3
 10
83.7630
 20
582.9117
  0
POINT
  8
3
 10
79.0744
 20
605.3522
  0
POINT
  8
2
 10
77.2145
 20
613.7013
  0
TEXT
  8
2
 10
77.2145
 20
613.7013
 40
0.1000
 50
0.0000
  1
# 115
  0
POINT
  8
2
 10
237.0190
 20
676.5751
  0
TEXT
  8
2
 10
237.0190
 20
676.5751
 40
0.1000
 50
0.0000
  1
# 116
  0
POINT
  8
2
 10
151.9433
 20
729.2042
  0
TEXT
  8
2
 10
151.9433
 20
729.2042
 40
0.1000
 50
0.0000
  1
# 117
  0
POINT
  8
2
 10
204.5743
 20
814.2830
  0
TEXT
  8
2
 10
204.5743
 20
814.2830
 40
0.1000
 50
0.0000
  1
# 118
  0
POINT
  8
3
 10
213.0921
 20
808.9641
  0
POINT
  8
3
 10
248.4517
 20
786.6708
  0
POINT
  8
3
 10
283.6014
 20
764.0199
  0
POINT
  8
3
 10
318.6027
 20
741.1262
  0
POINT
  8
3
 10
353.2558
 20
718.1178
  0
POINT
  8
3
 10
370.6836
 20
707.1448
  0
POINT
  8
3
 10
388.3733
 20
696.6121
  0
POINT
  8
3
 10
401.8471
 20
689.1359
  0
POINT
  8
3
 10
424.7035
 20
677.3828
  0
POINT
  8
2
 10
432.8188
 20
673.3679
  0
TEXT
  8
2
 10
432.8188
 20
673.3679
 40
0.1000
 50
0.0000
  1
# 119
  0
POINT
  8
3
 10
429.6271
 20
664.8951
  0
POINT
  8
3
 10
420.2584
 20
638.5146
  0
POINT
  8
3
 10
412.2617
 20
611.7616
  0
POINT
  8
3
 10
405.6380
 20
584.6486
  0
POINT
  8
3
 10
400.3962
 20
557.2343
  0
POINT
  8
3
 10
396.6265
 20
529.5200
  0
POINT
  8
3
 10
394.0597
 20
501.6513
  0
POINT
  8
3
 10
392.5513
 20
473.5023
  0
POINT
  8
3
 10
391.7358
 20
445.3088
  0
POINT
  8
3
 10
391.1857
 20
416.9533
  0
POINT
  8
3
 10
390.8907
 20
388.5918
  0
POINT
  8
2
 10
390.5971
 20
331.7983
  0
TEXT
  8
2
 10
390.5971
 20
331.7983
 40
0.1000
 50
0.0000
  1
# 120
  0
POINT
  8
2
 10
390.5971
 20
48.3598
  0
TEXT
  8
2
 10
390.5971
 20
48.3598
 40
0.1000
 50
0.0000
  1
# 121
  0
POINT
  8
2
 10
360.7532
 20
48.3598
  0
TEXT
  8
2
 10
360.7532
 20
48.3598
 40
0.1000
 50
0.0000
  1
# 122
  0
POINT
  8
3
 10
307.6261
 20
46.5339
  0
POINT
  8
3
 10
254.3273
 20
44.2398
  0
POINT
  8
3
 10
201.0711
 20
41.4998
  0
POINT
  8
3
 10
147.8271
 20
38.3727
  0
POINT
  8
3
 10
94.6138
 20
34.8388
  0
POINT
  8
3
 10
41.4309
 20
30.8877
  0
POINT
  8
2
 10
30.0000
 20
30.0000
  0
POLYLINE
  8
8
 66
1
 70
1
  0
VERTEX
  8
8
 10
40.6558
 20
40.8576
  0
VERTEX
  8
8
 10
42.7274
 20
79.7005
  0
VERTEX
  8
8
 10
44.2324
 20
118.5612
  0
VERTEX
  8
8
 10
45.1780
 20
157.4438
  0
VERTEX
  8
8
 10
45.5428
 20
196.3358
  0
VERTEX
  8
8
 10
45.3219
 20
235.2293
  0
VERTEX
  8
8
 10
44.4742
 20
274.1132
  0
VERTEX
  8
8
 10
42.9523
 20
312.9716
  0
VERTEX
  8
8
 10
40.7719
 20
351.8100
  0
VERTEX
  8
8
 10
52.7998
 20
354.3637
  0
VERTEX
  8
8
 10
63.6914
 20
359.0131
  0
VERTEX
  8
8
 10
73.7457
 20
365.8390
  0
VERTEX
  8
8
 10
82.3965
 20
374.4285
  0
VERTEX
  8
8
 10
89.7231
 20
384.8373
  0
VERTEX
  8
8
 10
95.3938
 20
396.3047
  0
VERTEX
  8
8
 10
99.1114
 20
408.0651
  0
VERTEX
  8
8
 10
101.6595
 20
420.2400
  0
VERTEX
  8
8
 10
103.7177
 20
432.3853
  0
VERTEX
  8
8
 10
105.1557
 20
444.6273
  0
VERTEX
  8
8
 10
106.1032
 20
457.1176
  0
VERTEX
  8
8
 10
106.5008
 20
469.6620
  0
VERTEX
  8
8
 10
105.4204
 20
492.8368
  0
VERTEX
  8
8
 10
103.5780
 20
515.9632
  0
VERTEX
  8
8
 10
100.9750
 20
539.0165
  0
VERTEX
  8
8
 10
97.6326
 20
561.9744
  0
VERTEX
  8
8
 10
93.5798
 20
584.8175
  0
VERTEX
  8
8
 10
88.8350
 20
607.5272
  0
VERTEX
  8
8
 10
259.2557
 20
674.5778
  0
VERTEX
  8
8
 10
165.7085
 20
732.4476
  0
VERTEX
  8
8
 10
207.7956
 20
800.4820
  0
VERTEX
  8
8
 10
243.0871
 20
778.2315
  0
VERTEX
  8
8
 10
278.1563
 20
755.6324
  0
VERTEX
  8
8
 10
313.0713
 20
732.7954
  0
VERTEX
  8
8
 10
347.8281
 20
709.7189
  0
VERTEX
  8
8
 10
365.4822
 20
698.6049
  0
VERTEX
  8
8
 10
383.4008
 20
687.9359
  0
VERTEX
  8
8
 10
401.6730
 20
677.8941
  0
VERTEX
  8
8
 10
420.2689
 20
668.4199
  0
VERTEX
  8
8
 10
410.7421
 20
641.5907
  0
VERTEX
  8
8
 10
402.6111
 20
614.3826
  0
VERTEX
  8
8
 10
395.8661
 20
586.7662
  0
VERTEX
  8
8
 10
390.5262
 20
558.8433
  0
VERTEX
  8
8
 10
386.6953
 20
530.6784
  0
VERTEX
  8
8
 10
384.0844
 20
502.3569
  0
VERTEX
  8
8
 10
382.5614
 20
473.9715
  0
VERTEX
  8
8
 10
381.7385
 20
445.5411
  0
VERTEX
  8
8
 10
381.1865
 20
417.1120
  0
VERTEX
  8
8
 10
380.8910
 20
388.6769
  0
VERTEX
  8
8
 10
380.5971
 20
331.8077
  0
VERTEX
  8
8
 10
380.5971
 20
58.3598
  0
VERTEX
  8
8
 10
360.5972
 20
58.3597
  0
VERTEX
  8
8
 10
307.2206
 20
56.5257
  0
VERTEX
  8
8
 10
253.8618
 20
54.2290
  0
VERTEX
  8
8
 10
200.5242
 20
51.4849
  0
VERTEX
  8
8
 10
147.2079
 20
48.3535
  0
VERTEX
  8
8
 10
93.9172
 20
44.8145
  0
VERTEX
  8
8
 10
40.6558
 20
40.8576
  0
SEQEND
  0
POINT
  8
2
 10
40.6558
 20
40.8576
  0
TEXT
  8
2
 10
40.6558
 20
40.8576
 40
0.1000
 50
0.0000
  1
# 123
  0
POINT
  8
3
 10
42.7274
 20
79.7005
  0
POINT
  8
3
 10
44.2324
 20
118.5612
  0
POINT
  8
3
 10
45.1780
 20
157.4438
  0
POINT
  8
3
 10
45.5428
 20
196.3358
  0
POINT
  8
3
 10
45.3219
 20
235.2293
  0
POINT
  8
3
 10
44.4742
 20
274.1132
  0
POINT
  8
3
 10
42.9523
 20
312.9716
  0
POINT
  8
2
 10
40.7719
 20
351.8100
  0
TEXT
  8
2
 10
40.7719
 20
351.8100
 40
0.1000
 50
0.0000
  1
# 124
  0
POINT
  8
3
 10
52.7998
 20
354.3637
  0
POINT
  8
3
 10
63.6914
 20
359.0131
  0
POINT
  8
3
 10
73.7457
 20
365.8390
  0
POINT
  8
3
 10
82.3965
 20
374.4285
  0
POINT
  8
3
 10
89.7231
 20
384.8373
  0
POINT
  8
3
 10
95.3938
 20
396.3047
  0
POINT
  8
3
 10
99.1114
 20
408.0651
  0
POINT
  8
3
 10
101.6595
 20
420.2400
  0
POINT
  8
3
 10
103.7177
 20
432.3853
  0
POINT
  8
3
 10
105.1557
 20
444.6273
  0
POINT
  8
3
 10
106.1032
 20
457.1176
  0
POINT
  8
2
 10
106.5008
 20
469.6620
  0
TEXT
  8
2
 10
106.5008
 20
469.6620
 40
0.1000
 50
0.0000
  1
# 125
  0
POINT
  8
3
 10
105.4204
 20
492.8368
  0
POINT
  8
3
 10
103.5780
 20
515.9632
  0
POINT
  8
3
 10
100.9750
 20
539.0165
  0
POINT
  8
3
 10
97.6326
 20
561.9744
  0
POINT
  8
3
 10
93.5798
 20
584.8175
  0
POINT
  8
2
 10
88.8350
 20
607.5272
  0
TEXT
  8
2
 10
88.8350
 20
607.5272
 40
0.1000
 50
0.0000
  1
# 126
  0
POINT
  8
2
 10
259.2557
 20
674.5778
  0
TEXT
  8
2
 10
259.2557
 20
674.5778
 40
0.1000
 50
0.0000
  1
# 127
  0
POINT
  8
2
 10
165.7085
 20
732.4476
  0
TEXT
  8
2
 10
165.7085
 20
732.4476
 40
0.1000
 50
0.0000
  1
# 128
  0
POINT
  8
2
 10
207.7956
 20
800.4820
  0
TEXT
  8
2
 10
207.7956
 20
800.4820
 40
0.1000
 50
0.0000
  1
# 129
  0
POINT
  8
3
 10
243.0871
 20
778.2315
  0
POINT
  8
3
 10
278.1563
 20
755.6324
  0
POINT
  8
3
 10
313.0713
 20
732.7954
  0
POINT
  8
3
 10
347.8281
 20
709.7189
  0
POINT
  8
3
 10
365.4822
 20
698.6049
  0
POINT
  8
3
 10
383.4008
 20
687.9359
  0
POINT
  8
3
 10
401.6730
 20
677.8941
  0
POINT
  8
2
 10
420.2689
 20
668.4199
  0
TEXT
  8
2
 10
420.2689
 20
668.4199
 40
0.1000
 50
0.0000
  1
# 130
  0
POINT
  8
3
 10
410.7421
 20
641.5907
  0
POINT
  8
3
 10
402.6111
 20
614.3826
  0
POINT
  8
3
 10
395.8661
 20
586.7662
  0
POINT
  8
3
 10
390.5262
 20
558.8433
  0
POINT
  8
3
 10
386.6953
 20
530.6784
  0
POINT
  8
3
 10
384.0844
 20
502.3569
  0
POINT
  8
3
 10
382.5614
 20
473.9715
  0
POINT
  8
3
 10
381.7385
 20
445.5411
  0
POINT
  8
3
 10
381.1865
 20
417.1120
  0
POINT
  8
3
 10
380.8910
 20
388.6769
  0
POINT
  8
2
 10
380.5971
 20
331.8077
  0
TEXT
  8
2
 10
380.5971
 20
331.8077
 40
0.1000
 50
0.0000
  1
# 131
  0
POINT
  8
2
 10
380.5971
 20
58.3598
  0
TEXT
  8
2
 10
380.5971
 20
58.3598
 40
0.1000
 50
0.0000
  1
# 132
  0
POINT
  8
2
 10
360.5972
 20
58.3597
  0
TEXT
  8
2
 10
360.5972
 20
58.3597
 40
0.1000
 50
0.0000
  1
# 133
  0
POINT
  8
3
 10
307.2206
 20
56.5257
  0
POINT
  8
3
 10
253.8618
 20
54.2290
  0
POINT
  8
3
 10
200.5242
 20
51.4849
  0
POINT
  8
3
 10
147.2079
 20
48.3535
  0
POINT
  8
3
 10
93.9172
 20
44.8145
  0
POINT
  8
2
 10
40.6558
 20
40.8576
  0
LINE
  8
7
 10
271.4828
 20
451.8331
 11
271.4828
 21
176.2073
  0
POINT
  8
2
 10
271.4828
 20
451.8331
  0
TEXT
  8
2
 10
271.4828
 20
451.8331
 40
0.1000
 50
0.0000
  1
# 134
  0
POINT
  8
2
 10
271.4828
 20
176.2073
  0
TEXT
  8
2
 10
271.4828
 20
176.2073
 40
0.1000
 50
0.0000
  1
# 135
  0
LINE
  8
5
 10
271.4828
 20
451.8331
 11
271.4828
 21
176.2073
  0
LINE
  8
8
 10
148.8864
 20
163.4461
 11
191.9897
 21
322.7166
  0
POINT
  8
2
 10
148.8864
 20
163.4461
  0
TEXT
  8
2
 10
148.8864
 20
163.4461
 40
0.1000
 50
0.0000
  1
# 136
  0
POINT
  8
2
 10
191.9897
 20
322.7166
  0
TEXT
  8
2
 10
191.9897
 20
322.7166
 40
0.1000
 50
0.0000
  1
# 137
  0
LINE
  8
8
 10
191.9897
 20
322.7206
 11
230.6008
 21
312.2673
  0
POINT
  8
2
 10
191.9897
 20
322.7206
  0
TEXT
  8
2
 10
191.9897
 20
322.7206
 40
0.1000
 50
0.0000
  1
# 138
  0
POINT
  8
2
 10
230.6008
 20
312.2673
  0
TEXT
  8
2
 10
230.6008
 20
312.2673
 40
0.1000
 50
0.0000
  1
# 139
  0
POLYLINE
  8
8
 66
1
 70
0
  0
VERTEX
  8
8
 10
230.6008
 20
312.2713
  0
VERTEX
  8
8
 10
220.1515
 20
273.6563
  0
VERTEX
  8
8
 10
187.4974
 20
152.9968
  0
SEQEND
  0
POINT
  8
2
 10
230.6008
 20
312.2713
  0
TEXT
  8
2
 10
230.6008
 20
312.2713
 40
0.1000
 50
0.0000
  1
# 140
  0
POINT
  8
4
 10
220.1515
 20
273.6563
 30
10.0000
 39
0.0000
 50
164.8568
  0
TEXT
  8
4
 10
220.1515
 20
273.6563
 40
0.1000
 50
0.0000
  1
# 141
  0
POINT
  8
2
 10
220.1515
 20
273.6563
  0
TEXT
  8
2
 10
220.1515
 20
273.6563
 40
0.1000
 50
0.0000
  1
# 141
  0
POINT
  8
2
 10
187.4974
 20
152.9968
  0
TEXT
  8
2
 10
187.4974
 20
152.9968
 40
0.1000
 50
0.0000
  1
# 142
  0
LINE
  8
8
 10
187.4974
 20
153.0008
 11
148.8864
 21
163.4501
  0
POINT
  8
2
 10
187.4974
 20
153.0008
  0
TEXT
  8
2
 10
187.4974
 20
153.0008
 40
0.1000
 50
0.0000
  1
# 143
  0
POINT
  8
2
 10
148.8864
 20
163.4501
  0
TEXT
  8
2
 10
148.8864
 20
163.4501
 40
0.1000
 50
0.0000
  1
# 144
  0
POLYLINE
  8
8
 66
1
 70
0
  0
VERTEX
  8
8
 10
360.5971
 20
331.8259
  0
VERTEX
  8
8
 10
360.8918
 20
388.8538
  0
VERTEX
  8
8
 10
361.1877
 20
417.4272
  0
VERTEX
  8
8
 10
361.7437
 20
445.9946
  0
VERTEX
  8
8
 10
362.5813
 20
474.9149
  0
VERTEX
  8
8
 10
364.1354
 20
503.7888
  0
VERTEX
  8
8
 10
366.8323
 20
533.0044
  0
VERTEX
  8
8
 10
370.7857
 20
562.0583
  0
VERTEX
  8
8
 10
376.3206
 20
590.9962
  0
VERTEX
  8
8
 10
383.3079
 20
619.6173
  0
VERTEX
  8
8
 10
391.7081
 20
647.7394
  0
VERTEX
  8
8
 10
402.3352
 20
677.5479
  0
SEQEND
  0
POINT
  8
2
 10
360.5971
 20
331.8259
  0
TEXT
  8
2
 10
360.5971
 20
331.8259
 40
0.1000
 50
0.0000
  1
# 145
  0
POINT
  8
3
 10
360.8918
 20
388.8538
  0
POINT
  8
3
 10
361.1877
 20
417.4272
  0
POINT
  8
3
 10
361.7437
 20
445.9946
  0
POINT
  8
3
 10
362.5813
 20
474.9149
  0
POINT
  8
3
 10
364.1354
 20
503.7888
  0
POINT
  8
3
 10
366.8323
 20
533.0044
  0
POINT
  8
3
 10
370.7857
 20
562.0583
  0
POINT
  8
3
 10
376.3206
 20
590.9962
  0
POINT
  8
3
 10
383.3079
 20
619.6173
  0
POINT
  8
3
 10
391.7081
 20
647.7394
  0
POINT
  8
2
 10
402.3352
 20
677.5479
  0
TEXT
  8
2
 10
402.3352
 20
677.5479
 40
0.1000
 50
0.0000
  1
# 146
  0
LINE
  8
8
 10
362.5989
 20
196.9883
 11
362.5953
 21
192.9883
  0
POINT
  8
2
 10
362.5989
 20
196.9883
  0
TEXT
  8
2
 10
362.5989
 20
196.9883
 40
0.1000
 50
0.0000
  1
# 147
  0
POINT
  8
2
 10
362.5953
 20
192.9883
  0
TEXT
  8
2
 10
362.5953
 20
192.9883
 40
0.1000
 50
0.0000
  1
# 148
  0
LINE
  8
8
 10
362.5989
 20
80.3580
 11
362.5952
 21
76.3580
  0
POINT
  8
2
 10
362.5989
 20
80.3580
  0
TEXT
  8
2
 10
362.5989
 20
80.3580
 40
0.1000
 50
0.0000
  1
# 149
  0
POINT
  8
2
 10
362.5952
 20
76.3580
  0
TEXT
  8
2
 10
362.5952
 20
76.3580
 40
0.1000
 50
0.0000
  1
# 150
  0
LINE
  8
8
 10
362.5990
 20
430.2489
 11
362.5954
 21
426.2488
  0
POINT
  8
2
 10
362.5990
 20
430.2489
  0
TEXT
  8
2
 10
362.5990
 20
430.2489
 40
0.1000
 50
0.0000
  1
# 151
  0
POINT
  8
2
 10
362.5954
 20
426.2488
  0
TEXT
  8
2
 10
362.5954
 20
426.2488
 40
0.1000
 50
0.0000
  1
# 152
  0
LINE
  8
8
 10
360.5971
 20
58.3637
 11
360.5971
 21
331.8077
  0
POINT
  8
2
 10
360.5971
 20
58.3637
  0
TEXT
  8
2
 10
360.5971
 20
58.3637
 40
0.1000
 50
0.0000
  1
# 153
  0
POINT
  8
2
 10
360.5971
 20
331.8077
  0
TEXT
  8
2
 10
360.5971
 20
331.8077
 40
0.1000
 50
0.0000
  1
# 154
  0
LINE
  8
8
 10
362.5989
 20
313.6186
 11
362.5953
 21
309.6185
  0
POINT
  8
2
 10
362.5989
 20
313.6186
  0
TEXT
  8
2
 10
362.5989
 20
313.6186
 40
0.1000
 50
0.0000
  1
# 155
  0
POINT
  8
2
 10
362.5953
 20
309.6185
  0
TEXT
  8
2
 10
362.5953
 20
309.6185
 40
0.1000
 50
0.0000
  1
# 156
  0
LINE
  8
8
 10
370.4613
 20
546.2944
 11
370.0169
 21
542.3191
  0
POINT
  8
2
 10
370.4613
 20
546.2944
  0
TEXT
  8
2
 10
370.4613
 20
546.2944
 40
0.1000
 50
0.0000
  1
# 157
  0
POINT
  8
2
 10
370.0169
 20
542.3191
  0
TEXT
  8
2
 10
370.0169
 20
542.3191
 40
0.1000
 50
0.0000
  1
# 158
  0
LINE
  8
8
 10
397.6530
 20
659.1574
 11
396.4049
 21
655.3571
  0
POINT
  8
2
 10
397.6530
 20
659.1574
  0
TEXT
  8
2
 10
397.6530
 20
659.1574
 40
0.1000
 50
0.0000
  1
# 159
  0
POINT
  8
2
 10
396.4049
 20
655.3571
  0
TEXT
  8
2
 10
396.4049
 20
655.3571
 40
0.1000
 50
0.0000
  1
# 160
  0
LINE
  8
8
 10
376.2426
 20
664.4618
 11
397.0212
 21
657.2336
  0
POINT
  8
2
 10
376.2426
 20
664.4618
  0
TEXT
  8
2
 10
376.2426
 20
664.4618
 40
0.1000
 50
0.0000
  1
# 161
  0
POINT
  8
2
 10
397.0212
 20
657.2336
  0
TEXT
  8
2
 10
397.0212
 20
657.2336
 40
0.1000
 50
0.0000
  1
# 162
  0
LINE
  8
8
 10
348.4185
 20
547.1068
 11
370.2364
 21
544.2820
  0
POINT
  8
2
 10
348.4185
 20
547.1068
  0
TEXT
  8
2
 10
348.4185
 20
547.1068
 40
0.1000
 50
0.0000
  1
# 163
  0
POINT
  8
2
 10
370.2364
 20
544.2820
  0
TEXT
  8
2
 10
370.2364
 20
544.2820
 40
0.1000
 50
0.0000
  1
# 164
  0
LINE
  8
8
 10
341.3707
 20
428.6138
 11
362.5972
 21
428.2240
  0
POINT
  8
2
 10
341.3707
 20
428.6138
  0
TEXT
  8
2
 10
341.3707
 20
428.6138
 40
0.1000
 50
0.0000
  1
# 165
  0
POINT
  8
2
 10
362.5972
 20
428.2240
  0
TEXT
  8
2
 10
362.5972
 20
428.2240
 40
0.1000
 50
0.0000
  1
# 166
  0
LINE
  8
8
 10
340.5971
 20
311.6385
 11
362.5971
 21
311.6186
  0
POINT
  8
2
 10
340.5971
 20
311.6385
  0
TEXT
  8
2
 10
340.5971
 20
311.6385
 40
0.1000
 50
0.0000
  1
# 167
  0
POINT
  8
2
 10
362.5971
 20
311.6186
  0
TEXT
  8
2
 10
362.5971
 20
311.6186
 40
0.1000
 50
0.0000
  1
# 168
  0
LINE
  8
8
 10
340.5971
 20
195.0083
 11
362.5971
 21
194.9883
  0
POINT
  8
2
 10
340.5971
 20
195.0083
  0
TEXT
  8
2
 10
340.5971
 20
195.0083
 40
0.1000
 50
0.0000
  1
# 169
  0
POINT
  8
2
 10
362.5971
 20
194.9883
  0
TEXT
  8
2
 10
362.5971
 20
194.9883
 40
0.1000
 50
0.0000
  1
# 170
  0
LINE
  8
8
 10
340.5971
 20
78.3780
 11
362.5970
 21
78.3580
  0
POINT
  8
2
 10
340.5971
 20
78.3780
  0
TEXT
  8
2
 10
340.5971
 20
78.3780
 40
0.1000
 50
0.0000
  1
# 171
  0
POINT
  8
2
 10
362.5970
 20
78.3580
  0
TEXT
  8
2
 10
362.5970
 20
78.3580
 40
0.1000
 50
0.0000
  1
# 172
  0
ENDBLK
  0
BLOCK
  8
0
  2
BLK_6_M
 70
64
 10
0.0000
 20
0.0000
  0
TEXT
  8
1
 10
177.6919
 20
361.9555
 40
2.8000
 50
0.0000
  1
PIECE NAME: 6
  7
STANDARD
  0
TEXT
  8
1
 10
177.6919
 20
359.1554
 40
2.8000
 50
0.0000
  1
SIZE: M
  7
STANDARD
  0
TEXT
  8
1
 10
177.6919
 20
356.3554
 40
2.8000
 50
0.0000
  1
CATEGORY: 
  7
STANDARD
  0
TEXT
  8
1
 10
177.6919
 20
353.5555
 40
2.8000
 50
0.0000
  1
QUANTITY: 1
  7
STANDARD
  0
TEXT
  8
1
 10
177.6919
 20
350.7555
 40
2.8000
 50
0.0000
  1
ANNOTATION: 
  7
STANDARD
  0
TEXT
  8
1
 10
148.9466
 20
310.6411
 40
5.0000
 50
0.0000
  1
ANNOTATION: S/#5635-785
  7
STANDARD
  0
TEXT
  8
1
 10
168.9466
 20
303.6411
 40
5.0000
 50
0.0000
  1
ANNOTATION: <M>
  7
STANDARD
  0
TEXT
  8
1
 10
161.4466
 20
296.6411
 40
5.0000
 50
0.0000
  1
ANNOTATION: LINING
  7
STANDARD
  0
POLYLINE
  8
1
 66
1
 70
1
  0
VERTEX
  8
1
 10
31.2697
 20
30.0000
  0
VERTEX
  8
1
 10
31.8585
 20
41.7807
  0
VERTEX
  8
1
 10
33.4346
 20
76.5034
  0
VERTEX
  8
1
 10
34.5860
 20
111.2376
  0
VERTEX
  8
1
 10
35.3425
 20
145.9676
  0
VERTEX
  8
1
 10
35.6143
 20
180.7033
  0
VERTEX
  8
1
 10
35.3685
 20
222.1656
  0
VERTEX
  8
1
 10
34.4998
 20
263.6174
  0
VERTEX
  8
1
 10
32.8899
 20
305.0341
  0
VERTEX
  8
1
 10
30.0001
 20
355.7140
  0
VERTEX
  8
1
 10
39.1846
 20
356.9546
  0
VERTEX
  8
1
 10
49.4108
 20
359.0924
  0
VERTEX
  8
1
 10
58.6675
 20
363.0228
  0
VERTEX
  8
1
 10
67.1956
 20
368.8010
  0
VERTEX
  8
1
 10
74.5175
 20
376.0934
  0
VERTEX
  8
1
 10
80.9354
 20
385.2071
  0
VERTEX
  8
1
 10
85.8889
 20
395.2476
  0
VERTEX
  8
1
 10
89.2836
 20
406.0889
  0
VERTEX
  8
1
 10
91.6141
 20
417.3046
  0
VERTEX
  8
1
 10
93.5940
 20
429.0170
  0
VERTEX
  8
1
 10
94.9877
 20
440.8198
  0
VERTEX
  8
1
 10
95.9043
 20
452.9104
  0
VERTEX
  8
1
 10
96.2797
 20
464.4661
  0
VERTEX
  8
1
 10
96.2850
 20
464.8169
  0
VERTEX
  8
1
 10
95.2270
 20
487.4448
  0
VERTEX
  8
1
 10
93.4110
 20
510.2408
  0
VERTEX
  8
1
 10
90.8436
 20
532.9779
  0
VERTEX
  8
1
 10
87.5478
 20
555.6158
  0
VERTEX
  8
1
 10
83.5475
 20
578.1623
  0
VERTEX
  8
1
 10
78.8610
 20
600.5917
  0
VERTEX
  8
1
 10
77.0006
 20
608.9405
  0
VERTEX
  8
1
 10
236.0339
 20
671.5109
  0
VERTEX
  8
1
 10
240.0986
 20
663.2472
  0
VERTEX
  8
1
 10
251.6134
 20
639.0673
  0
VERTEX
  8
1
 10
262.4391
 20
614.5243
  0
VERTEX
  8
1
 10
272.4990
 20
589.7521
  0
VERTEX
  8
1
 10
282.1472
 20
564.8334
  0
VERTEX
  8
1
 10
286.7433
 20
552.2271
  0
VERTEX
  8
1
 10
291.1275
 20
539.5468
  0
VERTEX
  8
1
 10
295.3154
 20
526.7023
  0
VERTEX
  8
1
 10
299.1784
 20
513.7605
  0
VERTEX
  8
1
 10
302.6500
 20
500.5959
  0
VERTEX
  8
1
 10
305.6770
 20
487.3246
  0
VERTEX
  8
1
 10
308.1408
 20
473.9899
  0
VERTEX
  8
1
 10
310.2114
 20
460.5827
  0
VERTEX
  8
1
 10
311.9833
 20
447.2716
  0
VERTEX
  8
1
 10
313.5104
 20
433.9281
  0
VERTEX
  8
1
 10
316.0365
 20
407.3250
  0
VERTEX
  8
1
 10
318.1667
 20
380.7015
  0
VERTEX
  8
1
 10
319.6147
 20
353.9630
  0
VERTEX
  8
1
 10
320.3838
 20
327.0470
  0
VERTEX
  8
1
 10
320.3835
 20
57.6331
  0
VERTEX
  8
1
 10
311.1317
 20
56.9403
  0
VERTEX
  8
1
 10
302.8512
 20
56.3124
  0
VERTEX
  8
1
 10
290.4380
 20
55.3494
  0
VERTEX
  8
1
 10
253.1611
 20
52.3114
  0
VERTEX
  8
1
 10
199.7909
 20
47.5797
  0
VERTEX
  8
1
 10
146.3653
 20
42.4521
  0
VERTEX
  8
1
 10
92.9720
 20
36.9153
  0
VERTEX
  8
1
 10
42.9881
 20
31.3467
  0
VERTEX
  8
1
 10
31.2697
 20
30.0000
  0
SEQEND
  0
POINT
  8
2
 10
31.2697
 20
30.0000
  0
TEXT
  8
2
 10
31.2697
 20
30.0000
 40
0.1000
 50
0.0000
  1
# 173
  0
POINT
  8
3
 10
31.8585
 20
41.7807
  0
POINT
  8
3
 10
33.4346
 20
76.5034
  0
POINT
  8
3
 10
34.5860
 20
111.2376
  0
POINT
  8
3
 10
35.3425
 20
145.9676
  0
POINT
  8
3
 10
35.6143
 20
180.7033
  0
POINT
  8
3
 10
35.3685
 20
222.1656
  0
POINT
  8
3
 10
34.4998
 20
263.6174
  0
POINT
  8
3
 10
32.8899
 20
305.0341
  0
POINT
  8
2
 10
30.0001
 20
355.7140
  0
TEXT
  8
2
 10
30.0001
 20
355.7140
 40
0.1000
 50
0.0000
  1
# 174
  0
POINT
  8
3
 10
39.1846
 20
356.9546
  0
POINT
  8
3
 10
49.4108
 20
359.0924
  0
POINT
  8
3
 10
58.6675
 20
363.0228
  0
POINT
  8
3
 10
67.1956
 20
368.8010
  0
POINT
  8
3
 10
74.5175
 20
376.0934
  0
POINT
  8
3
 10
80.9354
 20
385.2071
  0
POINT
  8
3
 10
85.8889
 20
395.2476
  0
POINT
  8
3
 10
89.2836
 20
406.0889
  0
POINT
  8
3
 10
91.6141
 20
417.3046
  0
POINT
  8
3
 10
93.5940
 20
429.0170
  0
POINT
  8
3
 10
94.9877
 20
440.8198
  0
POINT
  8
3
 10
95.9043
 20
452.9104
  0
POINT
  8
4
 10
96.2797
 20
464.4661
 30
19.9640
 39
0.0000
 50
2.4907
  0
TEXT
  8
4
 10
96.2797
 20
464.4661
 40
0.1000
 50
0.0000
  1
# 175
  0
POINT
  8
2
 10
96.2797
 20
464.4661
  0
TEXT
  8
2
 10
96.2797
 20
464.4661
 40
0.1000
 50
0.0000
  1
# 175
  0
POINT
  8
2
 10
96.2850
 20
464.8169
  0
TEXT
  8
2
 10
96.2850
 20
464.8169
 40
0.1000
 50
0.0000
  1
# 176
  0
POINT
  8
3
 10
95.2270
 20
487.4448
  0
POINT
  8
3
 10
93.4110
 20
510.2408
  0
POINT
  8
3
 10
90.8436
 20
532.9779
  0
POINT
  8
3
 10
87.5478
 20
555.6158
  0
POINT
  8
3
 10
83.5475
 20
578.1623
  0
POINT
  8
3
 10
78.8610
 20
600.5917
  0
POINT
  8
2
 10
77.0006
 20
608.9405
  0
TEXT
  8
2
 10
77.0006
 20
608.9405
 40
0.1000
 50
0.0000
  1
# 177
  0
POINT
  8
2
 10
236.0339
 20
671.5109
  0
TEXT
  8
2
 10
236.0339
 20
671.5109
 40
0.1000
 50
0.0000
  1
# 178
  0
POINT
  8
3
 10
240.0986
 20
663.2472
  0
POINT
  8
3
 10
251.6134
 20
639.0673
  0
POINT
  8
3
 10
262.4391
 20
614.5243
  0
POINT
  8
3
 10
272.4990
 20
589.7521
  0
POINT
  8
3
 10
282.1472
 20
564.8334
  0
POINT
  8
3
 10
286.7433
 20
552.2271
  0
POINT
  8
3
 10
291.1275
 20
539.5468
  0
POINT
  8
3
 10
295.3154
 20
526.7023
  0
POINT
  8
3
 10
299.1784
 20
513.7605
  0
POINT
  8
3
 10
302.6500
 20
500.5959
  0
POINT
  8
3
 10
305.6770
 20
487.3246
  0
POINT
  8
3
 10
308.1408
 20
473.9899
  0
POINT
  8
3
 10
310.2114
 20
460.5827
  0
POINT
  8
3
 10
311.9833
 20
447.2716
  0
POINT
  8
3
 10
313.5104
 20
433.9281
  0
POINT
  8
3
 10
316.0365
 20
407.3250
  0
POINT
  8
3
 10
318.1667
 20
380.7015
  0
POINT
  8
3
 10
319.6147
 20
353.9630
  0
POINT
  8
4
 10
320.3838
 20
327.0470
 30
20.0000
 39
0.0000
 50
180.0000
  0
TEXT
  8
4
 10
320.3838
 20
327.0470
 40
0.1000
 50
0.0000
  1
# 179
  0
POINT
  8
2
 10
320.3838
 20
327.0470
  0
TEXT
  8
2
 10
320.3838
 20
327.0470
 40
0.1000
 50
0.0000
  1
# 179
  0
POINT
  8
2
 10
320.3835
 20
57.6331
  0
TEXT
  8
2
 10
320.3835
 20
57.6331
 40
0.1000
 50
0.0000
  1
# 180
  0
POINT
  8
3
 10
311.1317
 20
56.9403
  0
POINT
  8
3
 10
302.8512
 20
56.3124
  0
POINT
  8
3
 10
290.4380
 20
55.3494
  0
POINT
  8
3
 10
253.1611
 20
52.3114
  0
POINT
  8
3
 10
199.7909
 20
47.5797
  0
POINT
  8
3
 10
146.3653
 20
42.4521
  0
POINT
  8
3
 10
92.9720
 20
36.9153
  0
POINT
  8
3
 10
42.9881
 20
31.3467
  0
POINT
  8
2
 10
31.2697
 20
30.0000
  0
POLYLINE
  8
8
 66
1
 70
1
  0
VERTEX
  8
8
 10
41.8461
 20
41.2814
  0
VERTEX
  8
8
 10
43.4273
 20
76.1169
  0
VERTEX
  8
8
 10
44.5823
 20
110.9641
  0
VERTEX
  8
8
 10
45.3415
 20
145.8255
  0
VERTEX
  8
8
 10
45.6143
 20
180.6928
  0
VERTEX
  8
8
 10
45.3675
 20
222.3085
  0
VERTEX
  8
8
 10
44.4954
 20
263.9137
  0
VERTEX
  8
8
 10
42.8793
 20
305.4928
  0
VERTEX
  8
8
 10
40.5585
 20
347.0493
  0
VERTEX
  8
8
 10
52.5864
 20
349.6032
  0
VERTEX
  8
8
 10
63.4780
 20
354.2525
  0
VERTEX
  8
8
 10
73.5323
 20
361.0783
  0
VERTEX
  8
8
 10
82.1832
 20
369.6678
  0
VERTEX
  8
8
 10
89.5098
 20
380.0767
  0
VERTEX
  8
8
 10
95.1804
 20
391.5440
  0
VERTEX
  8
8
 10
98.8980
 20
403.3044
  0
VERTEX
  8
8
 10
101.4462
 20
415.4793
  0
VERTEX
  8
8
 10
103.5044
 20
427.6247
  0
VERTEX
  8
8
 10
104.9423
 20
439.8667
  0
VERTEX
  8
8
 10
105.8898
 20
452.3570
  0
VERTEX
  8
8
 10
106.2875
 20
464.9013
  0
VERTEX
  8
8
 10
105.2071
 20
488.0762
  0
VERTEX
  8
8
 10
103.3646
 20
511.2025
  0
VERTEX
  8
8
 10
100.7616
 20
534.2558
  0
VERTEX
  8
8
 10
97.4193
 20
557.2138
  0
VERTEX
  8
8
 10
93.3664
 20
580.0569
  0
VERTEX
  8
8
 10
88.6217
 20
602.7665
  0
VERTEX
  8
8
 10
231.1254
 20
658.8334
  0
VERTEX
  8
8
 10
242.5256
 20
634.8945
  0
VERTEX
  8
8
 10
253.2263
 20
610.6350
  0
VERTEX
  8
8
 10
263.2024
 20
586.0681
  0
VERTEX
  8
8
 10
272.7766
 20
561.3414
  0
VERTEX
  8
8
 10
277.3179
 20
548.8850
  0
VERTEX
  8
8
 10
281.6502
 20
536.3558
  0
VERTEX
  8
8
 10
285.7607
 20
523.7495
  0
VERTEX
  8
8
 10
289.5532
 20
511.0481
  0
VERTEX
  8
8
 10
292.9350
 20
498.2301
  0
VERTEX
  8
8
 10
295.8822
 20
485.3080
  0
VERTEX
  8
8
 10
298.2893
 20
472.2736
  0
VERTEX
  8
8
 10
300.3119
 20
459.1683
  0
VERTEX
  8
8
 10
302.0603
 20
446.0277
  0
VERTEX
  8
8
 10
303.5681
 20
432.8551
  0
VERTEX
  8
8
 10
306.0741
 20
406.4581
  0
VERTEX
  8
8
 10
308.1894
 20
380.0274
  0
VERTEX
  8
8
 10
309.6232
 20
353.5513
  0
VERTEX
  8
8
 10
310.3837
 20
327.0470
  0
VERTEX
  8
8
 10
310.3848
 20
66.9124
  0
VERTEX
  8
8
 10
302.0896
 20
66.2833
  0
VERTEX
  8
8
 10
289.6486
 20
65.3183
  0
VERTEX
  8
8
 10
252.3204
 20
62.2760
  0
VERTEX
  8
8
 10
198.8779
 20
57.5378
  0
VERTEX
  8
8
 10
145.3768
 20
52.4031
  0
VERTEX
  8
8
 10
91.9081
 20
46.8585
  0
VERTEX
  8
8
 10
41.8461
 20
41.2814
  0
SEQEND
  0
POINT
  8
2
 10
41.8461
 20
41.2814
  0
TEXT
  8
2
 10
41.8461
 20
41.2814
 40
0.1000
 50
0.0000
  1
# 181
  0
POINT
  8
3
 10
43.4273
 20
76.1169
  0
POINT
  8
3
 10
44.5823
 20
110.9641
  0
POINT
  8
3
 10
45.3415
 20
145.8255
  0
POINT
  8
3
 10
45.6143
 20
180.6928
  0
POINT
  8
3
 10
45.3675
 20
222.3085
  0
POINT
  8
3
 10
44.4954
 20
263.9137
  0
POINT
  8
3
 10
42.8793
 20
305.4928
  0
POINT
  8
2
 10
40.5585
 20
347.0493
  0
TEXT
  8
2
 10
40.5585
 20
347.0493
 40
0.1000
 50
0.0000
  1
# 182
  0
POINT
  8
3
 10
52.5864
 20
349.6032
  0
POINT
  8
3
 10
63.4780
 20
354.2525
  0
POINT
  8
3
 10
73.5323
 20
361.0783
  0
POINT
  8
3
 10
82.1832
 20
369.6678
  0
POINT
  8
3
 10
89.5098
 20
380.0767
  0
POINT
  8
3
 10
95.1804
 20
391.5440
  0
POINT
  8
3
 10
98.8980
 20
403.3044
  0
POINT
  8
3
 10
101.4462
 20
415.4793
  0
POINT
  8
3
 10
103.5044
 20
427.6247
  0
POINT
  8
3
 10
104.9423
 20
439.8667
  0
POINT
  8
3
 10
105.8898
 20
452.3570
  0
POINT
  8
2
 10
106.2875
 20
464.9013
  0
TEXT
  8
2
 10
106.2875
 20
464.9013
 40
0.1000
 50
0.0000
  1
# 183
  0
POINT
  8
3
 10
105.2071
 20
488.0762
  0
POINT
  8
3
 10
103.3646
 20
511.2025
  0
POINT
  8
3
 10
100.7616
 20
534.2558
  0
POINT
  8
3
 10
97.4193
 20
557.2138
  0
POINT
  8
3
 10
93.3664
 20
580.0569
  0
POINT
  8
2
 10
88.6217
 20
602.7665
  0
TEXT
  8
2
 10
88.6217
 20
602.7665
 40
0.1000
 50
0.0000
  1
# 184
  0
POINT
  8
2
 10
231.1254
 20
658.8334
  0
TEXT
  8
2
 10
231.1254
 20
658.8334
 40
0.1000
 50
0.0000
  1
# 185
  0
POINT
  8
3
 10
242.5256
 20
634.8945
  0
POINT
  8
3
 10
253.2263
 20
610.6350
  0
POINT
  8
3
 10
263.2024
 20
586.0681
  0
POINT
  8
3
 10
272.7766
 20
561.3414
  0
POINT
  8
3
 10
277.3179
 20
548.8850
  0
POINT
  8
3
 10
281.6502
 20
536.3558
  0
POINT
  8
3
 10
285.7607
 20
523.7495
  0
POINT
  8
3
 10
289.5532
 20
511.0481
  0
POINT
  8
3
 10
292.9350
 20
498.2301
  0
POINT
  8
3
 10
295.8822
 20
485.3080
  0
POINT
  8
3
 10
298.2893
 20
472.2736
  0
POINT
  8
3
 10
300.3119
 20
459.1683
  0
POINT
  8
3
 10
302.0603
 20
446.0277
  0
POINT
  8
3
 10
303.5681
 20
432.8551
  0
POINT
  8
3
 10
306.0741
 20
406.4581
  0
POINT
  8
3
 10
308.1894
 20
380.0274
  0
POINT
  8
3
 10
309.6232
 20
353.5513
  0
POINT
  8
2
 10
310.3837
 20
327.0470
  0
TEXT
  8
2
 10
310.3837
 20
327.0470
 40
0.1000
 50
0.0000
  1
# 186
  0
POINT
  8
2
 10
310.3848
 20
66.9124
  0
TEXT
  8
2
 10
310.3848
 20
66.9124
 40
0.1000
 50
0.0000
  1
# 187
  0
POINT
  8
3
 10
302.0896
 20
66.2833
  0
POINT
  8
3
 10
289.6486
 20
65.3183
  0
POINT
  8
3
 10
252.3204
 20
62.2760
  0
POINT
  8
3
 10
198.8779
 20
57.5378
  0
POINT
  8
3
 10
145.3768
 20
52.4031
  0
POINT
  8
3
 10
91.9081
 20
46.8585
  0
POINT
  8
2
 10
41.8461
 20
41.2814
  0
LINE
  8
7
 10
230.2546
 20
417.3831
 11
230.2546
 21
169.8530
  0
POINT
  8
2
 10
230.2546
 20
417.3831
  0
TEXT
  8
2
 10
230.2546
 20
417.3831
 40
0.1000
 50
0.0000
  1
# 188
  0
POINT
  8
2
 10
230.2546
 20
169.8530
  0
TEXT
  8
2
 10
230.2546
 20
169.8530
 40
0.1000
 50
0.0000
  1
# 189
  0
LINE
  8
5
 10
230.2546
 20
417.3831
 11
230.2546
 21
169.8530
  0
ENDBLK
  0
BLOCK
  8
0
  2
BLK_7_M
 70
64
 10
0.0000
 20
0.0000
  0
TEXT
  8
1
 10
123.3415
 20
363.8195
 40
2.8000
 50
0.0000
  1
PIECE NAME: 7
  7
STANDARD
  0
TEXT
  8
1
 10
123.3415
 20
361.0194
 40
2.8000
 50
0.0000
  1
SIZE: M
  7
STANDARD
  0
TEXT
  8
1
 10
123.3415
 20
358.2195
 40
2.8000
 50
0.0000
  1
CATEGORY: 
  7
STANDARD
  0
TEXT
  8
1
 10
123.3415
 20
355.4195
 40
2.8000
 50
0.0000
  1
QUANTITY: 1
  7
STANDARD
  0
TEXT
  8
1
 10
123.3415
 20
352.6195
 40
2.8000
 50
0.0000
  1
ANNOTATION: 
  7
STANDARD
  0
TEXT
  8
1
 10
132.8354
 20
280.5462
 40
5.0000
 50
0.0000
  1
ANNOTATION: S/#5635-785
  7
STANDARD
  0
TEXT
  8
1
 10
152.8354
 20
273.5461
 40
5.0000
 50
0.0000
  1
ANNOTATION: <M>
  7
STANDARD
  0
TEXT
  8
1
 10
145.3354
 20
261.5462
 40
10.0000
 50
0.0000
  1
ANNOTATION: πÃ±ÓΩ√
  7
STANDARD
  0
POLYLINE
  8
1
 66
1
 70
1
  0
VERTEX
  8
1
 10
113.0260
 20
30.0000
  0
VERTEX
  8
1
 10
113.0244
 20
321.2003
  0
VERTEX
  8
1
 10
112.2739
 20
347.2922
  0
VERTEX
  8
1
 10
110.8540
 20
373.5127
  0
VERTEX
  8
1
 10
108.7545
 20
399.7397
  0
VERTEX
  8
1
 10
106.2656
 20
425.9595
  0
VERTEX
  8
1
 10
104.7787
 20
438.9484
  0
VERTEX
  8
1
 10
103.0549
 20
451.9060
  0
VERTEX
  8
1
 10
101.0805
 20
464.7102
  0
VERTEX
  8
1
 10
98.7296
 20
477.4451
  0
VERTEX
  8
1
 10
95.8629
 20
490.0166
  0
VERTEX
  8
1
 10
92.5711
 20
502.4862
  0
VERTEX
  8
1
 10
88.8487
 20
514.9500
  0
VERTEX
  8
1
 10
84.8146
 20
527.3202
  0
VERTEX
  8
1
 10
80.5351
 20
539.6960
  0
VERTEX
  8
1
 10
76.0495
 20
551.9998
  0
VERTEX
  8
1
 10
66.5492
 20
576.5341
  0
VERTEX
  8
1
 10
56.6572
 20
600.8959
  0
VERTEX
  8
1
 10
46.0749
 20
624.8862
  0
VERTEX
  8
1
 10
34.7945
 20
648.5729
  0
VERTEX
  8
1
 10
30.0014
 20
658.3166
  0
VERTEX
  8
1
 10
73.0124
 20
675.2390
  0
VERTEX
  8
1
 10
77.4093
 20
672.1697
  0
VERTEX
  8
1
 10
88.2214
 20
664.3591
  0
VERTEX
  8
1
 10
98.8110
 20
656.0999
  0
VERTEX
  8
1
 10
109.0161
 20
647.3591
  0
VERTEX
  8
1
 10
118.7475
 20
638.3955
  0
VERTEX
  8
1
 10
128.2419
 20
629.4794
  0
VERTEX
  8
1
 10
137.6748
 20
620.6812
  0
VERTEX
  8
1
 10
147.1584
 20
612.1461
  0
VERTEX
  8
1
 10
156.8492
 20
603.9277
  0
VERTEX
  8
1
 10
166.7023
 20
596.1070
  0
VERTEX
  8
1
 10
176.8065
 20
588.8650
  0
VERTEX
  8
1
 10
187.2972
 20
582.2932
  0
VERTEX
  8
1
 10
198.2257
 20
576.3019
  0
VERTEX
  8
1
 10
209.4971
 20
570.8627
  0
VERTEX
  8
1
 10
216.6729
 20
567.5979
  0
VERTEX
  8
1
 10
215.1728
 20
559.8565
  0
VERTEX
  8
1
 10
213.2383
 20
549.0481
  0
VERTEX
  8
1
 10
210.7713
 20
532.7783
  0
VERTEX
  8
1
 10
208.3514
 20
511.9502
  0
VERTEX
  8
1
 10
206.4905
 20
491.0718
  0
VERTEX
  8
1
 10
205.0437
 20
462.8952
  0
VERTEX
  8
1
 10
204.1644
 20
434.6859
  0
VERTEX
  8
1
 10
203.6143
 20
406.3381
  0
VERTEX
  8
1
 10
203.3196
 20
377.9844
  0
VERTEX
  8
1
 10
203.0260
 20
321.1912
  0
VERTEX
  8
1
 10
203.0260
 20
38.6282
  0
VERTEX
  8
1
 10
193.9404
 20
37.7943
  0
VERTEX
  8
1
 10
176.4534
 20
36.1731
  0
VERTEX
  8
1
 10
158.9717
 20
34.5160
  0
VERTEX
  8
1
 10
141.4925
 20
32.8239
  0
VERTEX
  8
1
 10
124.0185
 20
31.0966
  0
VERTEX
  8
1
 10
113.0260
 20
30.0000
  0
SEQEND
  0
POINT
  8
2
 10
113.0260
 20
30.0000
  0
TEXT
  8
2
 10
113.0260
 20
30.0000
 40
0.1000
 50
0.0000
  1
# 190
  0
POINT
  8
4
 10
113.0244
 20
321.2003
 30
19.9943
 39
0.0000
 50
0.0000
  0
TEXT
  8
4
 10
113.0244
 20
321.2003
 40
0.1000
 50
0.0000
  1
# 191
  0
POINT
  8
2
 10
113.0244
 20
321.2003
  0
TEXT
  8
2
 10
113.0244
 20
321.2003
 40
0.1000
 50
0.0000
  1
# 191
  0
POINT
  8
3
 10
112.2739
 20
347.2922
  0
POINT
  8
3
 10
110.8540
 20
373.5127
  0
POINT
  8
3
 10
108.7545
 20
399.7397
  0
POINT
  8
3
 10
106.2656
 20
425.9595
  0
POINT
  8
3
 10
104.7787
 20
438.9484
  0
POINT
  8
3
 10
103.0549
 20
451.9060
  0
POINT
  8
3
 10
101.0805
 20
464.7102
  0
POINT
  8
3
 10
98.7296
 20
477.4451
  0
POINT
  8
3
 10
95.8629
 20
490.0166
  0
POINT
  8
3
 10
92.5711
 20
502.4862
  0
POINT
  8
3
 10
88.8487
 20
514.9500
  0
POINT
  8
3
 10
84.8146
 20
527.3202
  0
POINT
  8
3
 10
80.5351
 20
539.6960
  0
POINT
  8
3
 10
76.0495
 20
551.9998
  0
POINT
  8
3
 10
66.5492
 20
576.5341
  0
POINT
  8
3
 10
56.6572
 20
600.8959
  0
POINT
  8
3
 10
46.0749
 20
624.8862
  0
POINT
  8
3
 10
34.7945
 20
648.5729
  0
POINT
  8
2
 10
30.0014
 20
658.3166
  0
TEXT
  8
2
 10
30.0014
 20
658.3166
 40
0.1000
 50
0.0000
  1
# 192
  0
POINT
  8
2
 10
73.0124
 20
675.2390
  0
TEXT
  8
2
 10
73.0124
 20
675.2390
 40
0.1000
 50
0.0000
  1
# 193
  0
POINT
  8
3
 10
77.4093
 20
672.1697
  0
POINT
  8
3
 10
88.2214
 20
664.3591
  0
POINT
  8
3
 10
98.8110
 20
656.0999
  0
POINT
  8
3
 10
109.0161
 20
647.3591
  0
POINT
  8
3
 10
118.7475
 20
638.3955
  0
POINT
  8
3
 10
128.2419
 20
629.4794
  0
POINT
  8
3
 10
137.6748
 20
620.6812
  0
POINT
  8
3
 10
147.1584
 20
612.1461
  0
POINT
  8
3
 10
156.8492
 20
603.9277
  0
POINT
  8
3
 10
166.7023
 20
596.1070
  0
POINT
  8
3
 10
176.8065
 20
588.8650
  0
POINT
  8
3
 10
187.2972
 20
582.2932
  0
POINT
  8
3
 10
198.2257
 20
576.3019
  0
POINT
  8
3
 10
209.4971
 20
570.8627
  0
POINT
  8
2
 10
216.6729
 20
567.5979
  0
TEXT
  8
2
 10
216.6729
 20
567.5979
 40
0.1000
 50
0.0000
  1
# 194
  0
POINT
  8
3
 10
215.1728
 20
559.8565
  0
POINT
  8
3
 10
213.2383
 20
549.0481
  0
POINT
  8
3
 10
210.7713
 20
532.7783
  0
POINT
  8
3
 10
208.3514
 20
511.9502
  0
POINT
  8
3
 10
206.4905
 20
491.0718
  0
POINT
  8
3
 10
205.0437
 20
462.8952
  0
POINT
  8
3
 10
204.1644
 20
434.6859
  0
POINT
  8
3
 10
203.6143
 20
406.3381
  0
POINT
  8
3
 10
203.3196
 20
377.9844
  0
POINT
  8
2
 10
203.0260
 20
321.1912
  0
TEXT
  8
2
 10
203.0260
 20
321.1912
 40
0.1000
 50
0.0000
  1
# 195
  0
POINT
  8
2
 10
203.0260
 20
38.6282
  0
TEXT
  8
2
 10
203.0260
 20
38.6282
 40
0.1000
 50
0.0000
  1
# 196
  0
POINT
  8
3
 10
193.9404
 20
37.7943
  0
POINT
  8
3
 10
176.4534
 20
36.1731
  0
POINT
  8
3
 10
158.9717
 20
34.5160
  0
POINT
  8
3
 10
141.4925
 20
32.8239
  0
POINT
  8
3
 10
124.0185
 20
31.0966
  0
POINT
  8
2
 10
113.0260
 20
30.0000
  0
POLYLINE
  8
8
 66
1
 70
1
  0
VERTEX
  8
8
 10
123.0260
 20
41.0474
  0
VERTEX
  8
8
 10
123.0260
 20
321.2003
  0
VERTEX
  8
8
 10
122.2655
 20
347.7045
  0
VERTEX
  8
8
 10
120.8318
 20
374.1806
  0
VERTEX
  8
8
 10
118.7164
 20
400.6113
  0
VERTEX
  8
8
 10
116.2105
 20
427.0084
  0
VERTEX
  8
8
 10
114.7027
 20
440.1808
  0
VERTEX
  8
8
 10
112.9543
 20
453.3215
  0
VERTEX
  8
8
 10
110.9317
 20
466.4268
  0
VERTEX
  8
8
 10
108.5245
 20
479.4612
  0
VERTEX
  8
8
 10
105.5773
 20
492.3833
  0
VERTEX
  8
8
 10
102.1956
 20
505.2013
  0
VERTEX
  8
8
 10
98.4031
 20
517.9028
  0
VERTEX
  8
8
 10
94.2926
 20
530.5090
  0
VERTEX
  8
8
 10
89.9602
 20
543.0383
  0
VERTEX
  8
8
 10
85.4189
 20
555.4946
  0
VERTEX
  8
8
 10
75.8447
 20
580.2213
  0
VERTEX
  8
8
 10
65.8686
 20
604.7882
  0
VERTEX
  8
8
 10
55.1678
 20
629.0477
  0
VERTEX
  8
8
 10
43.7677
 20
652.9867
  0
VERTEX
  8
8
 10
71.6846
 20
663.9704
  0
VERTEX
  8
8
 10
82.2241
 20
656.3571
  0
VERTEX
  8
8
 10
92.4767
 20
648.3616
  0
VERTEX
  8
8
 10
102.3504
 20
639.9046
  0
VERTEX
  8
8
 10
111.9133
 20
631.0953
  0
VERTEX
  8
8
 10
121.3914
 20
622.1943
  0
VERTEX
  8
8
 10
130.9000
 20
613.3259
  0
VERTEX
  8
8
 10
140.5643
 20
604.6282
  0
VERTEX
  8
8
 10
150.4800
 20
596.2184
  0
VERTEX
  8
8
 10
160.6639
 20
588.1359
  0
VERTEX
  8
8
 10
171.2309
 20
580.5635
  0
VERTEX
  8
8
 10
182.2477
 20
573.6616
  0
VERTEX
  8
8
 10
193.6475
 20
567.4114
  0
VERTEX
  8
8
 10
205.3556
 20
561.7601
  0
VERTEX
  8
8
 10
202.9551
 20
548.2359
  0
VERTEX
  8
8
 10
199.1242
 20
520.0710
  0
VERTEX
  8
8
 10
196.5133
 20
491.7494
  0
VERTEX
  8
8
 10
194.9903
 20
463.3640
  0
VERTEX
  8
8
 10
194.1674
 20
434.9337
  0
VERTEX
  8
8
 10
193.6154
 20
406.5046
  0
VERTEX
  8
8
 10
193.3199
 20
378.0695
  0
VERTEX
  8
8
 10
193.0260
 20
321.2003
  0
VERTEX
  8
8
 10
193.0260
 20
47.7524
  0
VERTEX
  8
8
 10
175.5209
 20
46.1295
  0
VERTEX
  8
8
 10
158.0190
 20
44.4705
  0
VERTEX
  8
8
 10
140.5205
 20
42.7766
  0
VERTEX
  8
8
 10
123.0260
 20
41.0474
  0
SEQEND
  0
POINT
  8
2
 10
123.0260
 20
41.0474
  0
TEXT
  8
2
 10
123.0260
 20
41.0474
 40
0.1000
 50
0.0000
  1
# 197
  0
POINT
  8
2
 10
123.0260
 20
321.2003
  0
TEXT
  8
2
 10
123.0260
 20
321.2003
 40
0.1000
 50
0.0000
  1
# 198
  0
POINT
  8
3
 10
122.2655
 20
347.7045
  0
POINT
  8
3
 10
120.8318
 20
374.1806
  0
POINT
  8
3
 10
118.7164
 20
400.6113
  0
POINT
  8
3
 10
116.2105
 20
427.0084
  0
POINT
  8
3
 10
114.7027
 20
440.1808
  0
POINT
  8
3
 10
112.9543
 20
453.3215
  0
POINT
  8
3
 10
110.9317
 20
466.4268
  0
POINT
  8
3
 10
108.5245
 20
479.4612
  0
POINT
  8
3
 10
105.5773
 20
492.3833
  0
POINT
  8
3
 10
102.1956
 20
505.2013
  0
POINT
  8
3
 10
98.4031
 20
517.9028
  0
POINT
  8
3
 10
94.2926
 20
530.5090
  0
POINT
  8
3
 10
89.9602
 20
543.0383
  0
POINT
  8
3
 10
85.4189
 20
555.4946
  0
POINT
  8
3
 10
75.8447
 20
580.2213
  0
POINT
  8
3
 10
65.8686
 20
604.7882
  0
POINT
  8
3
 10
55.1678
 20
629.0477
  0
POINT
  8
2
 10
43.7677
 20
652.9867
  0
TEXT
  8
2
 10
43.7677
 20
652.9867
 40
0.1000
 50
0.0000
  1
# 199
  0
POINT
  8
2
 10
71.6846
 20
663.9704
  0
TEXT
  8
2
 10
71.6846
 20
663.9704
 40
0.1000
 50
0.0000
  1
# 200
  0
POINT
  8
3
 10
82.2241
 20
656.3571
  0
POINT
  8
3
 10
92.4767
 20
648.3616
  0
POINT
  8
3
 10
102.3504
 20
639.9046
  0
POINT
  8
3
 10
111.9133
 20
631.0953
  0
POINT
  8
3
 10
121.3914
 20
622.1943
  0
POINT
  8
3
 10
130.9000
 20
613.3259
  0
POINT
  8
3
 10
140.5643
 20
604.6282
  0
POINT
  8
3
 10
150.4800
 20
596.2184
  0
POINT
  8
3
 10
160.6639
 20
588.1359
  0
POINT
  8
3
 10
171.2309
 20
580.5635
  0
POINT
  8
3
 10
182.2477
 20
573.6616
  0
POINT
  8
3
 10
193.6475
 20
567.4114
  0
POINT
  8
2
 10
205.3556
 20
561.7601
  0
TEXT
  8
2
 10
205.3556
 20
561.7601
 40
0.1000
 50
0.0000
  1
# 201
  0
POINT
  8
3
 10
202.9551
 20
548.2359
  0
POINT
  8
3
 10
199.1242
 20
520.0710
  0
POINT
  8
3
 10
196.5133
 20
491.7494
  0
POINT
  8
3
 10
194.9903
 20
463.3640
  0
POINT
  8
3
 10
194.1674
 20
434.9337
  0
POINT
  8
3
 10
193.6154
 20
406.5046
  0
POINT
  8
3
 10
193.3199
 20
378.0695
  0
POINT
  8
2
 10
193.0260
 20
321.2003
  0
TEXT
  8
2
 10
193.0260
 20
321.2003
 40
0.1000
 50
0.0000
  1
# 202
  0
POINT
  8
2
 10
193.0260
 20
47.7524
  0
TEXT
  8
2
 10
193.0260
 20
47.7524
 40
0.1000
 50
0.0000
  1
# 203
  0
POINT
  8
3
 10
175.5209
 20
46.1295
  0
POINT
  8
3
 10
158.0190
 20
44.4705
  0
POINT
  8
3
 10
140.5205
 20
42.7766
  0
POINT
  8
2
 10
123.0260
 20
41.0474
  0
LINE
  8
7
 10
142.1527
 20
351.0650
 11
142.1527
 21
219.5105
  0
POINT
  8
2
 10
142.1527
 20
351.0650
  0
TEXT
  8
2
 10
142.1527
 20
351.0650
 40
0.1000
 50
0.0000
  1
# 204
  0
POINT
  8
2
 10
142.1527
 20
219.5105
  0
TEXT
  8
2
 10
142.1527
 20
219.5105
 40
0.1000
 50
0.0000
  1
# 205
  0
LINE
  8
5
 10
142.1527
 20
351.0650
 11
142.1527
 21
219.5105
  0
POLYLINE
  8
8
 66
1
 70
0
  0
VERTEX
  8
8
 10
173.0260
 20
321.2185
  0
VERTEX
  8
8
 10
173.3207
 20
378.2463
  0
VERTEX
  8
8
 10
173.6166
 20
406.8198
  0
VERTEX
  8
8
 10
174.1726
 20
435.3873
  0
VERTEX
  8
8
 10
175.0102
 20
464.3075
  0
VERTEX
  8
8
 10
176.5643
 20
493.1814
  0
VERTEX
  8
8
 10
179.2612
 20
522.3970
  0
VERTEX
  8
8
 10
183.2146
 20
551.4509
  0
VERTEX
  8
8
 10
186.8064
 20
571.0654
  0
SEQEND
  0
POINT
  8
2
 10
173.0260
 20
321.2185
  0
TEXT
  8
2
 10
173.0260
 20
321.2185
 40
0.1000
 50
0.0000
  1
# 206
  0
POINT
  8
3
 10
173.3207
 20
378.2463
  0
POINT
  8
3
 10
173.6166
 20
406.8198
  0
POINT
  8
3
 10
174.1726
 20
435.3873
  0
POINT
  8
3
 10
175.0102
 20
464.3075
  0
POINT
  8
3
 10
176.5643
 20
493.1814
  0
POINT
  8
3
 10
179.2612
 20
522.3970
  0
POINT
  8
3
 10
183.2146
 20
551.4509
  0
POINT
  8
2
 10
186.8064
 20
571.0654
  0
TEXT
  8
2
 10
186.8064
 20
571.0654
 40
0.1000
 50
0.0000
  1
# 207
  0
LINE
  8
8
 10
175.0278
 20
186.3808
 11
175.0242
 21
182.3808
  0
POINT
  8
2
 10
175.0278
 20
186.3808
  0
TEXT
  8
2
 10
175.0278
 20
186.3808
 40
0.1000
 50
0.0000
  1
# 208
  0
POINT
  8
2
 10
175.0242
 20
182.3808
  0
TEXT
  8
2
 10
175.0242
 20
182.3808
 40
0.1000
 50
0.0000
  1
# 209
  0
LINE
  8
8
 10
175.0278
 20
69.7505
 11
175.0241
 21
65.7506
  0
POINT
  8
2
 10
175.0278
 20
69.7505
  0
TEXT
  8
2
 10
175.0278
 20
69.7505
 40
0.1000
 50
0.0000
  1
# 210
  0
POINT
  8
2
 10
175.0241
 20
65.7506
  0
TEXT
  8
2
 10
175.0241
 20
65.7506
 40
0.1000
 50
0.0000
  1
# 211
  0
LINE
  8
8
 10
175.0279
 20
419.6414
 11
175.0243
 21
415.6415
  0
POINT
  8
2
 10
175.0279
 20
419.6414
  0
TEXT
  8
2
 10
175.0279
 20
419.6414
 40
0.1000
 50
0.0000
  1
# 212
  0
POINT
  8
2
 10
175.0243
 20
415.6415
  0
TEXT
  8
2
 10
175.0243
 20
415.6415
 40
0.1000
 50
0.0000
  1
# 213
  0
LINE
  8
8
 10
173.0260
 20
47.7524
 11
173.0260
 21
321.2003
  0
POINT
  8
2
 10
173.0260
 20
47.7524
  0
TEXT
  8
2
 10
173.0260
 20
47.7524
 40
0.1000
 50
0.0000
  1
# 214
  0
POINT
  8
2
 10
173.0260
 20
321.2003
  0
TEXT
  8
2
 10
173.0260
 20
321.2003
 40
0.1000
 50
0.0000
  1
# 215
  0
LINE
  8
8
 10
175.0278
 20
303.0112
 11
175.0242
 21
299.0111
  0
POINT
  8
2
 10
175.0278
 20
303.0112
  0
TEXT
  8
2
 10
175.0278
 20
303.0112
 40
0.1000
 50
0.0000
  1
# 216
  0
POINT
  8
2
 10
175.0242
 20
299.0111
  0
TEXT
  8
2
 10
175.0242
 20
299.0111
 40
0.1000
 50
0.0000
  1
# 217
  0
LINE
  8
8
 10
182.8902
 20
535.6870
 11
182.4458
 21
531.7117
  0
POINT
  8
2
 10
182.8902
 20
535.6870
  0
TEXT
  8
2
 10
182.8902
 20
535.6870
 40
0.1000
 50
0.0000
  1
# 218
  0
POINT
  8
2
 10
182.4458
 20
531.7117
  0
TEXT
  8
2
 10
182.4458
 20
531.7117
 40
0.1000
 50
0.0000
  1
# 219
  0
LINE
  8
8
 10
160.8474
 20
536.4993
 11
182.6653
 21
533.6747
  0
POINT
  8
2
 10
160.8474
 20
536.4993
  0
TEXT
  8
2
 10
160.8474
 20
536.4993
 40
0.1000
 50
0.0000
  1
# 220
  0
POINT
  8
2
 10
182.6653
 20
533.6747
  0
TEXT
  8
2
 10
182.6653
 20
533.6747
 40
0.1000
 50
0.0000
  1
# 221
  0
LINE
  8
8
 10
153.7996
 20
418.0064
 11
175.0261
 21
417.6166
  0
POINT
  8
2
 10
153.7996
 20
418.0064
  0
TEXT
  8
2
 10
153.7996
 20
418.0064
 40
0.1000
 50
0.0000
  1
# 222
  0
POINT
  8
2
 10
175.0261
 20
417.6166
  0
TEXT
  8
2
 10
175.0261
 20
417.6166
 40
0.1000
 50
0.0000
  1
# 223
  0
LINE
  8
8
 10
153.0260
 20
301.0312
 11
175.0260
 21
301.0111
  0
POINT
  8
2
 10
153.0260
 20
301.0312
  0
TEXT
  8
2
 10
153.0260
 20
301.0312
 40
0.1000
 50
0.0000
  1
# 224
  0
POINT
  8
2
 10
175.0260
 20
301.0111
  0
TEXT
  8
2
 10
175.0260
 20
301.0111
 40
0.1000
 50
0.0000
  1
# 225
  0
LINE
  8
8
 10
153.0260
 20
184.4009
 11
175.0260
 21
184.3809
  0
POINT
  8
2
 10
153.0260
 20
184.4009
  0
TEXT
  8
2
 10
153.0260
 20
184.4009
 40
0.1000
 50
0.0000
  1
# 226
  0
POINT
  8
2
 10
175.0260
 20
184.3809
  0
TEXT
  8
2
 10
175.0260
 20
184.3809
 40
0.1000
 50
0.0000
  1
# 227
  0
LINE
  8
8
 10
153.0260
 20
67.7705
 11
175.0259
 21
67.7505
  0
POINT
  8
2
 10
153.0260
 20
67.7705
  0
TEXT
  8
2
 10
153.0260
 20
67.7705
 40
0.1000
 50
0.0000
  1
# 228
  0
POINT
  8
2
 10
175.0259
 20
67.7505
  0
TEXT
  8
2
 10
175.0259
 20
67.7505
 40
0.1000
 50
0.0000
  1
# 229
  0
ENDBLK
  0
BLOCK
  8
0
  2
BLK_8_M
 70
64
 10
0.0000
 20
0.0000
  0
TEXT
  8
1
 10
321.2929
 20
100.6914
 40
2.8000
 50
0.0000
  1
PIECE NAME: 8
  7
STANDARD
  0
TEXT
  8
1
 10
321.2929
 20
97.8914
 40
2.8000
 50
0.0000
  1
SIZE: M
  7
STANDARD
  0
TEXT
  8
1
 10
321.2929
 20
95.0914
 40
2.8000
 50
0.0000
  1
CATEGORY: 
  7
STANDARD
  0
TEXT
  8
1
 10
321.2929
 20
92.2914
 40
2.8000
 50
0.0000
  1
QUANTITY: 1
  7
STANDARD
  0
TEXT
  8
1
 10
321.2929
 20
89.4914
 40
2.8000
 50
0.0000
  1
ANNOTATION: 
  7
STANDARD
  0
TEXT
  8
1
 10
286.6982
 20
105.9581
 40
5.0000
 50
0.0000
  1
ANNOTATION: S/#5635-785
  7
STANDARD
  0
TEXT
  8
1
 10
306.6982
 20
98.9581
 40
5.0000
 50
0.0000
  1
ANNOTATION: <M>
  7
STANDARD
  0
TEXT
  8
1
 10
299.1982
 20
86.9581
 40
10.0000
 50
0.0000
  1
ANNOTATION: ƒ´∂Ûæ»
  7
STANDARD
  0
POLYLINE
  8
1
 66
1
 70
1
  0
VERTEX
  8
1
 10
30.0000
 20
33.7866
  0
VERTEX
  8
1
 10
34.4919
 20
45.6418
  0
VERTEX
  8
1
 10
38.7554
 20
57.1783
  0
VERTEX
  8
1
 10
42.7648
 20
68.7994
  0
VERTEX
  8
1
 10
46.5173
 20
80.4873
  0
VERTEX
  8
1
 10
50.0082
 20
92.2557
  0
VERTEX
  8
1
 10
53.2242
 20
104.1007
  0
VERTEX
  8
1
 10
56.1746
 20
116.0148
  0
VERTEX
  8
1
 10
58.2212
 20
125.0060
  0
VERTEX
  8
1
 10
61.3048
 20
140.0678
  0
VERTEX
  8
1
 10
63.0281
 20
148.9824
  0
VERTEX
  8
1
 10
72.0668
 20
148.1245
  0
VERTEX
  8
1
 10
92.5611
 20
146.4221
  0
VERTEX
  8
1
 10
113.0787
 20
145.3647
  0
VERTEX
  8
1
 10
133.6653
 20
145.0156
  0
VERTEX
  8
1
 10
154.2609
 20
145.1789
  0
VERTEX
  8
1
 10
195.8274
 20
146.5152
  0
VERTEX
  8
1
 10
237.6374
 20
147.5709
  0
VERTEX
  8
1
 10
279.4486
 20
148.3420
  0
VERTEX
  8
1
 10
321.2414
 20
148.6992
  0
VERTEX
  8
1
 10
363.1725
 20
148.3416
  0
VERTEX
  8
1
 10
404.9427
 20
147.5710
  0
VERTEX
  8
1
 10
446.7519
 20
146.5154
  0
VERTEX
  8
1
 10
488.3259
 20
145.1789
  0
VERTEX
  8
1
 10
508.9216
 20
145.0157
  0
VERTEX
  8
1
 10
529.5084
 20
145.3648
  0
VERTEX
  8
1
 10
544.8993
 20
146.0952
  0
VERTEX
  8
1
 10
570.5188
 20
148.1245
  0
VERTEX
  8
1
 10
579.5571
 20
148.9827
  0
VERTEX
  8
1
 10
581.2807
 20
140.0679
  0
VERTEX
  8
1
 10
583.7136
 20
128.0159
  0
VERTEX
  8
1
 10
586.4083
 20
116.0257
  0
VERTEX
  8
1
 10
589.3599
 20
104.1068
  0
VERTEX
  8
1
 10
592.5770
 20
92.2570
  0
VERTEX
  8
1
 10
596.0674
 20
80.4896
  0
VERTEX
  8
1
 10
599.8196
 20
68.8028
  0
VERTEX
  8
1
 10
602.8033
 20
60.0776
  0
VERTEX
  8
1
 10
608.0936
 20
45.6419
  0
VERTEX
  8
1
 10
612.5858
 20
33.7860
  0
VERTEX
  8
1
 10
600.0085
 20
32.1797
  0
VERTEX
  8
1
 10
586.5992
 20
30.7764
  0
VERTEX
  8
1
 10
573.0652
 20
30.0662
  0
VERTEX
  8
1
 10
566.2578
 20
30.0032
  0
VERTEX
  8
1
 10
559.4518
 20
30.1442
  0
VERTEX
  8
1
 10
545.9091
 20
31.0630
  0
VERTEX
  8
1
 10
532.6367
 20
32.6199
  0
VERTEX
  8
1
 10
519.4363
 20
34.6068
  0
VERTEX
  8
1
 10
506.4068
 20
36.9615
  0
VERTEX
  8
1
 10
493.5522
 20
39.5214
  0
VERTEX
  8
1
 10
480.8283
 20
42.1008
  0
VERTEX
  8
1
 10
468.2822
 20
44.5197
  0
VERTEX
  8
1
 10
455.8750
 20
46.4494
  0
VERTEX
  8
1
 10
443.3744
 20
47.8082
  0
VERTEX
  8
1
 10
431.2928
 20
48.6833
  0
VERTEX
  8
1
 10
321.2928
 20
48.6989
  0
VERTEX
  8
1
 10
211.2927
 20
48.6833
  0
VERTEX
  8
1
 10
199.2252
 20
47.8095
  0
VERTEX
  8
1
 10
186.7121
 20
46.4497
  0
VERTEX
  8
1
 10
174.2992
 20
44.5190
  0
VERTEX
  8
1
 10
161.7576
 20
42.1009
  0
VERTEX
  8
1
 10
149.0361
 20
39.5221
  0
VERTEX
  8
1
 10
136.1707
 20
36.9599
  0
VERTEX
  8
1
 10
123.1427
 20
34.6057
  0
VERTEX
  8
1
 10
109.9792
 20
32.6240
  0
VERTEX
  8
1
 10
96.6853
 20
31.0638
  0
VERTEX
  8
1
 10
83.1308
 20
30.1441
  0
VERTEX
  8
1
 10
76.3211
 20
30.0032
  0
VERTEX
  8
1
 10
69.5099
 20
30.0665
  0
VERTEX
  8
1
 10
55.9837
 20
30.7766
  0
VERTEX
  8
1
 10
42.5771
 20
32.1798
  0
VERTEX
  8
1
 10
30.0000
 20
33.7866
  0
SEQEND
  0
POINT
  8
2
 10
30.0000
 20
33.7866
  0
TEXT
  8
2
 10
30.0000
 20
33.7866
 40
0.1000
 50
0.0000
  1
# 230
  0
POINT
  8
3
 10
34.4919
 20
45.6418
  0
POINT
  8
3
 10
38.7554
 20
57.1783
  0
POINT
  8
3
 10
42.7648
 20
68.7994
  0
POINT
  8
3
 10
46.5173
 20
80.4873
  0
POINT
  8
3
 10
50.0082
 20
92.2557
  0
POINT
  8
3
 10
53.2242
 20
104.1007
  0
POINT
  8
3
 10
56.1746
 20
116.0148
  0
POINT
  8
3
 10
58.2212
 20
125.0060
  0
POINT
  8
3
 10
61.3048
 20
140.0678
  0
POINT
  8
2
 10
63.0281
 20
148.9824
  0
TEXT
  8
2
 10
63.0281
 20
148.9824
 40
0.1000
 50
0.0000
  1
# 231
  0
POINT
  8
3
 10
72.0668
 20
148.1245
  0
POINT
  8
3
 10
92.5611
 20
146.4221
  0
POINT
  8
3
 10
113.0787
 20
145.3647
  0
POINT
  8
3
 10
133.6653
 20
145.0156
  0
POINT
  8
3
 10
154.2609
 20
145.1789
  0
POINT
  8
3
 10
195.8274
 20
146.5152
  0
POINT
  8
3
 10
237.6374
 20
147.5709
  0
POINT
  8
3
 10
279.4486
 20
148.3420
  0
POINT
  8
2
 10
321.2414
 20
148.6992
  0
TEXT
  8
2
 10
321.2414
 20
148.6992
 40
0.1000
 50
0.0000
  1
# 232
  0
POINT
  8
3
 10
363.1725
 20
148.3416
  0
POINT
  8
3
 10
404.9427
 20
147.5710
  0
POINT
  8
3
 10
446.7519
 20
146.5154
  0
POINT
  8
3
 10
488.3259
 20
145.1789
  0
POINT
  8
3
 10
508.9216
 20
145.0157
  0
POINT
  8
3
 10
529.5084
 20
145.3648
  0
POINT
  8
3
 10
544.8993
 20
146.0952
  0
POINT
  8
3
 10
570.5188
 20
148.1245
  0
POINT
  8
2
 10
579.5571
 20
148.9827
  0
TEXT
  8
2
 10
579.5571
 20
148.9827
 40
0.1000
 50
0.0000
  1
# 233
  0
POINT
  8
3
 10
581.2807
 20
140.0679
  0
POINT
  8
3
 10
583.7136
 20
128.0159
  0
POINT
  8
3
 10
586.4083
 20
116.0257
  0
POINT
  8
3
 10
589.3599
 20
104.1068
  0
POINT
  8
3
 10
592.5770
 20
92.2570
  0
POINT
  8
3
 10
596.0674
 20
80.4896
  0
POINT
  8
3
 10
599.8196
 20
68.8028
  0
POINT
  8
3
 10
602.8033
 20
60.0776
  0
POINT
  8
3
 10
608.0936
 20
45.6419
  0
POINT
  8
2
 10
612.5858
 20
33.7860
  0
TEXT
  8
2
 10
612.5858
 20
33.7860
 40
0.1000
 50
0.0000
  1
# 234
  0
POINT
  8
3
 10
600.0085
 20
32.1797
  0
POINT
  8
3
 10
586.5992
 20
30.7764
  0
POINT
  8
3
 10
573.0652
 20
30.0662
  0
POINT
  8
3
 10
566.2578
 20
30.0032
  0
POINT
  8
3
 10
559.4518
 20
30.1442
  0
POINT
  8
3
 10
545.9091
 20
31.0630
  0
POINT
  8
3
 10
532.6367
 20
32.6199
  0
POINT
  8
3
 10
519.4363
 20
34.6068
  0
POINT
  8
3
 10
506.4068
 20
36.9615
  0
POINT
  8
3
 10
493.5522
 20
39.5214
  0
POINT
  8
3
 10
480.8283
 20
42.1008
  0
POINT
  8
3
 10
468.2822
 20
44.5197
  0
POINT
  8
3
 10
455.8750
 20
46.4494
  0
POINT
  8
3
 10
443.3744
 20
47.8082
  0
POINT
  8
4
 10
431.2928
 20
48.6833
 30
19.9684
 39
0.0000
 50
90.0000
  0
TEXT
  8
4
 10
431.2928
 20
48.6833
 40
0.1000
 50
0.0000
  1
# 235
  0
POINT
  8
2
 10
431.2928
 20
48.6833
  0
TEXT
  8
2
 10
431.2928
 20
48.6833
 40
0.1000
 50
0.0000
  1
# 235
  0
POINT
  8
2
 10
321.2928
 20
48.6989
  0
TEXT
  8
2
 10
321.2928
 20
48.6989
 40
0.1000
 50
0.0000
  1
# 236
  0
POINT
  8
4
 10
211.2927
 20
48.6833
 30
19.9683
 39
0.0000
 50
90.0000
  0
TEXT
  8
4
 10
211.2927
 20
48.6833
 40
0.1000
 50
0.0000
  1
# 237
  0
POINT
  8
2
 10
211.2927
 20
48.6833
  0
TEXT
  8
2
 10
211.2927
 20
48.6833
 40
0.1000
 50
0.0000
  1
# 237
  0
POINT
  8
3
 10
199.2252
 20
47.8095
  0
POINT
  8
3
 10
186.7121
 20
46.4497
  0
POINT
  8
3
 10
174.2992
 20
44.5190
  0
POINT
  8
3
 10
161.7576
 20
42.1009
  0
POINT
  8
3
 10
149.0361
 20
39.5221
  0
POINT
  8
3
 10
136.1707
 20
36.9599
  0
POINT
  8
3
 10
123.1427
 20
34.6057
  0
POINT
  8
3
 10
109.9792
 20
32.6240
  0
POINT
  8
3
 10
96.6853
 20
31.0638
  0
POINT
  8
3
 10
83.1308
 20
30.1441
  0
POINT
  8
3
 10
76.3211
 20
30.0032
  0
POINT
  8
3
 10
69.5099
 20
30.0665
  0
POINT
  8
3
 10
55.9837
 20
30.7766
  0
POINT
  8
3
 10
42.5771
 20
32.1798
  0
POINT
  8
2
 10
30.0000
 20
33.7866
  0
POLYLINE
  8
8
 66
1
 70
1
  0
VERTEX
  8
8
 10
43.8433
 20
42.0990
  0
VERTEX
  8
8
 10
48.9185
 20
55.8904
  0
VERTEX
  8
8
 10
57.7110
 20
82.9247
  0
VERTEX
  8
8
 10
65.1101
 20
110.3409
  0
VERTEX
  8
8
 10
71.1229
 20
138.1691
  0
VERTEX
  8
8
 10
91.9216
 20
136.4432
  0
VERTEX
  8
8
 10
112.7436
 20
135.3702
  0
VERTEX
  8
8
 10
133.5950
 20
135.0166
  0
VERTEX
  8
8
 10
154.4554
 20
135.1807
  0
VERTEX
  8
8
 10
196.1540
 20
136.5205
  0
VERTEX
  8
8
 10
237.8610
 20
137.5734
  0
VERTEX
  8
8
 10
279.5740
 20
138.3428
  0
VERTEX
  8
8
 10
321.2928
 20
138.6989
  0
VERTEX
  8
8
 10
363.0115
 20
138.3428
  0
VERTEX
  8
8
 10
404.7245
 20
137.5734
  0
VERTEX
  8
8
 10
446.4315
 20
136.5205
  0
VERTEX
  8
8
 10
488.1301
 20
135.1807
  0
VERTEX
  8
8
 10
508.9905
 20
135.0166
  0
VERTEX
  8
8
 10
529.8419
 20
135.3702
  0
VERTEX
  8
8
 10
550.6640
 20
136.4432
  0
VERTEX
  8
8
 10
571.4625
 20
138.1695
  0
VERTEX
  8
8
 10
577.4755
 20
110.3409
  0
VERTEX
  8
8
 10
584.8745
 20
82.9247
  0
VERTEX
  8
8
 10
593.6670
 20
55.8904
  0
VERTEX
  8
8
 10
598.7421
 20
42.0992
  0
VERTEX
  8
8
 10
585.8121
 20
40.7454
  0
VERTEX
  8
8
 10
572.8293
 20
40.0635
  0
VERTEX
  8
8
 10
559.8292
 20
40.1372
  0
VERTEX
  8
8
 10
546.8591
 20
41.0178
  0
VERTEX
  8
8
 10
533.9462
 20
42.5338
  0
VERTEX
  8
8
 10
521.0894
 20
44.4693
  0
VERTEX
  8
8
 10
508.2947
 20
46.7817
  0
VERTEX
  8
8
 10
495.5428
 20
49.3214
  0
VERTEX
  8
8
 10
482.7996
 20
51.9046
  0
VERTEX
  8
8
 10
470.0326
 20
54.3654
  0
VERTEX
  8
8
 10
457.1866
 20
56.3631
  0
VERTEX
  8
8
 10
444.2611
 20
57.7689
  0
VERTEX
  8
8
 10
431.2928
 20
58.6988
  0
VERTEX
  8
8
 10
321.2928
 20
58.6989
  0
VERTEX
  8
8
 10
211.2927
 20
58.6988
  0
VERTEX
  8
8
 10
198.3244
 20
57.7689
  0
VERTEX
  8
8
 10
185.3989
 20
56.3631
  0
VERTEX
  8
8
 10
172.5529
 20
54.3654
  0
VERTEX
  8
8
 10
159.7859
 20
51.9046
  0
VERTEX
  8
8
 10
147.0428
 20
49.3214
  0
VERTEX
  8
8
 10
134.2908
 20
46.7817
  0
VERTEX
  8
8
 10
121.4961
 20
44.4693
  0
VERTEX
  8
8
 10
108.6393
 20
42.5338
  0
VERTEX
  8
8
 10
95.7265
 20
41.0178
  0
VERTEX
  8
8
 10
82.7563
 20
40.1372
  0
VERTEX
  8
8
 10
69.7562
 20
40.0635
  0
VERTEX
  8
8
 10
56.7734
 20
40.7454
  0
VERTEX
  8
8
 10
43.8433
 20
42.0990
  0
SEQEND
  0
POINT
  8
2
 10
43.8433
 20
42.0990
  0
TEXT
  8
2
 10
43.8433
 20
42.0990
 40
0.1000
 50
0.0000
  1
# 238
  0
POINT
  8
3
 10
48.9185
 20
55.8904
  0
POINT
  8
3
 10
57.7110
 20
82.9247
  0
POINT
  8
3
 10
65.1101
 20
110.3409
  0
POINT
  8
2
 10
71.1229
 20
138.1691
  0
TEXT
  8
2
 10
71.1229
 20
138.1691
 40
0.1000
 50
0.0000
  1
# 239
  0
POINT
  8
3
 10
91.9216
 20
136.4432
  0
POINT
  8
3
 10
112.7436
 20
135.3702
  0
POINT
  8
3
 10
133.5950
 20
135.0166
  0
POINT
  8
3
 10
154.4554
 20
135.1807
  0
POINT
  8
3
 10
196.1540
 20
136.5205
  0
POINT
  8
3
 10
237.8610
 20
137.5734
  0
POINT
  8
3
 10
279.5740
 20
138.3428
  0
POINT
  8
2
 10
321.2928
 20
138.6989
  0
TEXT
  8
2
 10
321.2928
 20
138.6989
 40
0.1000
 50
0.0000
  1
# 240
  0
POINT
  8
3
 10
363.0115
 20
138.3428
  0
POINT
  8
3
 10
404.7245
 20
137.5734
  0
POINT
  8
3
 10
446.4315
 20
136.5205
  0
POINT
  8
3
 10
488.1301
 20
135.1807
  0
POINT
  8
3
 10
508.9905
 20
135.0166
  0
POINT
  8
3
 10
529.8419
 20
135.3702
  0
POINT
  8
3
 10
550.6640
 20
136.4432
  0
POINT
  8
2
 10
571.4625
 20
138.1695
  0
TEXT
  8
2
 10
571.4625
 20
138.1695
 40
0.1000
 50
0.0000
  1
# 241
  0
POINT
  8
3
 10
577.4755
 20
110.3409
  0
POINT
  8
3
 10
584.8745
 20
82.9247
  0
POINT
  8
3
 10
593.6670
 20
55.8904
  0
POINT
  8
2
 10
598.7421
 20
42.0992
  0
TEXT
  8
2
 10
598.7421
 20
42.0992
 40
0.1000
 50
0.0000
  1
# 242
  0
POINT
  8
3
 10
585.8121
 20
40.7454
  0
POINT
  8
3
 10
572.8293
 20
40.0635
  0
POINT
  8
3
 10
559.8292
 20
40.1372
  0
POINT
  8
3
 10
546.8591
 20
41.0178
  0
POINT
  8
3
 10
533.9462
 20
42.5338
  0
POINT
  8
3
 10
521.0894
 20
44.4693
  0
POINT
  8
3
 10
508.2947
 20
46.7817
  0
POINT
  8
3
 10
495.5428
 20
49.3214
  0
POINT
  8
3
 10
482.7996
 20
51.9046
  0
POINT
  8
3
 10
470.0326
 20
54.3654
  0
POINT
  8
3
 10
457.1866
 20
56.3631
  0
POINT
  8
3
 10
444.2611
 20
57.7689
  0
POINT
  8
2
 10
431.2928
 20
58.6988
  0
TEXT
  8
2
 10
431.2928
 20
58.6988
 40
0.1000
 50
0.0000
  1
# 243
  0
POINT
  8
2
 10
321.2928
 20
58.6989
  0
TEXT
  8
2
 10
321.2928
 20
58.6989
 40
0.1000
 50
0.0000
  1
# 244
  0
POINT
  8
2
 10
211.2927
 20
58.6988
  0
TEXT
  8
2
 10
211.2927
 20
58.6988
 40
0.1000
 50
0.0000
  1
# 245
  0
POINT
  8
3
 10
198.3244
 20
57.7689
  0
POINT
  8
3
 10
185.3989
 20
56.3631
  0
POINT
  8
3
 10
172.5529
 20
54.3654
  0
POINT
  8
3
 10
159.7859
 20
51.9046
  0
POINT
  8
3
 10
147.0428
 20
49.3214
  0
POINT
  8
3
 10
134.2908
 20
46.7817
  0
POINT
  8
3
 10
121.4961
 20
44.4693
  0
POINT
  8
3
 10
108.6393
 20
42.5338
  0
POINT
  8
3
 10
95.7265
 20
41.0178
  0
POINT
  8
3
 10
82.7563
 20
40.1372
  0
POINT
  8
3
 10
69.7562
 20
40.0635
  0
POINT
  8
3
 10
56.7734
 20
40.7454
  0
POINT
  8
2
 10
43.8433
 20
42.0990
  0
LINE
  8
7
 10
358.6230
 20
126.5056
 11
358.6230
 21
69.1624
  0
POINT
  8
2
 10
358.6230
 20
126.5056
  0
TEXT
  8
2
 10
358.6230
 20
126.5056
 40
0.1000
 50
0.0000
  1
# 246
  0
POINT
  8
2
 10
358.6230
 20
69.1624
  0
TEXT
  8
2
 10
358.6230
 20
69.1624
 40
0.1000
 50
0.0000
  1
# 247
  0
LINE
  8
5
 10
358.6230
 20
126.5056
 11
358.6230
 21
69.1624
  0
POLYLINE
  8
8
 66
1
 70
1
  0
VERTEX
  8
8
 10
94.4604
 20
115.9907
  0
VERTEX
  8
8
 10
93.4557
 20
119.7407
  0
VERTEX
  8
8
 10
90.7104
 20
122.4859
  0
VERTEX
  8
8
 10
86.9604
 20
123.4907
  0
VERTEX
  8
8
 10
83.2104
 20
122.4859
  0
VERTEX
  8
8
 10
80.4652
 20
119.7407
  0
VERTEX
  8
8
 10
79.4604
 20
115.9907
  0
VERTEX
  8
8
 10
80.4652
 20
112.2407
  0
VERTEX
  8
8
 10
83.2104
 20
109.4955
  0
VERTEX
  8
8
 10
86.9604
 20
108.4907
  0
VERTEX
  8
8
 10
90.7104
 20
109.4955
  0
VERTEX
  8
8
 10
93.4557
 20
112.2407
  0
VERTEX
  8
8
 10
94.4604
 20
115.9907
  0
SEQEND
  0
POINT
  8
2
 10
94.4604
 20
115.9907
  0
TEXT
  8
2
 10
94.4604
 20
115.9907
 40
0.1000
 50
0.0000
  1
# 248
  0
POINT
  8
3
 10
93.4557
 20
119.7407
  0
POINT
  8
3
 10
90.7104
 20
122.4859
  0
POINT
  8
3
 10
86.9604
 20
123.4907
  0
POINT
  8
3
 10
83.2104
 20
122.4859
  0
POINT
  8
3
 10
80.4652
 20
119.7407
  0
POINT
  8
3
 10
79.4604
 20
115.9907
  0
POINT
  8
3
 10
80.4652
 20
112.2407
  0
POINT
  8
3
 10
83.2104
 20
109.4955
  0
POINT
  8
3
 10
86.9604
 20
108.4907
  0
POINT
  8
3
 10
90.7104
 20
109.4955
  0
POINT
  8
3
 10
93.4557
 20
112.2407
  0
POINT
  8
2
 10
94.4604
 20
115.9907
  0
LINE
  8
8
 10
557.1025
 20
118.3940
 11
558.0403
 21
114.5055
  0
POINT
  8
2
 10
557.1025
 20
118.3940
  0
TEXT
  8
2
 10
557.1025
 20
118.3940
 40
0.1000
 50
0.0000
  1
# 249
  0
POINT
  8
2
 10
558.0403
 20
114.5055
  0
TEXT
  8
2
 10
558.0403
 20
114.5055
 40
0.1000
 50
0.0000
  1
# 250
  0
LINE
  8
8
 10
536.1038
 20
111.6413
 11
557.5771
 21
116.4256
  0
POINT
  8
2
 10
536.1038
 20
111.6413
  0
TEXT
  8
2
 10
536.1038
 20
111.6413
 40
0.1000
 50
0.0000
  1
# 251
  0
POINT
  8
2
 10
557.5771
 20
116.4256
  0
TEXT
  8
2
 10
557.5771
 20
116.4256
 40
0.1000
 50
0.0000
  1
# 252
  0
LINE
  8
8
 10
321.2928
 20
58.7029
 11
321.2928
 21
138.7029
  0
POINT
  8
2
 10
321.2928
 20
58.7029
  0
TEXT
  8
2
 10
321.2928
 20
58.7029
 40
0.1000
 50
0.0000
  1
# 253
  0
POINT
  8
2
 10
321.2928
 20
138.7029
  0
TEXT
  8
2
 10
321.2928
 20
138.7029
 40
0.1000
 50
0.0000
  1
# 254
  0
POLYLINE
  8
8
 66
1
 70
0
  0
VERTEX
  8
8
 10
578.0719
 20
40.2538
  0
VERTEX
  8
8
 10
572.4084
 20
56.1654
  0
VERTEX
  8
8
 10
565.7045
 20
77.2212
  0
VERTEX
  8
8
 10
558.0536
 20
105.5563
  0
VERTEX
  8
8
 10
551.5536
 20
135.7616
  0
SEQEND
  0
POINT
  8
2
 10
578.0719
 20
40.2538
  0
TEXT
  8
2
 10
578.0719
 20
40.2538
 40
0.1000
 50
0.0000
  1
# 255
  0
POINT
  8
3
 10
572.4084
 20
56.1654
  0
POINT
  8
3
 10
565.7045
 20
77.2212
  0
POINT
  8
3
 10
558.0536
 20
105.5563
  0
POINT
  8
2
 10
551.5536
 20
135.7616
  0
TEXT
  8
2
 10
551.5536
 20
135.7616
 40
0.1000
 50
0.0000
  1
# 256
  0
LINE
  8
8
 10
94.2604
 20
117.7108
 11
79.6603
 21
114.2707
  0
POINT
  8
2
 10
94.2604
 20
117.7108
  0
TEXT
  8
2
 10
94.2604
 20
117.7108
 40
0.1000
 50
0.0000
  1
# 257
  0
POINT
  8
2
 10
79.6603
 20
114.2707
  0
TEXT
  8
2
 10
79.6603
 20
114.2707
 40
0.1000
 50
0.0000
  1
# 258
  0
LINE
  8
8
 10
85.2403
 20
123.2907
 11
88.6804
 21
108.6907
  0
POINT
  8
2
 10
85.2403
 20
123.2907
  0
TEXT
  8
2
 10
85.2403
 20
123.2907
 40
0.1000
 50
0.0000
  1
# 259
  0
POINT
  8
2
 10
88.6804
 20
108.6907
  0
TEXT
  8
2
 10
88.6804
 20
108.6907
 40
0.1000
 50
0.0000
  1
# 260
  0
POLYLINE
  8
8
 66
1
 70
0
  0
VERTEX
  8
8
 10
64.5136
 20
40.2538
  0
VERTEX
  8
8
 10
70.1771
 20
56.1654
  0
VERTEX
  8
8
 10
76.8810
 20
77.2212
  0
VERTEX
  8
8
 10
84.5319
 20
105.5563
  0
VERTEX
  8
8
 10
91.0318
 20
135.7617
  0
SEQEND
  0
POINT
  8
2
 10
64.5136
 20
40.2538
  0
TEXT
  8
2
 10
64.5136
 20
40.2538
 40
0.1000
 50
0.0000
  1
# 261
  0
POINT
  8
3
 10
70.1771
 20
56.1654
  0
POINT
  8
3
 10
76.8810
 20
77.2212
  0
POINT
  8
3
 10
84.5319
 20
105.5563
  0
POINT
  8
2
 10
91.0318
 20
135.7617
  0
TEXT
  8
2
 10
91.0318
 20
135.7617
 40
0.1000
 50
0.0000
  1
# 262
  0
ENDBLK
  0
BLOCK
  8
0
  2
BLK_9_M
 70
64
 10
0.0000
 20
0.0000
  0
TEXT
  8
1
 10
148.8371
 20
191.8956
 40
2.8000
 50
0.0000
  1
PIECE NAME: 9
  7
STANDARD
  0
TEXT
  8
1
 10
148.8371
 20
189.0956
 40
2.8000
 50
0.0000
  1
SIZE: M
  7
STANDARD
  0
TEXT
  8
1
 10
148.8371
 20
186.2956
 40
2.8000
 50
0.0000
  1
CATEGORY: 
  7
STANDARD
  0
TEXT
  8
1
 10
148.8371
 20
183.4956
 40
2.8000
 50
0.0000
  1
QUANTITY: 1
  7
STANDARD
  0
TEXT
  8
1
 10
148.8371
 20
180.6956
 40
2.8000
 50
0.0000
  1
ANNOTATION: 
  7
STANDARD
  0
TEXT
  8
1
 10
163.0949
 20
188.6584
 40
5.0000
 50
0.0000
  1
ANNOTATION: S/#5635-785
  7
STANDARD
  0
TEXT
  8
1
 10
183.0949
 20
181.6585
 40
5.0000
 50
0.0000
  1
ANNOTATION: <M>
  7
STANDARD
  0
TEXT
  8
1
 10
175.5949
 20
169.6585
 40
10.0000
 50
0.0000
  1
ANNOTATION: ¡÷∏”¥œ
  7
STANDARD
  0
POLYLINE
  8
1
 66
1
 70
1
  0
VERTEX
  8
1
 10
88.7787
 20
30.0000
  0
VERTEX
  8
1
 10
30.0000
 20
131.7613
  0
VERTEX
  8
1
 10
84.0257
 20
331.3913
  0
VERTEX
  8
1
 10
267.6741
 20
331.3913
  0
VERTEX
  8
1
 10
267.6735
 20
37.6830
  0
VERTEX
  8
1
 10
257.9796
 20
37.3866
  0
VERTEX
  8
1
 10
204.6008
 20
35.5519
  0
VERTEX
  8
1
 10
151.5845
 20
33.2703
  0
VERTEX
  8
1
 10
114.8033
 20
31.4224
  0
VERTEX
  8
1
 10
102.8763
 20
30.7809
  0
VERTEX
  8
1
 10
88.7787
 20
30.0000
  0
SEQEND
  0
POINT
  8
2
 10
88.7787
 20
30.0000
  0
TEXT
  8
2
 10
88.7787
 20
30.0000
 40
0.1000
 50
0.0000
  1
# 263
  0
POINT
  8
2
 10
30.0000
 20
131.7613
  0
TEXT
  8
2
 10
30.0000
 20
131.7613
 40
0.1000
 50
0.0000
  1
# 264
  0
POINT
  8
2
 10
84.0257
 20
331.3913
  0
TEXT
  8
2
 10
84.0257
 20
331.3913
 40
0.1000
 50
0.0000
  1
# 265
  0
POINT
  8
2
 10
267.6741
 20
331.3913
  0
TEXT
  8
2
 10
267.6741
 20
331.3913
 40
0.1000
 50
0.0000
  1
# 266
  0
POINT
  8
2
 10
267.6735
 20
37.6830
  0
TEXT
  8
2
 10
267.6735
 20
37.6830
 40
0.1000
 50
0.0000
  1
# 267
  0
POINT
  8
3
 10
257.9796
 20
37.3866
  0
POINT
  8
3
 10
204.6008
 20
35.5519
  0
POINT
  8
3
 10
151.5845
 20
33.2703
  0
POINT
  8
3
 10
114.8033
 20
31.4224
  0
POINT
  8
3
 10
102.8763
 20
30.7809
  0
POINT
  8
2
 10
88.7787
 20
30.0000
  0
POLYLINE
  8
8
 66
1
 70
1
  0
VERTEX
  8
8
 10
94.3619
 20
40.3270
  0
VERTEX
  8
8
 10
40.7388
 20
133.1625
  0
VERTEX
  8
8
 10
91.6791
 20
321.3913
  0
VERTEX
  8
8
 10
257.6741
 20
321.3913
  0
VERTEX
  8
8
 10
257.6743
 20
47.3817
  0
VERTEX
  8
8
 10
204.2976
 20
45.5476
  0
VERTEX
  8
8
 10
150.9389
 20
43.2510
  0
VERTEX
  8
8
 10
97.6013
 20
40.5069
  0
VERTEX
  8
8
 10
94.3619
 20
40.3270
  0
SEQEND
  0
POINT
  8
2
 10
94.3619
 20
40.3270
  0
TEXT
  8
2
 10
94.3619
 20
40.3270
 40
0.1000
 50
0.0000
  1
# 268
  0
POINT
  8
2
 10
40.7388
 20
133.1625
  0
TEXT
  8
2
 10
40.7388
 20
133.1625
 40
0.1000
 50
0.0000
  1
# 269
  0
POINT
  8
2
 10
91.6791
 20
321.3913
  0
TEXT
  8
2
 10
91.6791
 20
321.3913
 40
0.1000
 50
0.0000
  1
# 270
  0
POINT
  8
2
 10
257.6741
 20
321.3913
  0
TEXT
  8
2
 10
257.6741
 20
321.3913
 40
0.1000
 50
0.0000
  1
# 271
  0
POINT
  8
2
 10
257.6743
 20
47.3817
  0
TEXT
  8
2
 10
257.6743
 20
47.3817
 40
0.1000
 50
0.0000
  1
# 272
  0
POINT
  8
3
 10
204.2976
 20
45.5476
  0
POINT
  8
3
 10
150.9389
 20
43.2510
  0
POINT
  8
3
 10
97.6013
 20
40.5069
  0
POINT
  8
2
 10
94.3619
 20
40.3270
  0
LINE
  8
7
 10
206.4897
 20
249.1315
 11
206.4897
 21
89.9664
  0
POINT
  8
2
 10
206.4897
 20
249.1315
  0
TEXT
  8
2
 10
206.4897
 20
249.1315
 40
0.1000
 50
0.0000
  1
# 273
  0
POINT
  8
2
 10
206.4897
 20
89.9664
  0
TEXT
  8
2
 10
206.4897
 20
89.9664
 40
0.1000
 50
0.0000
  1
# 274
  0
LINE
  8
5
 10
206.4897
 20
249.1315
 11
206.4897
 21
89.9664
  0
LINE
  8
8
 10
84.5744
 20
142.0187
 11
127.6778
 21
301.2894
  0
POINT
  8
2
 10
84.5744
 20
142.0187
  0
TEXT
  8
2
 10
84.5744
 20
142.0187
 40
0.1000
 50
0.0000
  1
# 275
  0
POINT
  8
2
 10
127.6778
 20
301.2894
  0
TEXT
  8
2
 10
127.6778
 20
301.2894
 40
0.1000
 50
0.0000
  1
# 276
  0
LINE
  8
8
 10
45.9634
 20
152.4681
 11
84.5744
 21
142.0227
  0
POINT
  8
2
 10
45.9634
 20
152.4681
  0
TEXT
  8
2
 10
45.9634
 20
152.4681
 40
0.1000
 50
0.0000
  1
# 277
  0
POINT
  8
2
 10
84.5744
 20
142.0227
  0
TEXT
  8
2
 10
84.5744
 20
142.0227
 40
0.1000
 50
0.0000
  1
# 278
  0
LINE
  8
8
 10
89.0668
 20
311.7386
 11
127.6778
 21
301.2933
  0
POINT
  8
2
 10
89.0668
 20
311.7386
  0
TEXT
  8
2
 10
89.0668
 20
311.7386
 40
0.1000
 50
0.0000
  1
# 279
  0
POINT
  8
2
 10
127.6778
 20
301.2933
  0
TEXT
  8
2
 10
127.6778
 20
301.2933
 40
0.1000
 50
0.0000
  1
# 280
  0
ENDBLK
  0
BLOCK
  8
0
  2
BLK_10_M
 70
64
 10
0.0000
 20
0.0000
  0
TEXT
  8
1
 10
360.6844
 20
69.0993
 40
2.8000
 50
0.0000
  1
PIECE NAME: 10
  7
STANDARD
  0
TEXT
  8
1
 10
360.6844
 20
66.2993
 40
2.8000
 50
0.0000
  1
SIZE: M
  7
STANDARD
  0
TEXT
  8
1
 10
360.6844
 20
63.4993
 40
2.8000
 50
0.0000
  1
CATEGORY: 
  7
STANDARD
  0
TEXT
  8
1
 10
360.6844
 20
60.6993
 40
2.8000
 50
0.0000
  1
QUANTITY: 1
  7
STANDARD
  0
TEXT
  8
1
 10
360.6844
 20
57.8993
 40
2.8000
 50
0.0000
  1
ANNOTATION: 
  7
STANDARD
  0
TEXT
  8
1
 10
309.6101
 20
59.3187
 40
5.0000
 50
0.0000
  1
ANNOTATION: S/#5635-785
  7
STANDARD
  0
TEXT
  8
1
 10
329.6101
 20
52.3187
 40
5.0000
 50
0.0000
  1
ANNOTATION: <M>
  7
STANDARD
  0
TEXT
  8
1
 10
317.1101
 20
40.3188
 40
10.0000
 50
0.0000
  1
ANNOTATION: µÓ∆«æ»¥‹
  7
STANDARD
  0
POLYLINE
  8
1
 66
1
 70
1
  0
VERTEX
  8
1
 10
30.0000
 20
40.8951
  0
VERTEX
  8
1
 10
30.7097
 20
50.8490
  0
VERTEX
  8
1
 10
31.5663
 20
63.2735
  0
VERTEX
  8
1
 10
32.3568
 20
75.6960
  0
VERTEX
  8
1
 10
32.9767
 20
85.7985
  0
VERTEX
  8
1
 10
43.0700
 20
85.0568
  0
VERTEX
  8
1
 10
82.6930
 20
82.3169
  0
VERTEX
  8
1
 10
122.3397
 20
80.0339
  0
VERTEX
  8
1
 10
161.9864
 20
78.2236
  0
VERTEX
  8
1
 10
201.6510
 20
76.8408
  0
VERTEX
  8
1
 10
241.3081
 20
75.8479
  0
VERTEX
  8
1
 10
280.9732
 20
75.2415
  0
VERTEX
  8
1
 10
320.7922
 20
75.0023
  0
VERTEX
  8
1
 10
360.6857
 20
75.1387
  0
VERTEX
  8
1
 10
400.5748
 20
75.0023
  0
VERTEX
  8
1
 10
440.3917
 20
75.2415
  0
VERTEX
  8
1
 10
480.0888
 20
75.8488
  0
VERTEX
  8
1
 10
519.7778
 20
76.8427
  0
VERTEX
  8
1
 10
559.3862
 20
78.2233
  0
VERTEX
  8
1
 10
598.9767
 20
80.0313
  0
VERTEX
  8
1
 10
628.7344
 20
81.7014
  0
VERTEX
  8
1
 10
678.3002
 20
85.0569
  0
VERTEX
  8
1
 10
688.3923
 20
85.7985
  0
VERTEX
  8
1
 10
689.0118
 20
75.6953
  0
VERTEX
  8
1
 10
689.8028
 20
63.2666
  0
VERTEX
  8
1
 10
690.6590
 20
50.8485
  0
VERTEX
  8
1
 10
691.3688
 20
40.8954
  0
VERTEX
  8
1
 10
641.3941
 20
37.3984
  0
VERTEX
  8
1
 10
601.3477
 20
35.0935
  0
VERTEX
  8
1
 10
561.2289
 20
33.2617
  0
VERTEX
  8
1
 10
521.0922
 20
31.8619
  0
VERTEX
  8
1
 10
480.9429
 20
30.8572
  0
VERTEX
  8
1
 10
440.7855
 20
30.2432
  0
VERTEX
  8
1
 10
400.7023
 20
30.0014
  0
VERTEX
  8
1
 10
360.6772
 20
30.1375
  0
VERTEX
  8
1
 10
320.6392
 20
30.0018
  0
VERTEX
  8
1
 10
280.5289
 20
30.2438
  0
VERTEX
  8
1
 10
240.3946
 20
30.8577
  0
VERTEX
  8
1
 10
200.2684
 20
31.8620
  0
VERTEX
  8
1
 10
160.1689
 20
33.2602
  0
VERTEX
  8
1
 10
120.0874
 20
35.0902
  0
VERTEX
  8
1
 10
80.0077
 20
37.3969
  0
VERTEX
  8
1
 10
30.0000
 20
40.8951
  0
SEQEND
  0
POINT
  8
2
 10
30.0000
 20
40.8951
  0
TEXT
  8
2
 10
30.0000
 20
40.8951
 40
0.1000
 50
0.0000
  1
# 281
  0
POINT
  8
3
 10
30.7097
 20
50.8490
  0
POINT
  8
3
 10
31.5663
 20
63.2735
  0
POINT
  8
3
 10
32.3568
 20
75.6960
  0
POINT
  8
2
 10
32.9767
 20
85.7985
  0
TEXT
  8
2
 10
32.9767
 20
85.7985
 40
0.1000
 50
0.0000
  1
# 282
  0
POINT
  8
3
 10
43.0700
 20
85.0568
  0
POINT
  8
3
 10
82.6930
 20
82.3169
  0
POINT
  8
3
 10
122.3397
 20
80.0339
  0
POINT
  8
3
 10
161.9864
 20
78.2236
  0
POINT
  8
3
 10
201.6510
 20
76.8408
  0
POINT
  8
3
 10
241.3081
 20
75.8479
  0
POINT
  8
3
 10
280.9732
 20
75.2415
  0
POINT
  8
3
 10
320.7922
 20
75.0023
  0
POINT
  8
2
 10
360.6857
 20
75.1387
  0
TEXT
  8
2
 10
360.6857
 20
75.1387
 40
0.1000
 50
0.0000
  1
# 283
  0
POINT
  8
3
 10
400.5748
 20
75.0023
  0
POINT
  8
3
 10
440.3917
 20
75.2415
  0
POINT
  8
3
 10
480.0888
 20
75.8488
  0
POINT
  8
3
 10
519.7778
 20
76.8427
  0
POINT
  8
3
 10
559.3862
 20
78.2233
  0
POINT
  8
3
 10
598.9767
 20
80.0313
  0
POINT
  8
3
 10
628.7344
 20
81.7014
  0
POINT
  8
3
 10
678.3002
 20
85.0569
  0
POINT
  8
2
 10
688.3923
 20
85.7985
  0
TEXT
  8
2
 10
688.3923
 20
85.7985
 40
0.1000
 50
0.0000
  1
# 284
  0
POINT
  8
3
 10
689.0118
 20
75.6953
  0
POINT
  8
3
 10
689.8028
 20
63.2666
  0
POINT
  8
3
 10
690.6590
 20
50.8485
  0
POINT
  8
2
 10
691.3688
 20
40.8954
  0
TEXT
  8
2
 10
691.3688
 20
40.8954
 40
0.1000
 50
0.0000
  1
# 285
  0
POINT
  8
3
 10
641.3941
 20
37.3984
  0
POINT
  8
3
 10
601.3477
 20
35.0935
  0
POINT
  8
3
 10
561.2289
 20
33.2617
  0
POINT
  8
3
 10
521.0922
 20
31.8619
  0
POINT
  8
3
 10
480.9429
 20
30.8572
  0
POINT
  8
3
 10
440.7855
 20
30.2432
  0
POINT
  8
3
 10
400.7023
 20
30.0014
  0
POINT
  8
2
 10
360.6772
 20
30.1375
  0
TEXT
  8
2
 10
360.6772
 20
30.1375
 40
0.1000
 50
0.0000
  1
# 286
  0
POINT
  8
3
 10
320.6392
 20
30.0018
  0
POINT
  8
3
 10
280.5289
 20
30.2438
  0
POINT
  8
3
 10
240.3946
 20
30.8577
  0
POINT
  8
3
 10
200.2684
 20
31.8620
  0
POINT
  8
3
 10
160.1689
 20
33.2602
  0
POINT
  8
3
 10
120.0874
 20
35.0902
  0
POINT
  8
3
 10
80.0077
 20
37.3969
  0
POINT
  8
2
 10
30.0000
 20
40.8951
  0
POLYLINE
  8
8
 66
1
 70
1
  0
VERTEX
  8
8
 10
40.6844
 20
50.1376
  0
VERTEX
  8
8
 10
42.3373
 20
75.0836
  0
VERTEX
  8
8
 10
82.1712
 20
72.3297
  0
VERTEX
  8
8
 10
121.8508
 20
70.0458
  0
VERTEX
  8
8
 10
161.5707
 20
68.2321
  0
VERTEX
  8
8
 10
201.3085
 20
66.8466
  0
VERTEX
  8
8
 10
241.0867
 20
65.8508
  0
VERTEX
  8
8
 10
280.8730
 20
65.2422
  0
VERTEX
  8
8
 10
320.6901
 20
65.0021
  0
VERTEX
  8
8
 10
360.6843
 20
65.1384
  0
VERTEX
  8
8
 10
400.6857
 20
65.0021
  0
VERTEX
  8
8
 10
440.5100
 20
65.2423
  0
VERTEX
  8
8
 10
480.3171
 20
65.8517
  0
VERTEX
  8
8
 10
520.1161
 20
66.8483
  0
VERTEX
  8
8
 10
559.8110
 20
68.2324
  0
VERTEX
  8
8
 10
599.4880
 20
70.0443
  0
VERTEX
  8
8
 10
639.1824
 20
72.3291
  0
VERTEX
  8
8
 10
679.0305
 20
75.0833
  0
VERTEX
  8
8
 10
680.6843
 20
50.1376
  0
VERTEX
  8
8
 10
640.7462
 20
47.3778
  0
VERTEX
  8
8
 10
600.7843
 20
45.0778
  0
VERTEX
  8
8
 10
560.7957
 20
43.2523
  0
VERTEX
  8
8
 10
520.7891
 20
41.8573
  0
VERTEX
  8
8
 10
480.7711
 20
40.8557
  0
VERTEX
  8
8
 10
440.7449
 20
40.2434
  0
VERTEX
  8
8
 10
400.7166
 20
40.0018
  0
VERTEX
  8
8
 10
360.6843
 20
40.1376
  0
VERTEX
  8
8
 10
320.6520
 20
40.0018
  0
VERTEX
  8
8
 10
280.6237
 20
40.2434
  0
VERTEX
  8
8
 10
240.5975
 20
40.8557
  0
VERTEX
  8
8
 10
200.5795
 20
41.8573
  0
VERTEX
  8
8
 10
160.5729
 20
43.2523
  0
VERTEX
  8
8
 10
120.5843
 20
45.0778
  0
VERTEX
  8
8
 10
80.6224
 20
47.3778
  0
VERTEX
  8
8
 10
40.6844
 20
50.1376
  0
SEQEND
  0
POINT
  8
2
 10
40.6844
 20
50.1376
  0
TEXT
  8
2
 10
40.6844
 20
50.1376
 40
0.1000
 50
0.0000
  1
# 287
  0
POINT
  8
2
 10
42.3373
 20
75.0836
  0
TEXT
  8
2
 10
42.3373
 20
75.0836
 40
0.1000
 50
0.0000
  1
# 288
  0
POINT
  8
3
 10
82.1712
 20
72.3297
  0
POINT
  8
3
 10
121.8508
 20
70.0458
  0
POINT
  8
3
 10
161.5707
 20
68.2321
  0
POINT
  8
3
 10
201.3085
 20
66.8466
  0
POINT
  8
3
 10
241.0867
 20
65.8508
  0
POINT
  8
3
 10
280.8730
 20
65.2422
  0
POINT
  8
3
 10
320.6901
 20
65.0021
  0
POINT
  8
2
 10
360.6843
 20
65.1384
  0
TEXT
  8
2
 10
360.6843
 20
65.1384
 40
0.1000
 50
0.0000
  1
# 289
  0
POINT
  8
3
 10
400.6857
 20
65.0021
  0
POINT
  8
3
 10
440.5100
 20
65.2423
  0
POINT
  8
3
 10
480.3171
 20
65.8517
  0
POINT
  8
3
 10
520.1161
 20
66.8483
  0
POINT
  8
3
 10
559.8110
 20
68.2324
  0
POINT
  8
3
 10
599.4880
 20
70.0443
  0
POINT
  8
3
 10
639.1824
 20
72.3291
  0
POINT
  8
2
 10
679.0305
 20
75.0833
  0
TEXT
  8
2
 10
679.0305
 20
75.0833
 40
0.1000
 50
0.0000
  1
# 290
  0
POINT
  8
2
 10
680.6843
 20
50.1376
  0
TEXT
  8
2
 10
680.6843
 20
50.1376
 40
0.1000
 50
0.0000
  1
# 291
  0
POINT
  8
3
 10
640.7462
 20
47.3778
  0
POINT
  8
3
 10
600.7843
 20
45.0778
  0
POINT
  8
3
 10
560.7957
 20
43.2523
  0
POINT
  8
3
 10
520.7891
 20
41.8573
  0
POINT
  8
3
 10
480.7711
 20
40.8557
  0
POINT
  8
3
 10
440.7449
 20
40.2434
  0
POINT
  8
3
 10
400.7166
 20
40.0018
  0
POINT
  8
2
 10
360.6843
 20
40.1376
  0
TEXT
  8
2
 10
360.6843
 20
40.1376
 40
0.1000
 50
0.0000
  1
# 292
  0
POINT
  8
3
 10
320.6520
 20
40.0018
  0
POINT
  8
3
 10
280.6237
 20
40.2434
  0
POINT
  8
3
 10
240.5975
 20
40.8557
  0
POINT
  8
3
 10
200.5795
 20
41.8573
  0
POINT
  8
3
 10
160.5729
 20
43.2523
  0
POINT
  8
3
 10
120.5843
 20
45.0778
  0
POINT
  8
3
 10
80.6224
 20
47.3778
  0
POINT
  8
2
 10
40.6844
 20
50.1376
  0
POLYLINE
  8
8
 66
1
 70
1
  0
VERTEX
  8
8
 10
64.9931
 20
61.1720
  0
VERTEX
  8
8
 10
64.5242
 20
62.9221
  0
VERTEX
  8
8
 10
63.2431
 20
64.2030
  0
VERTEX
  8
8
 10
61.4931
 20
64.6719
  0
VERTEX
  8
8
 10
59.7430
 20
64.2030
  0
VERTEX
  8
8
 10
58.4620
 20
62.9221
  0
VERTEX
  8
8
 10
57.9931
 20
61.1720
  0
VERTEX
  8
8
 10
58.4620
 20
59.4220
  0
VERTEX
  8
8
 10
59.7430
 20
58.1410
  0
VERTEX
  8
8
 10
61.4931
 20
57.6721
  0
VERTEX
  8
8
 10
63.2431
 20
58.1410
  0
VERTEX
  8
8
 10
64.5242
 20
59.4220
  0
VERTEX
  8
8
 10
64.9931
 20
61.1720
  0
SEQEND
  0
POINT
  8
2
 10
64.9931
 20
61.1720
  0
TEXT
  8
2
 10
64.9931
 20
61.1720
 40
0.1000
 50
0.0000
  1
# 293
  0
POINT
  8
3
 10
64.5242
 20
62.9221
  0
POINT
  8
3
 10
63.2431
 20
64.2030
  0
POINT
  8
3
 10
61.4931
 20
64.6719
  0
POINT
  8
3
 10
59.7430
 20
64.2030
  0
POINT
  8
3
 10
58.4620
 20
62.9221
  0
POINT
  8
3
 10
57.9931
 20
61.1720
  0
POINT
  8
3
 10
58.4620
 20
59.4220
  0
POINT
  8
3
 10
59.7430
 20
58.1410
  0
POINT
  8
3
 10
61.4931
 20
57.6721
  0
POINT
  8
3
 10
63.2431
 20
58.1410
  0
POINT
  8
3
 10
64.5242
 20
59.4220
  0
POINT
  8
2
 10
64.9931
 20
61.1720
  0
POLYLINE
  8
8
 66
1
 70
1
  0
VERTEX
  8
8
 10
663.3755
 20
61.1720
  0
VERTEX
  8
8
 10
662.9066
 20
62.9221
  0
VERTEX
  8
8
 10
661.6256
 20
64.2032
  0
VERTEX
  8
8
 10
659.8755
 20
64.6721
  0
VERTEX
  8
8
 10
658.1256
 20
64.2032
  0
VERTEX
  8
8
 10
656.8445
 20
62.9221
  0
VERTEX
  8
8
 10
656.3755
 20
61.1720
  0
VERTEX
  8
8
 10
656.8445
 20
59.4220
  0
VERTEX
  8
8
 10
658.1256
 20
58.1409
  0
VERTEX
  8
8
 10
659.8755
 20
57.6720
  0
VERTEX
  8
8
 10
661.6256
 20
58.1409
  0
VERTEX
  8
8
 10
662.9066
 20
59.4220
  0
VERTEX
  8
8
 10
663.3755
 20
61.1720
  0
SEQEND
  0
POINT
  8
2
 10
663.3755
 20
61.1720
  0
TEXT
  8
2
 10
663.3755
 20
61.1720
 40
0.1000
 50
0.0000
  1
# 294
  0
POINT
  8
3
 10
662.9066
 20
62.9221
  0
POINT
  8
3
 10
661.6256
 20
64.2032
  0
POINT
  8
3
 10
659.8755
 20
64.6721
  0
POINT
  8
3
 10
658.1256
 20
64.2032
  0
POINT
  8
3
 10
656.8445
 20
62.9221
  0
POINT
  8
3
 10
656.3755
 20
61.1720
  0
POINT
  8
3
 10
656.8445
 20
59.4220
  0
POINT
  8
3
 10
658.1256
 20
58.1409
  0
POINT
  8
3
 10
659.8755
 20
57.6720
  0
POINT
  8
3
 10
661.6256
 20
58.1409
  0
POINT
  8
3
 10
662.9066
 20
59.4220
  0
POINT
  8
2
 10
663.3755
 20
61.1720
  0
LINE
  8
8
 10
360.6843
 20
65.1424
 11
360.6843
 21
40.1416
  0
POINT
  8
2
 10
360.6843
 20
65.1424
  0
TEXT
  8
2
 10
360.6843
 20
65.1424
 40
0.1000
 50
0.0000
  1
# 295
  0
POINT
  8
2
 10
360.6843
 20
40.1416
  0
TEXT
  8
2
 10
360.6843
 20
40.1416
 40
0.1000
 50
0.0000
  1
# 296
  0
POLYLINE
  8
8
 66
1
 70
1
  0
VERTEX
  8
8
 10
63.2431
 20
61.1720
  0
VERTEX
  8
8
 10
63.0087
 20
60.2969
  0
VERTEX
  8
8
 10
62.3681
 20
59.6565
  0
VERTEX
  8
8
 10
61.4931
 20
59.4220
  0
VERTEX
  8
8
 10
60.6181
 20
59.6565
  0
VERTEX
  8
8
 10
59.9775
 20
60.2969
  0
VERTEX
  8
8
 10
59.7430
 20
61.1720
  0
VERTEX
  8
8
 10
59.9775
 20
62.0471
  0
VERTEX
  8
8
 10
60.6181
 20
62.6875
  0
VERTEX
  8
8
 10
61.4931
 20
62.9221
  0
VERTEX
  8
8
 10
62.3681
 20
62.6875
  0
VERTEX
  8
8
 10
63.0087
 20
62.0471
  0
VERTEX
  8
8
 10
63.2431
 20
61.1720
  0
SEQEND
  0
POINT
  8
2
 10
63.2431
 20
61.1720
  0
TEXT
  8
2
 10
63.2431
 20
61.1720
 40
0.1000
 50
0.0000
  1
# 297
  0
POINT
  8
3
 10
63.0087
 20
60.2969
  0
POINT
  8
3
 10
62.3681
 20
59.6565
  0
POINT
  8
3
 10
61.4931
 20
59.4220
  0
POINT
  8
3
 10
60.6181
 20
59.6565
  0
POINT
  8
3
 10
59.9775
 20
60.2969
  0
POINT
  8
3
 10
59.7430
 20
61.1720
  0
POINT
  8
3
 10
59.9775
 20
62.0471
  0
POINT
  8
3
 10
60.6181
 20
62.6875
  0
POINT
  8
3
 10
61.4931
 20
62.9221
  0
POINT
  8
3
 10
62.3681
 20
62.6875
  0
POINT
  8
3
 10
63.0087
 20
62.0471
  0
POINT
  8
2
 10
63.2431
 20
61.1720
  0
POLYLINE
  8
8
 66
1
 70
1
  0
VERTEX
  8
8
 10
661.6256
 20
61.1720
  0
VERTEX
  8
8
 10
661.3911
 20
60.2971
  0
VERTEX
  8
8
 10
660.7505
 20
59.6565
  0
VERTEX
  8
8
 10
659.8755
 20
59.4220
  0
VERTEX
  8
8
 10
659.0005
 20
59.6565
  0
VERTEX
  8
8
 10
658.3600
 20
60.2971
  0
VERTEX
  8
8
 10
658.1255
 20
61.1720
  0
VERTEX
  8
8
 10
658.3600
 20
62.0470
  0
VERTEX
  8
8
 10
659.0005
 20
62.6875
  0
VERTEX
  8
8
 10
659.8755
 20
62.9221
  0
VERTEX
  8
8
 10
660.7505
 20
62.6875
  0
VERTEX
  8
8
 10
661.3911
 20
62.0470
  0
VERTEX
  8
8
 10
661.6256
 20
61.1720
  0
SEQEND
  0
POINT
  8
2
 10
661.6256
 20
61.1720
  0
TEXT
  8
2
 10
661.6256
 20
61.1720
 40
0.1000
 50
0.0000
  1
# 298
  0
POINT
  8
3
 10
661.3911
 20
60.2971
  0
POINT
  8
3
 10
660.7505
 20
59.6565
  0
POINT
  8
3
 10
659.8755
 20
59.4220
  0
POINT
  8
3
 10
659.0005
 20
59.6565
  0
POINT
  8
3
 10
658.3600
 20
60.2971
  0
POINT
  8
3
 10
658.1255
 20
61.1720
  0
POINT
  8
3
 10
658.3600
 20
62.0470
  0
POINT
  8
3
 10
659.0005
 20
62.6875
  0
POINT
  8
3
 10
659.8755
 20
62.9221
  0
POINT
  8
3
 10
660.7505
 20
62.6875
  0
POINT
  8
3
 10
661.3911
 20
62.0470
  0
POINT
  8
2
 10
661.6256
 20
61.1720
  0
ENDBLK
  0
BLOCK
  8
0
  2
BLK_11_M
 70
64
 10
0.0000
 20
0.0000
  0
TEXT
  8
1
 10
102.4278
 20
143.5497
 40
2.8000
 50
0.0000
  1
PIECE NAME: 11
  7
STANDARD
  0
TEXT
  8
1
 10
102.4278
 20
140.7497
 40
2.8000
 50
0.0000
  1
SIZE: M
  7
STANDARD
  0
TEXT
  8
1
 10
102.4278
 20
137.9497
 40
2.8000
 50
0.0000
  1
CATEGORY: 
  7
STANDARD
  0
TEXT
  8
1
 10
102.4278
 20
135.1497
 40
2.8000
 50
0.0000
  1
QUANTITY: 1
  7
STANDARD
  0
TEXT
  8
1
 10
102.4278
 20
132.3497
 40
2.8000
 50
0.0000
  1
ANNOTATION: 
  7
STANDARD
  0
TEXT
  8
1
 10
78.0360
 20
143.7824
 40
5.0000
 50
0.0000
  1
ANNOTATION: S/#5635-785
  7
STANDARD
  0
TEXT
  8
1
 10
98.0360
 20
136.7825
 40
5.0000
 50
0.0000
  1
ANNOTATION: <M>
  7
STANDARD
  0
TEXT
  8
1
 10
90.5360
 20
124.7825
 40
10.0000
 50
0.0000
  1
ANNOTATION: ¡÷∏”¥œ
  7
STANDARD
  0
POLYLINE
  8
1
 66
1
 70
1
  0
VERTEX
  8
1
 10
30.0000
 20
56.1234
  0
VERTEX
  8
1
 10
78.3276
 20
234.6994
  0
VERTEX
  8
1
 10
126.5916
 20
221.6377
  0
VERTEX
  8
1
 10
174.8557
 20
208.5760
  0
VERTEX
  8
1
 10
161.7938
 20
160.3123
  0
VERTEX
  8
1
 10
126.5277
 20
29.9999
  0
VERTEX
  8
1
 10
78.2639
 20
43.0618
  0
VERTEX
  8
1
 10
30.0000
 20
56.1234
  0
SEQEND
  0
POINT
  8
2
 10
30.0000
 20
56.1234
  0
TEXT
  8
2
 10
30.0000
 20
56.1234
 40
0.1000
 50
0.0000
  1
# 299
  0
POINT
  8
2
 10
78.3276
 20
234.6994
  0
TEXT
  8
2
 10
78.3276
 20
234.6994
 40
0.1000
 50
0.0000
  1
# 300
  0
POINT
  8
2
 10
126.5916
 20
221.6377
  0
TEXT
  8
2
 10
126.5916
 20
221.6377
 40
0.1000
 50
0.0000
  1
# 301
  0
POINT
  8
2
 10
174.8557
 20
208.5760
  0
TEXT
  8
2
 10
174.8557
 20
208.5760
 40
0.1000
 50
0.0000
  1
# 302
  0
POINT
  8
4
 10
161.7938
 20
160.3123
 30
19.9998
 39
0.0000
 50
164.8566
  0
TEXT
  8
4
 10
161.7938
 20
160.3123
 40
0.1000
 50
0.0000
  1
# 303
  0
POINT
  8
2
 10
161.7938
 20
160.3123
  0
TEXT
  8
2
 10
161.7938
 20
160.3123
 40
0.1000
 50
0.0000
  1
# 303
  0
POINT
  8
2
 10
126.5277
 20
29.9999
  0
TEXT
  8
2
 10
126.5277
 20
29.9999
 40
0.1000
 50
0.0000
  1
# 304
  0
POINT
  8
2
 10
78.2639
 20
43.0618
  0
TEXT
  8
2
 10
78.2639
 20
43.0618
 40
0.1000
 50
0.0000
  1
# 305
  0
POINT
  8
2
 10
30.0000
 20
56.1234
  0
POLYLINE
  8
8
 66
1
 70
1
  0
VERTEX
  8
8
 10
42.2650
 20
63.1638
  0
VERTEX
  8
8
 10
85.3682
 20
222.4343
  0
VERTEX
  8
8
 10
123.9795
 20
211.9849
  0
VERTEX
  8
8
 10
162.5906
 20
201.5356
  0
VERTEX
  8
8
 10
152.1414
 20
162.9246
  0
VERTEX
  8
8
 10
119.4872
 20
42.2651
  0
VERTEX
  8
8
 10
80.8760
 20
52.7145
  0
VERTEX
  8
8
 10
42.2650
 20
63.1638
  0
SEQEND
  0
POINT
  8
2
 10
42.2650
 20
63.1638
  0
TEXT
  8
2
 10
42.2650
 20
63.1638
 40
0.1000
 50
0.0000
  1
# 306
  0
POINT
  8
2
 10
85.3682
 20
222.4343
  0
TEXT
  8
2
 10
85.3682
 20
222.4343
 40
0.1000
 50
0.0000
  1
# 307
  0
POINT
  8
2
 10
123.9795
 20
211.9849
  0
TEXT
  8
2
 10
123.9795
 20
211.9849
 40
0.1000
 50
0.0000
  1
# 308
  0
POINT
  8
2
 10
162.5906
 20
201.5356
  0
TEXT
  8
2
 10
162.5906
 20
201.5356
 40
0.1000
 50
0.0000
  1
# 309
  0
POINT
  8
3
 10
152.1414
 20
162.9246
  0
POINT
  8
2
 10
119.4872
 20
42.2651
  0
TEXT
  8
2
 10
119.4872
 20
42.2651
 40
0.1000
 50
0.0000
  1
# 310
  0
POINT
  8
2
 10
80.8760
 20
52.7145
  0
TEXT
  8
2
 10
80.8760
 20
52.7145
 40
0.1000
 50
0.0000
  1
# 311
  0
POINT
  8
2
 10
42.2650
 20
63.1638
  0
LINE
  8
7
 10
105.9407
 20
180.1204
 11
105.9407
 21
96.6135
  0
POINT
  8
2
 10
105.9407
 20
180.1204
  0
TEXT
  8
2
 10
105.9407
 20
180.1204
 40
0.1000
 50
0.0000
  1
# 312
  0
POINT
  8
2
 10
105.9407
 20
96.6135
  0
TEXT
  8
2
 10
105.9407
 20
96.6135
 40
0.1000
 50
0.0000
  1
# 313
  0
LINE
  8
5
 10
105.9407
 20
180.1204
 11
105.9407
 21
96.6135
  0
LINE
  8
8
 10
80.8762
 20
52.7184
 11
123.9795
 21
211.9889
  0
POINT
  8
2
 10
80.8762
 20
52.7184
  0
TEXT
  8
2
 10
80.8762
 20
52.7184
 40
0.1000
 50
0.0000
  1
# 314
  0
POINT
  8
2
 10
123.9795
 20
211.9889
  0
TEXT
  8
2
 10
123.9795
 20
211.9889
 40
0.1000
 50
0.0000
  1
# 315
  0
POLYLINE
  8
8
 66
1
 70
0
  0
VERTEX
  8
8
 10
93.5718
 20
99.6258
  0
VERTEX
  8
8
 10
89.0953
 20
102.2252
  0
VERTEX
  8
8
 10
86.5184
 20
106.7146
  0
VERTEX
  8
8
 10
86.5314
 20
111.8909
  0
VERTEX
  8
8
 10
89.1307
 20
116.3673
  0
VERTEX
  8
8
 10
93.6200
 20
118.9442
  0
VERTEX
  8
8
 10
98.7964
 20
118.9314
  0
SEQEND
  0
POINT
  8
2
 10
93.5718
 20
99.6258
  0
TEXT
  8
2
 10
93.5718
 20
99.6258
 40
0.1000
 50
0.0000
  1
# 316
  0
POINT
  8
3
 10
89.0953
 20
102.2252
  0
POINT
  8
3
 10
86.5184
 20
106.7146
  0
POINT
  8
3
 10
86.5314
 20
111.8909
  0
POINT
  8
3
 10
89.1307
 20
116.3673
  0
POINT
  8
3
 10
93.6200
 20
118.9442
  0
POINT
  8
2
 10
98.7964
 20
118.9314
  0
TEXT
  8
2
 10
98.7964
 20
118.9314
 40
0.1000
 50
0.0000
  1
# 317
  0
POLYLINE
  8
8
 66
1
 70
0
  0
VERTEX
  8
8
 10
94.8779
 20
104.4522
  0
VERTEX
  8
8
 10
92.6398
 20
105.7519
  0
VERTEX
  8
8
 10
91.3512
 20
107.9965
  0
VERTEX
  8
8
 10
91.3577
 20
110.5847
  0
VERTEX
  8
8
 10
92.6573
 20
112.8230
  0
VERTEX
  8
8
 10
94.9020
 20
114.1114
  0
VERTEX
  8
8
 10
97.4902
 20
114.1049
  0
SEQEND
  0
POINT
  8
2
 10
94.8779
 20
104.4522
  0
TEXT
  8
2
 10
94.8779
 20
104.4522
 40
0.1000
 50
0.0000
  1
# 318
  0
POINT
  8
3
 10
92.6398
 20
105.7519
  0
POINT
  8
3
 10
91.3512
 20
107.9965
  0
POINT
  8
3
 10
91.3577
 20
110.5847
  0
POINT
  8
3
 10
92.6573
 20
112.8230
  0
POINT
  8
3
 10
94.9020
 20
114.1114
  0
POINT
  8
2
 10
97.4902
 20
114.1049
  0
TEXT
  8
2
 10
97.4902
 20
114.1049
 40
0.1000
 50
0.0000
  1
# 319
  0
ENDBLK
  0
BLOCK
  8
0
  2
BLK_12_M
 70
64
 10
0.0000
 20
0.0000
  0
TEXT
  8
1
 10
175.3013
 20
72.2292
 40
2.8000
 50
0.0000
  1
PIECE NAME: 12
  7
STANDARD
  0
TEXT
  8
1
 10
175.3013
 20
69.4292
 40
2.8000
 50
0.0000
  1
SIZE: M
  7
STANDARD
  0
TEXT
  8
1
 10
175.3013
 20
66.6292
 40
2.8000
 50
0.0000
  1
CATEGORY: 
  7
STANDARD
  0
TEXT
  8
1
 10
175.3013
 20
63.8292
 40
2.8000
 50
0.0000
  1
QUANTITY: 1
  7
STANDARD
  0
TEXT
  8
1
 10
175.3013
 20
61.0292
 40
2.8000
 50
0.0000
  1
ANNOTATION: 
  7
STANDARD
  0
TEXT
  8
1
 10
154.8811
 20
66.0313
 40
3.2000
 50
0.0000
  1
ANNOTATION: S/#5635-785
  7
STANDARD
  0
TEXT
  8
1
 10
167.6811
 20
61.5514
 40
3.2000
 50
0.0000
  1
ANNOTATION: <M>
  7
STANDARD
  0
TEXT
  8
1
 10
159.6810
 20
53.8715
 40
6.4000
 50
0.0000
  1
ANNOTATION: æ’∆«æ»¥‹
  7
STANDARD
  0
POLYLINE
  8
1
 66
1
 70
1
  0
VERTEX
  8
1
 10
30.0000
 20
30.0000
  0
VERTEX
  8
1
 10
30.6867
 20
41.4568
  0
VERTEX
  8
1
 10
31.4144
 20
54.0083
  0
VERTEX
  8
1
 10
32.0856
 20
66.5576
  0
VERTEX
  8
1
 10
32.5376
 20
75.3339
  0
VERTEX
  8
1
 10
41.2995
 20
76.0132
  0
VERTEX
  8
1
 10
91.4596
 20
79.7281
  0
VERTEX
  8
1
 10
145.0195
 20
83.2851
  0
VERTEX
  8
1
 10
198.5970
 20
86.4320
  0
VERTEX
  8
1
 10
252.1256
 20
89.1862
  0
VERTEX
  8
1
 10
289.4672
 20
90.8417
  0
VERTEX
  8
1
 10
301.9295
 20
91.3452
  0
VERTEX
  8
1
 10
310.2343
 20
91.6667
  0
VERTEX
  8
1
 10
320.6100
 20
92.0584
  0
VERTEX
  8
1
 10
320.6095
 20
47.0285
  0
VERTEX
  8
1
 10
302.9947
 20
46.3524
  0
VERTEX
  8
1
 10
291.0074
 20
45.8672
  0
VERTEX
  8
1
 10
254.2671
 20
44.2372
  0
VERTEX
  8
1
 10
201.0812
 20
41.5005
  0
VERTEX
  8
1
 10
147.8400
 20
38.3736
  0
VERTEX
  8
1
 10
94.6268
 20
34.8396
  0
VERTEX
  8
1
 10
41.4436
 20
30.8885
  0
VERTEX
  8
1
 10
30.0000
 20
30.0000
  0
SEQEND
  0
POINT
  8
2
 10
30.0000
 20
30.0000
  0
TEXT
  8
2
 10
30.0000
 20
30.0000
 40
0.1000
 50
0.0000
  1
# 320
  0
POINT
  8
3
 10
30.6867
 20
41.4568
  0
POINT
  8
3
 10
31.4144
 20
54.0083
  0
POINT
  8
3
 10
32.0856
 20
66.5576
  0
POINT
  8
2
 10
32.5376
 20
75.3339
  0
TEXT
  8
2
 10
32.5376
 20
75.3339
 40
0.1000
 50
0.0000
  1
# 321
  0
POINT
  8
3
 10
41.2995
 20
76.0132
  0
POINT
  8
3
 10
91.4596
 20
79.7281
  0
POINT
  8
3
 10
145.0195
 20
83.2851
  0
POINT
  8
3
 10
198.5970
 20
86.4320
  0
POINT
  8
3
 10
252.1256
 20
89.1862
  0
POINT
  8
3
 10
289.4672
 20
90.8417
  0
POINT
  8
3
 10
301.9295
 20
91.3452
  0
POINT
  8
3
 10
310.2343
 20
91.6667
  0
POINT
  8
2
 10
320.6100
 20
92.0584
  0
TEXT
  8
2
 10
320.6100
 20
92.0584
 40
0.1000
 50
0.0000
  1
# 322
  0
POINT
  8
2
 10
320.6095
 20
47.0285
  0
TEXT
  8
2
 10
320.6095
 20
47.0285
 40
0.1000
 50
0.0000
  1
# 323
  0
POINT
  8
3
 10
302.9947
 20
46.3524
  0
POINT
  8
3
 10
291.0074
 20
45.8672
  0
POINT
  8
3
 10
254.2671
 20
44.2372
  0
POINT
  8
3
 10
201.0812
 20
41.5005
  0
POINT
  8
3
 10
147.8400
 20
38.3736
  0
POINT
  8
3
 10
94.6268
 20
34.8396
  0
POINT
  8
3
 10
41.4436
 20
30.8885
  0
POINT
  8
2
 10
30.0000
 20
30.0000
  0
POLYLINE
  8
8
 66
1
 70
1
  0
VERTEX
  8
8
 10
40.6688
 20
40.8585
  0
VERTEX
  8
8
 10
42.0728
 20
66.0429
  0
VERTEX
  8
8
 10
92.1639
 20
69.7530
  0
VERTEX
  8
8
 10
145.6489
 20
73.3049
  0
VERTEX
  8
8
 10
199.1510
 20
76.4473
  0
VERTEX
  8
8
 10
252.5801
 20
79.1966
  0
VERTEX
  8
8
 10
306.4025
 20
81.5132
  0
VERTEX
  8
8
 10
310.6100
 20
81.6739
  0
VERTEX
  8
8
 10
310.6096
 20
56.6556
  0
VERTEX
  8
8
 10
307.2336
 20
56.5266
  0
VERTEX
  8
8
 10
253.8748
 20
54.2299
  0
VERTEX
  8
8
 10
200.5372
 20
51.4857
  0
VERTEX
  8
8
 10
147.2209
 20
48.3543
  0
VERTEX
  8
8
 10
93.9301
 20
44.8154
  0
VERTEX
  8
8
 10
40.6688
 20
40.8585
  0
SEQEND
  0
POINT
  8
2
 10
40.6688
 20
40.8585
  0
TEXT
  8
2
 10
40.6688
 20
40.8585
 40
0.1000
 50
0.0000
  1
# 324
  0
POINT
  8
2
 10
42.0728
 20
66.0429
  0
TEXT
  8
2
 10
42.0728
 20
66.0429
 40
0.1000
 50
0.0000
  1
# 325
  0
POINT
  8
3
 10
92.1639
 20
69.7530
  0
POINT
  8
3
 10
145.6489
 20
73.3049
  0
POINT
  8
3
 10
199.1510
 20
76.4473
  0
POINT
  8
3
 10
252.5801
 20
79.1966
  0
POINT
  8
3
 10
306.4025
 20
81.5132
  0
POINT
  8
2
 10
310.6100
 20
81.6739
  0
TEXT
  8
2
 10
310.6100
 20
81.6739
 40
0.1000
 50
0.0000
  1
# 326
  0
POINT
  8
2
 10
310.6096
 20
56.6556
  0
TEXT
  8
2
 10
310.6096
 20
56.6556
 40
0.1000
 50
0.0000
  1
# 327
  0
POINT
  8
3
 10
307.2336
 20
56.5266
  0
POINT
  8
3
 10
253.8748
 20
54.2299
  0
POINT
  8
3
 10
200.5372
 20
51.4857
  0
POINT
  8
3
 10
147.2209
 20
48.3543
  0
POINT
  8
3
 10
93.9301
 20
44.8154
  0
POINT
  8
2
 10
40.6688
 20
40.8585
  0
LINE
  8
7
 10
267.5467
 20
78.3153
 11
267.5467
 21
58.7929
  0
POINT
  8
2
 10
267.5467
 20
78.3153
  0
TEXT
  8
2
 10
267.5467
 20
78.3153
 40
0.1000
 50
0.0000
  1
# 328
  0
POINT
  8
2
 10
267.5467
 20
58.7929
  0
TEXT
  8
2
 10
267.5467
 20
58.7929
 40
0.1000
 50
0.0000
  1
# 329
  0
LINE
  8
5
 10
267.5467
 20
78.3153
 11
267.5467
 21
58.7929
  0
POLYLINE
  8
8
 66
1
 70
1
  0
VERTEX
  8
8
 10
65.0141
 20
54.9881
  0
VERTEX
  8
8
 10
64.5452
 20
56.7381
  0
VERTEX
  8
8
 10
63.2641
 20
58.0193
  0
VERTEX
  8
8
 10
61.5141
 20
58.4882
  0
VERTEX
  8
8
 10
59.7641
 20
58.0193
  0
VERTEX
  8
8
 10
58.4830
 20
56.7381
  0
VERTEX
  8
8
 10
58.0141
 20
54.9881
  0
VERTEX
  8
8
 10
58.4830
 20
53.2381
  0
VERTEX
  8
8
 10
59.7641
 20
51.9569
  0
VERTEX
  8
8
 10
61.5141
 20
51.4880
  0
VERTEX
  8
8
 10
63.2641
 20
51.9569
  0
VERTEX
  8
8
 10
64.5452
 20
53.2381
  0
VERTEX
  8
8
 10
65.0141
 20
54.9881
  0
SEQEND
  0
POINT
  8
2
 10
65.0141
 20
54.9881
  0
TEXT
  8
2
 10
65.0141
 20
54.9881
 40
0.1000
 50
0.0000
  1
# 330
  0
POINT
  8
3
 10
64.5452
 20
56.7381
  0
POINT
  8
3
 10
63.2641
 20
58.0193
  0
POINT
  8
3
 10
61.5141
 20
58.4882
  0
POINT
  8
3
 10
59.7641
 20
58.0193
  0
POINT
  8
3
 10
58.4830
 20
56.7381
  0
POINT
  8
3
 10
58.0141
 20
54.9881
  0
POINT
  8
3
 10
58.4830
 20
53.2381
  0
POINT
  8
3
 10
59.7641
 20
51.9569
  0
POINT
  8
3
 10
61.5141
 20
51.4880
  0
POINT
  8
3
 10
63.2641
 20
51.9569
  0
POINT
  8
3
 10
64.5452
 20
53.2381
  0
POINT
  8
2
 10
65.0141
 20
54.9881
  0
POLYLINE
  8
8
 66
1
 70
1
  0
VERTEX
  8
8
 10
63.2641
 20
54.9881
  0
VERTEX
  8
8
 10
63.0296
 20
54.1132
  0
VERTEX
  8
8
 10
62.3891
 20
53.4726
  0
VERTEX
  8
8
 10
61.5141
 20
53.2381
  0
VERTEX
  8
8
 10
60.6391
 20
53.4726
  0
VERTEX
  8
8
 10
59.9986
 20
54.1132
  0
VERTEX
  8
8
 10
59.7641
 20
54.9881
  0
VERTEX
  8
8
 10
59.9986
 20
55.8630
  0
VERTEX
  8
8
 10
60.6391
 20
56.5036
  0
VERTEX
  8
8
 10
61.5141
 20
56.7381
  0
VERTEX
  8
8
 10
62.3891
 20
56.5036
  0
VERTEX
  8
8
 10
63.0296
 20
55.8630
  0
VERTEX
  8
8
 10
63.2641
 20
54.9881
  0
SEQEND
  0
POINT
  8
2
 10
63.2641
 20
54.9881
  0
TEXT
  8
2
 10
63.2641
 20
54.9881
 40
0.1000
 50
0.0000
  1
# 331
  0
POINT
  8
3
 10
63.0296
 20
54.1132
  0
POINT
  8
3
 10
62.3891
 20
53.4726
  0
POINT
  8
3
 10
61.5141
 20
53.2381
  0
POINT
  8
3
 10
60.6391
 20
53.4726
  0
POINT
  8
3
 10
59.9986
 20
54.1132
  0
POINT
  8
3
 10
59.7641
 20
54.9881
  0
POINT
  8
3
 10
59.9986
 20
55.8630
  0
POINT
  8
3
 10
60.6391
 20
56.5036
  0
POINT
  8
3
 10
61.5141
 20
56.7381
  0
POINT
  8
3
 10
62.3891
 20
56.5036
  0
POINT
  8
3
 10
63.0296
 20
55.8630
  0
POINT
  8
2
 10
63.2641
 20
54.9881
  0
ENDBLK
  0
BLOCK
  8
0
  2
BLK_13_M
 70
64
 10
0.0000
 20
0.0000
  0
TEXT
  8
1
 10
202.8694
 20
59.2000
 40
2.8000
 50
0.0000
  1
PIECE NAME: 13
  7
STANDARD
  0
TEXT
  8
1
 10
202.8694
 20
56.4000
 40
2.8000
 50
0.0000
  1
SIZE: M
  7
STANDARD
  0
TEXT
  8
1
 10
202.8694
 20
53.6000
 40
2.8000
 50
0.0000
  1
CATEGORY: 
  7
STANDARD
  0
TEXT
  8
1
 10
202.8694
 20
50.8000
 40
2.8000
 50
0.0000
  1
QUANTITY: 1
  7
STANDARD
  0
TEXT
  8
1
 10
202.8694
 20
48.0000
 40
2.8000
 50
0.0000
  1
ANNOTATION: 
  7
STANDARD
  0
TEXT
  8
1
 10
145.3932
 20
50.2925
 40
5.0000
 50
0.0000
  1
ANNOTATION: S/#5635-785
  7
STANDARD
  0
TEXT
  8
1
 10
165.3932
 20
43.2925
 40
5.0000
 50
0.0000
  1
ANNOTATION: <M>
  7
STANDARD
  0
TEXT
  8
1
 10
152.8932
 20
31.2926
 40
10.0000
 50
0.0000
  1
ANNOTATION: º“∏≈æ»¥‹
  7
STANDARD
  0
POLYLINE
  8
1
 66
1
 70
1
  0
VERTEX
  8
1
 10
37.8557
 20
30.0000
  0
VERTEX
  8
1
 10
35.3909
 20
41.3815
  0
VERTEX
  8
1
 10
32.6642
 20
53.8596
  0
VERTEX
  8
1
 10
30.0000
 20
66.0002
  0
VERTEX
  8
1
 10
375.7388
 20
65.9998
  0
VERTEX
  8
1
 10
370.3476
 20
41.3782
  0
VERTEX
  8
1
 10
367.8839
 20
30.0002
  0
VERTEX
  8
1
 10
37.8557
 20
30.0000
  0
SEQEND
  0
POINT
  8
2
 10
37.8557
 20
30.0000
  0
TEXT
  8
2
 10
37.8557
 20
30.0000
 40
0.1000
 50
0.0000
  1
# 332
  0
POINT
  8
3
 10
35.3909
 20
41.3815
  0
POINT
  8
3
 10
32.6642
 20
53.8596
  0
POINT
  8
2
 10
30.0000
 20
66.0002
  0
TEXT
  8
2
 10
30.0000
 20
66.0002
 40
0.1000
 50
0.0000
  1
# 333
  0
POINT
  8
2
 10
375.7388
 20
65.9998
  0
TEXT
  8
2
 10
375.7388
 20
65.9998
 40
0.1000
 50
0.0000
  1
# 334
  0
POINT
  8
3
 10
370.3476
 20
41.3782
  0
POINT
  8
2
 10
367.8839
 20
30.0002
  0
TEXT
  8
2
 10
367.8839
 20
30.0002
 40
0.1000
 50
0.0000
  1
# 335
  0
POINT
  8
2
 10
37.8557
 20
30.0000
  0
POLYLINE
  8
8
 66
1
 70
1
  0
VERTEX
  8
8
 10
47.8691
 20
31.0031
  0
VERTEX
  8
8
 10
42.4324
 20
56.0002
  0
VERTEX
  8
8
 10
363.3075
 20
56.0022
  0
VERTEX
  8
8
 10
357.8697
 20
31.0002
  0
VERTEX
  8
8
 10
47.8691
 20
31.0031
  0
SEQEND
  0
POINT
  8
2
 10
47.8691
 20
31.0031
  0
TEXT
  8
2
 10
47.8691
 20
31.0031
 40
0.1000
 50
0.0000
  1
# 336
  0
POINT
  8
2
 10
42.4324
 20
56.0002
  0
TEXT
  8
2
 10
42.4324
 20
56.0002
 40
0.1000
 50
0.0000
  1
# 337
  0
POINT
  8
2
 10
363.3075
 20
56.0022
  0
TEXT
  8
2
 10
363.3075
 20
56.0022
 40
0.1000
 50
0.0000
  1
# 338
  0
POINT
  8
2
 10
357.8697
 20
31.0002
  0
TEXT
  8
2
 10
357.8697
 20
31.0002
 40
0.1000
 50
0.0000
  1
# 339
  0
POINT
  8
2
 10
47.8691
 20
31.0031
  0
LINE
  8
7
 10
210.5386
 20
51.5590
 11
210.5386
 21
32.9506
  0
POINT
  8
2
 10
210.5386
 20
51.5590
  0
TEXT
  8
2
 10
210.5386
 20
51.5590
 40
0.1000
 50
0.0000
  1
# 340
  0
POINT
  8
2
 10
210.5386
 20
32.9506
  0
TEXT
  8
2
 10
210.5386
 20
32.9506
 40
0.1000
 50
0.0000
  1
# 341
  0
LINE
  8
5
 10
210.5386
 20
51.5590
 11
210.5386
 21
32.9506
  0
LINE
  8
8
 10
202.8697
 20
56.0002
 11
202.8697
 21
31.0002
  0
POINT
  8
2
 10
202.8697
 20
56.0002
  0
TEXT
  8
2
 10
202.8697
 20
56.0002
 40
0.1000
 50
0.0000
  1
# 342
  0
POINT
  8
2
 10
202.8697
 20
31.0002
  0
TEXT
  8
2
 10
202.8697
 20
31.0002
 40
0.1000
 50
0.0000
  1
# 343
  0
LINE
  8
8
 10
47.8697
 20
41.0002
 11
357.8697
 21
41.0002
  0
POINT
  8
2
 10
47.8697
 20
41.0002
  0
TEXT
  8
2
 10
47.8697
 20
41.0002
 40
0.1000
 50
0.0000
  1
# 344
  0
POINT
  8
2
 10
357.8697
 20
41.0002
  0
TEXT
  8
2
 10
357.8697
 20
41.0002
 40
0.1000
 50
0.0000
  1
# 345
  0
ENDBLK
  0
ENDSEC
  0
SECTION
  2
ENTITIES
  0
TEXT
  8
1
 10
0.0000
 20
0.0000
 40
2.8000
 50
0.0000
  1
STYLE NAME: 5635-785
  7
STANDARD
  0
TEXT
  8
1
 10
0.0000
 20
3.0000
 40
2.8000
 50
0.0000
  1
CREATION DATE: 2025/11/06
  7
STANDARD
  0
TEXT
  8
1
 10
0.0000
 20
6.0000
 40
2.8000
 50
0.0000
  1
CREATION TIME: 17:46
  7
STANDARD
  0
TEXT
  8
1
 10
0.0000
 20
9.0000
 40
2.8000
 50
0.0000
  1
AUTHOR: Yuka And Alpha Co., Ltd.
  7
STANDARD
  0
TEXT
  8
1
 10
0.0000
 20
12.0000
 40
2.8000
 50
0.0000
  1
PRODUCT: SuperALPHA_Plus
  7
STANDARD
  0
TEXT
  8
1
 10
0.0000
 20
15.0000
 40
2.8000
 50
0.0000
  1
VERSION: 2.20
  7
STANDARD
  0
TEXT
  8
1
 10
0.0000
 20
18.0000
 40
2.8000
 50
0.0000
  1
SAMPLE SIZE: M
  7
STANDARD
  0
TEXT
  8
1
 10
0.0000
 20
20.9999
 40
2.8000
 50
0.0000
  1
GRADE RULE TABLE:
  7
STANDARD
  0
TEXT
  8
1
 10
0.0000
 20
23.9999
 40
2.8000
 50
0.0000
  1
UNITS: METRIC
  7
STANDARD
  0
TEXT
  8
1
 10
0.0000
 20
26.9999
 40
2.8000
 50
0.0000
  1
TOLERANCE: 0.001
  7
STANDARD
  0
INSERT
  8
1
  2
BLK_1_M
 50
0.0000
 10
0.0000
 20
0.0000
  0
INSERT
  8
1
  2
BLK_2_M
 50
0.0000
 10
0.0000
 20
0.0000
  0
INSERT
  8
1
  2
BLK_3_M
 50
0.0000
 10
0.0000
 20
0.0000
  0
INSERT
  8
1
  2
BLK_4_M
 50
0.0000
 10
0.0000
 20
0.0000
  0
INSERT
  8
1
  2
BLK_5_M
 50
0.0000
 10
0.0000
 20
0.0000
  0
INSERT
  8
1
  2
BLK_6_M
 50
0.0000
 10
0.0000
 20
0.0000
  0
INSERT
  8
1
  2
BLK_7_M
 50
0.0000
 10
0.0000
 20
0.0000
  0
INSERT
  8
1
  2
BLK_8_M
 50
0.0000
 10
0.0000
 20
0.0000
  0
INSERT
  8
1
  2
BLK_9_M
 50
0.0000
 10
0.0000
 20
0.0000
  0
INSERT
  8
1
  2
BLK_10_M
 50
0.0000
 10
0.0000
 20
0.0000
  0
INSERT
  8
1
  2
BLK_11_M
 50
0.0000
 10
0.0000
 20
0.0000
  0
INSERT
  8
1
  2
BLK_12_M
 50
0.0000
 10
0.0000
 20
0.0000
  0
INSERT
  8
1
  2
BLK_13_M
 50
0.0000
 10
0.0000
 20
0.0000
  0
ENDSEC
  0
EOF
